<svg width="218" height="52" viewBox="0 0 218 52" fill="none" xmlns="http://www.w3.org/2000/svg">
<path opacity="0.2" d="M217.377 -16.198C218.428 -15.9349 218.046 -14.4756 216.999 -14.6221C201.451 -16.7926 187.113 -14.1311 173.314 -9.30759C173.306 -9.2542 173.298 -9.20081 173.279 -9.14416C171.722 -4.27965 176.423 -0.0937004 176.462 4.78969C176.49 8.18247 175.076 11.4229 173.026 14.1169C167.395 21.5146 157.575 23.4754 149.101 26.2183C148.244 26.4957 147.511 25.3906 148.15 24.7557C154.301 18.648 159.259 11.6235 162.751 3.76405C164.364 0.134235 165.517 -4.16699 167.96 -7.32468C158.471 -3.61607 149.2 0.965164 139.928 5.54249C138.027 8.94048 138.918 11.8077 141.502 14.8873C142.447 16.0139 143.238 17.0708 143.695 18.4663C144.794 21.8252 143.753 25.5814 141.851 28.4513C139.434 32.098 135.67 34.6937 132.129 37.2236C127.482 40.5454 122.725 43.5364 117.286 45.4646C116.443 45.7635 115.809 44.6728 116.376 44.0645C119.285 40.9414 122.262 37.785 124.424 34.1057C126.636 30.341 127.308 26.4253 128.09 22.2355C129.144 16.5934 131.833 12.0174 135.395 7.77417C133.72 8.59599 132.043 9.41259 130.364 10.2181C126.492 12.0773 122.573 13.8564 118.599 15.4962C118.752 19.2165 116.362 22.0792 113.959 24.8351C113.657 25.1815 113.093 24.8533 113.184 24.4372C113.729 21.949 114.518 18.8277 116.039 16.5283C113.036 17.7116 110.002 18.8095 106.928 19.785C106.677 23.0899 108.483 25.8861 107.695 29.2666C107.1 31.818 105.65 34.1233 103.814 36.0098C97.8617 42.1246 88.3848 43.7057 83.5895 51.05C83.0341 51.9005 81.6404 51.4636 81.8639 50.4229C82.545 47.2489 83.1325 43.8887 84.3067 40.8463C85.6034 37.4861 87.994 35.2029 90.5493 32.6991C94.2767 29.0458 98.1353 24.3721 102.64 21.0516C98.682 22.145 94.6628 23.03 90.5673 23.6349C87.4688 25.862 85.0186 29.1265 82.432 31.8356C80.6763 33.6733 79.1829 35.4498 76.4617 35.4543C76.0208 35.455 75.8636 34.9138 76.2128 34.6716C78.9246 32.7896 79.9831 30.6374 81.3862 27.8027C81.7736 27.0199 82.0459 26.3706 82.6688 25.7292C83.2449 25.136 83.9474 24.6892 84.7048 24.3194C82.6119 24.5115 80.515 24.6567 78.4161 24.7745C77.9765 24.8507 77.535 24.9256 77.0927 25.0005C74.6786 27.3064 72.0184 29.3792 69.4344 31.4956C66.1539 34.1825 62.878 37.1514 59.1084 39.1779C52.8813 42.5258 44.6843 44.3609 37.5961 43.7162C36.832 43.6465 36.3683 42.8709 36.9022 42.2431C41.4888 36.8557 46.5203 31.6682 53.2245 28.8237C55.9115 27.6835 58.7397 26.8473 61.6295 26.1675C59.9702 26.2625 58.3122 26.3426 56.6622 26.4149C54.57 26.5067 52.5133 26.635 50.5033 26.5921C45.9482 27.66 42.018 30.373 37.6984 32.167C32.9781 34.1278 28.0636 35.1704 22.9652 35.5689C22.519 35.6034 22.339 34.9828 22.709 34.7627C26.8466 32.2999 31.0069 29.8872 35.5935 28.2943C38.401 27.3195 41.2941 26.9724 44.1758 26.5862C44.6254 26.4019 45.0744 26.2163 45.5254 26.0366C44.9727 26.0424 44.4194 26.0489 43.8674 26.0496C43.8118 26.1102 43.7336 26.1531 43.6319 26.1577C43.4151 26.1675 43.199 26.1694 42.9822 26.1779C28.1814 28.3288 12.8681 27.6574 0.309427 18.6897C-0.389095 18.1908 0.223783 17.2981 0.878146 17.1984C7.80449 16.1487 13.0662 12.078 20.3685 12.7155C25.9768 13.2052 31.3462 15.4688 36.098 18.3152C37.667 19.2549 39.1303 20.3548 40.619 21.4124C40.6973 21.2945 40.8257 21.2027 40.9789 21.1825C44.7519 20.6882 47.7828 22.2322 50.884 23.8798C51.5739 24.0263 52.2684 24.1761 52.9475 24.3604C59.7474 23.913 66.5707 23.6662 73.3719 23.2208C69.5454 22.3293 65.8427 20.7722 62.3454 19.1319C54.9721 15.6746 47.9441 11.5928 41.2111 7.07217C40.6183 6.67428 40.6531 5.87852 41.3516 5.60566C47.7146 3.12001 56.7646 3.10958 63.1383 5.79255C70.2152 8.77182 74.6198 17.0271 79.029 22.7382C79.0424 22.7552 79.0491 22.7721 79.0604 22.789C82.5584 22.4849 86.0477 22.102 89.5202 21.5745C90.5426 21.4189 91.5596 21.245 92.5712 21.0562C88.6277 20.4466 85.1986 17.9258 81.7562 15.8341C81.512 15.6857 81.4979 15.278 81.8171 15.1979C86.9697 13.902 92.2461 16.5479 95.5159 20.4577C101.093 19.2399 106.52 17.5514 111.839 15.5626C106.89 15.2546 101.795 13.0606 97.6248 11.0491C89.6447 7.19915 82.3503 2.10868 73.962 -0.933102C73.2689 -1.18447 73.024 -2.02322 73.6891 -2.47971C78.0133 -5.444 82.8394 -5.63155 87.9867 -5.27599C92.0815 -4.99272 96.3603 -4.64888 99.8783 -2.39766C106.481 1.82671 108.794 10.1393 115.507 14.1377C120.069 12.3033 124.557 10.2761 128.995 8.15317C125.729 8.1929 122.238 6.90025 119.67 5.39402C119.26 5.15372 119.497 4.58783 119.953 4.6536C122.909 5.07753 125.317 3.40067 128.162 3.72822C130.261 3.96982 132.14 5.1192 134.19 5.62584C135.137 5.15762 136.082 4.68681 137.026 4.21534C141.113 2.17381 145.322 0.0346031 149.63 -2.07661C145.664 -2.11958 141.432 -3.00328 138.871 -3.57113C129.677 -5.61005 120.81 -9.18713 111.212 -7.6861C110.4 -7.55911 110.008 -8.53658 110.285 -9.13177C112.021 -12.8586 117.206 -14.2099 120.819 -15.6796C124.788 -17.294 129.499 -19.5094 133.945 -18.8973C143.259 -17.615 146.436 -4.99987 155.961 -5.11188C175.321 -14.1487 196.413 -21.4461 217.377 -16.198ZM44.4321 6.4405C54.0154 6.04001 63.4461 10.2637 70.9967 16.2008C68.6683 13.1408 66.0796 10.3445 62.407 8.53672C58.7752 6.74916 54.2435 6.32198 50.2364 6.11229C48.6025 6.02699 47.0127 6.14811 45.3822 6.20021C45.2838 6.20347 45.1513 6.19369 45.0055 6.17871C44.7492 6.23797 44.491 6.29464 44.2407 6.36041C44.305 6.38646 44.3685 6.41445 44.4321 6.4405ZM54.0615 31.2475C50.7516 32.6951 47.9086 34.5016 45.1286 36.7671C43.7777 37.8683 42.4991 39.0099 41.3055 40.2732C41.082 40.5096 40.7528 40.7877 40.4457 41.0299C49.4368 34.6475 58.729 30.513 68.8275 26.8727C63.7726 27.9199 58.7491 29.1969 54.0615 31.2475ZM55.5997 32.5753C51.064 34.7302 46.9023 37.4926 42.8156 40.354C52.8853 37.1982 61.9594 32.2588 71.0381 27.0017C65.8113 28.6492 60.4994 30.2479 55.5997 32.5753ZM41.355 41.3829C46.8756 39.9672 52.2055 39.2775 57.34 36.2703C60.1448 34.6273 62.9262 32.9283 65.6105 31.1004C58.072 35.1684 50.2324 38.7878 41.9484 40.9655C41.7504 41.1048 41.5523 41.2435 41.355 41.3829ZM54.3733 5.4689C57.3869 5.82576 60.3061 6.59027 62.8078 7.79826C64.5935 8.66045 66.2676 9.80137 67.8286 11.1168C66.5105 9.78899 65.1081 8.6494 63.5953 7.84581C61.0033 6.46981 57.7415 5.70398 54.3733 5.4689ZM73.962 21.848C69.6077 19.3161 65.0425 17.0506 60.6011 14.7134C57.5374 13.101 53.7243 10.5223 49.8697 8.764C57.8184 12.2786 65.6085 16.247 73.3411 20.2513C65.5323 13.3491 57.1306 8.8467 46.5805 7.34437C47.4409 7.70774 48.3007 8.07113 49.1571 8.44622C47.8196 7.87381 46.4842 7.42318 45.1761 7.15162C44.8021 7.10864 44.4167 7.08064 44.0367 7.04482C53.2874 13.1675 63.2159 18.8043 73.962 21.848ZM4.46978 18.5588C4.54405 18.3817 9.90608 19.3689 10.4674 19.4509C14.1842 19.994 17.8882 20.5977 21.5896 21.2307C26.5094 22.072 31.4157 22.9635 36.3054 23.9416C34.0011 23.0514 31.7791 21.8702 29.268 20.6264C22.8093 17.427 15.5257 17.0193 8.43276 17.7825C7.8995 17.8392 4.76552 17.8535 4.46978 18.5588ZM45.0864 22.7304C45.8244 22.7519 46.5578 22.873 47.2857 23.0293C45.8505 22.3677 44.3638 22.0076 42.7915 21.9763C45.061 23.041 47.2864 24.0465 49.6864 24.4867C49.6897 24.4861 49.6924 24.486 49.6958 24.4854C49.7212 24.4763 49.7473 24.4678 49.7727 24.4587C49.6971 24.4385 49.6208 24.4164 49.5459 24.3968C48.0304 24.0074 46.4206 23.6636 45.043 22.9154C44.9586 22.8704 44.9814 22.7278 45.0864 22.7304ZM44.1069 23.633C44.1818 23.6701 44.2575 23.7046 44.3324 23.7398C44.2568 23.7046 44.1818 23.6681 44.1069 23.633ZM39.6695 24.051C35.4409 22.3455 31.6539 19.8019 27.5518 17.6712C20.6897 14.1071 13.7172 15.6427 6.74533 17.6224C11.8371 16.8852 16.9676 16.6924 22.0834 17.6875C28.4537 18.9267 33.5635 22.6653 39.6695 24.051ZM5.62194 19.1019C15.9921 21.977 26.514 24.4874 37.2575 24.8012C35.9655 24.5284 34.6735 24.2555 33.3795 23.9924C29.9879 23.3022 26.5957 22.6002 23.1954 21.9535C17.274 20.8282 11.3165 19.8443 5.34561 18.9886C5.43727 19.0264 5.52961 19.0641 5.62194 19.1019ZM12.298 21.5634C20.1424 24.152 28.526 25.8393 36.66 25.8041C37.5519 25.7514 38.4438 25.6869 39.3343 25.6152C30.1545 25.5508 21.1266 24.0087 12.298 21.5634ZM10.6708 15.8309C10.1503 16.0126 9.64112 16.2021 9.13596 16.3935C13.9815 15.3379 18.8798 14.4536 23.6939 15.825C29.2586 17.4114 34.0245 20.724 39.2721 22.9127C34.0847 19.561 29.1576 16.2327 22.8167 14.9837C18.6503 14.1645 14.6532 14.4412 10.6708 15.8309ZM32.1658 25.9741C22.4561 25.2187 12.9698 22.9134 4.00343 19.0003C3.81207 18.9352 3.62072 18.8714 3.43003 18.8056C12.0037 24.5785 22.0004 26.1317 32.1658 25.9741ZM39.9425 29.7276C36.8132 30.8001 33.6425 31.7353 30.5961 32.6014C30.4596 32.6405 30.4054 32.451 30.5319 32.3995C33.9864 31.0098 37.4335 29.4548 40.9013 27.9629C39.4695 28.168 38.0477 28.4376 36.6573 28.8797C33.7448 29.8045 30.9655 31.0886 28.2838 32.5206C26.8118 33.3066 22.4775 34.5648 26.3903 34.2496C31.2471 33.8582 35.5942 31.7288 39.9425 29.7276ZM56.863 29.2718C52.7341 30.6054 49.2374 32.7544 46.1008 35.3703C51.4213 31.7431 57.6659 29.2998 64.0061 27.3826C61.5827 27.9153 59.1874 28.5209 56.863 29.2718ZM66.0521 31.9547C63.3203 33.6524 60.4927 35.2134 57.6458 36.7359C52.2095 39.6435 46.7364 40.3996 40.9074 41.6987C40.8036 41.7717 40.6999 41.8452 40.5969 41.9182C47.3754 41.6147 54.5245 39.8728 60.1207 36.2716C62.1795 34.9464 64.1285 33.4688 66.0521 31.9547ZM170.424 14.3331C172.442 12.1229 173.719 9.4113 173.603 5.96577C173.485 2.50396 172.12 -0.652431 171.575 -3.91692C171.28 -4.77131 171.082 -5.612 171.01 -6.47224C170.167 -3.23119 171.42 0.323723 171.294 3.72888C171.192 6.4698 170.28 9.00235 168.926 11.3845C166.383 15.8569 162.519 18.9775 158.169 21.4873C159.979 20.8602 161.757 20.162 163.444 19.3383C165.991 18.017 168.416 16.4619 170.259 14.505C170.313 14.4477 170.369 14.3917 170.424 14.3331ZM155.852 22.2557C162.664 18.3817 169.42 13.2248 169.947 5.06907C170.121 2.37894 169.487 -0.257145 169.255 -2.81313C168.155 1.59619 167.783 6.20738 165.856 10.4422C163.903 14.733 160.157 19.4933 155.713 22.3C155.759 22.2856 155.806 22.27 155.852 22.2557ZM168.566 -3.68248C164.933 5.43049 161.791 15.3516 154.624 22.1144C160.557 18.3452 165.367 11.824 166.874 5.42462C167.587 2.39912 167.916 -0.685631 168.566 -3.68248ZM117.917 -12.4158C117.419 -12.0993 116.922 -11.7815 116.425 -11.465C121.173 -13.2324 126.207 -14.2274 131.298 -13.2565C134.481 -12.6489 137.049 -11.1935 139.776 -9.57069C141.006 -8.83874 142.259 -8.21357 143.529 -7.65158C140.749 -9.45932 138.116 -11.5061 135.221 -13.3535C132.52 -15.0766 129.873 -15.9929 127.118 -15.931C124.906 -15.2101 122.728 -14.359 120.587 -13.4603C119.808 -13.1321 118.877 -12.7968 117.917 -12.4158ZM118.602 -11.1212C122.726 -11.8629 126.919 -11.902 131.102 -10.8588C134.146 -10.1001 136.736 -8.61538 139.566 -7.35008C141.318 -6.56668 143.084 -6.0164 144.884 -5.60223C142.03 -6.8786 139.316 -8.39526 136.448 -10.1958C130.34 -14.0288 123.787 -13.1067 117.406 -11.1603C117.804 -11.1577 118.202 -11.146 118.602 -11.1212ZM143.043 -8.78793C142.896 -8.94226 142.745 -9.09596 142.599 -9.2503C139.097 -12.9426 135.77 -15.8301 131.243 -16.7444C130.709 -16.7157 130.162 -16.6571 129.596 -16.5581C130.368 -16.4298 131.145 -16.239 131.929 -15.9401C134.765 -14.8598 137.179 -12.9257 139.572 -11.1447C140.708 -10.2994 141.867 -9.52444 143.043 -8.78793ZM120.278 -10.9597C123.074 -10.6081 125.863 -9.86633 128.527 -9.24573C132.033 -8.42847 135.504 -7.49269 138.925 -6.41103C137.762 -6.98214 136.601 -7.59753 135.419 -8.23832C130.652 -10.821 125.462 -11.497 120.278 -10.9597ZM135.443 -16.2032C136.157 -15.8692 136.861 -15.4908 137.54 -15.033C139.869 -13.4643 141.677 -11.3133 143.748 -9.45998C144.459 -8.82375 145.169 -8.27935 145.892 -7.79095C144.575 -9.01261 143.333 -10.3333 142.131 -11.5745C139.97 -13.8061 137.829 -15.4081 135.443 -16.2032ZM132.584 -7.20421C135.898 -6.3049 139.21 -5.40232 142.597 -4.80581C142.23 -4.94322 141.867 -5.09755 141.504 -5.24863C137.976 -6.34851 134.429 -7.38784 130.821 -8.22138C125.943 -9.34732 120.446 -10.7689 115.377 -10.0265C121.221 -10.1529 126.889 -8.74952 132.584 -7.20421ZM130.867 7.25385C131.561 6.91718 132.253 6.57856 132.945 6.23863C131.282 5.77627 129.772 4.83529 128.009 4.62299C126.045 4.3866 124.406 5.46891 122.499 5.63301C122.288 5.65125 122.077 5.65515 121.866 5.65255C124.639 6.95496 127.856 7.71555 130.867 7.25385ZM105.212 21.1024C105.117 21.1792 105.019 21.2535 104.925 21.3316C104.14 25.9285 102.104 29.7491 98.8492 33.293C96.0378 36.3536 93.1386 39.3681 90.1993 42.3389C97.9841 37.3161 104.912 31.7613 105.24 21.3909C105.229 21.2945 105.219 21.1988 105.212 21.1024ZM106.082 9.29344C104.101 6.93477 102.378 4.24072 100.049 2.26627C96.8366 -0.456421 92.8904 -2.2368 88.6879 -2.91601C86.7489 -3.22924 84.7657 -3.29176 82.8066 -3.11267C91.953 -3.14328 98.5716 4.15347 106.082 9.29344ZM99.422 5.58027C94.1228 1.20286 89.2573 -1.43452 83.2984 -1.8552C84.1943 -1.72235 85.0855 -1.5589 85.9607 -1.33098C88.8056 -0.590561 91.4786 0.646721 93.9 2.27473C96.7095 4.16323 99.3035 6.00485 101.958 7.68236C101.109 6.98231 100.266 6.27771 99.422 5.58027ZM80.774 -1.25153C85.1692 0.536682 88.7889 3.75167 92.8094 6.39231C98.4853 10.1198 104.391 12.7207 110.998 13.8799C104.829 11.4932 99.9077 7.88554 94.5337 3.88778C90.5011 0.888332 85.7961 -0.87904 80.774 -1.25153ZM87.7579 43.8887C90.8865 40.5839 94.0793 37.3356 97.2033 34.0275C99.6769 31.4084 101.853 28.7756 103.137 25.4134C103.152 25.375 103.176 25.2903 103.204 25.1789C101.449 27.7336 98.4538 30.0063 96.5944 31.9326C92.794 35.8711 89.4781 40.2088 86.4344 44.719C86.8753 44.4423 87.3169 44.1655 87.7579 43.8887ZM101.631 24.2497C99.7926 25.9884 98.0196 27.8072 96.2612 29.6195C96.4874 29.4482 96.7182 29.2822 96.9491 29.1148C98.5957 27.5767 100.209 26.0196 101.631 24.2497ZM86.5769 42.5785C88.8598 39.5582 91.3073 36.6688 93.9455 33.911C96.66 31.073 99.9231 28.4161 102.134 25.1711C99.2179 28.5743 95.5895 31.1401 92.0821 34.1558C89.8481 36.6851 87.9994 39.4977 86.5769 42.5785ZM92.4267 -3.0736C93.5013 -2.74865 94.5638 -2.34752 95.6055 -1.84804C98.5013 -0.459675 101.085 1.51022 103.192 3.88582C105.216 6.16764 106.778 8.67805 108.953 10.5262C107.128 8.31273 105.52 5.87851 103.698 3.61101C100.638 -0.197891 97.1591 -2.27393 92.4267 -3.0736ZM92.7151 7.01877C88.162 3.81679 83.6417 -0.102806 78.3325 -1.29972C78.0796 -1.28409 77.828 -1.26976 77.5811 -1.2626C82.5276 0.974293 87.5638 4.12481 92.7151 7.01877ZM93.8164 20.614C92.5799 19.3507 91.3843 18.0743 89.7497 17.1567C87.6515 15.9787 85.3164 15.6629 82.9585 15.7938C86.2799 17.9558 89.8414 20.2382 93.8164 20.614ZM89.1877 23.8199C88.7494 23.8778 88.3139 23.9429 87.8743 23.9944C87.8281 23.9996 87.7813 24.0035 87.7351 24.0087C87.1108 24.1793 86.4906 24.3584 85.8978 24.6026C82.7953 25.879 82.5986 27.6906 81.2243 30.1958C80.3565 31.7776 79.3301 33.0833 78.0515 34.2548C81.0503 33.0872 83.6664 29.2294 85.6235 27.1938C86.8071 25.963 87.9131 24.8123 89.1877 23.8199ZM86.7676 40.2081C87.1196 39.6201 87.4815 39.0392 87.8642 38.4733C87.4655 39.0242 87.0975 39.5999 86.7676 40.2081ZM105.996 29.5062C106.629 27.1462 105.902 25.0194 105.463 22.8248C105.402 29.4118 101.576 35.0662 96.466 39.5439C96.7664 39.3681 97.0668 39.1903 97.3652 39.0092C101.056 36.7691 104.84 33.8165 105.996 29.5062ZM117.553 15.9312C117.406 15.9904 117.258 16.0471 117.111 16.1063C117.086 16.137 117.066 16.1708 117.039 16.1988C116.597 17.3033 115.996 18.3582 115.557 19.4633C115.118 20.5671 114.767 21.6982 114.475 22.8444C115.252 21.9307 116.012 20.9923 116.55 19.9478C117.224 18.6421 117.485 17.3202 117.553 15.9312ZM137.215 11.7719C137.119 11.4828 137.037 11.1858 136.979 10.8739C136.946 10.9527 136.905 11.0302 136.875 11.109C136.457 16.6026 139.212 22.2231 137.188 27.8815C136.436 29.9868 135.295 31.8714 133.906 33.5827C136.911 31.0606 139.43 28.1068 140.299 24.4926C141.428 19.8006 137.05 16.1493 137.215 11.7719ZM133.482 17.1919C133.43 17.9304 133.399 18.7177 133.354 19.5975C133.211 22.3911 132.617 25.0689 131.564 27.6809C129.923 31.7522 127.291 35.6979 124.196 39.0913C128.705 35.0577 132.802 30.4843 133.81 24.4131C134.218 21.9607 133.612 19.5825 133.482 17.1919ZM134.955 20.3932C135.116 23.0397 134.699 25.5645 133.723 28.0416C132.823 30.3274 131.543 32.3819 130.02 34.2567C132.853 31.2951 135.003 27.8534 135.575 23.8498C136.094 20.2076 134.825 16.2639 135.279 12.7057C134.172 15.6798 134.774 17.4179 134.955 20.3932ZM137.165 23.2188C137.377 20.4727 136.576 17.4244 136.273 14.4705C136.213 17.0955 136.851 19.8228 136.624 22.5891C136.41 25.1946 135.609 27.6691 134.283 29.9321C132.072 33.7065 128.729 36.7613 125.017 39.23C124.11 39.9815 123.176 40.703 122.224 41.3953C129.205 36.928 136.479 32.0967 137.165 23.2188ZM135.368 10.0456C135.194 10.2839 135.023 10.5229 134.852 10.7639C134.877 10.7332 134.908 10.7053 134.934 10.6753C135.026 10.5581 135.115 10.4396 135.208 10.3236C135.26 10.2305 135.315 10.1381 135.368 10.0456ZM132.584 16.7022C130.537 21.9646 130.214 27.97 127.511 32.9622C129.495 30.1639 131.109 27.1371 131.972 23.5698C132.507 21.3551 132.378 18.9853 132.584 16.7022ZM125.928 34.9158C130.054 28.7938 129.539 20.7267 132.627 14.268C132.27 14.9094 131.929 15.5587 131.626 16.2301C129.81 20.2584 129.727 24.5668 128.587 28.7586C127.988 30.9603 127.061 32.9947 125.928 34.9158ZM138.86 14.7095C139.635 16.7628 140.996 18.6871 141.348 20.9923C141.671 23.1068 141.131 25.1535 140.165 27.0459C139.537 28.2761 138.757 29.402 137.875 30.4504C140.433 27.942 142.389 24.9595 142.259 21.2659C142.162 18.493 140.356 16.7028 138.86 14.7095ZM161.999 9.36051C159.38 14.2478 156.151 18.7385 152.441 22.8658C161.328 14.9387 164.231 4.00824 169.226 -6.23587C169.285 -6.42928 169.343 -6.62268 169.407 -6.81543C165.94 -2.18341 164.637 4.43414 161.999 9.36051Z" fill="#713600"/>
</svg>
