<svg width="216" height="52" viewBox="0 0 216 52" fill="none" xmlns="http://www.w3.org/2000/svg">
<path opacity="0.2" d="M61.4697 -5.1118C70.9067 -4.99914 74.055 -17.6144 83.2832 -18.8973C87.6892 -19.5094 92.357 -17.294 96.2896 -15.6796C99.8702 -14.2098 105.007 -12.8592 106.727 -9.13172C107.001 -8.53651 106.613 -7.55904 105.808 -7.68603C96.2982 -9.18642 87.5128 -5.60997 78.4026 -3.57104C75.8656 -3.00318 71.6717 -2.11948 67.7425 -2.0765C72.0105 0.0347214 76.1824 2.17393 80.2304 4.21548C81.1658 4.68695 82.1025 5.15779 83.0413 5.62601C85.0719 5.11937 86.9341 3.96998 89.0131 3.72838C91.8326 3.40083 94.2179 5.07833 97.1468 4.65374C97.5996 4.58797 97.8342 5.15387 97.4279 5.39417C94.8828 6.90041 91.4249 8.19307 88.1877 8.15334C92.5857 10.2763 97.0334 12.3035 101.552 14.138C108.203 10.1395 110.496 1.82684 117.038 -2.39756C120.524 -4.64879 124.763 -4.99261 128.82 -5.27589C133.92 -5.63145 138.702 -5.44392 142.987 -2.47961C143.646 -2.02377 143.404 -1.18436 142.716 -0.932991C134.405 2.10816 127.178 7.19933 119.271 11.0493C115.139 13.0609 110.091 15.2548 105.186 15.5628C110.457 17.5516 115.835 19.2402 121.36 20.458C124.6 16.5481 129.828 13.9022 134.933 15.1981C135.25 15.2782 135.236 15.6859 134.994 15.8344C131.583 17.9261 128.186 20.4469 124.278 21.0564C125.281 21.2446 126.288 21.4191 127.301 21.5748C130.742 22.1023 134.199 22.4852 137.665 22.7893C137.676 22.7724 137.683 22.7554 137.696 22.7385C142.065 17.0274 146.429 8.77199 153.441 5.79271C159.756 3.10907 168.723 3.12015 175.028 5.60582C175.72 5.87867 175.754 6.67379 175.167 7.07233C168.496 11.593 161.531 15.6748 154.226 19.1321C150.761 20.7725 147.092 22.3295 143.301 23.221C150.04 23.6665 156.801 23.9126 163.538 24.3606C164.211 24.1757 164.899 24.0259 165.583 23.8801C168.655 22.2319 171.659 20.6878 175.397 21.1828C175.549 21.203 175.675 21.2948 175.754 21.4126C177.229 20.3544 178.679 19.2552 180.233 18.3155C184.941 15.469 190.261 13.2054 195.818 12.7157C203.054 12.0782 208.267 16.1489 215.13 17.1987C215.778 17.2976 216.386 18.1911 215.693 18.6899C203.251 27.6577 188.077 28.3291 173.412 26.1782C173.197 26.1697 172.983 26.1678 172.768 26.158C172.668 26.1534 172.59 26.1105 172.535 26.0499C171.987 26.0493 171.44 26.0427 170.892 26.0369C171.338 26.2166 171.784 26.4022 172.229 26.5865C175.085 26.9727 177.951 27.3198 180.733 28.2946C185.277 29.8868 189.4 32.3002 193.499 34.7631C193.866 34.9832 193.688 35.6044 193.245 35.5693C188.194 35.1707 183.325 34.1281 178.647 32.1674C174.367 30.3733 170.473 27.6603 165.96 26.5923C163.968 26.6353 161.931 26.5064 159.857 26.4152C158.223 26.3429 156.58 26.2628 154.936 26.1678C157.799 26.8483 160.601 27.6838 163.264 28.824C169.906 31.6685 174.891 36.8561 179.436 42.2435C179.965 42.8713 179.507 43.6469 178.749 43.7166C171.726 44.3613 163.604 42.5261 157.434 39.1783C153.699 37.1517 150.453 34.1828 147.202 31.496C144.642 29.3795 142.006 27.3067 139.614 25.0008C139.176 24.9259 138.739 24.851 138.303 24.7748C136.223 24.657 134.145 24.5117 132.072 24.3196C132.823 24.6895 133.518 25.1356 134.089 25.7295C134.707 26.3709 134.976 27.0202 135.36 27.8029C136.75 30.6377 137.799 32.7899 140.486 34.6719C140.832 34.9142 140.676 35.4553 140.24 35.4547C137.543 35.4501 136.063 33.6736 134.324 31.8359C131.761 29.1269 129.333 25.8624 126.263 23.6352C122.205 23.0309 118.222 22.1452 114.302 21.0519C118.765 24.3724 122.589 29.0461 126.281 32.6994C128.812 35.2033 131.181 37.4858 132.467 40.8467C133.63 43.8891 134.212 47.2494 134.887 50.4234C135.108 51.4633 133.727 51.9003 133.177 51.0505C128.426 43.7061 119.036 42.125 113.138 36.0101C111.319 34.1236 109.882 31.8183 109.293 29.2669C108.512 25.8864 110.301 23.0901 110.052 19.7852C107.007 18.8104 104 17.7118 101.025 16.5286C102.533 18.8273 103.314 21.9492 103.854 24.4375C103.945 24.8543 103.386 25.1818 103.086 24.8354C100.705 22.0795 98.3374 19.2167 98.4886 15.4964C94.552 13.8566 90.6685 12.0769 86.8313 10.2183C85.1673 9.41214 83.5067 8.59551 81.8466 7.77434C85.3762 12.0176 88.0399 16.5937 89.0847 22.2358C89.8604 26.4263 90.5259 30.3414 92.7183 34.106C94.8603 37.7853 97.8097 40.9418 100.692 44.065C101.254 44.6732 100.625 45.764 99.7899 45.4651C94.4008 43.5362 89.688 40.5458 85.0832 37.224C81.5755 34.6941 77.8458 32.0983 75.4505 28.4516C73.5651 25.5817 72.5343 21.8255 73.6235 18.4666C74.0763 17.0704 74.8592 16.0134 75.7959 14.8875C78.3562 11.8079 79.2393 8.94065 77.3559 5.54264C68.1681 0.965286 58.9823 -3.61596 49.5804 -7.32459C52.0008 -4.16753 53.1431 0.13435 54.7415 3.76419C58.2014 11.6236 63.1138 18.6483 69.2089 24.756C69.8427 25.3909 69.1155 26.496 68.2662 26.2185C59.87 23.4757 50.1399 21.5149 44.5619 14.1171C42.5307 11.4237 41.1299 8.18331 41.157 4.78986C41.1962 -0.0942154 45.854 -4.27954 44.3107 -9.14408C44.2928 -9.20073 44.2842 -9.25414 44.2762 -9.30754C30.6043 -14.131 16.3967 -16.7925 0.99182 -14.6221C-0.0456905 -14.4762 -0.42425 -15.9349 0.617901 -16.198C21.3873 -21.448 42.2854 -14.1506 61.4697 -5.1118ZM172.163 6.35862C171.916 6.29285 171.659 6.23618 171.405 6.17692C171.261 6.19189 171.13 6.20168 171.032 6.19842C169.416 6.14632 167.841 6.02519 166.222 6.1105C162.252 6.31954 157.761 6.74673 154.163 8.53495C150.525 10.3427 147.96 13.139 145.653 16.199C153.134 10.262 162.478 6.03822 171.973 6.43871C172.037 6.41266 172.099 6.38467 172.163 6.35862ZM147.802 26.8711C157.808 30.5113 167.014 34.6459 175.923 41.0284C175.619 40.7861 175.293 40.5081 175.071 40.2717C173.889 39.0083 172.622 37.8661 171.283 36.7655C168.529 34.5 165.712 32.6935 162.432 31.2459C157.788 29.1952 152.811 27.9182 147.802 26.8711ZM145.611 26.9994C154.607 32.2572 163.598 37.1966 173.575 40.3518C169.527 37.4903 165.403 34.7279 160.908 32.5731C156.054 30.2463 150.79 28.6476 145.611 26.9994ZM174.436 40.9639C166.227 38.7862 158.459 35.1675 150.991 31.0987C153.65 32.9267 156.406 34.6263 159.185 36.2687C164.273 39.276 169.554 39.9656 175.024 41.3813C174.827 41.242 174.631 41.1032 174.436 40.9639ZM152.987 7.84403C151.488 8.64697 150.098 9.78723 148.792 11.115C150.339 9.80025 151.998 8.65933 153.767 7.79647C156.245 6.58848 159.138 5.82396 162.124 5.4671C158.786 5.70219 155.554 6.46803 152.987 7.84403ZM172.366 7.04369C171.99 7.07951 171.608 7.10751 171.237 7.15049C169.941 7.42205 168.618 7.87267 167.292 8.44508C168.141 8.06998 168.993 7.70662 169.845 7.34324C159.391 8.84558 151.067 13.3481 143.33 20.2502C150.992 16.2453 158.711 12.2768 166.586 8.76287C162.766 10.5218 158.988 13.0999 155.953 14.7123C151.553 17.0495 147.029 19.3151 142.715 21.847C153.362 18.8026 163.199 13.1657 172.366 7.04369ZM207.642 17.7802C200.615 17.0176 193.397 17.4246 186.998 20.624C184.51 21.8678 182.308 23.0491 180.025 23.9393C184.87 22.9612 189.731 22.0697 194.606 21.2283C198.273 20.5954 201.943 19.9917 205.626 19.4486C206.182 19.3665 211.495 18.3793 211.569 18.5564C211.276 17.8518 208.171 17.8375 207.642 17.7802ZM171.369 22.9143C170.003 23.6626 168.409 24.0064 166.907 24.3958C166.832 24.4154 166.757 24.4375 166.682 24.4577C166.707 24.4668 166.733 24.4753 166.758 24.4844C166.761 24.485 166.764 24.485 166.767 24.4857C169.145 24.0455 171.35 23.04 173.599 21.9753C172.042 22.0065 170.568 22.3667 169.146 23.0283C169.867 22.872 170.593 22.7509 171.325 22.7294C171.43 22.7261 171.452 22.8687 171.369 22.9143ZM172.072 23.7381C172.147 23.7029 172.221 23.6684 172.296 23.6313C172.221 23.6665 172.147 23.7029 172.072 23.7381ZM194.119 17.6857C199.187 16.6907 204.271 16.8841 209.316 17.6206C202.408 15.641 195.499 14.1061 188.7 17.6695C184.636 19.8002 180.883 22.3439 176.694 24.0494C182.743 22.6636 187.806 18.925 194.119 17.6857ZM210.702 18.9869C204.786 19.8426 198.883 20.8266 193.016 21.9518C189.647 22.5985 186.285 23.3005 182.925 23.9908C181.643 24.2545 180.363 24.5267 179.083 24.7996C189.728 24.4857 200.153 21.9753 210.428 19.1002C210.52 19.0624 210.611 19.0246 210.702 18.9869ZM177.025 25.6136C177.908 25.6852 178.791 25.7497 179.675 25.8024C187.734 25.837 196.04 24.1497 203.813 21.5617C195.066 24.007 186.12 25.5491 177.025 25.6136ZM193.391 14.9826C187.109 16.2309 182.227 19.5599 177.087 22.9117C182.286 20.7237 187.008 17.4103 192.522 15.824C197.292 14.4519 202.145 15.3362 206.947 16.3925C206.446 16.201 205.941 16.0115 205.426 15.8298C201.479 14.4395 197.519 14.1627 193.391 14.9826ZM212.6 18.8039C212.411 18.8697 212.222 18.9335 212.032 18.9986C203.148 22.9124 193.748 25.217 184.128 25.9724C194.199 26.13 204.105 24.5769 212.6 18.8039ZM189.851 34.2473C193.728 34.5625 189.433 33.3037 187.975 32.5184C185.318 31.0863 182.563 29.8022 179.678 28.8774C178.3 28.4359 176.891 28.1663 175.473 27.9605C178.909 29.4531 182.325 31.0075 185.747 32.3972C185.873 32.448 185.819 32.6375 185.684 32.5991C182.665 31.7336 179.524 30.7979 176.423 29.7253C180.731 31.7271 185.038 33.8566 189.851 34.2473ZM152.58 27.3816C158.861 29.2988 165.049 31.7415 170.321 35.3693C167.213 32.7534 163.748 30.6051 159.657 29.2708C157.354 28.5193 154.981 27.9137 152.58 27.3816ZM156.429 36.27C161.974 39.8712 169.058 41.6125 175.774 41.9166C175.671 41.843 175.569 41.7701 175.467 41.6972C169.69 40.3986 164.267 39.6419 158.882 36.7343C156.061 35.2118 153.259 33.6508 150.552 31.9531C152.458 33.4672 154.389 34.9448 156.429 36.27ZM47.3012 14.5039C49.1283 16.4608 51.5308 18.0159 54.054 19.3372C55.7259 20.1604 57.4867 20.8584 59.2806 21.4862C54.9708 18.9764 51.1423 15.8565 48.6231 11.3834C47.2813 9.00123 46.3771 6.46867 46.277 3.72773C46.1517 0.322552 47.3927 -3.23241 46.5574 -6.47348C46.4865 -5.61388 46.2902 -4.77251 45.9985 -3.91813C45.4582 -0.65361 44.1058 2.50215 43.9898 5.96463C43.8738 9.41018 45.1394 12.1218 47.1395 14.332C47.1912 14.39 47.2475 14.446 47.3012 14.5039ZM61.7136 22.2983C57.3104 19.4916 53.5979 14.7312 51.6634 10.4404C49.7541 6.20559 49.3855 1.59372 48.295 -2.81498C48.0656 -0.258976 47.4371 2.37777 47.6095 5.06727C48.1326 13.2224 54.827 18.38 61.5758 22.254C61.6222 22.2683 61.6679 22.2839 61.7136 22.2983ZM50.6551 5.42282C52.1487 11.8223 56.9146 18.3428 62.793 22.1127C55.6921 15.3499 52.5783 5.4287 48.9785 -3.68433C49.6229 -0.687466 49.949 2.3973 50.6551 5.42282ZM96.517 -13.4616C94.3956 -14.3609 92.2376 -15.2121 90.046 -15.9323C87.3166 -15.9942 84.6933 -15.0779 82.0177 -13.3548C79.1485 -11.5073 76.5398 -9.46058 73.7852 -7.65282C75.0442 -8.21482 76.2852 -8.83997 77.5037 -9.57193C80.2066 -11.1954 82.7509 -12.6509 85.9046 -13.2578C90.9483 -14.2287 95.9362 -13.2337 100.641 -11.4663C100.148 -11.7828 99.656 -12.1006 99.1628 -12.4171C98.2115 -12.7987 97.2893 -13.134 96.517 -13.4616ZM99.6693 -11.1622C93.3475 -13.1093 86.8545 -14.0308 80.8025 -10.1977C77.9605 -8.3978 75.2715 -6.88047 72.4434 -5.6041C74.2267 -6.01827 75.9769 -6.56855 77.7125 -7.35196C80.5168 -8.61726 83.083 -10.102 86.0988 -10.8607C90.2435 -11.9033 94.3982 -11.8642 98.4846 -11.1231C98.8797 -11.1479 99.2749 -11.1596 99.6693 -11.1622ZM77.7059 -11.1466C80.0779 -12.9276 82.4698 -14.8617 85.2787 -15.9421C86.0557 -16.241 86.8254 -16.4318 87.5904 -16.5601C87.0302 -16.659 86.4879 -16.7177 85.9589 -16.7463C81.4734 -15.832 78.1766 -12.9445 74.7067 -9.25219C74.5622 -9.0985 74.413 -8.94415 74.2665 -8.78981C75.4326 -9.52633 76.5816 -10.3013 77.7059 -11.1466ZM81.8215 -8.23956C80.6501 -7.59877 79.4992 -6.98336 78.347 -6.41225C81.7373 -7.49456 85.176 -8.42971 88.6498 -9.24698C91.2883 -9.86758 94.0528 -10.6093 96.8233 -10.961C91.6868 -11.4989 86.545 -10.8229 81.8215 -8.23956ZM75.1708 -11.5764C73.9801 -10.3352 72.749 -9.0145 71.4437 -7.79283C72.1603 -8.28124 72.8637 -8.82564 73.5685 -9.46187C75.6209 -11.3152 77.4115 -13.4662 79.7199 -15.0349C80.3928 -15.4927 81.0896 -15.8704 81.7969 -16.2052C79.4335 -15.41 77.3121 -13.8081 75.1708 -11.5764ZM101.68 -10.0284C96.6575 -10.7708 91.2101 -9.34921 86.3779 -8.22327C82.802 -7.39037 79.2883 -6.35039 75.7926 -5.25049C75.4326 -5.09941 75.0733 -4.94573 74.7094 -4.80767C78.0652 -5.40418 81.3475 -6.30742 84.6304 -7.20609C90.2727 -8.75141 95.8898 -10.1548 101.68 -10.0284ZM95.2494 5.65141C95.0406 5.65401 94.8325 5.6501 94.623 5.63187C92.7336 5.46777 91.1093 4.38544 89.1629 4.62183C87.4161 4.83412 85.9198 5.77448 84.2724 6.23749C84.9579 6.57742 85.644 6.91605 86.3315 7.25272C89.3154 7.71378 92.5028 6.95317 95.2494 5.65141ZM111.724 21.3892C112.048 31.7591 118.914 37.3145 126.627 42.3373C123.714 39.3665 120.842 36.352 118.056 33.2913C114.831 29.7475 112.814 25.9268 112.037 21.3299C111.943 21.2518 111.846 21.1782 111.752 21.1007C111.745 21.1971 111.734 21.2928 111.724 21.3892ZM133.951 -3.11452C132.01 -3.29361 130.045 -3.23109 128.124 -2.91786C123.96 -2.23865 120.05 -0.457603 116.867 2.26445C114.559 4.23892 112.852 6.93298 110.889 9.29166C118.331 4.15167 124.888 -3.14513 133.951 -3.11452ZM114.976 7.68057C117.605 6.00306 120.176 4.16143 122.96 2.27292C125.359 0.645546 128.008 -0.592396 130.826 -1.33282C131.694 -1.56075 132.577 -1.72354 133.464 -1.85704C127.56 -1.43571 122.739 1.20169 117.489 5.57847C116.652 6.27592 115.816 6.98052 114.976 7.68057ZM122.333 3.88598C117.007 7.88375 112.131 11.4915 106.02 13.8781C112.566 12.719 118.417 10.1187 124.041 6.39051C128.025 3.74986 131.611 0.535507 135.966 -1.25337C130.989 -0.880875 126.328 0.886505 122.333 3.88598ZM130.357 44.7181C127.341 40.2078 124.056 35.8701 120.29 31.9316C118.448 30.0047 115.481 27.732 113.742 25.1779C113.769 25.2893 113.793 25.3739 113.807 25.4124C115.079 28.7746 117.236 31.4074 119.687 34.0266C122.782 37.3347 125.946 40.5829 129.046 43.8878C129.483 44.1639 129.92 44.4407 130.357 44.7181ZM119.938 29.1138C120.167 29.2805 120.396 29.4473 120.62 29.6185C118.877 27.8062 117.121 25.9874 115.299 24.2486C116.708 26.018 118.307 27.575 119.938 29.1138ZM124.761 34.1542C121.286 31.1384 117.691 28.5727 114.802 25.1695C116.991 28.4138 120.225 31.0714 122.914 33.9094C125.527 36.6672 127.953 39.5566 130.215 42.577C128.806 39.4961 126.975 36.6835 124.761 34.1542ZM113.251 3.60986C111.446 5.87737 109.852 8.31224 108.044 10.525C110.2 8.67691 111.748 6.1665 113.752 3.88467C115.839 1.50905 118.399 -0.461502 121.269 -1.84923C122.302 -2.34871 123.354 -2.74984 124.419 -3.0748C119.731 -2.27576 116.284 -0.199718 113.251 3.60986ZM139.129 -1.26444C138.885 -1.2716 138.635 -1.28593 138.385 -1.30156C133.124 -0.104637 128.645 3.81499 124.134 7.01698C129.237 4.12301 134.228 0.972469 139.129 -1.26444ZM133.8 15.792C131.465 15.6611 129.151 15.977 127.071 17.155C125.452 18.0726 124.267 19.349 123.042 20.6123C126.981 20.2366 130.51 17.9541 133.8 15.792ZM131.161 27.1928C133.099 29.2284 135.691 33.0856 138.663 34.2538C137.396 33.0823 136.379 31.7766 135.519 30.1948C134.158 27.6896 133.963 25.878 130.889 24.6016C130.301 24.3574 129.687 24.1783 129.068 24.0077C129.023 24.0025 128.977 23.9986 128.93 23.9934C128.495 23.9419 128.063 23.8768 127.629 23.8188C128.892 24.8106 129.988 25.9613 131.161 27.1928ZM128.94 38.4711C129.319 39.0376 129.678 39.6185 130.027 40.2059C129.7 39.5983 129.335 39.0226 128.94 38.4711ZM119.526 39.007C119.822 39.188 120.119 39.3652 120.417 39.5417C115.355 35.0646 111.563 29.4095 111.503 22.8225C111.068 25.0171 110.347 27.1439 110.975 29.5039C112.121 33.8149 115.87 36.7675 119.526 39.007ZM100.517 19.9454C101.05 20.99 101.803 21.9284 102.573 22.842C102.284 21.6959 101.936 20.5648 101.501 19.461C101.065 18.3559 100.47 17.3009 100.033 16.1964C100.005 16.1691 99.9855 16.1346 99.9617 16.104C99.8158 16.0447 99.6686 15.988 99.5228 15.9288C99.5917 17.3185 99.8496 18.6404 100.517 19.9454ZM76.9846 24.4909C77.8458 28.1051 80.3424 31.059 83.3191 33.5811C81.9435 31.8697 80.8138 29.9852 80.0673 27.8798C78.0619 22.2214 80.7919 16.6008 80.3783 11.1072C80.3484 11.0284 80.3073 10.9503 80.2748 10.8722C80.2178 11.1841 80.1363 11.4817 80.0408 11.7702C80.2059 16.1476 75.8669 19.7989 76.9846 24.4909ZM83.4152 24.4114C84.4143 30.4827 88.4734 35.0561 92.941 39.0897C89.8743 35.6963 87.2663 31.7512 85.6407 27.6792C84.5979 25.0666 84.0092 22.3894 83.8673 19.5958C83.8223 18.7166 83.7911 17.9287 83.7407 17.1902C83.6121 19.5808 83.0115 21.959 83.4152 24.4114ZM81.96 12.704C82.4095 16.2622 81.1519 20.2066 81.6664 23.8482C82.2325 27.8511 84.3625 31.2934 87.1694 34.2551C85.6606 32.3803 84.393 30.3257 83.5007 28.04C82.5341 25.5621 82.1211 23.038 82.2802 20.3915C82.4599 17.4161 83.0565 15.6781 81.96 12.704ZM94.8954 41.3937C93.952 40.7008 93.0259 39.9799 92.1276 39.2284C88.4489 36.7597 85.1368 33.7055 82.9465 29.9305C81.6325 27.6668 80.8403 25.1929 80.6275 22.5874C80.4021 19.8217 81.0339 17.0938 80.9749 14.4688C80.6752 17.4227 79.881 20.4703 80.0912 23.2171C80.7707 32.0951 87.9789 36.9264 94.8954 41.3937ZM82.0303 10.3219C82.1224 10.4378 82.2106 10.557 82.3015 10.6735C82.3273 10.7041 82.3578 10.7321 82.383 10.7621C82.2146 10.5211 82.0435 10.2822 81.8712 10.0438C81.9242 10.1363 81.9786 10.2288 82.0303 10.3219ZM85.237 23.5681C86.0915 27.1355 87.6912 30.1623 89.6562 32.9605C86.9785 27.9684 86.6583 21.9629 84.6304 16.7005C84.8346 18.9836 84.7059 21.3534 85.237 23.5681ZM88.5908 28.757C87.4612 24.5645 87.3783 20.2567 85.5797 16.2284C85.28 15.557 84.942 14.9077 84.5879 14.2663C87.6468 20.7256 87.137 28.7921 91.2247 34.9142C90.1023 32.9931 89.1842 30.9587 88.5908 28.757ZM75.0435 21.2648C74.9149 24.9585 76.8534 27.941 79.3878 30.4495C78.5134 29.4004 77.7404 28.2744 77.1185 27.0449C76.1619 25.1525 75.6269 23.1058 75.9464 20.9913C76.2951 18.686 77.6442 16.7617 78.4113 14.7084C76.9289 16.7011 75.1403 18.4913 75.0435 21.2648ZM48.1445 -6.81731C48.2075 -6.6252 48.2652 -6.4318 48.3242 -6.23774C53.2744 4.00644 56.1496 14.937 64.9548 22.8642C61.2794 18.7368 58.08 14.2461 55.4859 9.35874C52.8713 4.43234 51.5805 -2.18525 48.1445 -6.81731Z" fill="#713600"/>
</svg>
