<svg width="29" height="26" viewBox="0 0 29 26" fill="none" xmlns="http://www.w3.org/2000/svg">
<path d="M22.1128 14.034L22.1128 14.034C21.4827 14.673 20.4775 15.582 19.2347 16.3288C17.99 17.0769 16.5364 17.6445 15 17.6445C13.4635 17.6445 12.0099 17.0769 10.7652 16.3288C9.52246 15.582 8.51723 14.673 7.88713 14.034C7.69898 13.8432 7.59978 13.7405 7.53965 13.6563C7.49869 13.599 7.49953 13.5828 7.49993 13.575C7.49997 13.5743 7.5 13.5737 7.5 13.5731C7.5 13.5725 7.49997 13.5719 7.49993 13.5712C7.49953 13.5634 7.49869 13.5472 7.53965 13.4899C7.59978 13.4057 7.69897 13.303 7.88713 13.1122L22.1128 14.034ZM22.1128 14.034C22.301 13.8432 22.4002 13.7405 22.4603 13.6563C22.5013 13.599 22.5005 13.5828 22.5001 13.575C22.5 13.5743 22.5 13.5737 22.5 13.5731C22.5 13.5725 22.5 13.5719 22.5001 13.5712C22.5005 13.5634 22.5013 13.5472 22.4603 13.4899C22.4002 13.4057 22.301 13.303 22.1128 13.1122L22.1128 13.1122M22.1128 14.034L22.1128 13.1122M22.1128 13.1122C21.4827 12.4732 20.4775 11.5642 19.2347 10.8173M22.1128 13.1122L19.2347 10.8173M19.2347 10.8173C17.99 10.0693 16.5364 9.50167 15 9.50167M19.2347 10.8173L15 9.50167M15 9.50167C13.4635 9.50167 12.0099 10.0693 10.7652 10.8173M15 9.50167L10.7652 10.8173M10.7652 10.8173C9.52247 11.5641 8.51724 12.4732 7.88713 13.1122L10.7652 10.8173Z" stroke="black"/>
<path d="M15.0006 11.2879C16.2629 11.2879 17.2863 12.3113 17.2863 13.5737C17.2863 14.836 16.2629 15.8594 15.0006 15.8594C13.7382 15.8594 12.7148 14.836 12.7148 13.5737C12.7148 12.3113 13.7382 11.2879 15.0006 11.2879Z" fill="#222222"/>
<path d="M7 1H6.7C4.01305 1 2.6695 1 1.83475 1.83475C0.999999 2.66948 1 4.01299 1 6.7V7M7 25H6.7C4.01305 25 2.6695 25 1.83475 24.1653C0.999999 23.3305 1 21.987 1 19.3V19M22 1H22.3C24.987 1 26.3305 1 27.1653 1.83475C28 2.66948 28 4.01299 28 6.7V7M22 25H22.3C24.987 25 26.3305 25 27.1653 24.1653C28 23.3305 28 21.987 28 19.3V19" stroke="#33363F" stroke-linecap="round"/>
</svg>
