<svg width="29" height="24" viewBox="0 0 29 24" fill="none" xmlns="http://www.w3.org/2000/svg">
<path d="M16.8391 9.93483C16.6049 9.93483 16.4151 10.1219 16.4151 10.3527V13.4746C16.4151 13.7054 16.6049 13.8925 16.8391 13.8925H26.1678C26.402 13.8925 26.5919 13.7054 26.5919 13.4746V10.3527C26.5919 10.1219 26.402 9.93483 26.1678 9.93483H16.8391ZM22.5585 0.0011094C23.8492 0.0629575 24.7781 0.320382 25.365 0.865105C25.9462 1.40457 26.2451 2.18588 26.3035 3.21887V6.17898C26.3035 6.69828 25.8764 7.11926 25.3495 7.11926C24.8226 7.11926 24.3954 6.69828 24.3954 6.17898L24.397 3.27263C24.3657 2.73469 24.2389 2.40315 24.0567 2.23409C23.8802 2.07028 23.3433 1.92149 22.5122 1.88055L4.20617 1.87984C3.45335 1.90862 2.96522 2.05233 2.72838 2.25684C2.54623 2.4141 2.40969 2.84629 2.40814 3.593L2.4039 20.2091C2.47367 20.9355 2.63276 21.4189 2.83545 21.6609C2.98916 21.8444 3.46688 22.0287 4.1692 22.1175L22.5318 22.1177C23.3913 22.1351 23.8985 22.0054 24.0686 21.8314C24.2574 21.6383 24.3954 21.1302 24.3954 20.2977V17.4118C24.3954 16.8925 24.8226 16.4715 25.3495 16.4715C25.8764 16.4715 26.3035 16.8925 26.3035 17.4118V20.2977C26.3035 21.5702 26.0457 22.5195 25.4426 23.1363C24.8209 23.7721 23.8324 24.025 22.5122 23.9981L4.05669 23.9915C2.80065 23.8445 1.89868 23.4966 1.36388 22.8581C0.878068 22.278 0.606758 21.4536 0.5 20.2977V3.59109C0.502553 2.35487 0.796404 1.42479 1.47096 0.842355C2.09081 0.307155 2.98236 0.0446581 4.1692 0L22.5585 0.0011094ZM26.1678 8.05428C27.4558 8.05428 28.5 9.08333 28.5 10.3527V13.4746C28.5 14.744 27.4558 15.7731 26.1678 15.7731H16.8391C15.5511 15.7731 14.507 14.744 14.507 13.4746V10.3527C14.507 9.08333 15.5511 8.05428 16.8391 8.05428H26.1678ZM19.1713 10.7921C18.5273 10.7921 18.0052 11.3 18.0052 11.9264C18.0052 12.5529 18.5273 13.0607 19.1713 13.0607C19.8153 13.0607 20.3374 12.5529 20.3374 11.9264C20.3374 11.3 19.8153 10.7921 19.1713 10.7921Z" fill="#4E4E4E"/>
</svg>
