<svg width="24" height="24" viewBox="0 0 24 24" fill="none" xmlns="http://www.w3.org/2000/svg">
<path d="M0.800007 3.19922C0.358179 3.19922 0 3.5574 0 3.99923C0 4.44105 0.358179 4.79923 0.800007 4.79923V3.19922ZM23.2002 4.79923C23.642 4.79923 24.0002 4.44105 24.0002 3.99923C24.0002 3.5574 23.642 3.19922 23.2002 3.19922V4.79923ZM0.800007 4.79923H23.2002V3.19922H0.800007V4.79923Z" fill="#B73636"/>
<path d="M7.19922 4.00003C7.19922 4.44186 7.5574 4.80004 7.99923 4.80004C8.44105 4.80004 8.79923 4.44186 8.79923 4.00003H7.19922ZM15.1993 4.00003C15.1993 4.44186 15.5575 4.80004 15.9993 4.80004C16.4411 4.80004 16.7993 4.44186 16.7993 4.00003H15.1993ZM14.3993 0H9.59924V1.60001H14.3993V0ZM9.59924 0C8.96271 0 8.35226 0.252859 7.90217 0.70295L9.03355 1.83433C9.18358 1.6843 9.38707 1.60001 9.59924 1.60001V0ZM7.90217 0.70295C7.45207 1.15304 7.19922 1.76349 7.19922 2.40002H8.79923C8.79923 2.18785 8.88352 1.98436 9.03355 1.83433L7.90217 0.70295ZM7.19922 2.40002V4.00003H8.79923V2.40002H7.19922ZM16.7993 4.00003V2.40002H15.1993V4.00003H16.7993ZM16.7993 2.40002C16.7993 1.76349 16.5464 1.15304 16.0964 0.70295L14.9649 1.83433C15.115 1.98436 15.1993 2.18785 15.1993 2.40002H16.7993ZM16.0964 0.70295C15.6462 0.252859 15.0358 0 14.3993 0V1.60001C14.6114 1.60001 14.815 1.6843 14.9649 1.83433L16.0964 0.70295Z" fill="#B73636"/>
<path d="M8.80078 17.6009C8.80078 18.0427 9.15896 18.4009 9.60079 18.4009C10.0426 18.4009 10.4008 18.0427 10.4008 17.6009H8.80078ZM10.4008 9.60079C10.4008 9.15896 10.0426 8.80078 9.60079 8.80078C9.15896 8.80078 8.80078 9.15896 8.80078 9.60079H10.4008ZM10.4008 17.6009V9.60079H8.80078V17.6009H10.4008Z" fill="#B73636"/>
<path d="M14 17.8001C14 18.2419 14.3582 18.6001 14.8 18.6001C15.2418 18.6001 15.6 18.2419 15.6 17.8001H14ZM15.6 9.80001C15.6 9.35818 15.2418 9 14.8 9C14.3582 9 14 9.35818 14 9.80001H15.6ZM15.6 17.8001V9.80001H14V17.8001H15.6Z" fill="#B73636"/>
<path d="M3.99574 3.93281C3.95902 3.49249 3.57233 3.16532 3.13203 3.20203C2.69171 3.23874 2.36454 3.62544 2.40125 4.06574L3.99574 3.93281ZM21.5959 4.06569C21.6326 3.62539 21.3054 3.23871 20.8651 3.20203C20.4248 3.16535 20.0381 3.49255 20.0014 3.93285L21.5959 4.06569ZM18.5241 21.6652C18.5074 21.8652 18.4162 22.0521 18.2685 22.188L19.3521 23.3653C19.7952 22.9575 20.0688 22.3979 20.1185 21.7978L18.5241 21.6652ZM18.2685 22.188C18.1209 22.324 17.9275 22.3994 17.7267 22.3994L17.7265 23.9994C18.3287 23.9994 18.909 23.7732 19.3521 23.3653L18.2685 22.188ZM17.7267 22.3994H6.27158V23.9994H17.7265L17.7267 22.3994ZM6.27158 22.3994C6.07085 22.3994 5.87736 22.324 5.72966 22.188L4.64611 23.3653C5.08921 23.7732 5.66936 23.9994 6.27158 23.9994V22.3994ZM5.72966 22.188C5.58197 22.0521 5.49077 21.8656 5.47417 21.6656L3.87964 21.7978C3.92942 22.3979 4.203 22.9575 4.64611 23.3653L5.72966 22.188ZM5.47417 21.6656L3.99574 3.93281L2.40125 4.06574L3.87964 21.7978L5.47417 21.6656ZM20.0014 3.93285L18.5241 21.6652L20.1185 21.7978L21.5959 4.06569L20.0014 3.93285Z" fill="#B73636"/>
</svg>
