<svg width="27" height="21" viewBox="0 0 27 21" fill="none" xmlns="http://www.w3.org/2000/svg">
<path fill-rule="evenodd" clip-rule="evenodd" d="M13.6587 12.3194C13.2889 12.6359 12.745 12.6402 12.3702 12.3296L11.0301 11.2186C10.6293 10.8863 10.0405 10.9172 9.67659 11.2897L2.56672 18.568C1.9481 19.2012 2.39678 20.2668 3.28205 20.2668H22.5495C23.4299 20.2668 23.8807 19.2112 23.2718 18.5753L16.305 11.2974C15.9381 10.9141 15.3356 10.8841 14.9324 11.2292L13.6587 12.3194ZM17.8414 8.90571C17.3873 9.27477 17.3456 9.95322 17.7513 10.375L25.5516 18.4851C25.728 18.6686 26.0375 18.5879 26.0375 18.3335V4.34667C26.0375 3.5046 25.0604 3.03955 24.4069 3.57059L17.8414 8.90571ZM1.63285 3.54271C0.979833 3.00897 0 3.4736 0 4.31699V18.3335C0 18.5884 0.309904 18.6696 0.487254 18.4865L8.31341 10.4029C8.72059 9.98238 8.68105 9.30356 8.22781 8.9331L1.63285 3.54271ZM23.0019 2.51086C23.7393 1.92002 23.3215 0.730469 22.3766 0.730469H3.66093C2.71604 0.730469 2.29826 1.92002 3.03563 2.51085L12.3935 10.009C12.7589 10.3018 13.2786 10.3018 13.6441 10.009L23.0019 2.51086Z" fill="#FE9135"/>
</svg>
