<svg width="390" height="1016" viewBox="0 0 390 1016" fill="none" xmlns="http://www.w3.org/2000/svg">
<g opacity="0.07">
<path d="M427.374 185.115C428.993 187.366 430.827 189.034 432.734 190.437C390.624 264.015 365.495 338.524 366.891 425.403C334.386 450.229 299.294 471.787 258.591 488.919C249.721 492.653 254.657 505.113 263.698 502.722C283.391 497.517 302.153 489.717 320.08 480.094C333.478 483.479 350.043 481.978 362.696 480.801C372.982 479.844 382.923 477.771 392.656 474.911C393.336 476.406 394.176 477.9 395.243 479.383C413.041 504.133 451.538 476.512 433.71 451.719C418.45 430.498 388.079 447.789 390.934 468.776C381.345 470.535 371.654 471.7 361.872 472.124C353.625 472.483 345.326 471.295 337.083 470.221C368.533 450.77 397.278 426.023 423.595 399.971C461.823 394.15 499.787 380.173 530.276 356.436C548.093 374.506 580.605 349.623 564.4 327.085C547.862 304.086 512.754 328.455 526.588 351.594C499.908 367.689 470.595 374.748 440.526 382.718C445.353 377.676 450.131 372.626 454.791 367.587C481.055 339.198 505.991 310.925 531.566 283.61C547.355 282.593 564.105 277.017 579.883 275.201C589.143 274.134 598.184 272.825 607.07 270.813C607.637 272.455 608.386 274.104 609.562 275.746C623.048 294.497 652.209 273.571 638.701 254.789C627.542 239.272 605.723 250.935 606.151 266.058C593.611 267.439 580.954 267.253 568.141 267.42C561.37 267.507 553.578 267.431 546.046 268.35C575.722 237.498 606.756 208.148 642.109 181.619C657.933 194.152 683.723 173.335 670.105 154.395C655.273 133.771 623.196 156.786 638.05 177.447C638.3 177.795 638.595 178.037 638.856 178.363C587.063 209.29 544.174 254.407 502.355 298.185C502.616 291.486 502.401 284.643 503.105 278.651C507.145 244.356 521.349 213.796 544.632 188.985C560.89 203.942 589.242 181.714 574.799 161.631C559.426 140.255 526.183 164.109 541.579 185.523C541.798 185.83 542.056 186.034 542.283 186.321C525.029 201.267 511.105 219.148 501.391 240.135C489.672 265.453 494.086 294.474 482.579 318.752C481.1 320.276 479.621 321.812 478.138 323.329C445.58 356.613 414.096 387.594 380.123 415.023C385.049 378.024 383.857 340.14 392.429 303.56C401.549 264.628 418.624 228.299 436.596 192.703C454.924 200.768 479.288 178.62 464.679 158.303C447.415 134.29 410.087 161.075 427.374 185.115Z" fill="#713600"/>
<path d="M-38.3994 185.115C-40.0184 187.366 -41.853 189.034 -43.7596 190.437C-1.64615 264.015 23.4789 338.524 22.0831 425.403C54.5883 450.229 89.6808 471.787 130.383 488.919C139.254 492.653 134.317 505.113 125.277 502.722C105.584 497.517 86.821 489.717 68.8983 480.094C55.4998 483.479 38.9352 481.978 26.2819 480.801C16.0003 479.844 6.05554 477.771 -3.67746 474.911C-4.35837 476.406 -5.19821 477.9 -6.26495 479.383C-24.0628 504.133 -62.5599 476.512 -44.7318 451.719C-29.4722 430.498 0.899597 447.789 -1.95636 468.776C7.6329 470.535 17.3244 471.7 27.1066 472.124C35.353 472.483 43.6523 471.295 51.8949 470.221C20.4451 450.77 -8.30005 426.023 -34.6167 399.971C-72.8452 394.15 -110.809 380.173 -141.298 356.436C-159.115 374.506 -191.627 349.623 -175.418 327.085C-158.88 304.086 -123.772 328.455 -137.602 351.594C-110.922 367.689 -81.6098 374.748 -51.5407 382.718C-56.3713 377.676 -61.1451 372.626 -65.8055 367.587C-92.0691 339.198 -117.005 310.925 -142.58 283.61C-158.369 282.593 -175.119 277.017 -190.897 275.201C-200.157 274.134 -209.198 272.825 -218.084 270.813C-218.651 272.455 -219.4 274.104 -220.577 275.746C-234.062 294.497 -263.223 273.571 -249.719 254.789C-238.56 239.272 -216.741 250.935 -217.169 266.058C-204.629 267.439 -191.972 267.253 -179.159 267.42C-172.388 267.507 -164.596 267.431 -157.064 268.35C-186.74 237.498 -217.774 208.148 -253.127 181.619C-268.951 194.152 -294.741 173.335 -281.123 154.395C-266.291 133.771 -234.21 156.786 -249.068 177.447C-249.318 177.795 -249.613 178.037 -249.874 178.363C-198.081 209.29 -155.192 254.407 -113.374 298.185C-113.635 291.486 -113.415 284.643 -114.123 278.651C-118.163 244.356 -132.367 213.796 -155.65 188.985C-171.908 203.942 -200.26 181.714 -185.817 161.631C-170.444 140.255 -137.197 164.109 -152.597 185.523C-152.816 185.83 -153.074 186.034 -153.301 186.321C-136.047 201.267 -122.123 219.148 -112.409 240.135C-100.69 265.453 -105.105 294.474 -93.5974 318.752C-92.1183 320.276 -90.6392 321.812 -89.1564 323.329C-56.5982 356.613 -25.1143 387.594 8.85855 415.023C3.93341 378.024 5.12491 340.14 -3.44681 303.56C-12.567 264.628 -29.6424 228.299 -47.6142 192.703C-65.9379 200.768 -90.3063 178.62 -75.6973 158.303C-58.4366 134.29 -21.1085 161.075 -38.3994 185.115Z" fill="#713600"/>
<path d="M654.041 573.144C707.889 572.49 725.853 645.769 778.509 653.221C803.649 656.777 830.284 643.908 852.723 634.531C873.154 625.993 902.462 618.148 912.279 596.495C913.845 593.038 911.628 587.36 907.036 588.097C852.772 596.813 802.643 576.038 750.66 564.194C736.184 560.896 712.254 555.762 689.834 555.513C714.187 543.249 737.992 530.823 761.09 518.964C766.427 516.225 771.772 513.49 777.128 510.77C788.715 513.713 799.341 520.39 811.203 521.793C827.291 523.696 840.902 513.952 857.614 516.418C860.198 516.8 861.537 513.513 859.218 512.117C844.696 503.367 824.965 495.859 806.494 496.089C831.589 483.758 856.967 471.982 882.75 461.326C920.703 484.552 933.783 532.839 971.112 557.378C991.001 570.455 1015.19 572.452 1038.34 574.097C1067.44 576.163 1094.72 575.073 1119.18 557.854C1122.94 555.206 1121.56 550.33 1117.63 548.87C1070.21 531.205 1028.97 501.631 983.852 479.267C960.278 467.582 931.472 454.838 903.487 453.049C933.56 441.497 964.246 431.688 995.775 424.614C1014.26 447.326 1044.09 462.695 1073.22 455.167C1075.03 454.702 1074.95 452.334 1073.57 451.472C1054.11 439.322 1034.72 424.678 1012.42 421.138C1018.15 420.045 1023.89 419.031 1029.67 418.127C1049.3 415.063 1069.03 412.839 1088.81 411.072C1088.87 411.17 1088.91 411.269 1088.99 411.367C1113.91 444.542 1138.82 492.496 1178.83 509.802C1214.86 525.391 1266.03 525.326 1302 510.887C1305.95 509.303 1306.15 504.684 1302.79 502.369C1264.73 476.109 1224.99 452.399 1183.31 432.316C1163.54 422.787 1142.6 413.743 1120.97 408.564C1159.42 405.977 1198 404.547 1236.44 401.944C1240.28 403.019 1244.2 403.888 1248.11 404.736C1265.64 414.31 1282.78 423.279 1304.11 420.404C1304.97 420.287 1305.7 419.753 1306.14 419.069C1314.56 425.216 1322.83 431.601 1331.7 437.059C1358.57 453.594 1388.92 466.743 1420.63 469.587C1461.92 473.291 1491.66 449.645 1530.82 443.547C1534.52 442.972 1537.99 437.782 1534.04 434.884C1463.04 382.792 1376.46 378.892 1292.78 391.386C1291.56 391.436 1290.33 391.447 1289.11 391.504C1288.53 391.53 1288.09 391.78 1287.78 392.132C1284.65 392.135 1281.53 392.173 1278.4 392.207C1280.95 391.163 1283.49 390.085 1286.03 389.015C1302.33 386.772 1318.68 384.755 1334.55 379.093C1360.48 369.844 1384.01 355.825 1407.4 341.519C1409.49 340.24 1408.47 336.631 1405.95 336.835C1377.13 339.15 1349.35 345.207 1322.65 356.597C1298.23 367.018 1276.01 382.777 1250.26 388.981C1238.9 388.731 1227.27 389.48 1215.44 390.01C1206.11 390.43 1196.74 390.895 1187.36 391.447C1203.69 387.494 1219.68 382.641 1234.88 376.017C1272.77 359.494 1301.22 329.361 1327.16 298.066C1330.17 294.419 1327.56 289.914 1323.23 289.509C1283.16 285.764 1236.82 296.424 1201.61 315.871C1180.3 327.643 1161.78 344.889 1143.23 360.497C1128.62 372.791 1113.58 384.831 1099.93 398.226C1097.43 398.661 1094.94 399.096 1092.45 399.538C1080.58 400.223 1068.73 401.067 1056.9 402.182C1061.18 400.034 1065.15 397.443 1068.41 393.993C1071.93 390.267 1073.47 386.495 1075.66 381.949C1083.59 365.482 1089.58 352.98 1104.91 342.048C1106.88 340.641 1105.99 337.497 1103.5 337.501C1088.12 337.528 1079.67 347.847 1069.75 358.522C1055.12 374.258 1041.27 393.221 1023.75 406.158C1000.6 409.669 977.871 414.813 955.5 421.164C980.969 401.876 1002.78 374.727 1023.85 353.506C1038.3 338.961 1051.81 325.703 1059.15 306.18C1065.79 288.507 1069.11 268.988 1072.96 250.551C1074.22 244.51 1066.34 241.972 1063.2 246.908C1036.09 289.57 982.513 298.754 948.861 334.275C938.478 345.233 930.281 358.624 926.918 373.445C922.462 393.081 932.671 409.324 931.253 428.522C913.875 434.185 896.72 440.566 879.743 447.439C888.349 434.086 892.805 415.952 895.888 401.498C896.406 399.077 893.214 397.174 891.504 399.187C877.92 415.195 864.408 431.824 865.27 453.435C842.808 462.96 820.649 473.298 798.754 484.094C789.26 488.777 779.784 493.521 770.312 498.291C790.451 473.643 805.65 447.061 811.612 414.287C816.038 389.945 819.836 367.203 832.345 345.335C844.567 323.963 861.397 305.628 877.844 287.486C881.048 283.953 877.462 277.616 872.696 279.353C841.946 290.557 815.054 307.928 788.779 327.223C768.765 341.919 747.483 356.997 733.816 378.181C723.058 394.852 717.176 416.67 723.391 436.182C725.974 444.292 730.442 450.432 735.787 456.972C750.396 474.861 755.434 491.516 744.688 511.254C692.262 537.843 639.849 564.455 586.202 585.998C600.012 567.659 606.53 542.67 615.65 521.585C635.392 475.931 663.423 435.126 698.201 399.648C701.818 395.96 697.668 389.541 692.822 391.152C644.914 407.085 589.394 418.475 557.566 461.447C545.976 477.092 537.983 495.915 538.138 515.627C538.361 543.998 564.939 568.31 556.132 596.567C556.03 596.896 555.981 597.206 555.936 597.516C477.924 625.535 396.856 640.995 308.956 628.387C303.036 627.54 300.876 636.013 306.823 637.542C425.332 668.038 544.576 625.649 654.041 573.144Z" fill="#FFF9E3"/>
<path d="M654.041 573.144C707.889 572.49 725.853 645.769 778.509 653.221C803.649 656.777 830.284 643.908 852.723 634.531C873.154 625.993 902.462 618.148 912.279 596.495C913.845 593.038 911.628 587.36 907.036 588.097C852.772 596.813 802.643 576.038 750.66 564.194C736.184 560.896 712.254 555.762 689.834 555.513C714.187 543.249 737.992 530.823 761.09 518.964C766.427 516.225 771.772 513.49 777.128 510.77C788.715 513.713 799.341 520.39 811.203 521.793C827.291 523.696 840.902 513.952 857.614 516.418C860.198 516.8 861.537 513.513 859.218 512.117C844.696 503.367 824.965 495.859 806.494 496.089C831.589 483.758 856.967 471.982 882.75 461.326C920.703 484.552 933.783 532.839 971.112 557.378C991.001 570.455 1015.19 572.452 1038.34 574.097C1067.44 576.163 1094.72 575.073 1119.18 557.854C1122.94 555.206 1121.56 550.33 1117.63 548.87C1070.21 531.205 1028.97 501.631 983.852 479.267C960.278 467.582 931.472 454.838 903.487 453.049C933.56 441.497 964.246 431.688 995.775 424.614C1014.26 447.326 1044.09 462.695 1073.22 455.167C1075.03 454.702 1074.95 452.334 1073.57 451.472C1054.11 439.322 1034.72 424.678 1012.42 421.138C1018.15 420.045 1023.89 419.031 1029.67 418.127C1049.3 415.063 1069.03 412.839 1088.81 411.072C1088.87 411.17 1088.91 411.269 1088.99 411.367C1113.91 444.542 1138.82 492.496 1178.83 509.802C1214.86 525.391 1266.03 525.326 1302 510.887C1305.95 509.303 1306.15 504.684 1302.79 502.369C1264.73 476.109 1224.99 452.399 1183.31 432.316C1163.54 422.787 1142.6 413.743 1120.97 408.564C1159.42 405.977 1198 404.547 1236.44 401.944C1240.28 403.019 1244.2 403.888 1248.11 404.736C1265.64 414.31 1282.78 423.279 1304.11 420.404C1304.97 420.287 1305.7 419.753 1306.14 419.069C1314.56 425.216 1322.83 431.601 1331.7 437.059C1358.57 453.594 1388.92 466.743 1420.63 469.587C1461.92 473.291 1491.66 449.645 1530.82 443.547C1534.52 442.972 1537.99 437.782 1534.04 434.884C1463.04 382.792 1376.46 378.892 1292.78 391.386C1291.56 391.436 1290.33 391.447 1289.11 391.504C1288.53 391.53 1288.09 391.78 1287.78 392.132C1284.65 392.135 1281.53 392.173 1278.4 392.207C1280.95 391.163 1283.49 390.085 1286.03 389.015C1302.33 386.772 1318.68 384.755 1334.55 379.093C1360.48 369.844 1384.01 355.825 1407.4 341.519C1409.49 340.24 1408.47 336.631 1405.95 336.835C1377.13 339.15 1349.35 345.207 1322.65 356.597C1298.23 367.018 1276.01 382.777 1250.26 388.981C1238.9 388.731 1227.27 389.48 1215.44 390.01C1206.11 390.43 1196.74 390.895 1187.36 391.447C1203.69 387.494 1219.68 382.641 1234.88 376.017C1272.77 359.494 1301.22 329.361 1327.16 298.066C1330.17 294.419 1327.56 289.914 1323.23 289.509C1283.16 285.764 1236.82 296.424 1201.61 315.871C1180.3 327.643 1161.78 344.889 1143.23 360.497C1128.62 372.791 1113.58 384.831 1099.93 398.226C1097.43 398.661 1094.94 399.096 1092.45 399.538C1080.58 400.223 1068.73 401.067 1056.9 402.182C1061.18 400.034 1065.15 397.443 1068.41 393.993C1071.93 390.267 1073.47 386.495 1075.66 381.949C1083.59 365.482 1089.58 352.98 1104.91 342.048C1106.88 340.641 1105.99 337.497 1103.5 337.501C1088.12 337.528 1079.67 347.847 1069.75 358.522C1055.12 374.258 1041.27 393.221 1023.75 406.158C1000.6 409.669 977.871 414.813 955.5 421.164C980.969 401.876 1002.78 374.727 1023.85 353.506C1038.3 338.961 1051.81 325.703 1059.15 306.18C1065.79 288.507 1069.11 268.988 1072.96 250.551C1074.22 244.51 1066.34 241.972 1063.2 246.908C1036.09 289.57 982.513 298.754 948.861 334.275C938.478 345.233 930.281 358.624 926.918 373.445C922.462 393.081 932.671 409.324 931.253 428.522C913.875 434.185 896.72 440.566 879.743 447.439C888.349 434.086 892.805 415.952 895.888 401.498C896.406 399.077 893.214 397.174 891.504 399.187C877.92 415.195 864.408 431.824 865.27 453.435C842.808 462.96 820.649 473.298 798.754 484.094C789.26 488.777 779.784 493.521 770.312 498.291C790.451 473.643 805.65 447.061 811.612 414.287C816.038 389.945 819.836 367.203 832.345 345.335C844.567 323.963 861.397 305.628 877.844 287.486C881.048 283.953 877.462 277.616 872.696 279.353C841.946 290.557 815.054 307.928 788.779 327.223C768.765 341.919 747.483 356.997 733.816 378.181C723.058 394.852 717.176 416.67 723.391 436.182C725.974 444.292 730.442 450.432 735.787 456.972C750.396 474.861 755.434 491.516 744.688 511.254C692.262 537.843 639.849 564.455 586.202 585.998C600.012 567.659 606.53 542.67 615.65 521.585C635.392 475.931 663.423 435.126 698.201 399.648C701.818 395.96 697.668 389.541 692.822 391.152C644.914 407.085 589.394 418.475 557.566 461.447C545.976 477.092 537.983 495.915 538.138 515.627C538.361 543.998 564.939 568.31 556.132 596.567C556.03 596.896 555.981 597.206 555.936 597.516C477.924 625.535 396.856 640.995 308.956 628.387C303.036 627.54 300.876 636.013 306.823 637.542C425.332 668.038 544.576 625.649 654.041 573.144ZM1285.65 506.515C1284.24 506.897 1282.78 507.226 1281.33 507.57C1280.51 507.483 1279.76 507.426 1279.2 507.445C1269.98 507.748 1261 508.451 1251.76 507.956C1229.1 506.742 1203.48 504.26 1182.95 493.873C1162.19 483.372 1147.55 467.129 1134.39 449.353C1177.08 483.841 1230.39 508.376 1284.57 506.049C1284.94 506.201 1285.29 506.363 1285.65 506.515ZM1146.65 387.362C1203.74 366.216 1256.27 342.199 1307.11 305.125C1305.37 306.532 1303.51 308.147 1302.25 309.52C1295.5 316.859 1288.27 323.494 1280.64 329.887C1264.92 343.047 1248.85 353.54 1230.13 361.949C1203.63 373.861 1175.23 381.279 1146.65 387.362ZM1134.15 386.617C1185.48 356.075 1236.78 327.382 1293.71 309.055C1270.61 325.676 1247.08 341.723 1221.44 354.24C1193.74 367.756 1163.7 377.042 1134.15 386.617ZM1298.62 305.499C1251.78 318.149 1207.46 339.169 1164.85 362.804C1180.02 352.186 1195.74 342.313 1211.6 332.773C1240.63 315.304 1270.77 311.298 1301.98 303.074C1300.86 303.884 1299.74 304.69 1298.62 305.499ZM1176.24 497.886C1167.68 493.222 1159.75 486.598 1152.3 478.885C1161.13 486.523 1170.59 493.15 1180.69 498.162C1194.83 505.179 1211.34 509.62 1228.37 511.693C1209.33 510.328 1190.89 505.879 1176.24 497.886ZM1286.81 502.535C1284.67 502.327 1282.49 502.164 1280.37 501.915C1272.98 500.337 1265.42 497.72 1257.86 494.395C1262.71 496.574 1267.57 498.684 1272.43 500.795C1212.78 492.068 1165.28 465.914 1121.14 425.821C1164.85 449.085 1208.9 472.137 1253.83 492.549C1232.04 482.332 1210.48 467.356 1193.16 457.989C1168.06 444.413 1142.24 431.253 1117.63 416.546C1178.38 434.23 1234.51 466.973 1286.81 502.535ZM1488.1 440.169C1448 444.598 1406.82 442.234 1370.3 423.65C1356.1 416.425 1343.54 409.563 1330.51 404.392C1358.16 410.073 1385.9 415.252 1413.71 420.139C1434.64 423.816 1455.58 427.323 1476.59 430.478C1479.77 430.954 1510.08 436.689 1510.5 435.66C1508.83 439.753 1491.12 439.836 1488.1 440.169ZM1281.12 410.346C1273.33 405.999 1264.23 404.002 1255.66 401.74C1255.24 401.626 1254.81 401.498 1254.38 401.381C1254.52 401.328 1254.67 401.278 1254.81 401.225C1254.83 401.222 1254.85 401.222 1254.87 401.218C1268.44 403.775 1281.02 409.616 1293.85 415.8C1284.96 415.619 1276.55 413.527 1268.44 409.684C1272.56 410.592 1276.7 411.295 1280.87 411.42C1281.47 411.439 1281.6 410.61 1281.12 410.346ZM1285.14 405.561C1285.56 405.765 1285.99 405.965 1286.41 406.181C1285.99 405.977 1285.56 405.765 1285.14 405.561ZM1410.93 440.717C1439.86 446.497 1468.86 445.374 1497.65 441.096C1458.23 452.595 1418.81 461.511 1380.02 440.812C1356.82 428.435 1335.41 413.659 1311.51 403.752C1346.02 411.802 1374.91 433.519 1410.93 440.717ZM1505.56 433.159C1471.8 428.189 1438.12 422.473 1404.64 415.937C1385.42 412.18 1366.24 408.103 1347.06 404.093C1339.75 402.561 1332.44 400.98 1325.14 399.395C1385.88 401.218 1445.37 415.8 1504 432.501C1504.52 432.721 1505.04 432.94 1505.56 433.159ZM1313.4 394.666C1318.44 394.25 1323.47 393.876 1328.52 393.569C1374.5 393.369 1421.9 403.17 1466.25 418.203C1416.34 403.998 1365.29 395.041 1313.4 394.666ZM1406.78 456.42C1370.93 449.168 1343.08 429.831 1313.75 410.361C1343.42 423.071 1370.36 442.317 1401.82 451.532C1429.04 459.503 1456.73 454.366 1484.13 448.23C1481.27 449.342 1478.39 450.443 1475.45 451.498C1452.93 459.574 1430.34 461.182 1406.78 456.42ZM1516.39 434.222C1515.31 433.84 1514.23 433.47 1513.15 433.091C1462.45 410.357 1408.82 396.97 1353.93 392.582C1411.39 391.666 1467.92 400.688 1516.39 434.222ZM1386.58 344.514C1408.7 342.684 1384.2 349.996 1375.88 354.558C1360.72 362.876 1345 370.336 1328.54 375.707C1320.67 378.272 1312.63 379.838 1304.54 381.033C1324.15 372.363 1343.64 363.334 1363.17 355.261C1363.89 354.966 1363.58 353.865 1362.8 354.089C1345.58 359.116 1327.66 364.552 1309.96 370.782C1334.54 359.154 1359.12 346.784 1386.58 344.514ZM1173.91 384.396C1209.75 373.26 1245.06 359.071 1275.14 337.997C1257.41 353.192 1237.64 365.671 1214.3 373.422C1201.15 377.788 1187.61 381.305 1173.91 384.396ZM1195.88 332.765C1227.51 311.847 1267.94 301.731 1306.26 299.965C1305.67 300.392 1305.09 300.816 1304.5 301.24C1271.55 308.783 1240.6 313.178 1209.87 330.068C1193.78 338.912 1177.79 347.979 1162.34 357.841C1173.22 349.046 1184.24 340.463 1195.88 332.765ZM573.196 459.2C583.622 447.833 597.33 438.8 611.728 431.124C621.268 426.343 631.315 422.288 641.551 418.641C616.959 433.22 595.114 451.343 580.739 477.327C573.083 491.164 567.923 505.875 567.352 521.797C566.637 541.577 573.719 562.227 568.952 581.054C568.547 576.061 567.428 571.173 565.763 566.21C562.68 547.247 554.964 528.916 554.302 508.803C553.64 488.789 560.861 473.037 572.273 460.199C572.569 459.862 572.89 459.537 573.196 459.2ZM655.433 413.924C630.308 430.228 609.125 457.88 598.087 482.804C587.193 507.404 585.089 534.193 578.867 559.802C577.558 544.955 573.972 529.639 574.955 514.016C577.94 466.644 616.138 436.685 654.647 414.181C654.912 414.098 655.172 414.007 655.433 413.924ZM592.333 511.95C600.856 474.777 628.05 436.901 661.592 415.002C621.075 454.286 603.307 511.916 582.767 564.852C586.444 547.444 588.305 529.525 592.333 511.95ZM854.02 621.647C841.916 626.87 829.603 631.815 817.097 635.998C801.523 636.358 786.555 631.035 771.288 621.026C754.916 610.294 740.031 598.405 724.314 587.904C731.497 591.169 738.578 594.8 745.531 599.052C760.953 608.483 775.472 616.937 793.466 620.463C822.245 626.103 850.707 620.323 877.553 610.056C874.738 611.895 871.932 613.741 869.117 615.579C863.689 617.796 858.427 619.744 854.02 621.647ZM872.007 608.29C835.935 619.6 798.887 624.953 764.354 602.687C748.137 592.232 732.794 583.418 716.657 576.004C726.833 578.41 736.819 581.606 746.723 586.157C762.724 593.507 777.367 602.131 794.574 606.538C818.224 612.594 841.931 612.367 865.247 608.063C867.502 608.206 869.757 608.274 872.007 608.29ZM746.685 608.199C760.22 618.545 773.868 629.779 789.895 636.055C794.329 637.791 798.72 638.9 803.086 639.645C799.889 640.22 796.795 640.56 793.776 640.727C768.182 635.416 749.37 618.643 729.572 597.195C728.747 596.302 727.896 595.405 727.06 594.509C733.714 598.787 740.269 603.289 746.685 608.199ZM770.168 591.313C763.484 587.59 756.917 584.016 750.343 580.698C769.688 586.985 789.309 592.417 809.131 597.165C824.186 600.77 839.96 605.078 855.768 607.121C826.459 610.245 797.12 606.319 770.168 591.313ZM732.219 610.695C725.426 603.486 718.401 595.814 710.953 588.718C715.042 591.555 719.056 594.717 723.077 598.413C734.788 609.179 745.005 621.673 758.177 630.786C762.016 633.445 765.992 635.639 770.028 637.583C756.543 632.965 744.438 623.659 732.219 610.695ZM883.48 601.704C854.822 606.016 823.74 597.758 796.167 591.218C775.763 586.38 755.714 580.339 735.768 573.95C733.714 573.072 731.663 572.179 729.587 571.378C748.735 574.842 767.464 580.089 786.196 585.309C818.391 594.286 850.442 602.438 883.48 601.704ZM846.788 510.623C845.596 510.608 844.409 510.63 843.213 510.736C832.432 511.689 823.164 517.976 812.058 516.603C802.091 515.37 793.553 509.908 784.153 507.218C788.064 505.244 791.979 503.277 795.902 501.321C812.928 498.643 831.116 503.061 846.788 510.623ZM940.793 419.205C942.643 358.968 981.817 326.698 1025.83 297.521C1009.2 314.778 992.817 332.289 976.922 350.067C958.519 370.653 947.012 392.847 942.575 419.549C942.041 420.003 941.489 420.43 940.952 420.881C940.91 420.321 940.85 419.765 940.793 419.205ZM1067.62 561.542C1056.54 562.583 1045.33 562.219 1034.37 560.4C1010.61 556.454 988.297 546.109 970.136 530.297C956.968 518.828 947.227 503.178 936.027 489.477C978.492 519.334 1015.91 561.72 1067.62 561.542ZM959.347 498.836C974.35 508.58 989.019 519.278 1004.9 530.248C1018.59 539.701 1033.7 546.892 1049.79 551.193C1054.74 552.517 1059.78 553.462 1064.84 554.238C1031.15 551.79 1003.64 536.47 973.684 511.046C968.91 506.995 964.14 502.902 959.347 498.836ZM1001.32 520.878C970.938 497.655 943.116 476.699 908.242 462.835C945.593 469.568 978.98 484.673 1011.07 506.329C1033.8 521.668 1054.27 540.34 1079.12 550.731C1050.72 548.567 1024.12 538.301 1001.32 520.878ZM1047.11 283.692C1029.9 309.891 1011.16 335.088 989.67 357.966C979.158 369.159 962.226 382.361 952.304 397.197C952.463 396.55 952.595 396.058 952.678 395.835C959.937 376.305 972.243 361.011 986.227 345.797C1003.89 326.58 1021.94 307.712 1039.63 288.515C1042.12 286.911 1044.62 285.303 1047.11 283.692ZM987.661 374.334C988.966 373.365 990.271 372.397 991.55 371.402C981.609 381.93 971.585 392.495 961.19 402.595C969.232 392.317 978.352 383.273 987.661 374.334ZM1015.18 345.055C995.352 362.573 974.841 377.477 958.352 397.246C970.847 378.4 989.299 362.963 1004.64 346.478C1019.55 330.458 1033.39 313.674 1046.3 296.129C1038.26 314.025 1027.81 330.363 1015.18 345.055ZM949.505 522.482C939.204 509.31 930.11 495.166 919.795 482.313C932.093 493.048 940.929 507.631 952.364 520.885C964.272 534.685 978.881 546.131 995.257 554.192C1001.15 557.094 1007.15 559.424 1013.23 561.312C986.477 556.67 966.811 544.611 949.505 522.482ZM1097.16 550.796C1095.77 550.837 1094.35 550.92 1092.92 551.011C1062.9 544.058 1037.34 521.29 1011.6 502.69C1040.72 519.501 1069.2 537.802 1097.16 550.796ZM1066.76 451.718C1053.43 452.478 1040.23 450.643 1028.36 443.8C1019.12 438.47 1012.36 431.056 1005.37 423.718C1027.85 425.9 1047.98 439.159 1066.76 451.718ZM1051.7 385.493C1062.76 373.668 1077.55 351.263 1094.51 344.477C1087.28 351.282 1081.47 358.866 1076.57 368.054C1068.8 382.607 1067.69 393.13 1050.14 400.545C1046.79 401.963 1043.29 403.003 1039.76 403.994C1039.5 404.025 1039.24 404.047 1038.97 404.078C1036.49 404.377 1034.02 404.755 1031.54 405.091C1038.75 399.33 1045 392.646 1051.7 385.493ZM1039.03 319.98C1041.19 316.689 1043.24 313.314 1045.23 309.902C1043.36 313.432 1041.28 316.776 1039.03 319.98ZM985.308 316.866C986.995 315.815 988.694 314.786 990.392 313.761C961.507 339.767 939.87 372.617 939.529 410.879C937.048 398.131 932.936 385.777 936.518 372.068C943.055 347.026 964.446 329.875 985.308 316.866ZM876.842 427.591C879.887 421.524 884.18 416.073 888.576 410.766C886.926 417.423 884.941 423.994 882.459 430.406C879.974 436.825 876.577 442.953 874.08 449.369C873.921 449.527 873.812 449.728 873.676 449.906C872.843 450.25 872.004 450.579 871.171 450.923C871.565 442.851 873.036 435.172 876.842 427.591ZM742.569 401.188C747.483 380.193 761.729 363.035 778.713 348.384C770.864 358.325 764.418 369.272 760.159 381.502C748.716 414.37 764.294 447.019 761.933 478.931C761.763 479.388 761.528 479.842 761.343 480.296C761.018 478.484 760.552 476.756 760.008 475.08C760.95 449.652 736.191 428.442 742.569 401.188ZM779.262 401.649C784.963 366.383 808.124 339.816 833.616 316.386C816.117 336.098 801.236 359.014 791.961 382.667C786.01 397.844 782.651 413.395 781.842 429.623C781.585 434.729 781.407 439.306 781.119 443.596C780.385 429.71 776.958 415.895 779.262 401.649ZM770.959 469.655C773.523 448.987 766.348 426.074 769.283 404.921C772.513 381.669 784.667 361.673 800.684 344.469C792.074 355.36 784.841 367.294 779.75 380.572C774.235 394.965 771.878 409.627 772.786 425C773.811 442.284 777.215 452.38 770.959 469.655ZM844.768 303.003C839.385 307.027 834.1 311.215 828.975 315.58C807.984 329.921 789.086 347.662 776.587 369.59C769.09 382.739 764.57 397.11 763.355 412.245C762.069 428.31 765.674 444.156 765.337 459.404C763.628 442.246 759.096 424.542 760.295 408.587C764.172 357.016 805.302 328.952 844.768 303.003ZM771.36 483.493C771.885 482.819 772.389 482.127 772.907 481.45C773.054 481.272 773.228 481.11 773.372 480.936C772.411 482.335 771.435 483.724 770.452 485.108C770.754 484.571 771.065 484.034 771.36 483.493ZM789.657 406.548C794.533 385.826 803.661 368.244 814.873 351.989C799.594 380.988 797.767 415.872 786.196 446.441C787.361 433.178 786.627 419.413 789.657 406.548ZM808.794 376.407C802.348 400.76 801.875 425.783 791.612 449.183C789.903 453.083 787.974 456.855 785.954 460.581C803.407 423.059 800.498 376.202 823.823 340.641C817.418 351.8 812.179 363.617 808.794 376.407ZM731.493 419.927C730.759 398.472 741.82 381.147 756.282 366.575C751.292 372.669 746.881 379.21 743.333 386.352C737.875 397.344 734.822 409.234 736.645 421.516C738.635 434.907 746.333 446.085 750.71 458.012C742.251 446.437 732.045 436.038 731.493 419.927ZM578.008 583.051C578.367 581.935 578.697 580.812 579.033 579.684C607.279 520.178 623.685 456.684 673.927 410.637C652.956 434.612 634.7 460.698 619.898 489.087C604.979 517.704 597.614 556.144 578.008 583.051Z" fill="#713600"/>
<path d="M82.182 637.544C88.1285 636.016 85.9648 627.539 80.0486 628.39C-7.85498 640.998 -88.9194 625.538 -166.931 597.519C-166.977 597.209 -167.022 596.899 -167.128 596.569C-175.934 568.312 -149.356 543.997 -149.133 515.63C-148.978 495.922 -156.971 477.099 -168.562 461.45C-200.393 418.477 -255.913 407.088 -303.821 391.155C-308.667 389.543 -312.813 395.963 -309.201 399.651C-274.426 435.129 -246.392 475.934 -226.65 521.588C-217.533 542.673 -211.012 567.658 -197.201 586C-250.848 564.458 -303.262 537.846 -355.687 511.257C-366.434 491.519 -361.395 474.863 -346.786 456.975C-341.441 450.43 -336.974 444.291 -334.39 436.184C-328.171 416.673 -334.057 394.854 -344.811 378.184C-358.478 357 -379.76 341.922 -399.775 327.226C-426.05 307.93 -452.945 290.556 -483.691 279.355C-488.458 277.619 -492.044 283.955 -488.84 287.488C-472.392 305.63 -455.563 323.965 -443.341 345.338C-430.835 367.206 -427.033 389.952 -422.611 414.29C-416.653 447.064 -401.451 473.645 -381.311 498.294C-390.783 493.52 -400.263 488.776 -409.754 484.097C-431.644 473.297 -453.804 462.963 -476.27 453.438C-475.407 431.827 -488.919 415.198 -502.503 399.189C-504.213 397.177 -507.402 399.083 -506.887 401.5C-503.804 415.954 -499.344 434.085 -490.742 447.442C-507.719 440.569 -524.878 434.191 -542.252 428.524C-543.675 409.327 -533.461 393.084 -537.917 373.448C-541.28 358.627 -549.477 345.236 -559.861 334.277C-593.512 298.757 -647.091 289.573 -674.202 246.911C-677.342 241.97 -685.221 244.509 -683.958 250.553C-680.107 268.991 -676.786 288.51 -670.147 306.183C-662.816 325.702 -649.3 338.964 -634.854 353.509C-613.78 374.73 -591.965 401.879 -566.5 421.167C-588.875 414.816 -611.598 409.675 -634.752 406.161C-652.27 393.224 -666.122 374.261 -680.746 358.525C-690.672 347.85 -699.115 337.53 -714.5 337.504C-716.993 337.5 -717.882 340.643 -715.907 342.051C-700.576 352.983 -694.591 365.485 -686.659 381.951C-684.469 386.498 -682.929 390.269 -679.407 393.995C-676.15 397.442 -672.178 400.036 -667.896 402.185C-679.729 401.069 -691.584 400.226 -703.45 399.541C-705.936 399.098 -708.432 398.663 -710.933 398.228C-724.581 384.834 -739.621 372.793 -754.23 360.499C-772.777 344.892 -791.297 327.646 -812.609 315.874C-847.815 296.427 -894.158 285.767 -934.232 289.512C-938.552 289.917 -941.174 294.422 -938.155 298.069C-912.224 329.363 -883.778 359.497 -845.875 376.02C-830.683 382.643 -814.694 387.5 -798.356 391.45C-807.737 390.897 -817.111 390.432 -826.439 390.012C-838.268 389.479 -849.896 388.734 -861.259 388.983C-887.012 382.78 -909.232 367.021 -933.654 356.599C-960.341 345.209 -988.125 339.153 -1016.95 336.838C-1019.47 336.638 -1020.49 340.243 -1018.4 341.521C-995.006 355.827 -971.485 369.843 -945.554 379.095C-929.682 384.758 -913.325 386.774 -897.033 389.017C-894.491 390.088 -891.953 391.166 -889.403 392.21C-892.528 392.176 -895.656 392.138 -898.777 392.134C-899.091 391.783 -899.533 391.533 -900.108 391.506C-901.334 391.45 -902.556 391.438 -903.781 391.389C-987.46 378.895 -1074.04 382.795 -1145.04 434.887C-1148.99 437.785 -1145.52 442.971 -1141.82 443.549C-1102.66 449.647 -1072.92 473.293 -1031.63 469.59C-999.924 466.745 -969.567 453.596 -942.702 437.062C-933.831 431.604 -925.559 425.215 -917.142 419.071C-916.699 419.756 -915.973 420.289 -915.107 420.407C-893.776 423.278 -876.64 414.309 -859.107 404.739C-855.207 403.887 -851.28 403.017 -847.441 401.947C-808.997 404.546 -770.42 405.979 -731.969 408.567C-753.602 413.745 -774.536 422.79 -794.308 432.318C-835.994 452.401 -875.728 476.111 -913.794 502.371C-917.146 504.683 -916.949 509.305 -913 510.89C-877.026 525.329 -825.86 525.389 -789.826 509.804C-749.816 492.498 -724.914 444.544 -699.985 411.37C-699.91 411.271 -699.872 411.173 -699.808 411.075C-680.031 412.841 -660.304 415.065 -640.672 418.129C-634.892 419.033 -629.142 420.044 -623.422 421.141C-645.718 424.681 -665.105 439.324 -684.567 451.474C-685.948 452.337 -686.027 454.705 -684.223 455.17C-655.092 462.698 -625.261 447.329 -606.775 424.617C-575.245 431.691 -544.56 441.499 -514.487 453.052C-542.472 454.841 -571.277 467.585 -594.851 479.27C-639.968 501.634 -681.208 531.203 -728.632 548.873C-732.551 550.333 -733.936 555.205 -730.176 557.857C-705.728 575.076 -678.443 576.165 -649.342 574.1C-626.192 572.454 -602.001 570.457 -582.111 557.38C-544.783 532.841 -531.702 484.555 -493.75 461.328C-467.963 471.984 -442.588 483.76 -417.493 496.092C-435.961 495.861 -455.695 503.37 -470.217 512.119C-472.536 513.515 -471.193 516.802 -468.613 516.42C-451.901 513.958 -438.291 523.699 -422.203 521.796C-410.34 520.392 -399.714 513.716 -388.128 510.773C-382.771 513.493 -377.426 516.228 -372.089 518.966C-348.988 530.825 -325.186 543.251 -300.833 555.515C-323.257 555.765 -347.183 560.898 -361.66 564.197C-413.642 576.04 -463.771 596.819 -518.035 588.1C-522.627 587.362 -524.844 593.04 -523.278 596.498C-513.462 618.146 -484.149 625.995 -463.722 634.533C-441.283 643.911 -414.649 656.78 -389.508 653.224C-336.853 645.776 -318.888 572.496 -265.041 573.147C-155.587 625.64 -36.3391 668.029 82.182 637.544Z" fill="#FFF9E3"/>
<path d="M82.182 637.544C88.1285 636.016 85.9648 627.539 80.0486 628.39C-7.85498 640.998 -88.9194 625.538 -166.931 597.519C-166.977 597.209 -167.022 596.899 -167.128 596.569C-175.934 568.312 -149.356 543.997 -149.133 515.63C-148.978 495.922 -156.971 477.099 -168.562 461.45C-200.393 418.477 -255.913 407.088 -303.821 391.155C-308.667 389.543 -312.813 395.963 -309.201 399.651C-274.426 435.129 -246.392 475.934 -226.65 521.588C-217.533 542.673 -211.012 567.658 -197.201 586C-250.848 564.458 -303.262 537.846 -355.687 511.257C-366.434 491.519 -361.395 474.863 -346.786 456.975C-341.441 450.43 -336.974 444.291 -334.39 436.184C-328.171 416.673 -334.057 394.854 -344.811 378.184C-358.478 357 -379.76 341.922 -399.775 327.226C-426.05 307.93 -452.945 290.556 -483.691 279.355C-488.458 277.619 -492.044 283.955 -488.84 287.488C-472.392 305.63 -455.563 323.965 -443.341 345.338C-430.835 367.206 -427.033 389.952 -422.611 414.29C-416.653 447.064 -401.451 473.645 -381.311 498.294C-390.783 493.52 -400.263 488.776 -409.754 484.097C-431.644 473.297 -453.804 462.963 -476.27 453.438C-475.407 431.827 -488.919 415.198 -502.503 399.189C-504.213 397.177 -507.402 399.083 -506.887 401.5C-503.804 415.954 -499.344 434.085 -490.742 447.442C-507.719 440.569 -524.878 434.191 -542.252 428.524C-543.675 409.327 -533.461 393.084 -537.917 373.448C-541.28 358.627 -549.477 345.236 -559.861 334.277C-593.512 298.757 -647.091 289.573 -674.202 246.911C-677.342 241.97 -685.221 244.509 -683.958 250.553C-680.107 268.991 -676.786 288.51 -670.147 306.183C-662.816 325.702 -649.3 338.964 -634.854 353.509C-613.78 374.73 -591.965 401.879 -566.5 421.167C-588.875 414.816 -611.598 409.675 -634.752 406.161C-652.27 393.224 -666.122 374.261 -680.746 358.525C-690.672 347.85 -699.115 337.53 -714.5 337.504C-716.993 337.5 -717.882 340.643 -715.907 342.051C-700.576 352.983 -694.591 365.485 -686.659 381.951C-684.469 386.498 -682.929 390.269 -679.407 393.995C-676.15 397.442 -672.178 400.036 -667.896 402.185C-679.729 401.069 -691.584 400.226 -703.45 399.541C-705.936 399.098 -708.432 398.663 -710.933 398.228C-724.581 384.834 -739.621 372.793 -754.23 360.499C-772.777 344.892 -791.297 327.646 -812.609 315.874C-847.815 296.427 -894.158 285.767 -934.232 289.512C-938.552 289.917 -941.174 294.422 -938.155 298.069C-912.224 329.363 -883.778 359.497 -845.875 376.02C-830.683 382.643 -814.694 387.5 -798.356 391.45C-807.737 390.897 -817.111 390.432 -826.439 390.012C-838.268 389.479 -849.896 388.734 -861.259 388.983C-887.012 382.78 -909.232 367.021 -933.654 356.599C-960.341 345.209 -988.125 339.153 -1016.95 336.838C-1019.47 336.638 -1020.49 340.243 -1018.4 341.521C-995.006 355.827 -971.485 369.843 -945.554 379.095C-929.682 384.758 -913.325 386.774 -897.033 389.017C-894.491 390.088 -891.953 391.166 -889.403 392.21C-892.528 392.176 -895.656 392.138 -898.777 392.134C-899.091 391.783 -899.533 391.533 -900.108 391.506C-901.334 391.45 -902.556 391.438 -903.781 391.389C-987.46 378.895 -1074.04 382.795 -1145.04 434.887C-1148.99 437.785 -1145.52 442.971 -1141.82 443.549C-1102.66 449.647 -1072.92 473.293 -1031.63 469.59C-999.924 466.745 -969.567 453.596 -942.702 437.062C-933.831 431.604 -925.559 425.215 -917.142 419.071C-916.699 419.756 -915.973 420.289 -915.107 420.407C-893.776 423.278 -876.64 414.309 -859.107 404.739C-855.207 403.887 -851.28 403.017 -847.441 401.947C-808.997 404.546 -770.42 405.979 -731.969 408.567C-753.602 413.745 -774.536 422.79 -794.308 432.318C-835.994 452.401 -875.728 476.111 -913.794 502.371C-917.146 504.683 -916.949 509.305 -913 510.89C-877.026 525.329 -825.86 525.389 -789.826 509.804C-749.816 492.498 -724.914 444.544 -699.985 411.37C-699.91 411.271 -699.872 411.173 -699.808 411.075C-680.031 412.841 -660.304 415.065 -640.672 418.129C-634.892 419.033 -629.142 420.044 -623.422 421.141C-645.718 424.681 -665.105 439.324 -684.567 451.474C-685.948 452.337 -686.027 454.705 -684.223 455.17C-655.092 462.698 -625.261 447.329 -606.775 424.617C-575.245 431.691 -544.56 441.499 -514.487 453.052C-542.472 454.841 -571.277 467.585 -594.851 479.27C-639.968 501.634 -681.208 531.203 -728.632 548.873C-732.551 550.333 -733.936 555.205 -730.176 557.857C-705.728 575.076 -678.443 576.165 -649.342 574.1C-626.192 572.454 -602.001 570.457 -582.111 557.38C-544.783 532.841 -531.702 484.555 -493.75 461.328C-467.963 471.984 -442.588 483.76 -417.493 496.092C-435.961 495.861 -455.695 503.37 -470.217 512.119C-472.536 513.515 -471.193 516.802 -468.613 516.42C-451.901 513.958 -438.291 523.699 -422.203 521.796C-410.34 520.392 -399.714 513.716 -388.128 510.773C-382.771 513.493 -377.426 516.228 -372.089 518.966C-348.988 530.825 -325.186 543.251 -300.833 555.515C-323.257 555.765 -347.183 560.898 -361.66 564.197C-413.642 576.04 -463.771 596.819 -518.035 588.1C-522.627 587.362 -524.844 593.04 -523.278 596.498C-513.462 618.146 -484.149 625.995 -463.722 634.533C-441.283 643.911 -414.649 656.78 -389.508 653.224C-336.853 645.776 -318.888 572.496 -265.041 573.147C-155.587 625.64 -36.3391 668.029 82.182 637.544ZM-895.584 506.041C-841.404 508.367 -788.086 483.832 -745.397 449.345C-758.561 467.12 -773.197 483.363 -793.96 493.864C-814.493 504.248 -840.114 506.729 -862.769 507.947C-872.006 508.443 -880.994 507.739 -890.213 507.436C-890.769 507.417 -891.518 507.474 -892.342 507.561C-893.791 507.217 -895.251 506.888 -896.666 506.506C-896.303 506.355 -895.943 506.192 -895.584 506.041ZM-841.143 361.94C-859.856 353.531 -875.929 343.038 -891.646 329.878C-899.284 323.481 -906.512 316.85 -913.261 309.511C-914.524 308.138 -916.385 306.523 -918.122 305.116C-867.289 342.191 -814.754 366.207 -757.661 387.353C-786.24 381.27 -814.641 373.852 -841.143 361.94ZM-832.446 354.227C-858.089 341.71 -881.618 325.664 -904.723 309.042C-847.793 327.374 -796.491 356.066 -745.163 386.604C-774.714 377.034 -804.745 367.747 -832.446 354.227ZM-912.981 303.066C-881.769 311.289 -851.636 315.295 -822.607 332.764C-806.75 342.308 -791.025 352.177 -775.849 362.795C-818.469 339.164 -862.791 318.14 -909.626 305.49C-910.745 304.681 -911.865 303.875 -912.981 303.066ZM-839.38 511.685C-822.342 509.612 -805.838 505.171 -791.695 498.154C-781.598 493.145 -772.134 486.518 -763.309 478.877C-770.761 486.59 -778.689 493.209 -787.242 497.877C-801.897 505.87 -820.338 510.319 -839.38 511.685ZM-728.632 416.541C-753.25 431.248 -779.06 444.408 -804.17 457.984C-821.491 467.351 -843.049 482.33 -864.842 492.544C-819.903 472.128 -775.86 449.076 -732.143 425.816C-776.291 465.909 -823.791 492.063 -883.438 500.79C-878.573 498.679 -873.712 496.569 -868.87 494.39C-876.432 497.715 -883.982 500.332 -891.378 501.91C-893.492 502.159 -895.671 502.322 -897.82 502.53C-845.519 466.965 -789.387 434.221 -728.632 416.541ZM-1121.52 435.647C-1121.1 436.676 -1090.78 430.942 -1087.61 430.465C-1066.59 427.31 -1045.65 423.804 -1024.73 420.127C-996.913 415.239 -969.174 410.061 -941.529 404.379C-954.557 409.55 -967.12 416.412 -981.316 423.637C-1017.83 442.222 -1059.01 444.59 -1099.11 440.156C-1102.13 439.827 -1119.84 439.744 -1121.52 435.647ZM-891.885 411.415C-887.712 411.29 -883.566 410.587 -879.451 409.679C-887.565 413.522 -895.97 415.614 -904.859 415.796C-892.028 409.611 -879.447 403.77 -865.878 401.213C-865.859 401.217 -865.844 401.217 -865.825 401.221C-865.681 401.274 -865.534 401.323 -865.39 401.376C-865.818 401.493 -866.249 401.621 -866.672 401.735C-875.24 403.997 -884.342 405.994 -892.13 410.341C-892.607 410.602 -892.478 411.43 -891.885 411.415ZM-897.422 406.172C-896.999 405.957 -896.571 405.756 -896.148 405.552C-896.575 405.756 -896.999 405.968 -897.422 406.172ZM-922.51 403.744C-946.417 413.651 -967.827 428.426 -991.019 440.803C-1029.82 461.506 -1069.24 452.586 -1108.65 441.087C-1079.86 445.369 -1050.86 446.489 -1021.94 440.709C-985.92 433.51 -957.031 411.793 -922.51 403.744ZM-1115 432.493C-1056.37 415.792 -996.886 401.209 -936.147 399.386C-943.451 400.971 -950.756 402.556 -958.071 404.084C-977.246 408.094 -996.425 412.172 -1015.65 415.928C-1049.13 422.464 -1082.81 428.18 -1116.56 433.151C-1116.05 432.931 -1115.52 432.712 -1115 432.493ZM-1077.26 418.194C-1032.91 403.157 -985.511 393.356 -939.525 393.56C-934.482 393.867 -929.44 394.241 -924.405 394.657C-976.304 395.032 -1027.34 403.99 -1077.26 418.194ZM-1086.46 451.493C-1089.4 450.438 -1092.28 449.337 -1095.14 448.225C-1067.74 454.357 -1040.05 459.494 -1012.83 451.527C-981.369 442.313 -954.425 423.07 -924.757 410.356C-954.084 429.826 -981.941 449.159 -1017.79 456.415C-1041.34 461.173 -1063.94 459.566 -1086.46 451.493ZM-964.933 392.573C-1019.83 396.961 -1073.46 410.352 -1124.15 433.083C-1125.24 433.461 -1126.32 433.832 -1127.39 434.214C-1078.92 400.68 -1022.4 391.658 -964.933 392.573ZM-920.966 370.769C-938.658 364.539 -956.585 359.107 -973.808 354.076C-974.579 353.849 -974.886 354.95 -974.171 355.249C-954.64 363.321 -935.152 372.354 -915.546 381.021C-923.641 379.829 -931.679 378.263 -939.54 375.694C-956.006 370.323 -971.72 362.863 -986.881 354.545C-995.203 349.979 -1019.71 342.671 -997.586 344.502C-970.127 346.775 -945.55 359.145 -920.966 370.769ZM-825.304 373.417C-848.648 365.67 -868.416 353.187 -886.15 337.992C-856.069 359.062 -820.765 373.255 -784.92 384.391C-798.621 381.297 -812.163 377.779 -825.304 373.417ZM-773.352 357.832C-788.797 347.971 -804.783 338.903 -820.878 330.059C-851.613 313.169 -882.556 308.778 -915.512 301.231C-916.098 300.807 -916.684 300.38 -917.267 299.956C-878.944 301.719 -838.525 311.838 -806.886 332.756C-795.247 340.454 -784.227 349.037 -773.352 357.832ZM-183.273 460.194C-171.86 473.032 -164.643 488.784 -165.301 508.798C-165.967 528.907 -173.68 547.242 -176.766 566.205C-178.431 571.168 -179.55 576.052 -179.955 581.049C-184.721 562.222 -177.64 541.572 -178.355 521.792C-178.93 505.87 -184.086 491.159 -191.742 477.322C-206.117 451.342 -227.962 433.215 -252.554 418.636C-242.321 422.279 -232.271 426.334 -222.731 431.119C-208.333 438.795 -194.625 447.828 -184.203 459.195C-183.897 459.528 -183.579 459.853 -183.273 460.194ZM-265.657 414.173C-227.145 436.676 -188.947 466.632 -185.966 514.007C-184.982 529.634 -188.569 544.946 -189.877 559.794C-196.1 534.18 -198.203 507.395 -209.098 482.796C-220.136 457.871 -241.319 430.219 -266.444 413.915C-266.179 413.999 -265.918 414.089 -265.657 414.173ZM-193.774 564.843C-214.314 511.908 -232.078 454.277 -272.599 414.994C-239.057 436.888 -211.863 474.769 -203.34 511.942C-199.312 529.516 -197.451 547.435 -193.774 564.843ZM-480.128 615.574C-482.942 613.736 -485.749 611.89 -488.564 610.051C-461.717 620.318 -433.256 626.098 -404.477 620.457C-386.482 616.928 -371.964 608.474 -356.542 599.047C-349.589 594.795 -342.508 591.164 -335.324 587.899C-351.042 598.4 -365.927 610.289 -382.298 621.021C-397.566 631.03 -412.534 636.353 -428.108 635.993C-440.613 631.806 -452.926 626.862 -465.031 621.642C-469.438 619.735 -474.7 617.787 -480.128 615.574ZM-476.255 608.054C-452.938 612.362 -429.231 612.589 -405.581 606.529C-388.374 602.123 -373.731 593.498 -357.73 586.148C-347.826 581.597 -337.84 578.401 -327.664 575.995C-343.801 583.409 -359.144 592.219 -375.361 602.679C-409.894 624.944 -446.942 619.587 -483.014 608.281C-480.764 608.266 -478.513 608.198 -476.255 608.054ZM-338.071 594.5C-338.907 595.397 -339.758 596.29 -340.582 597.186C-360.381 618.634 -379.193 635.407 -404.787 640.718C-407.806 640.552 -410.896 640.211 -414.096 639.636C-409.731 638.891 -405.339 637.783 -400.906 636.046C-384.875 629.771 -371.226 618.536 -357.695 608.19C-351.276 603.28 -344.721 598.779 -338.071 594.5ZM-466.779 607.116C-450.971 605.073 -435.2 600.764 -420.141 597.16C-400.32 592.412 -380.698 586.976 -361.353 580.693C-367.928 584.011 -374.495 587.585 -381.179 591.308C-408.127 606.31 -437.47 610.237 -466.779 607.116ZM-381.039 637.575C-377.003 635.634 -373.027 633.436 -369.187 630.777C-356.016 621.664 -345.799 609.17 -334.087 598.404C-330.07 594.708 -326.053 591.546 -321.964 588.709C-329.412 595.805 -336.433 603.477 -343.23 610.687C-355.448 623.65 -367.55 632.956 -381.039 637.575ZM-397.203 585.301C-378.467 580.077 -359.742 574.834 -340.594 571.369C-342.67 572.167 -344.721 573.063 -346.775 573.941C-366.721 580.33 -386.773 586.367 -407.174 591.209C-434.75 597.75 -465.829 606.007 -494.487 601.695C-461.449 602.429 -429.401 594.277 -397.203 585.301ZM-406.913 501.316C-402.99 503.272 -399.075 505.239 -395.164 507.213C-404.564 509.899 -413.101 515.365 -423.069 516.598C-434.175 517.971 -443.443 511.684 -454.224 510.731C-455.415 510.625 -456.607 510.603 -457.798 510.618C-442.123 503.052 -423.935 498.634 -406.913 501.316ZM-551.959 420.872C-552.496 420.426 -553.048 419.994 -553.582 419.54C-558.019 392.838 -569.526 370.644 -587.929 350.059C-603.824 332.28 -620.215 314.769 -636.832 297.513C-592.82 326.689 -553.65 358.956 -551.8 419.196C-551.86 419.756 -551.917 420.312 -551.959 420.872ZM-547.037 489.468C-558.238 503.169 -567.979 518.819 -581.146 530.288C-599.307 546.104 -621.618 556.446 -645.378 560.391C-656.34 562.211 -667.552 562.574 -678.628 561.534C-626.918 561.711 -589.499 519.326 -547.037 489.468ZM-584.691 511.038C-614.65 536.465 -642.159 551.785 -675.848 554.229C-670.783 553.457 -665.744 552.508 -660.796 551.184C-644.712 546.883 -629.6 539.696 -615.91 530.239C-600.026 519.269 -585.36 508.571 -570.354 498.827C-575.151 502.893 -579.917 506.986 -584.691 511.038ZM-690.12 550.722C-665.271 540.335 -644.806 521.66 -622.076 506.321C-589.987 484.668 -556.596 469.56 -519.246 462.826C-554.119 476.69 -581.945 497.647 -612.328 520.869C-635.126 538.292 -661.727 548.559 -690.12 550.722ZM-650.636 288.51C-632.948 307.707 -614.896 326.575 -597.235 345.792C-583.25 361.006 -570.944 376.3 -563.685 395.83C-563.602 396.053 -563.47 396.545 -563.311 397.192C-573.233 382.352 -590.165 369.15 -600.677 357.961C-622.163 335.083 -640.91 309.886 -658.118 283.687C-655.625 285.294 -653.128 286.902 -650.636 288.51ZM-572.2 402.59C-582.595 392.49 -592.62 381.925 -602.561 371.397C-601.282 372.392 -599.977 373.357 -598.672 374.329C-589.363 383.264 -580.242 392.308 -572.2 402.59ZM-657.312 296.12C-644.405 313.665 -630.568 330.449 -615.653 346.469C-600.306 362.954 -581.858 378.388 -569.359 397.237C-585.845 377.469 -606.359 362.565 -626.188 345.047C-638.818 330.354 -649.27 314.017 -657.312 296.12ZM-624.24 561.307C-618.164 559.419 -612.158 557.089 -606.268 554.188C-589.896 546.123 -575.287 534.68 -563.375 520.88C-551.936 507.626 -543.103 493.043 -530.806 482.308C-541.121 495.165 -550.215 509.305 -560.515 522.477C-577.818 544.602 -597.484 556.661 -624.24 561.307ZM-622.609 502.682C-648.351 521.281 -673.907 544.05 -703.923 551.002C-705.353 550.912 -706.776 550.828 -708.171 550.787C-680.205 537.793 -651.733 519.492 -622.609 502.682ZM-616.383 423.709C-623.373 431.047 -630.133 438.462 -639.374 443.792C-651.237 450.635 -664.439 452.469 -677.769 451.709C-658.992 439.15 -638.856 425.892 -616.383 423.709ZM-642.552 405.086C-645.03 404.75 -647.492 404.372 -649.977 404.073C-650.238 404.042 -650.503 404.02 -650.764 403.99C-654.294 402.998 -657.8 401.958 -661.152 400.54C-678.692 393.125 -679.804 382.602 -687.574 368.05C-692.48 358.861 -698.283 351.277 -705.512 344.472C-688.558 351.254 -673.767 373.663 -662.703 385.488C-656.011 392.637 -649.758 399.322 -642.552 405.086ZM-656.234 309.89C-654.244 313.306 -652.198 316.68 -650.034 319.967C-652.289 316.767 -654.369 313.423 -656.234 309.89ZM-547.525 372.055C-543.943 385.764 -548.055 398.119 -550.536 410.867C-550.881 372.604 -572.514 339.758 -601.403 313.748C-599.705 314.769 -598.006 315.802 -596.319 316.854C-575.453 329.866 -554.062 347.017 -547.525 372.055ZM-482.182 450.911C-483.014 450.567 -483.85 450.237 -484.686 449.893C-484.822 449.715 -484.936 449.519 -485.091 449.356C-487.591 442.94 -490.988 436.812 -493.47 430.393C-495.951 423.981 -497.937 417.411 -499.587 410.753C-495.191 416.06 -490.898 421.511 -487.852 427.579C-484.047 435.163 -482.572 442.842 -482.182 450.911ZM-371.022 475.071C-371.567 476.751 -372.028 478.476 -372.357 480.288C-372.543 479.83 -372.777 479.38 -372.948 478.922C-375.308 447.011 -359.731 414.362 -371.173 381.493C-375.429 369.264 -381.879 358.317 -389.728 348.376C-372.743 363.026 -358.497 380.185 -353.587 401.179C-347.202 428.434 -371.956 449.644 -371.022 475.071ZM-392.13 443.587C-392.421 439.298 -392.599 434.724 -392.852 429.614C-393.662 413.386 -397.021 397.831 -402.971 382.659C-412.247 359.009 -427.128 336.089 -444.627 316.377C-419.135 339.808 -395.973 366.374 -390.273 401.64C-387.969 415.886 -391.392 429.701 -392.13 443.587ZM-383.8 424.991C-382.892 409.618 -385.249 394.952 -390.764 380.563C-395.856 367.285 -403.089 355.351 -411.698 344.46C-395.682 361.664 -383.528 381.656 -380.297 404.912C-377.358 426.069 -384.534 448.978 -381.969 469.647C-388.226 452.371 -384.822 442.275 -383.8 424.991ZM-371.306 408.578C-370.107 424.53 -374.635 442.237 -376.348 459.396C-376.685 444.147 -373.08 428.305 -374.366 412.236C-375.577 397.101 -380.101 382.727 -387.598 369.582C-400.1 347.657 -418.999 329.912 -439.985 315.571C-445.111 311.206 -450.396 307.015 -455.779 302.994C-416.309 328.943 -375.183 357.008 -371.306 408.578ZM-381.463 485.099C-382.446 483.715 -383.418 482.327 -384.383 480.927C-384.239 481.105 -384.065 481.267 -383.918 481.441C-383.399 482.122 -382.896 482.811 -382.37 483.484C-382.075 484.025 -381.765 484.562 -381.463 485.099ZM-397.206 446.432C-408.778 415.864 -410.605 380.979 -425.883 351.98C-414.668 368.235 -405.544 385.817 -400.668 406.539C-397.638 419.404 -398.371 433.17 -397.206 446.432ZM-434.833 340.632C-411.509 376.194 -414.418 423.055 -396.964 460.572C-398.98 456.846 -400.91 453.074 -402.623 449.174C-412.886 425.774 -413.359 400.748 -419.805 376.398C-423.19 363.609 -428.429 351.791 -434.833 340.632ZM-361.72 458.007C-357.344 446.08 -349.646 434.902 -347.656 421.511C-345.829 409.229 -348.885 397.339 -354.344 386.347C-357.892 379.201 -362.303 372.661 -367.292 366.571C-352.831 381.142 -341.77 398.467 -342.504 419.922C-343.052 436.029 -353.262 446.428 -361.72 458.007ZM-230.905 489.079C-245.707 460.689 -263.966 434.603 -284.938 410.628C-234.695 456.676 -218.286 520.169 -190.044 579.676C-189.711 580.799 -189.382 581.923 -189.023 583.042C-208.621 556.136 -215.986 517.695 -230.905 489.079Z" fill="#713600"/>
<path d="M132.892 39.8473C147.911 52.752 142.66 71.6457 130.54 81.0265C153.875 109.974 183.897 131.204 219.508 144.015C219.406 143.531 219.368 143.032 219.444 142.532C201.204 117.918 191.835 86.5203 190.709 55.6142C186.379 54.7937 182.007 52.7595 177.843 49.1827C150.56 25.7403 187.023 -16.6072 214.348 6.86923C236.232 25.6723 217.098 56.6124 194.566 56.0112C197.696 84.8793 208.039 110.787 223.96 136.411C228.73 124.792 235.224 114.235 238.645 101.618C241.119 92.483 242.855 83.2195 244.264 73.8879C242.536 73.4379 240.805 72.5834 239.149 71.158C226.767 60.5182 243.313 41.2992 255.718 51.9542C265.69 60.522 256.892 74.629 246.617 74.2433C245.776 96.1052 243.529 122.886 230.113 139.3C268.918 135.205 294.564 86.2292 310.102 48.7743C307.044 48.0899 304.082 46.7552 301.479 44.5207C297.508 41.1064 294.822 35.7978 294.432 30.58C294.057 25.5891 295.83 19.4525 299.327 15.7509C306.931 7.69727 319.472 6.13945 328.156 13.6032C332.126 17.0175 334.813 22.3261 335.203 27.5439C335.578 32.5348 333.805 38.6714 330.308 42.3731C325.61 47.3489 319.028 49.8254 312.633 49.2469C303.343 75.1545 291.723 101.013 274.256 122.051C265.856 132.165 254.202 143.088 241.214 146.866C258.491 150.242 275.336 151.618 293.314 146.041C308.598 141.304 322.575 133.224 335.998 124.474C335.07 122.364 334.464 120.088 334.384 117.615C334.199 111.744 335.771 106.076 339.693 101.535C343.402 97.2358 349.168 94.3319 354.836 93.9084C363.153 93.2883 369.923 97.2924 374.898 103.641C375.012 103.788 375.125 103.932 375.239 104.076C376.088 105.781 376.933 107.482 377.781 109.188C378.823 111.91 379.153 114.685 378.763 117.513C378.513 122.198 376.948 127.189 373.633 130.702C370.946 133.549 367.737 135.73 364.089 137.16C359.417 138.99 351.908 138.736 347.49 136.241C347.331 136.15 347.168 136.059 347.009 135.969C343.307 133.878 340.003 131.027 337.688 127.556C305.756 151.497 273.506 161.093 233.261 151.97C233.121 152.151 232.97 152.333 232.826 152.514C246.863 168.576 263.398 181.651 282.641 191.584C298.008 199.516 319.127 208.481 338.556 209.721C338.454 204.821 340.227 199.097 343.572 195.554C347.278 191.629 352.275 188.548 357.833 188.374C363.372 188.196 368.722 189.678 373.007 193.361C377.061 196.847 379.805 202.269 380.202 207.593C380.585 212.689 378.774 218.955 375.205 222.736C371.5 226.66 366.502 229.738 360.94 229.916C355.401 230.09 350.051 228.611 345.766 224.929C342.621 222.225 340.303 218.357 339.219 214.274C322.374 214.973 303.206 208.031 289.544 202.25C266.368 192.442 246.924 177.242 230.89 158.36C242.169 197.807 242.245 240.106 240.722 280.857C238.941 328.359 223.903 372.604 202.856 414.891C182.499 455.802 159.308 500.528 124.614 531.267C98.5962 554.324 57.7871 574.655 23.6463 557.421C22.6005 556.895 23.1006 555.254 24.279 555.462C114.653 571.331 168.962 458.547 199.496 391.358C217.625 351.468 227.991 310.505 229.189 266.701C230.136 231.999 231.496 196.189 225.816 161.698C215.553 193.72 182.689 219.363 150.313 231.734C152.515 235.481 153.939 239.72 154.254 243.928C154.769 250.81 152.325 259.272 147.506 264.38C142.501 269.681 135.753 273.84 128.244 274.078C120.761 274.316 113.539 272.316 107.75 267.344C102.271 262.637 98.5697 255.317 98.0317 248.121C97.5164 241.24 99.9602 232.778 104.78 227.67C109.785 222.369 116.532 218.21 124.042 217.971C131.525 217.733 138.746 219.733 144.535 224.705C145.975 225.942 147.286 227.371 148.457 228.921C175.774 216.497 205.084 194.48 217.087 168.013C178.877 197.838 110.126 210.935 74.2342 179.5C67.4712 185.632 57.215 187.742 48.2734 180.059C28.5452 163.109 54.9113 132.486 74.6699 149.463C84.1684 157.623 82.9295 168.916 76.9394 176.577C111.27 202.068 169.545 192.748 206.153 167.465C188.868 171.026 170.731 169.298 152.928 165.09C127.895 159.176 102.317 151.811 83.5395 134.263C83.4599 134.305 83.3955 134.365 83.3122 134.407C76.6818 137.689 67.4826 133.326 67.3235 125.382C67.3197 125.109 67.3121 124.841 67.3083 124.569C67.2212 120.156 69.2671 116.194 73.3173 114.186C76.8333 112.447 82.2285 112.519 85.1345 115.593C85.3088 115.778 85.4831 115.963 85.6612 116.148C88.4308 119.079 90.1055 122.41 89.3402 126.561C88.8969 128.97 87.6655 130.996 85.9416 132.558C104.499 146.446 127.452 153.036 149.942 158.511C174.819 164.568 198.67 166.179 221.421 154.685C221.448 154.658 221.475 154.635 221.497 154.609C221.607 154.068 221.702 153.528 221.796 152.983C183.772 138.948 151.7 114.768 128.103 82.728C119.45 88.1273 108.117 88.8457 98.0695 80.2098C72.0518 57.845 106.829 17.4485 132.892 39.8473Z" fill="#713600"/>
<path d="M410.017 786.152C399.516 776.472 397.806 767.635 381.472 765.403C377.561 764.87 373.669 764.889 369.799 765.301C373.941 761.057 377.156 755.833 378.961 749.3C385.017 727.406 378.62 698.524 368.013 679.092C346.497 639.672 302.33 631.982 268.508 656.377C271.64 636.986 246.16 611.12 230.65 606.358C198.512 596.488 184.194 623.894 167.074 644.529C166.468 645.002 165.859 645.479 165.322 645.952C148.069 631.229 116.362 621.299 97.1644 632.969C79.5822 643.655 75.4364 668.111 84.9802 685.277C67.6212 679.289 43.2792 683.129 29.1846 694.034C12.9604 706.593 32.3735 735.86 38.3313 750.825C42.2957 760.781 46.2486 768.604 51.2418 775.136C47.6634 775.25 44.1227 775.779 40.6653 776.986C39.6477 777.342 38.7473 777.758 37.7979 778.151C24.528 781.06 12.6729 788.603 8.78803 802.588C2.02447 826.945 12.2152 866.471 26.6729 886.743C35.9558 899.755 45.806 905.66 55.94 906.856C60.4302 908.055 65.3818 908.649 70.984 908.35C71.8238 908.304 72.6182 908.138 73.4466 908.059C69.766 935.589 103.554 969.619 131.64 957.352C136.426 955.26 140.553 951.87 144.199 947.838C145.262 947.21 146.31 946.548 147.35 945.86C145.429 963.869 144.725 989.864 154.719 1003.21C161.089 1011.71 167.123 1004.13 172.301 1010.78C172.759 1011.37 173.644 1011.3 174.234 1011.03C177.714 1009.43 191.344 1015.44 194.843 1015.79C199.378 1016.24 204.012 1015.94 208.521 1015.3C220.497 1013.59 232.33 1008.49 242.233 1001.62C257.391 991.09 266.98 975.679 265.603 957.968C269.745 962.379 274.178 966.551 279.032 970.345C291.061 979.753 304.686 988.287 320.12 982.844C333.832 978.005 351.702 968.314 362.048 957.473C388.66 929.586 385.017 894.709 357.418 869.815C362.604 870.882 367.836 871.737 373.15 872.225C413.785 875.939 435.494 855.49 429.173 814.526C426.646 798.094 421.01 796.286 410.017 786.152Z" fill="#FFF9E3"/>
<path d="M410.019 786.152C399.518 776.472 397.808 767.635 381.474 765.403C377.563 764.87 373.671 764.889 369.801 765.301C373.943 761.057 377.158 755.833 378.963 749.3C385.019 727.406 378.622 698.524 368.015 679.092C346.499 639.672 302.332 631.982 268.51 656.377C271.642 636.986 246.162 611.12 230.652 606.358C198.514 596.488 184.196 623.894 167.076 644.529C166.47 645.002 165.861 645.479 165.324 645.952C148.071 631.229 116.364 621.299 97.1664 632.969C79.5841 643.655 75.4383 668.111 84.9822 685.277C67.6231 679.289 43.2811 683.129 29.1866 694.034C12.9624 706.593 32.3754 735.86 38.3333 750.825C42.2976 760.781 46.2506 768.604 51.2438 775.136C47.6653 775.25 44.1247 775.779 40.6673 776.986C39.6497 777.342 38.7493 777.758 37.7998 778.151C24.5299 781.06 12.6749 788.603 8.78999 802.588C2.02642 826.945 12.2171 866.471 26.6748 886.743C35.9577 899.755 45.808 905.66 55.942 906.856C60.4321 908.055 65.3837 908.649 70.986 908.35C71.8257 908.304 72.6201 908.138 73.4485 908.059C69.7679 935.589 103.555 969.619 131.642 957.352C136.428 955.26 140.555 951.87 144.201 947.838C145.264 947.21 146.312 946.548 147.352 945.86C145.431 963.869 144.727 989.864 154.721 1003.21C161.091 1011.71 167.125 1004.13 172.303 1010.78C172.761 1011.37 173.646 1011.3 174.236 1011.03C177.716 1009.43 191.346 1015.44 194.845 1015.79C199.38 1016.24 204.014 1015.94 208.523 1015.3C220.499 1013.59 232.332 1008.49 242.235 1001.62C257.392 991.09 266.982 975.679 265.605 957.968C269.747 962.379 274.18 966.551 279.034 970.345C291.063 979.753 304.688 988.287 320.122 982.844C333.834 978.005 351.704 968.314 362.05 957.473C388.662 929.586 385.019 894.709 357.42 869.815C362.606 870.882 367.838 871.737 373.152 872.225C413.787 875.939 435.496 855.49 429.175 814.526C426.648 798.094 421.012 796.286 410.019 786.152ZM172.78 991.676C172.243 990.893 171.066 991.377 170.998 992.259C170.904 993.439 170.813 994.619 170.722 995.8C168.172 1001.5 172.186 995.179 166.89 995.016C150.492 994.506 153.072 952.116 154.441 942.1C154.524 941.479 154.642 940.874 154.744 940.261C179.604 919.218 178.575 892.05 186.761 862.892C186.961 868.491 187.457 874.142 187.949 879.658C187.998 880.187 188.804 880.206 188.788 879.658C188.622 872.811 188.989 866.089 189.322 859.303C189.715 859.628 190.184 859.908 190.676 860.169C191.368 873.757 192.352 887.333 193.188 900.913C193.192 901.004 193.328 901.004 193.328 900.913C193.354 887.651 193.513 874.377 193.411 861.111C193.593 861.145 193.725 861.213 193.918 861.239C195.098 861.402 196.119 861.179 197.099 860.88C198.086 890.745 199.789 920.576 203.938 950.183C203.972 950.414 204.373 950.361 204.351 950.127C201.82 922.633 200.106 895.224 200.345 867.64C202.221 876.348 204.078 885.052 206.412 893.669C206.473 893.888 206.855 893.854 206.825 893.612C205.342 882.203 203.099 870.972 201.098 859.658C201.461 859.586 201.812 859.473 202.191 859.469C202.531 859.465 202.864 859.511 203.197 859.556C205.202 867.704 207.888 875.724 210.377 883.724C210.566 884.329 211.455 884.08 211.322 883.463C209.673 875.765 208.16 867.969 206.125 860.347C206.817 860.6 207.513 860.857 208.217 861.077C209.026 863.225 210.305 865.223 211.394 867.235C212.775 869.785 214.156 872.334 215.536 874.884C215.831 875.432 216.505 875.043 216.448 874.521C219.33 880.528 224.259 886.134 229.559 891.626C248.106 922.936 272.278 954.851 245.734 988.711C229.601 1009.29 203.28 1017.27 181.805 1000.36C181.038 999.756 178.545 1001.1 178.163 1000.73C177.724 1000.3 174.482 994.691 173.245 992.471C173.279 992.342 173.317 992.217 173.355 992.089C173.461 991.729 173.037 991.499 172.78 991.676ZM19.6275 843.26C17.6529 831.775 17.9139 818.192 19.4573 806.465C21.1746 793.418 27.4237 785.955 36.0219 782.263C41.2648 780.932 46.9239 780.258 51.9587 779.294C52.8855 779.286 53.8274 779.313 54.7693 779.347C61.2114 786.333 69.4085 791.792 81.0935 796.978C84.6682 798.563 88.2807 800.031 91.9197 801.381C115.456 812.949 142.828 818.377 168.286 817.666C167.923 819.092 167.537 820.533 167.166 821.997C157.751 820.98 148.725 820.079 139.234 821.6C138.879 821.657 138.97 822.224 139.318 822.22C148.377 822.096 157.77 822.065 166.656 824.127C166.538 824.63 166.429 825.137 166.323 825.644C166.103 825.568 165.888 825.485 165.623 825.473C144.417 824.687 123.241 828.065 102.145 830.542C105.14 830.225 108.14 829.933 111.151 829.744C129.278 828.617 147.492 829.555 165.623 830.088C165.642 830.088 165.653 830.081 165.668 830.081C165.559 831.318 165.521 832.555 165.593 833.788C151.82 838.929 140.399 846.854 129.743 857.131C111.851 874.385 94.0116 900.126 66.7909 901.522C56.9633 902.025 48.8682 899.623 42.1235 895.356C27.6015 883.21 22.6273 860.732 19.6275 843.26ZM111.454 644.291C121.247 639.967 130.341 639.502 140.808 641.881C146.588 643.194 157.006 644.976 162.241 649.156C157.69 654.735 156.851 661.041 156.703 671.058C156.344 695.491 160.036 719.833 166.432 743.365C167.234 746.319 168.025 749.497 168.831 752.739C168.657 752.531 168.486 752.334 168.309 752.122C168.335 751.906 168.32 751.672 168.233 751.407C160.656 728.847 149.486 706.555 136.307 686.783C136.03 686.37 135.418 686.726 135.641 687.172C145.223 706.041 153.764 724.943 161.893 744.364C143.021 721.383 121.414 694.98 92.7255 688.031C92.5628 687.713 92.4304 687.384 92.2753 687.063C88.0991 668.663 92.6233 652.605 111.454 644.291ZM259.821 668.069C260.805 667.23 261.773 666.526 262.734 665.898C263.57 665.826 264.394 665.459 265.011 664.642C265.034 664.612 265.049 664.582 265.072 664.551C273.59 660.266 281.538 662.777 291.85 659.38C304.972 655.057 303.773 647.956 322.513 655.113C326.92 656.797 334.379 662.838 338.404 665.391C370.55 685.799 377.105 727.338 350.365 756.839C340.068 768.199 327.634 776.025 314.194 782.085C293.087 787.43 273.17 792.885 253.534 802.1C249.006 803.522 244.531 805.001 240.158 806.616C239.746 806.768 239.421 806.991 239.133 807.241C238.774 806.575 238.38 805.951 237.964 805.342C241.036 803.829 243.846 801.154 246.494 799.157C249.77 796.69 252.853 793.975 255.997 791.342C256.549 790.88 255.838 789.987 255.233 790.351C251.385 792.688 247.516 794.969 243.794 797.508C241.252 799.24 238.293 800.821 236.103 803.034C235.381 802.278 234.617 801.597 233.792 801.041C244.221 791.448 255.047 782.46 265.976 773.374C266.429 772.995 265.824 772.197 265.34 772.549C258.134 777.773 251.019 783.118 243.797 788.319C239.25 791.595 234.019 794.852 230.981 799.671C230.346 799.471 229.699 799.293 229.026 799.229C228.942 798.99 228.825 798.771 228.727 798.54C233.296 794.213 237.692 790.173 243.551 787.408C243.907 787.241 243.65 786.617 243.283 786.768C237.612 789.072 231.727 791.693 226.805 795.454C226.344 794.897 225.844 794.379 225.3 793.895C231.651 782.694 245.522 775.81 255.074 767.378C264.901 758.7 273.972 749.542 282.071 739.219C282.506 738.667 281.765 737.876 281.281 738.429C270.995 750.083 260.101 761.14 247.554 770.374C241.399 774.902 234.635 778.734 228.98 783.742C237.041 772.61 249.717 763.697 258.508 753.9C269.202 741.984 278.205 729.376 285.616 715.165C285.741 714.923 285.408 714.733 285.253 714.953C273.008 732.21 260.203 749.111 244.902 763.796C239.334 769.141 233.387 773.922 228.398 779.464C244.368 743.94 262.129 707.508 259.821 668.069ZM220.537 851.828C220.291 851.979 220.004 852.062 219.697 852.123C218.839 851.696 217.787 851.718 217.072 852.41C216.917 852.444 216.754 852.456 216.611 852.509C212.03 854.226 216.766 863.433 204.899 853.946C203.836 853.095 202.686 853.08 201.612 853.946C200.636 853.489 199.66 853.031 198.68 852.573C198.559 852.342 198.4 852.127 198.143 851.964C195.586 850.353 194.33 847.86 191.879 846.256C193.362 846.404 194.882 846.26 196.365 845.813C197.25 849.415 202.649 851.96 206.632 851.389C211.008 850.761 217.295 845.851 216.728 841.006C220.965 842.22 226.809 838.516 228.723 834.692C230.372 831.394 230.69 827.388 229.029 824.021C228.178 822.296 226.684 820.386 224.876 819.41C228.159 816.52 227.74 808.86 225.795 805.485C224.157 802.637 221.241 800.693 217.897 800.765C216.036 800.802 213.792 801.635 212.631 803.155C211.285 800.886 207.982 799.94 205.047 800.352C212.96 792.454 219.538 792.859 224.77 801.635C224.986 803.303 226.136 804.245 227.83 803.965C231.178 803.412 233.353 803.836 234.753 804.85C234.734 805.474 235.267 806.026 235.903 806.076C239.258 811.288 232.971 823.484 234.821 824.838C232.839 823.385 230.384 826.173 231.556 828.102C232.048 829.502 232.54 830.902 233.035 832.301C233.039 832.317 233.047 832.332 233.051 832.347C233.629 833.992 234.208 835.642 234.791 837.287C234.522 837.559 234.253 837.835 233.985 838.108C232.57 838.263 231.651 839.432 231.469 840.673C227.834 844.395 224.188 848.109 220.537 851.828ZM215.173 871.445C214.504 869.921 213.838 868.393 213.168 866.868C212.4 865.117 211.659 863.286 210.785 861.55C211.33 861.569 211.878 861.546 212.45 861.413C212.949 861.3 213.505 861.13 214.057 860.967C213.558 864.621 214.012 868.101 215.173 871.445ZM182.377 807.078C183.807 806.473 184.612 805.546 184.741 803.972C189.821 798.945 194.894 797.648 199.955 799.993C199.951 800.201 199.898 800.371 199.906 800.587C199.906 800.644 199.932 800.678 199.94 800.734C196.876 799.861 193.471 799.985 191.02 802.16C187.911 804.922 188.058 809.465 188.996 813.274C183.769 812.767 179.797 815.135 178.178 821.131C177.293 824.403 176.619 828.08 178.662 831.076C179.506 832.317 180.917 833.391 182.373 833.746C181.768 836.012 182.101 838.305 183.182 840.427C184.041 842.106 185.297 843.415 186.75 844.399C185.35 844.138 183.931 843.93 182.558 843.54C170.983 840.241 171.271 829.279 173.548 819.622C173.801 819.41 174.028 819.194 174.301 818.99C174.891 818.532 175.068 817.522 174.868 816.845C177.368 813.596 179.872 810.335 182.377 807.078ZM198.026 840.922C197.954 840.998 197.913 841.074 197.844 841.149C197.375 840.847 196.763 840.748 196.036 841.024C193.264 842.076 190.044 841.807 187.964 839.485C186.371 837.711 185.059 833.898 186.311 831.658C186.458 831.393 186.375 831.049 186.11 830.89C186.084 830.875 186.061 830.887 186.038 830.871C185.906 830.629 185.732 830.41 185.471 830.244C183.496 828.957 181.624 828.991 181.416 826.075C181.272 824.093 181.828 821.467 182.585 819.618C183.761 816.754 186.814 815.82 189.78 815.245C190.086 815.578 190.468 815.809 190.967 815.877C191.478 815.945 191.762 815.691 192.136 815.393C192.333 815.234 192.427 814.999 192.503 814.761C192.511 814.761 192.514 814.757 192.522 814.757C192.919 814.685 192.866 814.171 192.564 814.008C192.556 813.936 192.579 813.853 192.564 813.785C191.917 810.88 190.786 806.821 193.294 804.43C195.151 802.66 198.075 803.019 200.681 803.375C200.689 803.651 200.768 803.912 200.882 804.165C198.972 806.594 199.758 811.11 201.204 813.702C197.984 813.789 194.709 816.085 193.46 818.986C192.757 820.62 192.859 822.417 193.748 823.945C190.426 824.77 188.074 828.337 189.242 832.01C190.116 834.749 194.205 837.843 197.345 837.442C197.349 837.457 197.349 837.469 197.356 837.484C198.181 839.583 200.36 840.559 202.52 840.574C204.627 840.593 206.76 839.719 208.262 838.244C208.754 837.76 209.242 837.113 209.594 836.417C210.6 837.003 211.78 837.23 212.964 837.185C212.964 837.253 212.941 837.317 212.972 837.397C213.055 837.601 213.165 837.764 213.259 837.949C213.055 838.089 212.877 838.259 212.764 838.471C211.228 841.391 211.398 844.27 208.02 846.018C204.593 847.792 198.798 846.18 199.407 841.49C199.494 840.782 198.472 840.457 198.026 840.922ZM210.119 808.886C212.049 810.244 214.749 809.768 216.425 811.636C217.186 812.48 217.367 813.622 217.212 814.734C216.032 813.777 214.542 813.422 212.813 814.178C211.315 814.833 211.962 816.94 213.233 817.375C215.063 818.003 216.028 819.274 216.266 821.252C216.376 822.182 216.353 823.389 215.43 823.953C214.485 824.535 213.191 824.01 213.218 822.731C213.236 821.846 212.102 821.657 211.651 822.307C210.66 823.745 210.967 825.511 212.075 826.665C211.651 827.214 211.228 827.785 210.611 828.22C209.144 829.256 206.144 828.409 206.995 826.181C207.419 825.073 205.879 824.392 205.122 825.091C204.994 825.213 204.93 825.352 204.82 825.481C204.302 824.936 203.836 824.361 203.605 823.65C203.08 822.031 203.753 820.499 204.892 819.41C205.523 819.311 206.095 818.899 206.42 818.339C206.431 818.335 206.439 818.324 206.446 818.32C207.025 818.059 207.078 817.496 206.847 817.038C207.067 815.699 206.919 814.295 207.434 812.968C207.721 812.23 208.905 809.639 210.119 808.886ZM214.992 832.668C213.637 834.136 211.542 833.928 209.768 833.364C209.681 833.205 209.544 833.066 209.412 832.918C211.576 832.683 214.428 831.159 215.722 829.203C215.93 830.406 216.009 831.568 214.992 832.668ZM220.117 821.933C220.159 822.061 220.253 822.16 220.269 822.304C220.329 822.829 220.174 823.291 219.928 823.718C220.057 823.158 220.113 822.553 220.117 821.933ZM204.256 829.778C204.812 831.015 205.883 832.067 207.18 832.604C205.788 833.448 205.554 835.324 203.976 836.107C203.22 836.481 202.35 836.64 201.525 836.413C201.238 836.334 200.534 835.952 200.122 835.513C200.156 835.452 200.205 835.433 200.239 835.369C200.587 834.692 200.477 833.618 199.687 833.262C197.882 832.453 195.476 832.899 194.024 831.378C192.318 829.589 193.668 826.756 195.635 825.704C196.63 826.158 197.75 826.17 198.68 825.269C199.157 824.808 199.331 823.889 198.93 823.317C197.837 821.751 196.157 821.585 197.757 819.387C198.885 817.84 200.507 816.157 202.422 815.631C202.444 816.387 202.561 817.129 202.845 817.798C201.079 819.145 199.887 821.188 199.933 823.529C199.982 826.113 201.707 829.177 204.256 829.778ZM214.742 836.905C215.71 836.614 216.622 836.141 217.375 835.46C219.092 833.905 220.144 830.993 219.678 828.579C221.559 828.333 223.227 827.142 224.176 825.462C225.232 826.669 225.905 828.102 225.496 830.448C224.536 835.952 219.724 838.603 214.742 836.905ZM222.073 816.561C221.668 816.247 221.237 816.001 220.775 815.854C221.407 814.284 221.388 812.355 220.753 810.728C220.064 808.962 218.354 807.214 216.361 806.159C216.925 805.765 217.53 805.474 218.366 805.512C220.155 805.595 221.509 807.002 222.311 808.5C223.064 809.904 223.363 811.602 223.295 813.18C223.234 814.632 222.754 815.642 222.073 816.561ZM210.082 805.905C209.942 805.992 209.877 806.121 209.771 806.231C208.005 806.265 206.042 807.592 204.922 808.856C204.404 809.438 203.938 810.153 203.545 810.929C203.049 809.877 202.728 808.758 202.736 807.562C202.739 806.794 202.917 806.057 203.076 805.315C203.246 805.266 203.42 805.221 203.594 805.107C206.359 803.303 208.637 803.874 211.005 805.523C210.694 805.633 210.373 805.724 210.082 805.905ZM169.156 832.736C169.065 832.717 168.967 832.714 168.869 832.714C168.899 832.422 168.876 832.161 168.922 831.863C168.407 829.226 168.645 826.813 169.606 824.622C169.054 827.346 168.865 830.077 169.156 832.736ZM169.232 836.228C169.455 836.16 169.625 836.05 169.784 835.929C170.412 838.04 171.411 840.079 173.014 841.978C173.472 842.519 173.975 842.908 174.467 843.339C171.324 841.773 169.523 839.417 168.974 836.319C169.061 836.292 169.148 836.251 169.232 836.228ZM253.553 690.755C250.209 725.06 230.762 758.337 217.261 789.723C214.458 789.019 211.549 788.879 208.92 789.413C208.811 787.699 208.523 785.955 208.432 784.476C208.417 784.253 208.073 784.177 208.02 784.419C207.642 786.114 207.263 787.812 206.885 789.507C206.844 789.692 206.802 789.87 206.76 790.052C206.484 790.154 206.219 790.264 205.955 790.385C205.894 785.819 205.338 781.185 205.504 776.619C205.52 776.249 204.99 776.275 204.945 776.619C204.309 781.412 203.428 786.791 203.723 791.769C203.091 792.272 202.527 792.851 202.032 793.505C200.42 773.612 199.668 754.184 200.734 734.12C200.738 734.041 200.61 734.022 200.598 734.101C197.754 754.694 197.046 776.294 199.535 796.986C197.981 796.127 196.426 795.423 194.879 794.863C191.622 753.37 193.324 714.514 195.435 673.01C195.454 672.662 194.867 672.571 194.818 672.926C189.371 711.817 184.756 755.243 192.306 794.122C191.289 793.903 190.283 793.793 189.284 793.785C189.201 793.664 189.121 793.528 189.038 793.407C187.306 769.073 183.114 745.169 182.521 720.653C182.517 720.563 182.384 720.563 182.38 720.653C181.348 742.121 180.833 765.316 184.983 786.776C171.494 762.476 165.88 726.948 162.998 701.131C162.203 694 161.749 686.836 161.556 679.667C161.148 664.529 167.798 656.725 178.333 645.607C181.28 642.498 184.363 640.311 187.162 636.782C196.967 624.428 195.083 615.338 222.107 621.715C233.777 624.469 243.786 633.631 248.806 644.072C255.452 657.901 255.021 675.707 253.553 690.755ZM111.499 702.027C132.63 715.055 146.301 736.647 165.195 752.239L165.199 752.247C165.456 752.879 165.986 753.189 166.531 753.268C167.522 754.063 168.524 754.842 169.549 755.598C172.935 768.986 177.24 783.409 186.322 792.847C186.42 793.26 186.496 793.683 186.598 794.096C185.747 794.292 184.907 794.606 184.079 795.026C176.502 788.092 169.122 780.939 161.67 773.877C161.182 773.411 160.452 774.138 160.929 774.618C168.033 781.779 175.22 788.872 182.207 796.146C181.594 796.604 180.992 797.133 180.398 797.742C166.837 782.271 148.086 769.493 131.404 757.683C131.306 757.615 131.185 757.77 131.275 757.849C147.159 771.293 162.041 787.018 178.673 799.478C177.546 800.632 176.366 801.801 175.224 803.019C167.647 795.941 159.782 789.25 151.793 782.619C151.759 782.592 151.71 782.638 151.744 782.668C159.158 789.927 166.33 797.432 173.601 804.835C173.408 805.066 173.234 805.308 173.049 805.542C165.642 800.212 158.171 794.973 150.844 789.526C150.337 789.151 149.671 790.003 150.167 790.404C157.259 796.161 164.409 801.892 171.732 807.365C171.138 808.273 170.624 809.223 170.204 810.218C154.142 810.736 133.651 809.616 113.78 805.368C72.6466 793.142 35.2995 765.354 35.6853 719.379C35.7988 705.893 40.3911 703.888 51.6032 699.519C73.9592 690.804 90.4709 689.064 111.499 702.027ZM74.1597 790.91C68.4477 787.597 63.2767 783.772 58.8395 779.365C58.0452 778.427 57.4777 777.346 57.0578 776.196C62.1948 781.631 67.937 786.541 74.1597 790.91ZM156.457 842.485C137.918 855.633 124.149 874.506 105.973 888.309C98.5168 893.972 89.6766 899.093 80.371 901.878C106.907 889.205 133.821 857.022 156.457 842.485ZM113.058 949.953C92.5855 948.682 76.8001 928.183 80.598 908.338C80.7001 907.809 80.8136 907.363 80.9233 906.875C116.107 898.904 139.427 860.68 167.249 840.722C168.328 843.196 169.863 845.481 171.898 847.236C175.348 850.213 179.812 848.889 182.71 850.822C182.903 850.95 183.046 851.124 183.22 851.268C176.434 876.219 167.325 900.221 154.88 922.978C150.518 930.952 145.563 939.323 139.019 945.549C131.056 949.12 122.458 950.539 113.058 949.953ZM160.755 921.866C167.041 910.226 172.477 898.22 177.126 885.911C173.639 904.257 169.447 921.763 153.465 936.051C153.038 936.433 152.595 936.747 152.164 937.114C155.409 931.943 158.205 926.583 160.755 921.866ZM260.876 947.407C260.733 946.533 260.585 945.663 260.419 944.797C260.937 945.833 261.493 946.847 262.045 947.861C261.811 947.887 261.591 947.951 261.376 948.054C261.205 947.838 261.047 947.619 260.876 947.407ZM331.553 968.976C330.18 969.532 328.777 970.107 327.268 970.739C326.193 971.189 325.55 972.154 324.941 973.141C322.418 974.529 320.016 975.607 317.901 976.118C303.913 979.492 289.402 973.761 278.958 964.732C265.079 952.737 258.732 934.988 252.293 918.215C251.768 906.996 243.574 898.73 235.483 890.537C229.079 880.618 223.079 870.507 219.921 858.796C220.537 858.527 221.154 858.228 221.774 857.937C221.854 858.243 222.001 858.546 222.319 858.818C252.509 884.22 284.129 906.621 317.402 927.74C318.053 928.153 318.635 927.135 318.004 926.715C285.752 905.218 254.775 881.197 225.129 856.261C225.587 856.015 226.026 855.766 226.468 855.512C226.503 855.543 226.514 855.577 226.552 855.607C245.121 869.698 263.85 882.82 284.545 893.654C285.101 893.945 285.589 893.121 285.041 892.807C265.329 881.632 245.991 869.043 228.98 854.011C230.225 853.22 231.386 852.429 232.317 851.669C232.358 851.635 232.385 851.593 232.426 851.559C242.341 857.82 252.675 863.513 262.741 869.516C263.362 869.887 263.914 868.934 263.305 868.548C253.583 862.367 244.017 855.823 234.147 849.861C234.87 849.101 235.502 848.306 236.058 847.482C242.197 851.185 249.339 853.568 256.174 855.539C256.882 855.743 257.128 854.718 256.473 854.461C250.41 852.078 244.845 848.995 239.107 846.044C241.18 845.87 243.245 845.696 245.307 845.522C263.823 847.466 282.249 849.781 300.614 852.505C302.472 853.027 304.329 853.5 306.186 854.132C313.922 856.753 321.658 859.511 329.446 862.083C344.585 869.062 358.112 878.156 365.481 894.671C376.269 918.858 367.857 939.236 348.829 955.362C344.32 959.179 337.905 964.577 331.553 968.976ZM300.66 846.4C299.57 846.154 298.485 845.893 297.399 845.617C296.404 845.337 295.405 845.087 294.41 844.826C286.697 842.696 279.087 840.173 271.097 839.322C262.594 838.414 253.787 838.914 245.102 839.53C243.094 839.326 241.085 839.073 239.073 838.77C239.19 837.022 239.054 835.252 238.702 833.482C244.724 833.194 250.988 833.818 256.92 834.064C257.691 834.098 257.896 832.808 257.105 832.691C250.769 831.726 243.99 831.325 237.688 829.914C237.575 829.612 237.507 829.305 237.382 829.003C237.737 828.764 238.089 828.526 238.399 828.25C254.389 827.959 270.046 826.665 285.975 825.22C286.153 825.205 286.157 824.929 285.975 824.94C271.105 825.992 255.861 825.636 240.922 824.736C241.267 823.942 241.516 823.09 241.705 822.205C262.961 818.96 284.689 818.184 306.148 818.642C306.829 818.657 306.814 817.643 306.148 817.594C284.628 815.99 263.487 816.599 242.046 818.101C242.042 817.999 242.05 817.897 242.046 817.791C275.633 809.805 312.171 812.695 346.427 810.528C346.605 810.516 346.609 810.252 346.427 810.248C312.133 809.484 275.535 807.12 241.74 814.738C241.618 814.023 241.444 813.319 241.255 812.612C241.441 812.586 241.603 812.612 241.8 812.552C267.689 804.294 299.207 797.735 325.229 784.086C328.069 783.269 330.91 782.445 333.747 781.593C334.209 781.813 334.742 781.93 335.37 781.783C343.14 779.982 350.921 777.584 357.802 773.998C362.315 772.64 366.907 771.543 371.601 771.233C390.269 777.735 403.933 792.306 410.382 811.455C416.662 830.1 412.466 853.125 390.315 858.251C377.468 861.224 364.149 857.498 351.564 855.055C334.663 851.771 317.686 848.908 300.66 846.4ZM358.668 767.473C353.516 768.865 348.402 770.695 343.325 772.609C352.737 765.237 360.711 756.253 366.434 745.003C371.949 734.173 375.172 719.798 373.954 706.532C375.717 714.431 376.648 722.503 376.648 730.402C376.655 749.058 370.19 760.187 358.668 767.473ZM313.559 645.445C329.851 646.682 344.608 655.234 355.252 667.423C354.67 666.878 354.095 666.325 353.482 665.864C345.444 659.796 333.815 656.899 325.055 651.819C319.967 648.868 318.223 646.776 312.318 646.92C309.001 646.999 307.487 648.248 304.635 649.303C294.808 652.938 286.478 655.56 275.796 657.194C274.441 657.402 273.518 657.428 272.762 657.402C285.094 649.867 297.868 644.253 313.559 645.445ZM198.643 611.714C215.903 602.041 235.676 610.628 247.837 624.609C254.363 632.11 267.515 651.353 259.753 661.571C259.549 661.839 259.473 662.104 259.375 662.365C259.341 662.059 259.341 661.756 259.303 661.45C256.242 635.106 231.212 605.813 201.355 617.116C196.445 618.973 193.842 622.453 190.135 625.839C183.304 632.076 177.694 637.172 169.633 642.626C169.485 642.725 169.383 642.823 169.239 642.922C178.416 631.713 185.781 618.924 198.643 611.714ZM117.423 632.371C128.507 632.492 138.701 635.122 148.2 639.506C144.103 638.59 140.104 637.966 136.976 637.406C125.825 635.409 115.827 637.679 105.833 642.963C94.0381 649.201 87.8873 659.834 87.1421 671.542C83.5182 651.758 90.94 632.088 117.423 632.371ZM68.4704 687.762C59.9479 689.805 52.1176 693.781 43.02 697.442C32.5343 701.664 31.3541 700.854 31.4827 712.846C31.5584 719.874 32.3565 726.543 33.7599 732.864C31.2519 725.635 29.3719 718.618 28.7364 712.774C26.7164 694.227 48.9854 687.974 68.4704 687.762ZM49.046 766.568C51.2476 769.587 53.6155 772.477 56.1462 775.227C55.7566 775.197 55.3708 775.197 54.9812 775.178C53.1314 772.95 51.414 770.624 49.9426 768.131C49.6475 767.635 49.3449 767.094 49.046 766.568ZM20.2139 791.641C11.3395 804.445 12.0355 822.179 15.4627 840.291C17.8685 853.001 20.9667 866.77 26.3155 878.614C19.4309 867.22 15.4136 853.133 13.178 839.973C10.3901 823.556 8.80507 804.661 20.2139 791.641ZM149.853 944.123C149.788 944.581 149.713 945.043 149.663 945.5C149.52 946.798 149.41 948.118 149.304 949.442C149.327 947.777 149.361 946.106 149.418 944.43C149.561 944.328 149.709 944.229 149.853 944.123ZM169.735 1002.4C169.065 1001.55 167.764 1001.96 167.261 1002.71C161.833 1010.88 156.495 996.424 153.318 984.678C153.503 985.166 153.654 985.673 153.855 986.157C155.266 989.547 156.752 994.131 159.737 996.794C162.54 999.295 166.803 996.325 168.706 1000.81C169.141 1001.84 170.707 1001.45 170.972 1000.51C171.131 999.949 171.293 999.386 171.452 998.822C174.698 997.978 176.336 999.874 176.328 1004.58C176.786 1005.6 178.227 1005.37 178.745 1004.58C178.492 1004.96 189.98 1009.69 196.562 1012.1C186.099 1011.71 175 1009.08 169.735 1002.4ZM372.789 894.596C385.651 922.07 371.06 950.91 345.285 963.09C347.312 961.395 349.332 959.652 351.349 957.881C384.44 928.796 373.928 888.634 344.097 866.562C346.283 867.171 348.477 867.746 350.679 868.287C359.966 875.512 368.151 884.693 372.789 894.596ZM417.664 848.476C407.984 864.882 399.503 867.027 380.752 866.698C368.912 866.49 357.155 864.042 345.644 860.91C344.914 860.46 344.184 860.018 343.45 859.598C347.01 860.245 350.573 860.831 354.136 861.504C371.813 864.856 395.191 869.652 409.096 854.328C432.863 828.137 406.354 784.767 377.582 771.391C389.066 772.621 394.396 780.054 402.246 787.521C410.409 795.283 419.166 800.999 422.945 812.975C427.719 828.095 425.316 835.505 417.664 848.476Z" fill="url(#paint0_linear_2856_1686)"/>
<path d="M58.7073 832.727C58.2534 832.701 58.2647 833.389 58.7073 833.427C71.3606 834.483 83.7757 832.697 96.2663 831.195C83.7114 832.55 71.1866 833.423 58.7073 832.727Z" fill="#713600"/>
<path d="M102.135 830.535C100.171 830.743 98.2118 830.959 96.2559 831.197C98.2156 830.985 100.175 830.766 102.135 830.535Z" fill="#713600"/>
<path d="M315.752 818.852C315.184 818.693 314.617 818.534 314.049 818.375C313.611 818.25 313.448 818.897 313.864 819.049C314.42 819.253 314.976 819.457 315.529 819.662C316.032 819.847 316.278 819 315.752 818.852Z" fill="#713600"/>
</g>
<defs>
<linearGradient id="paint0_linear_2856_1686" x1="218.705" y1="603.564" x2="218.455" y2="1016" gradientUnits="userSpaceOnUse">
<stop stop-color="#FE9135"/>
<stop offset="1" stop-color="#FE9135"/>
</linearGradient>
</defs>
</svg>
