<svg width="1440" height="546" viewBox="0 0 1440 546" fill="none" xmlns="http://www.w3.org/2000/svg">
<g opacity="0.05">
<path d="M845.006 99.3794C845.875 100.588 846.86 101.483 847.884 102.236C825.279 141.733 811.79 181.73 812.539 228.366C795.091 241.693 776.253 253.265 754.404 262.462C749.642 264.466 752.292 271.155 757.145 269.871C767.716 267.077 777.788 262.89 787.411 257.724C794.603 259.542 803.495 258.736 810.287 258.104C815.809 257.59 821.145 256.477 826.37 254.942C826.735 255.744 827.186 256.547 827.759 257.343C837.313 270.629 857.978 255.801 848.408 242.493C840.216 231.101 823.913 240.383 825.446 251.649C820.298 252.593 815.096 253.218 809.845 253.446C805.418 253.639 800.963 253.001 796.538 252.424C813.421 241.983 828.851 228.699 842.978 214.714C863.499 211.589 883.878 204.086 900.244 191.345C909.808 201.045 927.261 187.687 918.562 175.589C909.685 163.243 890.839 176.324 898.265 188.745C883.943 197.385 868.208 201.175 852.067 205.453C854.658 202.746 857.222 200.035 859.724 197.331C873.822 182.091 887.208 166.915 900.937 152.252C909.412 151.706 918.404 148.712 926.873 147.738C931.844 147.165 936.697 146.463 941.467 145.382C941.772 146.264 942.174 147.149 942.805 148.03C950.044 158.096 965.698 146.863 958.447 136.781C952.457 128.451 940.744 134.712 940.974 142.83C934.242 143.571 927.448 143.472 920.571 143.561C916.936 143.608 912.753 143.567 908.71 144.06C924.64 127.499 941.299 111.744 960.277 97.5032C968.77 104.23 982.615 93.0562 975.305 82.8891C967.343 71.8183 950.124 84.1724 958.098 95.2634C958.232 95.4502 958.39 95.5802 958.53 95.7548C930.727 112.357 907.705 136.576 885.257 160.076C885.397 156.479 885.281 152.806 885.659 149.59C887.827 131.18 895.452 114.775 907.95 101.457C916.678 109.486 931.897 97.5539 924.144 86.7736C915.892 75.2987 898.047 88.1036 906.312 99.5987C906.43 99.7632 906.568 99.8729 906.689 100.027C897.428 108.05 889.953 117.649 884.739 128.914C878.448 142.505 880.818 158.084 874.641 171.116C873.847 171.934 873.053 172.759 872.257 173.573C854.78 191.44 837.879 208.07 819.642 222.794C822.286 202.933 821.647 182.597 826.248 162.961C831.144 142.062 840.31 122.561 849.957 103.453C859.795 107.782 872.874 95.8929 865.032 84.9866C855.764 72.0965 835.727 86.4751 845.006 99.3794Z" fill="#713600"/>
<path d="M594.979 99.3794C594.11 100.588 593.125 101.483 592.102 102.236C614.708 141.733 628.196 181.73 627.446 228.366C644.895 241.693 663.733 253.265 685.582 262.462C690.344 264.466 687.694 271.155 682.841 269.871C672.269 267.077 662.198 262.89 652.577 257.724C645.384 259.542 636.493 258.736 629.7 258.104C624.181 257.59 618.843 256.477 613.618 254.942C613.253 255.744 612.802 256.547 612.229 257.343C602.675 270.629 582.01 255.801 591.58 242.493C599.771 231.101 616.075 240.383 614.542 251.649C619.689 252.593 624.892 253.218 630.143 253.446C634.57 253.639 639.025 253.001 643.449 252.424C626.567 241.983 611.137 228.699 597.01 214.714C576.489 211.589 556.11 204.086 539.743 191.345C530.179 201.045 512.727 187.687 521.428 175.589C530.305 163.243 549.151 176.324 541.727 188.745C556.049 197.385 571.784 201.175 587.925 205.453C585.332 202.746 582.769 200.035 580.268 197.331C566.169 182.091 552.784 166.915 539.055 152.252C530.579 151.706 521.588 148.712 513.118 147.738C508.148 147.165 503.294 146.463 498.525 145.382C498.22 146.264 497.818 147.149 497.186 148.03C489.947 158.096 474.294 146.863 481.543 136.781C487.533 128.451 499.245 134.712 499.016 142.83C505.747 143.571 512.542 143.472 519.419 143.561C523.054 143.608 527.237 143.567 531.28 144.06C515.35 127.499 498.691 111.744 479.713 97.5032C471.219 104.23 457.375 93.0562 464.685 82.8891C472.647 71.8183 489.868 84.1724 481.892 95.2634C481.758 95.4502 481.6 95.5802 481.46 95.7548C509.262 112.357 532.285 136.576 554.733 160.076C554.593 156.479 554.711 152.806 554.331 149.59C552.162 131.18 544.538 114.775 532.039 101.457C523.312 109.486 508.093 97.5539 515.845 86.7736C524.098 75.2987 541.945 88.1036 533.678 99.5987C533.56 99.7632 533.422 99.8729 533.3 100.027C542.562 108.05 550.036 117.649 555.251 128.914C561.542 142.505 559.172 158.084 565.349 171.116C566.143 171.934 566.937 172.759 567.733 173.573C585.21 191.44 602.111 208.07 620.347 222.794C617.704 202.933 618.343 182.597 613.742 162.961C608.846 142.062 599.68 122.561 590.033 103.453C580.197 107.782 567.116 95.8929 574.958 84.9866C584.223 72.0965 604.261 86.4751 594.979 99.3794Z" fill="#713600"/>
<path d="M966.678 307.644C995.584 307.293 1005.23 346.63 1033.49 350.63C1046.99 352.539 1061.29 345.631 1073.33 340.597C1084.3 336.014 1100.03 331.802 1105.3 320.179C1106.14 318.323 1104.95 315.275 1102.49 315.671C1073.36 320.35 1046.45 309.198 1018.54 302.84C1010.77 301.069 997.927 298.314 985.892 298.18C998.964 291.597 1011.74 284.926 1024.14 278.56C1027.01 277.09 1029.88 275.622 1032.75 274.162C1038.97 275.742 1044.67 279.326 1051.04 280.079C1059.68 281.101 1066.98 275.87 1075.96 277.194C1077.34 277.399 1078.06 275.634 1076.82 274.885C1069.02 270.188 1058.43 266.158 1048.51 266.281C1061.99 259.662 1075.61 253.341 1089.45 247.62C1109.82 260.088 1116.84 286.009 1136.88 299.181C1147.56 306.201 1160.54 307.273 1172.97 308.156C1188.59 309.265 1203.24 308.68 1216.36 299.437C1218.38 298.015 1217.64 295.398 1215.53 294.614C1190.08 285.131 1167.94 269.256 1143.72 257.251C1131.07 250.979 1115.6 244.138 1100.58 243.177C1116.72 236.976 1133.2 231.711 1150.12 227.914C1160.04 240.105 1176.06 248.355 1191.7 244.315C1192.66 244.065 1192.62 242.794 1191.88 242.331C1181.43 235.808 1171.03 227.948 1159.06 226.047C1162.13 225.461 1165.21 224.916 1168.32 224.431C1178.86 222.786 1189.45 221.592 1200.06 220.644C1200.1 220.697 1200.12 220.75 1200.16 220.802C1213.54 238.611 1226.91 264.352 1248.38 273.642C1267.73 282.01 1295.19 281.976 1314.5 274.225C1316.62 273.374 1316.73 270.895 1314.93 269.652C1294.5 255.556 1273.16 242.828 1250.79 232.048C1240.18 226.933 1228.94 222.078 1217.33 219.298C1237.97 217.909 1258.67 217.141 1279.31 215.744C1281.37 216.321 1283.48 216.788 1285.57 217.243C1294.98 222.382 1304.18 227.197 1315.63 225.653C1316.1 225.591 1316.49 225.304 1316.73 224.937C1321.24 228.236 1325.69 231.664 1330.45 234.594C1344.87 243.47 1361.16 250.528 1378.18 252.055C1400.35 254.043 1416.31 241.35 1437.33 238.077C1439.32 237.768 1441.18 234.982 1439.06 233.427C1400.95 205.463 1354.47 203.37 1309.55 210.077C1308.9 210.103 1308.24 210.109 1307.58 210.14C1307.27 210.154 1307.04 210.288 1306.87 210.477C1305.19 210.479 1303.51 210.499 1301.84 210.518C1303.2 209.957 1304.57 209.378 1305.93 208.804C1314.68 207.6 1323.46 206.517 1331.98 203.477C1345.9 198.513 1358.52 190.987 1371.08 183.308C1372.2 182.621 1371.66 180.684 1370.3 180.794C1354.83 182.037 1339.92 185.288 1325.59 191.402C1312.48 196.996 1300.55 205.455 1286.73 208.785C1280.63 208.651 1274.39 209.054 1268.04 209.338C1263.03 209.563 1258 209.813 1252.96 210.109C1261.73 207.987 1270.32 205.382 1278.47 201.827C1298.81 192.957 1314.08 176.781 1328.01 159.982C1329.63 158.025 1328.22 155.607 1325.9 155.389C1304.39 153.379 1279.51 159.101 1260.61 169.54C1249.17 175.86 1239.23 185.117 1229.28 193.495C1221.43 200.095 1213.36 206.558 1206.03 213.748C1204.69 213.982 1203.35 214.215 1202.02 214.453C1195.64 214.82 1189.28 215.273 1182.93 215.872C1185.23 214.719 1187.36 213.328 1189.11 211.476C1191 209.476 1191.83 207.451 1193 205.011C1197.26 196.171 1200.47 189.46 1208.7 183.592C1209.76 182.837 1209.29 181.149 1207.95 181.151C1199.69 181.165 1195.16 186.705 1189.83 192.435C1181.98 200.882 1174.54 211.062 1165.14 218.006C1152.71 219.891 1140.51 222.652 1128.5 226.062C1142.17 215.708 1153.88 201.134 1165.19 189.743C1172.95 181.935 1180.2 174.818 1184.14 164.338C1187.7 154.851 1189.49 144.373 1191.55 134.476C1192.23 131.233 1188 129.871 1186.32 132.521C1171.76 155.422 1143 160.352 1124.94 179.419C1119.36 185.302 1114.96 192.49 1113.16 200.446C1110.77 210.987 1116.25 219.706 1115.49 230.011C1106.16 233.051 1096.95 236.476 1087.83 240.166C1092.45 232.998 1094.85 223.264 1096.5 215.505C1096.78 214.205 1095.07 213.184 1094.15 214.264C1086.86 222.857 1079.6 231.784 1080.07 243.385C1068.01 248.498 1056.11 254.047 1044.36 259.842C1039.26 262.356 1034.18 264.903 1029.09 267.463C1039.9 254.232 1048.06 239.963 1051.26 222.37C1053.64 209.303 1055.68 197.095 1062.39 185.357C1068.95 173.884 1077.99 164.042 1086.82 154.303C1088.54 152.406 1086.61 149.005 1084.05 149.937C1067.55 155.952 1053.11 165.276 1039.01 175.634C1028.26 183.523 1016.84 191.617 1009.5 202.988C1003.73 211.937 1000.57 223.649 1003.9 234.123C1005.29 238.477 1007.69 241.772 1010.56 245.283C1018.4 254.886 1021.11 263.826 1015.34 274.422C987.195 288.695 959.059 302.98 930.262 314.544C937.675 304.7 941.174 291.286 946.07 279.968C956.667 255.46 971.714 233.557 990.383 214.512C992.325 212.532 990.097 209.086 987.496 209.951C961.778 218.504 931.976 224.618 914.89 247.685C908.669 256.084 904.378 266.188 904.461 276.769C904.581 291.999 918.848 305.049 914.121 320.218C914.066 320.394 914.039 320.561 914.015 320.727C872.138 335.768 828.621 344.067 781.436 337.299C778.258 336.844 777.099 341.393 780.291 342.213C843.907 358.584 907.917 335.829 966.678 307.644Z" fill="#FFF9E3"/>
<path d="M966.678 307.644C995.584 307.293 1005.23 346.63 1033.49 350.63C1046.99 352.539 1061.29 345.631 1073.33 340.597C1084.3 336.014 1100.03 331.802 1105.3 320.179C1106.14 318.323 1104.95 315.275 1102.49 315.671C1073.36 320.35 1046.45 309.198 1018.54 302.84C1010.77 301.069 997.927 298.314 985.892 298.18C998.964 291.597 1011.74 284.926 1024.14 278.56C1027.01 277.09 1029.88 275.622 1032.75 274.162C1038.97 275.742 1044.67 279.326 1051.04 280.079C1059.68 281.101 1066.98 275.87 1075.96 277.194C1077.34 277.399 1078.06 275.634 1076.82 274.885C1069.02 270.188 1058.43 266.158 1048.51 266.281C1061.99 259.662 1075.61 253.341 1089.45 247.62C1109.82 260.088 1116.84 286.009 1136.88 299.181C1147.56 306.201 1160.54 307.273 1172.97 308.156C1188.59 309.265 1203.24 308.68 1216.36 299.437C1218.38 298.015 1217.64 295.398 1215.53 294.614C1190.08 285.131 1167.94 269.256 1143.72 257.251C1131.07 250.979 1115.6 244.138 1100.58 243.177C1116.72 236.976 1133.2 231.711 1150.12 227.914C1160.04 240.105 1176.06 248.355 1191.7 244.315C1192.66 244.065 1192.62 242.794 1191.88 242.331C1181.43 235.808 1171.03 227.948 1159.06 226.047C1162.13 225.461 1165.21 224.916 1168.32 224.431C1178.86 222.786 1189.45 221.592 1200.06 220.644C1200.1 220.697 1200.12 220.75 1200.16 220.802C1213.54 238.611 1226.91 264.352 1248.38 273.642C1267.73 282.01 1295.19 281.976 1314.5 274.225C1316.62 273.374 1316.73 270.895 1314.93 269.652C1294.5 255.556 1273.16 242.828 1250.79 232.048C1240.18 226.933 1228.94 222.078 1217.33 219.298C1237.97 217.909 1258.67 217.141 1279.31 215.744C1281.37 216.321 1283.48 216.788 1285.57 217.243C1294.98 222.382 1304.18 227.197 1315.63 225.653C1316.1 225.591 1316.49 225.304 1316.73 224.937C1321.24 228.236 1325.69 231.664 1330.45 234.594C1344.87 243.47 1361.16 250.528 1378.18 252.055C1400.35 254.043 1416.31 241.35 1437.33 238.077C1439.32 237.768 1441.18 234.982 1439.06 233.427C1400.95 205.463 1354.47 203.37 1309.55 210.077C1308.9 210.103 1308.24 210.109 1307.58 210.14C1307.27 210.154 1307.04 210.288 1306.87 210.477C1305.19 210.479 1303.51 210.499 1301.84 210.518C1303.2 209.957 1304.57 209.378 1305.93 208.804C1314.68 207.6 1323.46 206.517 1331.98 203.477C1345.9 198.513 1358.52 190.987 1371.08 183.308C1372.2 182.621 1371.66 180.684 1370.3 180.794C1354.83 182.037 1339.92 185.288 1325.59 191.402C1312.48 196.996 1300.55 205.455 1286.73 208.785C1280.63 208.651 1274.39 209.054 1268.04 209.338C1263.03 209.563 1258 209.813 1252.96 210.109C1261.73 207.987 1270.32 205.382 1278.47 201.827C1298.81 192.957 1314.08 176.781 1328.01 159.982C1329.63 158.025 1328.22 155.607 1325.9 155.389C1304.39 153.379 1279.51 159.101 1260.61 169.54C1249.17 175.86 1239.23 185.117 1229.28 193.495C1221.43 200.095 1213.36 206.558 1206.03 213.748C1204.69 213.982 1203.35 214.215 1202.02 214.453C1195.64 214.82 1189.28 215.273 1182.93 215.872C1185.23 214.719 1187.36 213.328 1189.11 211.476C1191 209.476 1191.83 207.451 1193 205.011C1197.26 196.171 1200.47 189.46 1208.7 183.592C1209.76 182.837 1209.29 181.149 1207.95 181.151C1199.69 181.165 1195.16 186.705 1189.83 192.435C1181.98 200.882 1174.54 211.062 1165.14 218.006C1152.71 219.891 1140.51 222.652 1128.5 226.062C1142.17 215.708 1153.88 201.134 1165.19 189.743C1172.95 181.935 1180.2 174.818 1184.14 164.338C1187.7 154.851 1189.49 144.373 1191.55 134.476C1192.23 131.233 1188 129.871 1186.32 132.521C1171.76 155.422 1143 160.352 1124.94 179.419C1119.36 185.302 1114.96 192.49 1113.16 200.446C1110.77 210.987 1116.25 219.706 1115.49 230.011C1106.16 233.051 1096.95 236.476 1087.83 240.166C1092.45 232.998 1094.85 223.264 1096.5 215.505C1096.78 214.205 1095.07 213.184 1094.15 214.264C1086.86 222.857 1079.6 231.784 1080.07 243.385C1068.01 248.498 1056.11 254.047 1044.36 259.842C1039.26 262.356 1034.18 264.903 1029.09 267.463C1039.9 254.232 1048.06 239.963 1051.26 222.37C1053.64 209.303 1055.68 197.095 1062.39 185.357C1068.95 173.884 1077.99 164.042 1086.82 154.303C1088.54 152.406 1086.61 149.005 1084.05 149.937C1067.55 155.952 1053.11 165.276 1039.01 175.634C1028.26 183.523 1016.84 191.617 1009.5 202.988C1003.73 211.937 1000.57 223.649 1003.9 234.123C1005.29 238.477 1007.69 241.772 1010.56 245.283C1018.4 254.886 1021.11 263.826 1015.34 274.422C987.195 288.695 959.059 302.98 930.262 314.544C937.675 304.7 941.174 291.286 946.07 279.968C956.667 255.46 971.714 233.557 990.383 214.512C992.325 212.532 990.097 209.086 987.496 209.951C961.778 218.504 931.976 224.618 914.89 247.685C908.669 256.084 904.378 266.188 904.461 276.769C904.581 291.999 918.848 305.049 914.121 320.218C914.066 320.394 914.039 320.561 914.015 320.727C872.138 335.768 828.621 344.067 781.436 337.299C778.258 336.844 777.099 341.393 780.291 342.213C843.907 358.584 907.917 335.829 966.678 307.644ZM1305.73 271.878C1304.97 272.083 1304.19 272.259 1303.41 272.444C1302.97 272.398 1302.56 272.367 1302.26 272.377C1297.32 272.54 1292.49 272.917 1287.53 272.651C1275.37 272 1261.62 270.668 1250.6 265.092C1239.45 259.455 1231.6 250.735 1224.53 241.194C1247.44 259.706 1276.06 272.877 1305.15 271.628C1305.34 271.709 1305.53 271.796 1305.73 271.878ZM1231.11 207.916C1261.76 196.565 1289.96 183.673 1317.25 163.772C1316.31 164.527 1315.32 165.394 1314.64 166.131C1311.01 170.07 1307.13 173.632 1303.03 177.064C1294.6 184.128 1285.97 189.761 1275.92 194.275C1261.7 200.669 1246.45 204.651 1231.11 207.916ZM1224.4 207.516C1251.95 191.121 1279.49 175.719 1310.05 165.881C1297.65 174.804 1285.02 183.417 1271.26 190.137C1256.39 197.392 1240.26 202.377 1224.4 207.516ZM1312.69 163.973C1287.55 170.763 1263.75 182.047 1240.88 194.734C1249.02 189.034 1257.46 183.734 1265.98 178.613C1281.56 169.236 1297.74 167.085 1314.49 162.671C1313.89 163.105 1313.29 163.538 1312.69 163.973ZM1246.99 267.246C1242.4 264.742 1238.14 261.187 1234.14 257.046C1238.88 261.146 1243.96 264.704 1249.38 267.394C1256.97 271.161 1265.83 273.545 1274.98 274.658C1264.76 273.925 1254.86 271.537 1246.99 267.246ZM1306.35 269.742C1305.2 269.63 1304.03 269.543 1302.89 269.408C1298.92 268.562 1294.87 267.157 1290.81 265.372C1293.41 266.541 1296.02 267.674 1298.63 268.807C1266.61 264.123 1241.11 250.083 1217.41 228.561C1240.88 241.049 1264.52 253.424 1288.65 264.381C1276.95 258.896 1265.37 250.857 1256.08 245.829C1242.6 238.542 1228.75 231.477 1215.53 223.582C1248.14 233.075 1278.27 250.652 1306.35 269.742ZM1414.4 236.263C1392.88 238.641 1370.77 237.372 1351.17 227.396C1343.55 223.517 1336.8 219.834 1329.81 217.058C1344.65 220.108 1359.54 222.888 1374.47 225.511C1385.7 227.485 1396.94 229.367 1408.22 231.061C1409.93 231.317 1426.2 234.395 1426.43 233.843C1425.53 236.04 1416.02 236.085 1414.4 236.263ZM1303.3 220.254C1299.11 217.921 1294.23 216.849 1289.63 215.635C1289.4 215.574 1289.17 215.505 1288.94 215.442C1289.02 215.413 1289.1 215.387 1289.17 215.358C1289.18 215.356 1289.19 215.356 1289.2 215.354C1296.49 216.727 1303.24 219.862 1310.13 223.182C1305.36 223.085 1300.84 221.962 1296.49 219.899C1298.7 220.386 1300.92 220.764 1303.16 220.831C1303.48 220.841 1303.55 220.396 1303.3 220.254ZM1305.45 217.686C1305.68 217.795 1305.91 217.903 1306.13 218.019C1305.91 217.909 1305.68 217.795 1305.45 217.686ZM1372.98 236.558C1388.5 239.66 1404.07 239.057 1419.53 236.761C1398.37 242.934 1377.21 247.72 1356.38 236.609C1343.93 229.964 1332.44 222.033 1319.61 216.715C1338.13 221.036 1353.64 232.694 1372.98 236.558ZM1423.77 232.501C1405.65 229.832 1387.57 226.764 1369.6 223.255C1359.28 221.239 1348.98 219.05 1338.69 216.898C1334.77 216.075 1330.85 215.226 1326.92 214.376C1359.53 215.354 1391.46 223.182 1422.93 232.147C1423.21 232.265 1423.49 232.383 1423.77 232.501ZM1320.62 211.837C1323.33 211.614 1326.03 211.413 1328.74 211.249C1353.42 211.141 1378.86 216.402 1402.67 224.472C1375.88 216.847 1348.48 212.038 1320.62 211.837ZM1370.75 244.987C1351.51 241.094 1336.55 230.714 1320.81 220.262C1336.74 227.085 1351.2 237.417 1368.09 242.363C1382.7 246.642 1397.56 243.884 1412.27 240.59C1410.74 241.187 1409.19 241.778 1407.61 242.345C1395.52 246.68 1383.39 247.543 1370.75 244.987ZM1429.59 233.071C1429.01 232.866 1428.43 232.667 1427.85 232.464C1400.63 220.26 1371.84 213.074 1342.38 210.719C1373.23 210.227 1403.57 215.07 1429.59 233.071ZM1359.91 184.916C1371.78 183.933 1358.63 187.858 1354.16 190.307C1346.02 194.772 1337.58 198.777 1328.75 201.66C1324.53 203.037 1320.21 203.878 1315.87 204.519C1326.39 199.865 1336.85 195.018 1347.34 190.685C1347.72 190.526 1347.56 189.936 1347.14 190.055C1337.9 192.754 1328.27 195.672 1318.78 199.016C1331.97 192.774 1345.16 186.134 1359.91 184.916ZM1245.75 206.324C1264.99 200.346 1283.94 192.73 1300.09 181.417C1290.57 189.574 1279.95 196.273 1267.42 200.434C1260.37 202.777 1253.1 204.665 1245.75 206.324ZM1257.54 178.609C1274.52 167.38 1296.22 161.95 1316.79 161.002C1316.47 161.231 1316.16 161.459 1315.85 161.686C1298.15 165.735 1281.54 168.095 1265.05 177.161C1256.41 181.909 1247.83 186.776 1239.54 192.07C1245.37 187.349 1251.29 182.741 1257.54 178.609ZM923.281 246.479C928.877 240.377 936.236 235.528 943.964 231.408C949.085 228.842 954.478 226.665 959.973 224.707C946.772 232.533 935.046 242.262 927.33 256.21C923.22 263.638 920.45 271.535 920.143 280.081C919.76 290.699 923.561 301.784 921.002 311.89C920.785 309.21 920.184 306.586 919.291 303.922C917.636 293.743 913.493 283.903 913.138 273.106C912.783 262.362 916.659 253.907 922.785 247.015C922.944 246.835 923.116 246.66 923.281 246.479ZM967.425 222.175C953.938 230.927 942.567 245.77 936.642 259.15C930.794 272.355 929.665 286.735 926.324 300.483C925.622 292.512 923.697 284.291 924.225 275.904C925.827 250.475 946.332 234.393 967.003 222.313C967.145 222.269 967.285 222.22 967.425 222.175ZM933.553 274.796C938.128 254.841 952.726 234.509 970.731 222.754C948.982 243.841 939.444 274.777 928.418 303.193C930.392 293.849 931.391 284.23 933.553 274.796ZM1074.03 333.681C1067.53 336.485 1060.92 339.139 1054.21 341.385C1045.85 341.577 1037.81 338.72 1029.62 333.348C1020.83 327.587 1012.84 321.205 1004.4 315.568C1008.26 317.32 1012.06 319.27 1015.79 321.552C1024.07 326.614 1031.86 331.152 1041.52 333.045C1056.97 336.073 1072.25 332.97 1086.66 327.459C1085.15 328.446 1083.64 329.437 1082.13 330.423C1079.22 331.613 1076.39 332.659 1074.03 333.681ZM1083.68 326.511C1064.32 332.582 1044.43 335.455 1025.89 323.503C1017.19 317.891 1008.95 313.159 1000.29 309.179C1005.75 310.471 1011.11 312.187 1016.43 314.63C1025.02 318.575 1032.88 323.205 1042.12 325.57C1054.81 328.821 1067.54 328.7 1080.05 326.389C1081.26 326.466 1082.47 326.502 1083.68 326.511ZM1016.41 326.462C1023.67 332.015 1031 338.046 1039.6 341.415C1041.98 342.347 1044.34 342.942 1046.69 343.342C1044.97 343.651 1043.31 343.833 1041.69 343.923C1027.95 341.072 1017.85 332.068 1007.22 320.555C1006.78 320.076 1006.32 319.594 1005.87 319.113C1009.45 321.41 1012.97 323.826 1016.41 326.462ZM1029.02 317.397C1025.43 315.399 1021.9 313.48 1018.37 311.699C1028.76 315.074 1039.29 317.99 1049.93 320.539C1058.01 322.474 1066.48 324.787 1074.97 325.883C1059.23 327.56 1043.48 325.453 1029.02 317.397ZM1008.64 327.802C1005 323.932 1001.23 319.814 997.228 316.004C999.423 317.527 1001.58 319.225 1003.74 321.209C1010.02 326.988 1015.51 333.695 1022.58 338.586C1024.64 340.014 1026.77 341.192 1028.94 342.235C1021.7 339.756 1015.2 334.761 1008.64 327.802ZM1089.84 322.975C1074.46 325.29 1057.77 320.857 1042.97 317.347C1032.02 314.749 1021.26 311.507 1010.55 308.077C1009.45 307.606 1008.35 307.127 1007.23 306.696C1017.51 308.556 1027.56 311.373 1037.62 314.175C1054.9 318.993 1072.11 323.369 1089.84 322.975ZM1070.14 274.083C1069.5 274.075 1068.87 274.087 1068.23 274.144C1062.44 274.656 1057.46 278.03 1051.5 277.293C1046.15 276.631 1041.57 273.699 1036.52 272.255C1038.62 271.195 1040.72 270.14 1042.83 269.09C1051.97 267.652 1061.73 270.024 1070.14 274.083ZM1120.61 225.01C1121.6 192.675 1142.63 175.352 1166.25 159.69C1157.33 168.954 1148.53 178.353 1140 187.897C1130.12 198.947 1123.94 210.861 1121.56 225.195C1121.28 225.438 1120.98 225.668 1120.69 225.909C1120.67 225.609 1120.64 225.31 1120.61 225.01ZM1188.69 301.417C1182.74 301.975 1176.72 301.78 1170.84 300.803C1158.08 298.685 1146.11 293.132 1136.36 284.644C1129.29 278.487 1124.06 270.087 1118.05 262.732C1140.84 278.759 1160.93 301.512 1188.69 301.417ZM1130.57 267.756C1138.62 272.986 1146.49 278.729 1155.02 284.618C1162.37 289.692 1170.48 293.552 1179.12 295.861C1181.77 296.572 1184.48 297.079 1187.2 297.496C1169.11 296.182 1154.34 287.958 1138.26 274.31C1135.7 272.136 1133.14 269.938 1130.57 267.756ZM1153.1 279.588C1136.79 267.122 1121.85 255.873 1103.13 248.431C1123.18 252.045 1141.11 260.153 1158.33 271.778C1170.53 280.012 1181.52 290.035 1194.86 295.613C1179.61 294.452 1165.34 288.941 1153.1 279.588ZM1177.68 152.266C1168.44 166.33 1158.38 179.856 1146.84 192.137C1141.2 198.145 1132.11 205.232 1126.79 213.196C1126.87 212.849 1126.94 212.585 1126.99 212.465C1130.88 201.981 1137.49 193.771 1145 185.604C1154.48 175.289 1164.17 165.16 1173.66 154.855C1175 153.994 1176.34 153.131 1177.68 152.266ZM1145.77 200.923C1146.47 200.403 1147.17 199.883 1147.85 199.349C1142.52 205 1137.14 210.672 1131.56 216.094C1135.87 210.576 1140.77 205.721 1145.77 200.923ZM1160.54 185.206C1149.89 194.61 1138.88 202.61 1130.03 213.222C1136.74 203.106 1146.64 194.819 1154.88 185.97C1162.89 177.37 1170.32 168.361 1177.24 158.943C1172.93 168.549 1167.32 177.32 1160.54 185.206ZM1125.28 280.449C1119.75 273.378 1114.87 265.786 1109.33 258.886C1115.94 264.649 1120.68 272.477 1126.82 279.592C1133.21 286.999 1141.05 293.144 1149.84 297.471C1153 299.029 1156.23 300.279 1159.49 301.293C1145.13 298.801 1134.57 292.328 1125.28 280.449ZM1204.55 295.648C1203.8 295.67 1203.03 295.715 1202.27 295.763C1186.15 292.031 1172.44 279.809 1158.62 269.825C1174.25 278.849 1189.53 288.673 1204.55 295.648ZM1188.22 242.463C1181.07 242.871 1173.98 241.886 1167.61 238.213C1162.65 235.352 1159.03 231.372 1155.27 227.432C1167.34 228.604 1178.15 235.721 1188.22 242.463ZM1180.14 206.913C1186.08 200.566 1194.02 188.538 1203.12 184.896C1199.24 188.549 1196.12 192.62 1193.49 197.552C1189.32 205.364 1188.72 211.013 1179.31 214.993C1177.51 215.754 1175.63 216.313 1173.73 216.845C1173.59 216.861 1173.45 216.873 1173.31 216.89C1171.97 217.05 1170.65 217.253 1169.32 217.434C1173.19 214.341 1176.55 210.753 1180.14 206.913ZM1173.34 171.746C1174.5 169.979 1175.6 168.168 1176.67 166.336C1175.67 168.231 1174.55 170.026 1173.34 171.746ZM1144.5 170.074C1145.41 169.51 1146.32 168.958 1147.23 168.407C1131.73 182.368 1120.11 200.001 1119.93 220.541C1118.6 213.697 1116.39 207.066 1118.31 199.707C1121.82 186.264 1133.3 177.058 1144.5 170.074ZM1086.28 229.512C1087.91 226.255 1090.22 223.329 1092.58 220.48C1091.69 224.053 1090.63 227.581 1089.29 231.022C1087.96 234.468 1086.14 237.758 1084.8 241.202C1084.71 241.287 1084.65 241.395 1084.58 241.49C1084.13 241.675 1083.68 241.851 1083.23 242.036C1083.44 237.703 1084.23 233.581 1086.28 229.512ZM1014.2 215.338C1016.84 204.068 1024.48 194.858 1033.6 186.993C1029.39 192.33 1025.93 198.206 1023.64 204.771C1017.5 222.415 1025.86 239.941 1024.59 257.071C1024.5 257.316 1024.38 257.56 1024.28 257.804C1024.1 256.831 1023.85 255.903 1023.56 255.004C1024.07 241.354 1010.78 229.968 1014.2 215.338ZM1033.9 215.586C1036.96 196.655 1049.39 182.394 1063.07 169.817C1053.68 180.398 1045.69 192.699 1040.71 205.396C1037.52 213.543 1035.72 221.891 1035.28 230.602C1035.14 233.343 1035.05 235.8 1034.89 238.103C1034.5 230.649 1032.66 223.233 1033.9 215.586ZM1029.44 252.092C1030.82 240.997 1026.96 228.697 1028.54 217.342C1030.27 204.86 1036.8 194.127 1045.4 184.892C1040.77 190.738 1036.89 197.144 1034.16 204.271C1031.2 211.998 1029.93 219.868 1030.42 228.121C1030.97 237.398 1032.8 242.818 1029.44 252.092ZM1069.06 162.632C1066.17 164.793 1063.33 167.041 1060.58 169.384C1049.31 177.082 1039.17 186.605 1032.46 198.377C1028.44 205.435 1026.01 213.149 1025.36 221.274C1024.67 229.897 1026.6 238.404 1026.42 246.589C1025.5 237.378 1023.07 227.875 1023.72 219.31C1025.8 191.627 1047.88 176.562 1069.06 162.632ZM1029.65 259.52C1029.94 259.158 1030.21 258.786 1030.49 258.423C1030.56 258.328 1030.66 258.24 1030.74 258.147C1030.22 258.898 1029.7 259.643 1029.17 260.387C1029.33 260.098 1029.5 259.81 1029.65 259.52ZM1039.48 218.215C1042.09 207.092 1046.99 197.654 1053.01 188.928C1044.81 204.495 1043.83 223.221 1037.62 239.63C1038.24 232.511 1037.85 225.121 1039.48 218.215ZM1049.75 202.036C1046.29 215.109 1046.04 228.541 1040.53 241.102C1039.61 243.196 1038.57 245.22 1037.49 247.22C1046.86 227.079 1045.3 201.926 1057.82 182.837C1054.38 188.827 1051.57 195.17 1049.75 202.036ZM1008.25 225.398C1007.86 213.88 1013.8 204.58 1021.56 196.758C1018.88 200.03 1016.51 203.54 1014.61 207.374C1011.68 213.275 1010.04 219.657 1011.02 226.25C1012.09 233.439 1016.22 239.439 1018.57 245.842C1014.03 239.628 1008.55 234.046 1008.25 225.398ZM925.864 312.962C926.056 312.363 926.233 311.76 926.414 311.155C941.576 279.212 950.383 245.129 977.353 220.411C966.095 233.28 956.296 247.283 948.35 262.523C940.342 277.884 936.388 298.519 925.864 312.962Z" fill="#713600"/>
<path d="M659.711 342.214C662.903 341.394 661.742 336.844 658.566 337.3C611.379 344.068 567.864 335.769 525.987 320.729C525.963 320.562 525.938 320.396 525.881 320.219C521.154 305.051 535.421 291.998 535.541 276.771C535.624 266.191 531.333 256.087 525.112 247.687C508.024 224.619 478.222 218.505 452.504 209.952C449.903 209.087 447.678 212.533 449.617 214.513C468.284 233.558 483.333 255.462 493.93 279.969C498.824 291.287 502.325 304.699 509.738 314.546C480.941 302.982 452.805 288.696 424.663 274.423C418.894 263.828 421.599 254.887 429.441 245.285C432.31 241.772 434.708 238.476 436.095 234.124C439.433 223.651 436.274 211.938 430.501 202.99C423.164 191.618 411.74 183.524 400.996 175.636C386.892 165.278 372.455 155.951 355.95 149.939C353.391 149.006 351.466 152.408 353.186 154.304C362.015 164.043 371.049 173.885 377.61 185.358C384.323 197.097 386.364 209.307 388.738 222.371C391.936 239.964 400.097 254.233 410.908 267.465C405.823 264.902 400.734 262.356 395.64 259.844C383.889 254.047 371.994 248.499 359.934 243.386C360.397 231.785 353.144 222.859 345.852 214.265C344.934 213.185 343.222 214.208 343.498 215.506C345.153 223.265 347.547 232.998 352.165 240.168C343.052 236.478 333.841 233.054 324.515 230.013C323.751 219.707 329.234 210.988 326.842 200.447C325.036 192.491 320.636 185.303 315.062 179.421C296.998 160.353 268.237 155.423 253.684 132.522C251.998 129.87 247.769 131.233 248.447 134.478C250.514 144.375 252.297 154.853 255.861 164.339C259.796 174.817 267.051 181.936 274.806 189.744C286.118 201.136 297.829 215.709 311.498 226.063C299.488 222.654 287.29 219.894 274.861 218.008C265.457 211.063 258.021 200.884 250.171 192.437C244.843 186.706 240.31 181.167 232.052 181.153C230.714 181.151 230.237 182.838 231.297 183.593C239.527 189.462 242.739 196.173 246.997 205.012C248.173 207.453 248.999 209.477 250.89 211.477C252.638 213.327 254.77 214.72 257.069 215.874C250.717 215.275 244.353 214.822 237.983 214.454C236.649 214.217 235.309 213.983 233.967 213.75C226.64 206.559 218.567 200.096 210.725 193.497C200.769 185.118 190.827 175.861 179.387 169.542C160.488 159.103 135.611 153.38 114.099 155.391C111.78 155.608 110.373 158.026 111.994 159.984C125.913 176.783 141.183 192.958 161.53 201.828C169.685 205.384 178.268 207.991 187.038 210.111C182.002 209.814 176.97 209.565 171.963 209.339C165.613 209.053 159.371 208.653 153.271 208.787C139.447 205.457 127.52 196.997 114.41 191.403C100.084 185.289 85.1697 182.038 69.6966 180.795C68.3422 180.688 67.796 182.623 68.9189 183.309C81.4761 190.989 94.1022 198.512 108.022 203.479C116.542 206.519 125.322 207.601 134.068 208.805C135.433 209.38 136.795 209.958 138.164 210.519C136.487 210.501 134.807 210.48 133.132 210.478C132.964 210.289 132.726 210.155 132.417 210.141C131.759 210.111 131.104 210.105 130.446 210.078C85.5271 203.371 39.0531 205.465 0.939072 233.428C-1.18086 234.983 0.679155 237.767 2.66506 238.078C23.6857 241.351 39.6542 254.044 61.8159 252.057C78.8363 250.53 95.1317 243.471 109.553 234.596C114.315 231.665 118.756 228.236 123.274 224.938C123.511 225.306 123.901 225.592 124.366 225.655C135.816 227.196 145.015 222.382 154.427 217.244C156.52 216.787 158.628 216.32 160.689 215.746C181.326 217.141 202.034 217.91 222.675 219.299C211.062 222.079 199.825 226.934 189.211 232.049C166.834 242.83 145.504 255.557 125.071 269.654C123.272 270.894 123.377 273.376 125.497 274.226C144.808 281.977 172.274 282.01 191.617 273.644C213.094 264.354 226.462 238.612 239.843 220.804C239.884 220.751 239.904 220.698 239.939 220.645C250.555 221.594 261.144 222.788 271.683 224.432C274.786 224.918 277.872 225.46 280.942 226.049C268.974 227.949 258.567 235.81 248.12 242.332C247.379 242.795 247.336 244.066 248.305 244.316C263.942 248.357 279.955 240.107 289.879 227.915C306.804 231.712 323.276 236.977 339.419 243.179C324.397 244.139 308.934 250.98 296.279 257.253C272.06 269.258 249.923 285.131 224.466 294.616C222.362 295.399 221.619 298.015 223.637 299.438C236.761 308.681 251.407 309.266 267.029 308.158C279.456 307.274 292.441 306.202 303.118 299.182C323.156 286.01 330.178 260.09 350.551 247.622C364.393 253.342 378.014 259.663 391.485 266.283C381.572 266.159 370.978 270.19 363.183 274.886C361.938 275.636 362.659 277.4 364.044 277.195C373.015 275.873 380.321 281.102 388.957 280.081C395.325 279.327 401.029 275.743 407.249 274.164C410.124 275.624 412.993 277.092 415.858 278.562C428.259 284.928 441.035 291.598 454.108 298.181C442.071 298.315 429.228 301.071 421.457 302.841C393.552 309.199 366.643 320.353 337.514 315.673C335.049 315.277 333.859 318.325 334.7 320.181C339.969 331.802 355.704 336.015 366.669 340.598C378.715 345.632 393.012 352.54 406.507 350.631C434.773 346.633 444.416 307.297 473.322 307.646C532.077 335.824 596.089 358.579 659.711 342.214Z" fill="#FFF9E3"/>
<path d="M659.711 342.214C662.903 341.394 661.742 336.844 658.566 337.3C611.379 344.068 567.864 335.769 525.987 320.729C525.963 320.562 525.938 320.396 525.881 320.219C521.154 305.051 535.421 291.998 535.541 276.771C535.624 266.191 531.333 256.087 525.112 247.687C508.024 224.619 478.222 218.505 452.504 209.952C449.903 209.087 447.678 212.533 449.617 214.513C468.284 233.558 483.333 255.462 493.93 279.969C498.824 291.287 502.325 304.699 509.738 314.546C480.941 302.982 452.805 288.696 424.663 274.423C418.894 263.828 421.599 254.887 429.441 245.285C432.31 241.772 434.708 238.476 436.095 234.124C439.433 223.651 436.274 211.938 430.501 202.99C423.164 191.618 411.74 183.524 400.996 175.636C386.892 165.278 372.455 155.951 355.95 149.939C353.391 149.006 351.466 152.408 353.186 154.304C362.015 164.043 371.049 173.885 377.61 185.358C384.323 197.097 386.364 209.307 388.738 222.371C391.936 239.964 400.097 254.233 410.908 267.465C405.823 264.902 400.734 262.356 395.64 259.844C383.889 254.047 371.994 248.499 359.934 243.386C360.397 231.785 353.144 222.859 345.852 214.265C344.934 213.185 343.222 214.208 343.498 215.506C345.153 223.265 347.547 232.998 352.165 240.168C343.052 236.478 333.841 233.054 324.515 230.013C323.751 219.707 329.234 210.988 326.842 200.447C325.036 192.491 320.636 185.303 315.062 179.421C296.998 160.353 268.237 155.423 253.684 132.522C251.998 129.87 247.769 131.233 248.447 134.478C250.514 144.375 252.297 154.853 255.861 164.339C259.796 174.817 267.051 181.936 274.806 189.744C286.118 201.136 297.829 215.709 311.498 226.063C299.488 222.654 287.29 219.894 274.861 218.008C265.457 211.063 258.021 200.884 250.171 192.437C244.843 186.706 240.31 181.167 232.052 181.153C230.714 181.151 230.237 182.838 231.297 183.593C239.527 189.462 242.739 196.173 246.997 205.012C248.173 207.453 248.999 209.477 250.89 211.477C252.638 213.327 254.77 214.72 257.069 215.874C250.717 215.275 244.353 214.822 237.983 214.454C236.649 214.217 235.309 213.983 233.967 213.75C226.64 206.559 218.567 200.096 210.725 193.497C200.769 185.118 190.827 175.861 179.387 169.542C160.488 159.103 135.611 153.38 114.099 155.391C111.78 155.608 110.373 158.026 111.994 159.984C125.913 176.783 141.183 192.958 161.53 201.828C169.685 205.384 178.268 207.991 187.038 210.111C182.002 209.814 176.97 209.565 171.963 209.339C165.613 209.053 159.371 208.653 153.271 208.787C139.447 205.457 127.52 196.997 114.41 191.403C100.084 185.289 85.1697 182.038 69.6966 180.795C68.3422 180.688 67.796 182.623 68.9189 183.309C81.4761 190.989 94.1022 198.512 108.022 203.479C116.542 206.519 125.322 207.601 134.068 208.805C135.433 209.38 136.795 209.958 138.164 210.519C136.487 210.501 134.807 210.48 133.132 210.478C132.964 210.289 132.726 210.155 132.417 210.141C131.759 210.111 131.104 210.105 130.446 210.078C85.5271 203.371 39.0531 205.465 0.939072 233.428C-1.18086 234.983 0.679155 237.767 2.66506 238.078C23.6857 241.351 39.6542 254.044 61.8159 252.057C78.8363 250.53 95.1317 243.471 109.553 234.596C114.315 231.665 118.756 228.236 123.274 224.938C123.511 225.306 123.901 225.592 124.366 225.655C135.816 227.196 145.015 222.382 154.427 217.244C156.52 216.787 158.628 216.32 160.689 215.746C181.326 217.141 202.034 217.91 222.675 219.299C211.062 222.079 199.825 226.934 189.211 232.049C166.834 242.83 145.504 255.557 125.071 269.654C123.272 270.894 123.377 273.376 125.497 274.226C144.808 281.977 172.274 282.01 191.617 273.644C213.094 264.354 226.462 238.612 239.843 220.804C239.884 220.751 239.904 220.698 239.939 220.645C250.555 221.594 261.144 222.788 271.683 224.432C274.786 224.918 277.872 225.46 280.942 226.049C268.974 227.949 258.567 235.81 248.12 242.332C247.379 242.795 247.336 244.066 248.305 244.316C263.942 248.357 279.955 240.107 289.879 227.915C306.804 231.712 323.276 236.977 339.419 243.179C324.397 244.139 308.934 250.98 296.279 257.253C272.06 269.258 249.923 285.131 224.466 294.616C222.362 295.399 221.619 298.015 223.637 299.438C236.761 308.681 251.407 309.266 267.029 308.158C279.456 307.274 292.441 306.202 303.118 299.182C323.156 286.01 330.178 260.09 350.551 247.622C364.393 253.342 378.014 259.663 391.485 266.283C381.572 266.159 370.978 270.19 363.183 274.886C361.938 275.636 362.659 277.4 364.044 277.195C373.015 275.873 380.321 281.102 388.957 280.081C395.325 279.327 401.029 275.743 407.249 274.164C410.124 275.624 412.993 277.092 415.858 278.562C428.259 284.928 441.035 291.598 454.108 298.181C442.071 298.315 429.228 301.071 421.457 302.841C393.552 309.199 366.643 320.353 337.514 315.673C335.049 315.277 333.859 318.325 334.7 320.181C339.969 331.802 355.704 336.015 366.669 340.598C378.715 345.632 393.012 352.54 406.507 350.631C434.773 346.633 444.416 307.297 473.322 307.646C532.077 335.824 596.089 358.579 659.711 342.214ZM134.846 271.623C163.93 272.872 192.551 259.702 215.466 241.189C208.4 250.731 200.543 259.45 189.397 265.087C178.375 270.661 164.622 271.993 152.461 272.647C147.502 272.913 142.678 272.535 137.729 272.373C137.431 272.362 137.029 272.393 136.586 272.44C135.808 272.255 135.025 272.078 134.265 271.873C134.46 271.792 134.653 271.704 134.846 271.623ZM164.07 194.27C154.025 189.756 145.397 184.123 136.96 177.059C132.86 173.625 128.98 170.066 125.357 166.126C124.679 165.389 123.68 164.522 122.748 163.767C150.035 183.669 178.235 196.561 208.883 207.912C193.542 204.646 178.296 200.665 164.07 194.27ZM168.738 190.13C154.973 183.411 142.343 174.797 129.94 165.875C160.5 175.715 188.039 191.117 215.592 207.51C199.729 202.372 183.608 197.387 168.738 190.13ZM125.507 162.666C142.262 167.081 158.437 169.231 174.02 178.608C182.532 183.731 190.973 189.029 199.12 194.729C176.241 182.044 152.449 170.758 127.308 163.968C126.707 163.533 126.106 163.101 125.507 162.666ZM165.016 274.653C174.162 273.54 183.021 271.156 190.614 267.389C196.033 264.701 201.114 261.143 205.851 257.042C201.851 261.182 197.595 264.735 193.004 267.241C185.137 271.532 175.238 273.92 165.016 274.653ZM224.466 223.58C211.251 231.475 197.396 238.539 183.917 245.827C174.619 250.854 163.047 258.896 151.348 264.378C175.472 253.419 199.114 241.045 222.581 228.559C198.882 250.081 173.384 264.12 141.366 268.805C143.977 267.672 146.587 266.539 149.186 265.369C145.127 267.154 141.074 268.559 137.104 269.406C135.969 269.54 134.799 269.627 133.646 269.739C161.721 250.647 191.852 233.071 224.466 223.58ZM13.5652 233.836C13.7906 234.388 30.0637 231.31 31.7674 231.054C43.0473 229.361 54.2886 227.478 65.5218 225.505C80.4526 222.881 95.3429 220.101 110.182 217.051C103.189 219.827 96.4455 223.511 88.8247 227.389C69.2235 237.365 47.1186 238.636 25.5924 236.257C23.974 236.08 14.4628 236.035 13.5652 233.836ZM136.832 220.828C139.072 220.761 141.297 220.384 143.506 219.896C139.151 221.959 134.639 223.082 129.867 223.18C136.755 219.86 143.508 216.724 150.792 215.352C150.802 215.354 150.81 215.354 150.82 215.356C150.898 215.384 150.977 215.411 151.054 215.439C150.825 215.502 150.593 215.571 150.366 215.632C145.766 216.846 140.881 217.918 136.7 220.252C136.444 220.392 136.513 220.836 136.832 220.828ZM133.859 218.014C134.086 217.898 134.316 217.79 134.543 217.681C134.314 217.79 134.086 217.904 133.859 218.014ZM120.392 216.71C107.559 222.028 96.0658 229.96 83.6163 236.604C62.7906 247.717 41.6299 242.929 20.4713 236.756C35.924 239.055 51.4945 239.656 67.0203 236.553C86.3535 232.689 101.861 221.031 120.392 216.71ZM17.0619 232.143C48.5339 223.178 80.4669 215.35 113.072 214.371C109.151 215.222 105.23 216.073 101.303 216.893C91.0096 219.045 80.7146 221.234 70.3952 223.251C52.4245 226.76 34.3442 229.828 16.2233 232.496C16.5015 232.378 16.7817 232.26 17.0619 232.143ZM37.3231 224.467C61.1296 216.395 86.5728 211.134 111.259 211.244C113.965 211.408 116.672 211.609 119.375 211.833C91.5153 212.034 64.1166 216.842 37.3231 224.467ZM32.3847 242.342C30.8049 241.776 29.2596 241.185 27.7265 240.588C42.432 243.879 57.2979 246.637 71.9079 242.361C88.7963 237.414 103.26 227.084 119.186 220.26C103.443 230.711 88.4897 241.089 69.2459 244.984C56.6014 247.538 44.4707 246.675 32.3847 242.342ZM97.6192 210.714C68.1514 213.069 39.3618 220.258 12.1499 232.459C11.5692 232.662 10.9884 232.861 10.4097 233.067C36.4296 215.065 66.7685 210.222 97.6192 210.714ZM121.221 199.01C111.724 195.665 102.101 192.749 92.8554 190.049C92.4412 189.927 92.2767 190.518 92.6605 190.678C103.144 195.011 113.606 199.86 124.13 204.512C119.785 203.873 115.47 203.032 111.25 201.653C102.411 198.77 93.9763 194.766 85.8377 190.3C81.3705 187.85 68.2163 183.926 80.0912 184.909C94.8312 186.13 108.024 192.77 121.221 199.01ZM172.572 200.431C160.041 196.272 149.43 189.571 139.91 181.415C156.057 192.725 175.009 200.344 194.251 206.322C186.896 204.661 179.626 202.772 172.572 200.431ZM200.46 192.065C192.169 186.771 183.588 181.904 174.948 177.156C158.449 168.09 141.839 165.732 124.149 161.681C123.834 161.454 123.519 161.225 123.207 160.997C143.778 161.943 165.475 167.375 182.459 178.604C188.707 182.736 194.622 187.344 200.46 192.065ZM517.215 247.013C523.341 253.904 527.215 262.36 526.862 273.104C526.505 283.898 522.364 293.74 520.707 303.92C519.814 306.584 519.213 309.205 518.996 311.888C516.437 301.781 520.238 290.697 519.855 280.079C519.546 271.532 516.778 263.635 512.668 256.207C504.952 242.261 493.226 232.53 480.025 224.705C485.517 226.66 490.913 228.837 496.034 231.406C503.762 235.526 511.121 240.375 516.715 246.477C516.88 246.655 517.05 246.83 517.215 247.013ZM472.991 222.308C493.664 234.388 514.169 250.469 515.769 275.9C516.297 284.288 514.372 292.508 513.669 300.478C510.329 286.729 509.2 272.35 503.352 259.145C497.427 245.766 486.056 230.922 472.568 222.17C472.711 222.215 472.851 222.264 472.991 222.308ZM511.578 303.189C500.552 274.773 491.016 243.837 469.265 222.749C487.27 234.502 501.868 254.836 506.443 274.791C508.605 284.225 509.604 293.844 511.578 303.189ZM357.863 330.421C356.352 329.434 354.845 328.443 353.335 327.456C367.746 332.967 383.024 336.07 398.472 333.042C408.132 331.148 415.925 326.609 424.204 321.549C427.936 319.267 431.737 317.317 435.594 315.565C427.156 321.202 419.166 327.584 410.378 333.345C402.182 338.718 394.147 341.575 385.787 341.382C379.074 339.134 372.465 336.48 365.967 333.678C363.601 332.654 360.777 331.609 357.863 330.421ZM359.942 326.384C372.459 328.697 385.184 328.819 397.879 325.566C407.117 323.2 414.977 318.57 423.566 314.625C428.882 312.182 434.243 310.466 439.705 309.175C431.043 313.155 422.807 317.884 414.102 323.499C395.565 335.451 375.677 332.575 356.313 326.506C357.522 326.498 358.73 326.461 359.942 326.384ZM434.119 319.108C433.671 319.59 433.214 320.069 432.771 320.55C422.143 332.064 412.045 341.067 398.306 343.918C396.685 343.829 395.027 343.646 393.309 343.337C395.652 342.937 398.009 342.342 400.389 341.41C408.995 338.042 416.321 332.011 423.585 326.457C427.031 323.821 430.55 321.405 434.119 319.108ZM365.029 325.88C373.515 324.784 381.98 322.471 390.064 320.536C400.704 317.988 411.237 315.07 421.621 311.697C418.092 313.478 414.567 315.396 410.979 317.395C396.513 325.448 380.762 327.556 365.029 325.88ZM411.054 342.231C413.221 341.189 415.355 340.009 417.416 338.582C424.486 333.69 429.971 326.983 436.258 321.204C438.414 319.22 440.57 317.523 442.766 316C438.767 319.809 434.999 323.927 431.35 327.797C424.791 334.756 418.295 339.751 411.054 342.231ZM402.377 314.17C412.435 311.366 422.486 308.551 432.765 306.691C431.65 307.12 430.55 307.601 429.447 308.072C418.74 311.502 407.976 314.743 397.025 317.342C382.222 320.853 365.538 325.285 350.155 322.971C367.89 323.365 385.093 318.989 402.377 314.17ZM397.165 269.087C399.27 270.137 401.372 271.193 403.472 272.253C398.426 273.694 393.843 276.629 388.492 277.291C382.53 278.028 377.555 274.653 371.768 274.141C371.129 274.084 370.489 274.072 369.849 274.08C378.264 270.019 388.027 267.647 397.165 269.087ZM319.304 225.905C319.016 225.665 318.719 225.434 318.433 225.19C316.051 210.856 309.874 198.943 299.995 187.892C291.463 178.348 282.664 168.949 273.744 159.685C297.37 175.347 318.396 192.668 319.389 225.005C319.357 225.306 319.326 225.604 319.304 225.905ZM321.946 262.727C315.933 270.082 310.705 278.483 303.636 284.639C293.887 293.129 281.911 298.681 269.157 300.799C263.272 301.775 257.253 301.97 251.308 301.412C279.066 301.507 299.153 278.755 321.946 262.727ZM301.733 274.306C285.651 287.955 270.885 296.179 252.8 297.491C255.519 297.077 258.224 296.567 260.88 295.856C269.514 293.547 277.626 289.689 284.975 284.613C293.501 278.724 301.374 272.982 309.429 267.751C306.855 269.934 304.296 272.131 301.733 274.306ZM245.139 295.608C258.478 290.032 269.463 280.008 281.665 271.774C298.891 260.15 316.815 252.04 336.865 248.426C318.145 255.868 303.208 267.117 286.898 279.583C274.66 288.936 260.381 294.447 245.139 295.608ZM266.334 154.853C275.829 165.158 285.519 175.286 295 185.602C302.507 193.769 309.113 201.978 313.009 212.462C313.054 212.582 313.125 212.846 313.21 213.193C307.884 205.227 298.795 198.141 293.152 192.134C281.618 179.853 271.555 166.327 262.318 152.264C263.656 153.127 264.996 153.99 266.334 154.853ZM308.438 216.091C302.858 210.669 297.477 204.998 292.141 199.347C292.827 199.881 293.528 200.399 294.228 200.92C299.226 205.717 304.121 210.572 308.438 216.091ZM262.75 158.938C269.679 168.356 277.106 177.366 285.113 185.965C293.351 194.814 303.254 203.099 309.963 213.218C301.114 202.606 290.102 194.605 279.458 185.202C272.678 177.315 267.067 168.545 262.75 158.938ZM280.504 301.29C283.765 300.277 286.989 299.026 290.151 297.469C298.939 293.139 306.781 286.997 313.176 279.589C319.316 272.474 324.058 264.646 330.659 258.883C325.122 265.785 320.24 273.376 314.711 280.446C305.423 292.323 294.866 298.796 280.504 301.29ZM281.379 269.82C267.561 279.804 253.842 292.027 237.729 295.759C236.962 295.71 236.198 295.665 235.449 295.643C250.461 288.668 265.745 278.844 281.379 269.82ZM284.721 227.428C280.969 231.367 277.34 235.347 272.379 238.208C266.011 241.881 258.925 242.866 251.769 242.458C261.849 235.716 272.658 228.599 284.721 227.428ZM270.674 217.431C269.344 217.25 268.022 217.047 266.688 216.887C266.547 216.871 266.405 216.858 266.265 216.842C264.371 216.31 262.488 215.752 260.689 214.99C251.273 211.01 250.676 205.361 246.506 197.55C243.872 192.617 240.757 188.546 236.877 184.893C245.978 188.534 253.917 200.563 259.857 206.911C263.449 210.748 266.805 214.336 270.674 217.431ZM263.329 166.329C264.397 168.163 265.496 169.974 266.657 171.739C265.447 170.021 264.33 168.226 263.329 166.329ZM321.684 199.7C323.607 207.059 321.4 213.691 320.068 220.534C319.883 199.994 308.27 182.363 292.762 168.401C293.674 168.949 294.586 169.503 295.491 170.068C306.692 177.053 318.175 186.26 321.684 199.7ZM356.76 242.03C356.313 241.845 355.865 241.668 355.416 241.483C355.343 241.388 355.282 241.282 355.199 241.195C353.856 237.751 352.033 234.462 350.701 231.016C349.369 227.574 348.303 224.047 347.417 220.473C349.777 223.322 352.082 226.248 353.716 229.505C355.759 233.576 356.551 237.698 356.76 242.03ZM416.431 254.999C416.139 255.9 415.891 256.826 415.714 257.799C415.615 257.553 415.489 257.312 415.397 257.066C414.13 239.936 422.492 222.41 416.35 204.766C414.065 198.201 410.603 192.325 406.39 186.989C415.507 194.853 423.154 204.064 425.79 215.333C429.217 229.964 415.929 241.349 416.431 254.999ZM405.1 238.098C404.944 235.796 404.848 233.341 404.712 230.597C404.278 221.886 402.475 213.536 399.281 205.392C394.302 192.697 386.313 180.393 376.92 169.812C390.604 182.389 403.037 196.65 406.097 215.581C407.334 223.228 405.496 230.644 405.1 238.098ZM409.572 228.116C410.059 219.864 408.794 211.991 405.833 204.267C403.1 197.139 399.218 190.733 394.596 184.887C403.194 194.122 409.718 204.854 411.452 217.338C413.03 228.695 409.178 240.992 410.554 252.087C407.196 242.813 409.023 237.394 409.572 228.116ZM416.279 219.305C416.922 227.868 414.492 237.373 413.572 246.584C413.391 238.399 415.326 229.895 414.636 221.269C413.986 213.144 411.557 205.428 407.533 198.372C400.822 186.603 390.677 177.077 379.411 169.379C376.66 167.036 373.823 164.786 370.934 162.628C392.121 176.557 414.197 191.622 416.279 219.305ZM410.826 260.382C410.299 259.639 409.777 258.894 409.259 258.142C409.336 258.238 409.429 258.325 409.509 258.418C409.787 258.784 410.057 259.153 410.339 259.515C410.498 259.805 410.664 260.094 410.826 260.382ZM402.375 239.625C396.164 223.216 395.183 204.49 386.981 188.924C393.002 197.649 397.9 207.087 400.517 218.211C402.144 225.117 401.75 232.506 402.375 239.625ZM382.177 182.832C394.698 201.921 393.136 227.076 402.505 247.216C401.423 245.215 400.387 243.191 399.467 241.097C393.958 228.536 393.705 215.102 390.244 202.031C388.427 195.166 385.615 188.822 382.177 182.832ZM421.424 245.839C423.773 239.436 427.906 233.436 428.974 226.248C429.955 219.655 428.314 213.272 425.384 207.372C423.479 203.536 421.111 200.025 418.433 196.756C426.196 204.577 432.133 213.877 431.739 225.395C431.445 234.041 425.965 239.623 421.424 245.839ZM491.646 262.518C483.7 247.279 473.898 233.276 462.641 220.406C489.611 245.124 498.42 279.207 513.58 311.151C513.759 311.754 513.935 312.357 514.128 312.958C503.608 298.514 499.654 277.879 491.646 262.518Z" fill="#713600"/>
<path d="M686.926 21.3901C694.988 28.3173 692.169 38.4594 685.663 43.495C698.189 59.0341 714.305 70.4306 733.421 77.3071C733.366 77.0473 733.346 76.7794 733.387 76.5114C723.596 63.2984 718.566 46.4441 717.962 29.8537C715.637 29.4133 713.29 28.3213 711.055 26.4013C696.41 13.8174 715.983 -8.91473 730.651 3.6874C742.399 13.7809 732.128 30.3895 720.033 30.0668C721.713 45.5633 727.265 59.4705 735.811 73.2254C738.372 66.9883 741.858 61.3215 743.694 54.5485C745.022 49.6449 745.954 44.6722 746.71 39.663C745.783 39.4215 744.853 38.9628 743.965 38.1976C737.318 32.4862 746.2 22.1694 752.859 27.889C758.212 32.4882 753.489 40.0609 747.973 39.8538C747.522 51.5893 746.316 65.9653 739.114 74.7761C759.944 72.578 773.711 46.2878 782.052 26.1821C780.411 25.8147 778.82 25.0982 777.423 23.8987C775.292 22.0659 773.85 19.2163 773.64 16.4154C773.439 13.7362 774.391 10.4421 776.268 8.45506C780.35 4.1319 787.082 3.29566 791.743 7.3022C793.875 9.13498 795.317 11.9846 795.526 14.7856C795.728 17.4647 794.776 20.7588 792.899 22.7459C790.377 25.4169 786.844 26.7463 783.411 26.4358C778.424 40.343 772.186 54.2238 762.81 65.5168C758.301 70.9461 752.045 76.8098 745.073 78.8374C754.347 80.6499 763.39 81.3887 773.04 78.395C781.245 75.8518 788.747 71.5145 795.953 66.8178C795.455 65.6853 795.13 64.4634 795.087 63.136C794.987 59.984 795.831 56.9415 797.936 54.5039C799.927 52.1962 803.023 50.6374 806.066 50.4101C810.53 50.0772 814.164 52.2266 816.835 55.6344C816.896 55.7136 816.957 55.7907 817.018 55.8678C817.473 56.7832 817.927 57.6965 818.382 58.6119C818.942 60.0733 819.119 61.563 818.909 63.0812C818.775 65.596 817.935 68.2751 816.155 70.1606C814.713 71.689 812.991 72.8601 811.032 73.6273C808.524 74.6097 804.493 74.4737 802.122 73.1341C802.037 73.0854 801.949 73.0367 801.864 72.988C799.877 71.8656 798.103 70.3352 796.86 68.472C779.719 81.3238 762.407 86.475 740.804 81.5775C740.729 81.6749 740.647 81.7723 740.57 81.8697C748.106 90.4917 756.981 97.5103 767.311 102.842C775.56 107.1 786.897 111.913 797.326 112.578C797.271 109.948 798.223 106.875 800.019 104.973C802.008 102.867 804.691 101.212 807.674 101.119C810.648 101.024 813.52 101.819 815.82 103.796C817.996 105.667 819.468 108.578 819.682 111.436C819.887 114.172 818.915 117.535 816.999 119.565C815.01 121.671 812.328 123.323 809.342 123.419C806.369 123.512 803.497 122.719 801.197 120.742C799.508 119.291 798.264 117.214 797.682 115.022C788.64 115.398 778.351 111.671 771.017 108.568C758.576 103.303 748.138 95.1437 739.531 85.0076C745.586 106.183 745.626 128.889 744.809 150.764C743.853 176.263 735.781 200.014 724.483 222.714C713.555 244.675 701.106 268.683 682.482 285.184C668.516 297.561 646.609 308.475 628.283 299.224C627.721 298.941 627.99 298.061 628.622 298.172C677.135 306.691 706.288 246.148 722.679 210.081C732.41 188.668 737.975 166.679 738.618 143.165C739.126 124.537 739.856 105.314 736.808 86.7998C731.298 103.989 713.657 117.754 696.277 124.395C697.459 126.406 698.224 128.682 698.393 130.941C698.669 134.635 697.357 139.177 694.77 141.919C692.084 144.765 688.461 146.997 684.43 147.125C680.414 147.253 676.537 146.179 673.429 143.51C670.489 140.983 668.502 137.054 668.213 133.192C667.936 129.498 669.248 124.955 671.835 122.213C674.522 119.368 678.144 117.135 682.175 117.007C686.192 116.879 690.068 117.953 693.176 120.622C693.949 121.286 694.652 122.053 695.281 122.885C709.945 116.216 725.679 104.397 732.122 90.1893C711.611 106.199 674.705 113.23 655.438 96.3554C651.808 99.6475 646.302 100.78 641.502 96.6558C630.912 87.5568 645.066 71.1187 655.672 80.2318C660.771 84.6118 660.106 90.6744 656.89 94.7865C675.319 108.47 706.601 103.467 726.252 89.895C716.974 91.8069 707.238 90.8794 697.681 88.6204C684.243 85.446 670.513 81.4922 660.433 72.0726C660.391 72.0949 660.356 72.1274 660.311 72.1497C656.752 73.9115 651.814 71.5692 651.729 67.3049C651.726 67.1588 651.722 67.0147 651.72 66.8686C651.674 64.4999 652.772 62.3729 654.946 61.2951C656.833 60.3615 659.73 60.4 661.29 62.0501C661.383 62.1496 661.477 62.2491 661.572 62.3485C663.059 63.9215 663.958 65.7096 663.547 67.9382C663.309 69.2311 662.648 70.319 661.723 71.1572C671.684 78.6121 684.005 82.1498 696.078 85.0888C709.432 88.3403 722.235 89.2049 734.448 83.0348C734.463 83.0205 734.477 83.0084 734.489 82.9942C734.548 82.7039 734.599 82.4137 734.65 82.1214C714.238 74.5873 697.022 61.6077 684.355 44.4084C679.71 47.3067 673.627 47.6924 668.233 43.0566C654.267 31.0512 672.935 9.36638 686.926 21.3901Z" fill="#713600"/>
<path d="M835.699 422.013C830.062 416.817 829.145 412.073 820.376 410.875C818.277 410.589 816.187 410.599 814.11 410.82C816.334 408.542 818.06 405.738 819.028 402.231C822.279 390.478 818.845 374.974 813.152 364.543C801.602 343.383 777.893 339.254 759.737 352.35C761.418 341.941 747.74 328.056 739.415 325.499C722.163 320.202 714.477 334.913 705.287 345.99C704.962 346.244 704.635 346.5 704.347 346.753C695.085 338.85 678.065 333.52 667.76 339.784C658.322 345.521 656.096 358.649 661.219 367.863C651.901 364.649 638.834 366.71 631.268 372.564C622.559 379.306 632.98 395.016 636.178 403.049C638.306 408.394 640.428 412.593 643.109 416.1C641.188 416.161 639.287 416.445 637.431 417.093C636.885 417.284 636.402 417.507 635.892 417.718C628.769 419.28 622.405 423.329 620.319 430.836C616.689 443.911 622.159 465.128 629.92 476.01C634.903 482.995 640.191 486.165 645.631 486.807C648.041 487.45 650.699 487.769 653.706 487.609C654.157 487.584 654.583 487.495 655.028 487.452C653.052 502.231 671.19 520.498 686.267 513.913C688.835 512.79 691.051 510.971 693.008 508.806C693.579 508.469 694.141 508.114 694.7 507.744C693.668 517.412 693.29 531.366 698.655 538.53C702.075 543.095 705.313 539.021 708.093 542.593C708.339 542.91 708.814 542.871 709.131 542.727C710.999 541.87 718.315 545.097 720.194 545.281C722.628 545.523 725.116 545.363 727.536 545.018C733.965 544.102 740.317 541.367 745.633 537.675C753.769 532.024 758.917 523.751 758.178 514.244C760.401 516.612 762.781 518.851 765.386 520.888C771.843 525.938 779.158 530.519 787.442 527.597C794.803 525 804.396 519.798 809.949 513.978C824.235 499.009 822.279 480.287 807.464 466.923C810.248 467.496 813.056 467.955 815.909 468.217C837.722 470.211 849.375 459.234 845.982 437.244C844.626 428.423 841.6 427.453 835.699 422.013Z" fill="#FFF9E3"/>
</g>
<g opacity="0.15">
<path d="M835.699 422.013C830.062 416.817 829.145 412.073 820.376 410.875C818.277 410.589 816.187 410.599 814.11 410.82C816.334 408.542 818.06 405.738 819.028 402.231C822.279 390.478 818.845 374.974 813.152 364.543C801.602 343.383 777.893 339.254 759.737 352.35C761.418 341.941 747.74 328.056 739.415 325.499C722.163 320.202 714.477 334.913 705.287 345.99C704.962 346.244 704.635 346.5 704.347 346.753C695.085 338.85 678.065 333.52 667.76 339.784C658.322 345.521 656.096 358.649 661.219 367.863C651.901 364.649 638.834 366.71 631.268 372.564C622.559 379.306 632.98 395.016 636.178 403.049C638.306 408.394 640.428 412.593 643.109 416.1C641.188 416.161 639.287 416.445 637.431 417.093C636.885 417.284 636.402 417.507 635.892 417.718C628.769 419.28 622.405 423.329 620.319 430.836C616.689 443.911 622.159 465.128 629.92 476.01C634.903 482.995 640.191 486.165 645.631 486.807C648.041 487.45 650.699 487.769 653.706 487.609C654.157 487.584 654.583 487.495 655.028 487.452C653.052 502.231 671.19 520.498 686.267 513.913C688.835 512.79 691.051 510.971 693.008 508.806C693.579 508.469 694.141 508.114 694.7 507.744C693.668 517.412 693.29 531.366 698.655 538.53C702.075 543.095 705.313 539.021 708.093 542.593C708.339 542.91 708.814 542.871 709.131 542.727C710.999 541.87 718.315 545.097 720.194 545.281C722.628 545.523 725.116 545.363 727.536 545.018C733.965 544.102 740.317 541.367 745.633 537.675C753.769 532.024 758.917 523.751 758.178 514.244C760.401 516.612 762.781 518.851 765.386 520.888C771.843 525.938 779.158 530.519 787.442 527.597C794.803 525 804.396 519.798 809.949 513.978C824.235 499.009 822.279 480.287 807.464 466.923C810.248 467.496 813.056 467.955 815.909 468.217C837.722 470.211 849.375 459.234 845.982 437.244C844.626 428.423 841.6 427.453 835.699 422.013ZM708.349 532.339C708.061 531.918 707.429 532.178 707.393 532.651C707.342 533.285 707.293 533.918 707.245 534.552C705.876 537.612 708.03 534.219 705.188 534.132C696.385 533.857 697.77 511.103 698.505 505.726C698.55 505.393 698.613 505.068 698.667 504.739C712.012 493.443 711.46 478.859 715.854 463.207C715.962 466.213 716.228 469.246 716.492 472.207C716.518 472.491 716.951 472.501 716.943 472.207C716.853 468.532 717.05 464.923 717.229 461.28C717.44 461.455 717.692 461.605 717.956 461.745C718.327 469.039 718.855 476.327 719.304 483.617C719.306 483.666 719.379 483.666 719.379 483.617C719.394 476.498 719.479 469.372 719.424 462.251C719.521 462.269 719.593 462.306 719.696 462.32C720.33 462.407 720.878 462.288 721.404 462.127C721.934 478.159 722.848 494.172 725.075 510.065C725.093 510.189 725.309 510.161 725.296 510.035C723.938 495.276 723.018 480.563 723.146 465.756C724.153 470.43 725.15 475.103 726.403 479.728C726.436 479.846 726.641 479.828 726.624 479.698C725.828 473.573 724.624 467.545 723.55 461.471C723.745 461.433 723.934 461.372 724.137 461.37C724.32 461.368 724.498 461.392 724.677 461.416C725.753 465.79 727.195 470.095 728.531 474.39C728.633 474.715 729.11 474.581 729.039 474.25C728.153 470.117 727.341 465.932 726.249 461.841C726.62 461.977 726.994 462.115 727.372 462.233C727.806 463.386 728.493 464.458 729.077 465.538C729.819 466.907 730.56 468.276 731.301 469.644C731.459 469.939 731.821 469.73 731.79 469.449C733.338 472.674 735.983 475.683 738.828 478.632C748.784 495.439 761.76 512.571 747.511 530.747C738.851 541.793 724.722 546.077 713.194 537.001C712.782 536.676 711.444 537.397 711.239 537.198C711.003 536.97 709.263 533.957 708.599 532.765C708.617 532.696 708.638 532.629 708.658 532.56C708.715 532.367 708.487 532.243 708.349 532.339ZM626.137 452.669C625.077 446.504 625.217 439.212 626.046 432.917C626.967 425.914 630.322 421.907 634.937 419.925C637.752 419.211 640.79 418.849 643.492 418.331C643.99 418.327 644.495 418.342 645.001 418.36C648.459 422.11 652.859 425.041 659.132 427.824C661.051 428.675 662.99 429.463 664.943 430.188C677.578 436.398 692.271 439.311 705.937 438.93C705.742 439.695 705.535 440.469 705.336 441.255C700.282 440.709 695.437 440.225 690.342 441.042C690.151 441.072 690.2 441.377 690.387 441.375C695.25 441.308 700.292 441.291 705.062 442.398C704.999 442.668 704.94 442.94 704.883 443.212C704.765 443.172 704.649 443.127 704.507 443.121C693.124 442.698 681.757 444.512 670.432 445.842C672.04 445.671 673.651 445.515 675.267 445.413C684.997 444.808 694.775 445.312 704.507 445.598C704.517 445.598 704.524 445.594 704.532 445.594C704.473 446.258 704.453 446.922 704.491 447.584C697.098 450.344 690.967 454.598 685.247 460.115C675.643 469.376 666.066 483.194 651.454 483.944C646.179 484.214 641.833 482.924 638.213 480.634C630.417 474.114 627.747 462.048 626.137 452.669ZM675.429 345.862C680.687 343.541 685.568 343.291 691.187 344.568C694.289 345.273 699.882 346.23 702.692 348.473C700.249 351.468 699.798 354.853 699.719 360.23C699.526 373.346 701.508 386.413 704.942 399.045C705.372 400.631 705.797 402.337 706.229 404.077C706.136 403.965 706.044 403.859 705.949 403.746C705.963 403.63 705.955 403.504 705.908 403.362C701.841 391.252 695.845 379.285 688.77 368.672C688.622 368.45 688.293 368.641 688.413 368.881C693.556 379.009 698.141 389.156 702.505 399.581C692.375 387.245 680.776 373.072 665.376 369.342C665.289 369.171 665.218 368.994 665.134 368.822C662.893 358.945 665.321 350.325 675.429 345.862ZM755.073 358.626C755.601 358.175 756.121 357.798 756.636 357.461C757.085 357.422 757.528 357.225 757.859 356.787C757.871 356.77 757.879 356.754 757.891 356.738C762.464 354.437 766.73 355.785 772.266 353.962C779.31 351.641 778.666 347.83 788.726 351.671C791.091 352.575 795.096 355.818 797.256 357.189C814.512 368.144 818.031 390.441 803.677 406.278C798.15 412.376 791.475 416.577 784.261 419.83C772.93 422.699 762.239 425.627 751.698 430.574C749.267 431.337 746.865 432.131 744.518 432.998C744.297 433.08 744.122 433.199 743.968 433.333C743.775 432.976 743.564 432.641 743.34 432.314C744.989 431.502 746.498 430.066 747.919 428.994C749.678 427.67 751.333 426.212 753.02 424.799C753.316 424.551 752.935 424.072 752.61 424.267C750.545 425.522 748.467 426.746 746.469 428.109C745.105 429.039 743.517 429.888 742.341 431.075C741.953 430.669 741.543 430.304 741.1 430.005C746.699 424.856 752.51 420.031 758.377 415.154C758.62 414.951 758.295 414.522 758.036 414.711C754.167 417.515 750.348 420.384 746.471 423.176C744.031 424.935 741.222 426.683 739.592 429.27C739.251 429.163 738.903 429.067 738.542 429.033C738.497 428.905 738.434 428.787 738.382 428.663C740.834 426.34 743.194 424.171 746.339 422.687C746.53 422.598 746.392 422.263 746.195 422.344C743.151 423.581 739.992 424.988 737.35 427.006C737.102 426.708 736.834 426.429 736.542 426.17C739.951 420.157 747.397 416.461 752.525 411.935C757.8 407.277 762.669 402.361 767.017 396.819C767.25 396.523 766.852 396.099 766.592 396.395C761.071 402.651 755.223 408.587 748.488 413.543C745.184 415.974 741.553 418.031 738.518 420.719C742.845 414.743 749.649 409.959 754.368 404.7C760.109 398.304 764.942 391.536 768.919 383.907C768.986 383.777 768.808 383.676 768.725 383.793C762.152 393.057 755.278 402.129 747.064 410.012C744.075 412.881 740.883 415.448 738.205 418.423C746.778 399.354 756.312 379.797 755.073 358.626ZM733.985 457.268C733.853 457.349 733.699 457.394 733.534 457.426C733.074 457.197 732.509 457.209 732.125 457.581C732.042 457.599 731.955 457.605 731.878 457.633C729.419 458.555 731.961 463.498 725.591 458.405C725.02 457.948 724.403 457.94 723.826 458.405C723.302 458.159 722.778 457.914 722.253 457.668C722.188 457.544 722.102 457.428 721.964 457.341C720.592 456.476 719.917 455.138 718.602 454.277C719.398 454.356 720.214 454.279 721.01 454.039C721.485 455.972 724.383 457.339 726.521 457.032C728.87 456.695 732.245 454.06 731.941 451.458C734.215 452.11 737.352 450.122 738.379 448.069C739.265 446.299 739.435 444.148 738.544 442.341C738.087 441.415 737.285 440.39 736.314 439.866C738.077 438.314 737.852 434.202 736.808 432.391C735.929 430.862 734.363 429.818 732.568 429.857C731.569 429.877 730.365 430.324 729.741 431.14C729.018 429.922 727.246 429.414 725.67 429.636C729.918 425.396 733.449 425.613 736.257 430.324C736.373 431.22 736.991 431.725 737.9 431.575C739.697 431.278 740.865 431.506 741.616 432.05C741.606 432.385 741.892 432.682 742.234 432.708C744.035 435.506 740.66 442.053 741.653 442.78C740.589 442 739.271 443.496 739.9 444.532C740.164 445.283 740.428 446.035 740.694 446.786C740.696 446.794 740.7 446.802 740.702 446.81C741.013 447.694 741.324 448.579 741.637 449.462C741.492 449.609 741.348 449.757 741.204 449.903C740.445 449.986 739.951 450.614 739.854 451.28C737.902 453.278 735.945 455.272 733.985 457.268ZM731.106 467.799C730.747 466.98 730.389 466.16 730.03 465.342C729.618 464.401 729.22 463.419 728.75 462.487C729.043 462.497 729.337 462.484 729.644 462.413C729.912 462.352 730.21 462.261 730.507 462.174C730.239 464.135 730.483 466.003 731.106 467.799ZM713.501 433.246C714.268 432.921 714.701 432.424 714.77 431.579C717.497 428.88 720.22 428.184 722.937 429.443C722.935 429.554 722.906 429.646 722.91 429.762C722.91 429.792 722.925 429.81 722.929 429.841C721.284 429.372 719.456 429.439 718.141 430.606C716.471 432.089 716.551 434.527 717.054 436.572C714.248 436.3 712.116 437.571 711.247 440.79C710.772 442.546 710.41 444.52 711.507 446.128C711.96 446.794 712.717 447.371 713.499 447.562C713.174 448.778 713.353 450.009 713.933 451.148C714.394 452.049 715.068 452.752 715.848 453.28C715.097 453.14 714.335 453.028 713.598 452.819C707.385 451.048 707.539 445.164 708.761 439.979C708.897 439.866 709.019 439.75 709.165 439.64C709.482 439.395 709.578 438.853 709.47 438.489C710.812 436.745 712.157 434.994 713.501 433.246ZM721.901 451.414C721.863 451.454 721.84 451.495 721.804 451.536C721.552 451.373 721.223 451.32 720.833 451.469C719.345 452.033 717.617 451.889 716.5 450.642C715.645 449.69 714.94 447.643 715.613 446.441C715.692 446.299 715.647 446.114 715.505 446.029C715.491 446.02 715.479 446.027 715.466 446.018C715.395 445.888 715.302 445.771 715.162 445.681C714.102 444.991 713.097 445.009 712.985 443.444C712.908 442.38 713.206 440.97 713.612 439.977C714.244 438.44 715.883 437.939 717.475 437.63C717.639 437.809 717.844 437.933 718.112 437.969C718.386 438.006 718.539 437.87 718.74 437.709C718.845 437.624 718.896 437.498 718.937 437.37C718.941 437.37 718.943 437.368 718.947 437.368C719.16 437.33 719.132 437.053 718.969 436.966C718.965 436.928 718.977 436.883 718.969 436.846C718.622 435.287 718.015 433.108 719.361 431.825C720.358 430.874 721.928 431.067 723.327 431.258C723.331 431.406 723.373 431.546 723.434 431.683C722.409 432.986 722.831 435.411 723.607 436.802C721.879 436.848 720.12 438.081 719.45 439.638C719.073 440.516 719.128 441.48 719.605 442.3C717.822 442.743 716.559 444.658 717.186 446.63C717.655 448.1 719.85 449.761 721.536 449.546C721.538 449.554 721.538 449.56 721.542 449.568C721.985 450.695 723.154 451.219 724.314 451.227C725.445 451.237 726.59 450.768 727.396 449.976C727.66 449.716 727.922 449.369 728.111 448.995C728.651 449.31 729.284 449.432 729.92 449.408C729.92 449.444 729.908 449.479 729.924 449.521C729.969 449.631 730.028 449.718 730.078 449.818C729.969 449.893 729.873 449.984 729.812 450.098C728.988 451.666 729.079 453.211 727.266 454.149C725.426 455.101 722.316 454.236 722.642 451.718C722.689 451.339 722.141 451.164 721.901 451.414ZM728.393 434.217C729.429 434.946 730.878 434.69 731.778 435.693C732.186 436.146 732.284 436.759 732.2 437.356C731.567 436.842 730.767 436.651 729.839 437.057C729.035 437.409 729.382 438.54 730.064 438.773C731.047 439.11 731.565 439.793 731.693 440.855C731.752 441.354 731.739 442.002 731.244 442.305C730.736 442.617 730.042 442.335 730.056 441.649C730.066 441.173 729.457 441.072 729.215 441.421C728.683 442.193 728.848 443.141 729.443 443.76C729.215 444.055 728.988 444.362 728.657 444.595C727.869 445.151 726.259 444.697 726.716 443.501C726.943 442.906 726.117 442.54 725.711 442.916C725.642 442.981 725.607 443.056 725.548 443.125C725.27 442.832 725.02 442.524 724.896 442.142C724.614 441.273 724.976 440.451 725.587 439.866C725.926 439.813 726.233 439.592 726.407 439.291C726.413 439.289 726.417 439.283 726.421 439.281C726.732 439.141 726.761 438.838 726.637 438.593C726.754 437.874 726.675 437.12 726.951 436.408C727.106 436.012 727.741 434.621 728.393 434.217ZM731.008 446.983C730.282 447.771 729.157 447.659 728.204 447.357C728.157 447.271 728.084 447.196 728.013 447.117C729.175 446.991 730.706 446.173 731.4 445.123C731.512 445.769 731.555 446.392 731.008 446.983ZM733.76 441.22C733.782 441.289 733.833 441.342 733.841 441.419C733.874 441.701 733.79 441.949 733.658 442.179C733.727 441.878 733.758 441.553 733.76 441.22ZM725.246 445.432C725.544 446.096 726.119 446.66 726.815 446.948C726.068 447.401 725.942 448.408 725.095 448.829C724.689 449.03 724.222 449.115 723.78 448.993C723.625 448.951 723.248 448.746 723.026 448.51C723.045 448.478 723.071 448.467 723.089 448.433C723.276 448.069 723.217 447.493 722.793 447.302C721.824 446.867 720.533 447.107 719.753 446.291C718.837 445.33 719.562 443.809 720.618 443.245C721.152 443.488 721.753 443.494 722.253 443.011C722.508 442.763 722.602 442.27 722.387 441.963C721.8 441.123 720.898 441.033 721.757 439.854C722.362 439.023 723.233 438.119 724.261 437.837C724.273 438.243 724.336 438.641 724.488 439.001C723.54 439.724 722.9 440.82 722.925 442.077C722.951 443.464 723.877 445.109 725.246 445.432ZM730.874 449.257C731.394 449.101 731.884 448.847 732.288 448.482C733.21 447.647 733.774 446.083 733.524 444.788C734.534 444.656 735.429 444.016 735.939 443.115C736.505 443.762 736.867 444.532 736.647 445.791C736.132 448.746 733.549 450.169 730.874 449.257ZM734.81 438.337C734.592 438.168 734.361 438.036 734.113 437.957C734.452 437.114 734.442 436.079 734.101 435.206C733.731 434.257 732.814 433.319 731.744 432.753C732.046 432.541 732.371 432.385 732.82 432.405C733.78 432.45 734.507 433.205 734.938 434.01C735.342 434.763 735.502 435.675 735.466 436.521C735.433 437.301 735.175 437.843 734.81 438.337ZM728.373 432.617C728.298 432.663 728.263 432.732 728.206 432.791C727.258 432.809 726.204 433.522 725.603 434.2C725.325 434.513 725.075 434.897 724.864 435.313C724.598 434.749 724.425 434.148 724.429 433.506C724.431 433.094 724.527 432.698 724.612 432.3C724.703 432.273 724.797 432.249 724.89 432.188C726.375 431.22 727.597 431.526 728.868 432.412C728.702 432.47 728.529 432.519 728.373 432.617ZM706.404 447.02C706.355 447.009 706.302 447.007 706.25 447.007C706.266 446.851 706.254 446.711 706.278 446.55C706.002 445.135 706.13 443.84 706.646 442.664C706.349 444.126 706.248 445.592 706.404 447.02ZM706.445 448.894C706.564 448.857 706.656 448.798 706.741 448.733C707.078 449.866 707.614 450.961 708.475 451.98C708.721 452.271 708.991 452.48 709.255 452.711C707.567 451.871 706.601 450.606 706.306 448.942C706.353 448.928 706.4 448.906 706.445 448.894ZM751.708 370.804C749.913 389.219 739.474 407.082 732.227 423.93C730.722 423.552 729.161 423.477 727.749 423.763C727.69 422.843 727.536 421.907 727.487 421.113C727.479 420.994 727.295 420.953 727.266 421.083C727.063 421.993 726.86 422.904 726.657 423.814C726.635 423.914 726.612 424.009 726.59 424.106C726.442 424.161 726.3 424.22 726.157 424.285C726.125 421.834 725.826 419.347 725.916 416.896C725.924 416.697 725.64 416.711 725.615 416.896C725.274 419.469 724.801 422.356 724.959 425.028C724.62 425.298 724.318 425.609 724.052 425.96C723.187 415.282 722.783 404.852 723.355 394.082C723.357 394.04 723.288 394.029 723.282 394.072C721.755 405.127 721.375 416.721 722.711 427.828C721.877 427.368 721.042 426.99 720.212 426.689C718.464 404.416 719.377 383.558 720.51 361.278C720.521 361.091 720.206 361.043 720.179 361.233C717.255 382.11 714.778 405.421 718.831 426.291C718.285 426.174 717.745 426.115 717.209 426.111C717.164 426.046 717.121 425.973 717.077 425.908C716.147 412.845 713.897 400.014 713.578 386.853C713.576 386.805 713.505 386.805 713.503 386.853C712.948 398.377 712.672 410.828 714.9 422.348C707.659 409.304 704.645 390.232 703.098 376.374C702.672 372.546 702.428 368.7 702.324 364.852C702.105 356.726 705.675 352.537 711.33 346.569C712.912 344.9 714.567 343.726 716.069 341.831C721.333 335.199 720.322 330.32 734.828 333.743C741.092 335.222 746.465 340.14 749.16 345.744C752.728 353.168 752.496 362.726 751.708 370.804ZM675.454 376.855C686.797 383.848 694.135 395.439 704.278 403.809L704.28 403.813C704.418 404.152 704.702 404.318 704.995 404.361C705.527 404.787 706.065 405.206 706.615 405.612C708.432 412.798 710.743 420.541 715.619 425.607C715.671 425.828 715.712 426.056 715.767 426.277C715.31 426.383 714.859 426.551 714.415 426.777C710.347 423.055 706.386 419.215 702.385 415.424C702.123 415.174 701.732 415.564 701.987 415.822C705.801 419.666 709.659 423.473 713.409 427.378C713.08 427.623 712.758 427.908 712.439 428.235C705.159 419.93 695.094 413.07 686.139 406.731C686.086 406.694 686.021 406.777 686.07 406.82C694.596 414.037 702.584 422.478 711.513 429.167C710.908 429.786 710.274 430.413 709.661 431.067C705.594 427.268 701.372 423.676 697.083 420.116C697.065 420.102 697.039 420.127 697.057 420.143C701.037 424.039 704.887 428.068 708.79 432.042C708.686 432.166 708.593 432.296 708.493 432.422C704.518 429.561 700.507 426.748 696.574 423.824C696.302 423.623 695.944 424.08 696.21 424.295C700.018 427.386 703.855 430.462 707.787 433.4C707.468 433.888 707.192 434.397 706.966 434.931C698.344 435.21 687.345 434.609 676.678 432.328C654.598 425.765 634.55 410.849 634.757 386.169C634.818 378.93 637.283 377.854 643.301 375.508C655.302 370.83 664.166 369.896 675.454 376.855ZM655.41 424.567C652.344 422.789 649.568 420.736 647.186 418.37C646.76 417.866 646.455 417.286 646.23 416.668C648.987 419.586 652.07 422.222 655.41 424.567ZM699.587 452.252C689.635 459.311 682.244 469.441 672.487 476.851C668.485 479.891 663.739 482.64 658.744 484.135C672.989 477.332 687.436 460.056 699.587 452.252ZM676.29 509.941C665.301 509.259 656.827 498.255 658.866 487.603C658.921 487.318 658.982 487.079 659.041 486.817C677.927 482.539 690.446 462.019 705.38 451.306C705.959 452.634 706.784 453.861 707.876 454.803C709.728 456.401 712.124 455.69 713.679 456.728C713.783 456.797 713.86 456.89 713.954 456.967C710.311 470.361 705.421 483.245 698.74 495.461C696.399 499.742 693.739 504.235 690.226 507.578C685.952 509.494 681.336 510.256 676.29 509.941ZM701.894 494.864C705.269 488.616 708.187 482.171 710.682 475.563C708.81 485.412 706.56 494.809 697.981 502.479C697.752 502.684 697.514 502.852 697.282 503.049C699.025 500.274 700.525 497.396 701.894 494.864ZM755.639 508.575C755.562 508.106 755.483 507.639 755.394 507.174C755.672 507.73 755.97 508.274 756.267 508.818C756.141 508.833 756.023 508.867 755.907 508.922C755.816 508.806 755.731 508.688 755.639 508.575ZM793.579 520.153C792.842 520.452 792.088 520.76 791.278 521.099C790.702 521.341 790.356 521.859 790.029 522.389C788.675 523.134 787.386 523.713 786.251 523.987C778.741 525.798 770.952 522.722 765.346 517.875C757.895 511.436 754.488 501.908 751.032 492.905C750.75 486.882 746.352 482.445 742.008 478.047C738.57 472.723 735.35 467.295 733.654 461.008C733.985 460.864 734.316 460.704 734.649 460.547C734.692 460.712 734.771 460.874 734.942 461.02C751.148 474.656 768.121 486.681 785.982 498.018C786.332 498.239 786.644 497.693 786.305 497.467C768.993 485.928 752.364 473.033 736.45 459.648C736.696 459.516 736.932 459.382 737.169 459.246C737.188 459.262 737.194 459.28 737.214 459.296C747.182 466.86 757.235 473.904 768.345 479.72C768.643 479.876 768.905 479.434 768.611 479.265C758.029 473.267 747.649 466.509 738.518 458.44C739.186 458.015 739.809 457.591 740.309 457.183C740.331 457.164 740.345 457.142 740.367 457.124C745.69 460.484 751.237 463.54 756.641 466.763C756.974 466.962 757.27 466.45 756.943 466.243C751.724 462.925 746.589 459.412 741.291 456.212C741.679 455.804 742.018 455.377 742.317 454.935C745.612 456.923 749.446 458.202 753.115 459.26C753.495 459.37 753.627 458.819 753.276 458.681C750.021 457.402 747.034 455.747 743.953 454.163C745.066 454.07 746.175 453.976 747.282 453.883C757.221 454.927 767.112 456.169 776.971 457.631C777.968 457.912 778.965 458.165 779.962 458.505C784.114 459.912 788.267 461.392 792.448 462.773C800.574 466.519 807.836 471.401 811.791 480.266C817.582 493.25 813.066 504.189 802.853 512.845C800.432 514.894 796.988 517.791 793.579 520.153ZM776.995 454.354C776.41 454.222 775.827 454.082 775.245 453.934C774.711 453.783 774.175 453.649 773.641 453.509C769.5 452.366 765.415 451.012 761.126 450.555C756.561 450.067 751.834 450.335 747.172 450.666C746.094 450.557 745.015 450.421 743.935 450.258C743.998 449.32 743.925 448.37 743.736 447.42C746.969 447.265 750.332 447.6 753.515 447.732C753.93 447.751 754.039 447.058 753.615 446.995C750.214 446.477 746.575 446.262 743.192 445.505C743.131 445.342 743.094 445.178 743.027 445.015C743.218 444.887 743.407 444.759 743.574 444.611C752.157 444.455 760.562 443.76 769.112 442.985C769.208 442.977 769.21 442.828 769.112 442.835C761.13 443.399 752.947 443.208 744.928 442.725C745.113 442.298 745.247 441.842 745.348 441.366C756.758 439.624 768.422 439.208 779.941 439.454C780.307 439.462 780.299 438.918 779.941 438.891C768.389 438.03 757.041 438.357 745.531 439.163C745.529 439.108 745.533 439.054 745.531 438.997C763.561 434.71 783.174 436.262 801.563 435.098C801.659 435.092 801.661 434.95 801.563 434.948C783.154 434.538 763.508 433.268 745.367 437.358C745.302 436.974 745.208 436.597 745.107 436.217C745.206 436.203 745.294 436.217 745.399 436.184C759.297 431.752 776.215 428.231 790.184 420.904C791.709 420.466 793.234 420.023 794.757 419.566C795.004 419.684 795.291 419.747 795.628 419.668C799.799 418.701 803.975 417.414 807.669 415.489C810.092 414.76 812.557 414.171 815.077 414.004C825.098 417.495 832.432 425.317 835.894 435.595C839.265 445.604 837.013 457.964 825.122 460.716C818.226 462.312 811.076 460.312 804.321 459C795.248 457.237 786.135 455.7 776.995 454.354ZM808.134 411.986C805.368 412.733 802.623 413.716 799.898 414.743C804.95 410.786 809.231 405.963 812.303 399.924C815.263 394.111 816.994 386.394 816.34 379.273C817.286 383.513 817.785 387.846 817.785 392.086C817.79 402.101 814.319 408.075 808.134 411.986ZM783.919 346.481C792.665 347.145 800.586 351.736 806.3 358.279C805.988 357.987 805.679 357.69 805.35 357.442C801.035 354.185 794.793 352.63 790.09 349.903C787.359 348.319 786.423 347.196 783.253 347.273C781.473 347.316 780.66 347.986 779.129 348.553C773.854 350.504 769.382 351.911 763.648 352.788C762.921 352.9 762.426 352.914 762.02 352.9C768.639 348.855 775.497 345.842 783.919 346.481ZM722.232 328.375C731.498 323.182 742.112 327.792 748.64 335.297C752.143 339.323 759.203 349.653 755.036 355.138C754.927 355.282 754.886 355.424 754.833 355.564C754.815 355.4 754.815 355.237 754.795 355.073C753.152 340.932 739.716 325.207 723.688 331.274C721.052 332.271 719.655 334.139 717.666 335.957C713.998 339.305 710.987 342.04 706.66 344.968C706.581 345.021 706.526 345.074 706.449 345.127C711.375 339.11 715.328 332.245 722.232 328.375ZM678.634 339.464C684.583 339.529 690.056 340.94 695.154 343.293C692.955 342.802 690.809 342.467 689.13 342.166C683.144 341.094 677.777 342.313 672.412 345.149C666.081 348.498 662.779 354.206 662.379 360.49C660.433 349.87 664.418 339.311 678.634 339.464ZM652.356 369.197C647.781 370.294 643.578 372.428 638.694 374.394C633.065 376.66 632.432 376.225 632.501 382.662C632.541 386.435 632.97 390.015 633.723 393.408C632.377 389.528 631.368 385.761 631.027 382.624C629.942 372.668 641.896 369.311 652.356 369.197ZM641.929 411.501C643.111 413.121 644.382 414.672 645.74 416.149C645.531 416.132 645.324 416.132 645.115 416.122C644.122 414.926 643.2 413.677 642.41 412.339C642.252 412.073 642.089 411.783 641.929 411.501ZM626.452 424.959C621.688 431.833 622.062 441.352 623.901 451.075C625.193 457.897 626.856 465.289 629.727 471.646C626.031 465.53 623.875 457.968 622.675 450.904C621.178 442.091 620.327 431.949 626.452 424.959ZM696.042 506.812C696.007 507.058 695.967 507.306 695.94 507.551C695.863 508.248 695.804 508.956 695.747 509.667C695.76 508.774 695.778 507.876 695.808 506.977C695.885 506.922 695.965 506.869 696.042 506.812ZM706.715 538.093C706.355 537.638 705.657 537.86 705.387 538.264C702.473 542.646 699.608 534.887 697.902 528.582C698.001 528.844 698.083 529.116 698.19 529.376C698.948 531.195 699.746 533.656 701.348 535.086C702.852 536.428 705.141 534.834 706.162 537.24C706.396 537.793 707.236 537.584 707.379 537.082C707.464 536.779 707.551 536.477 707.636 536.174C709.379 535.722 710.258 536.739 710.254 539.263C710.5 539.811 711.273 539.689 711.551 539.263C711.415 539.47 717.582 542.008 721.115 543.3C715.499 543.091 709.541 541.683 706.715 538.093ZM815.714 480.226C822.618 494.974 814.786 510.455 800.95 516.993C802.038 516.084 803.123 515.148 804.205 514.197C821.968 498.584 816.325 477.025 800.312 465.177C801.486 465.504 802.664 465.813 803.845 466.103C808.831 469.981 813.225 474.91 815.714 480.226ZM839.803 455.469C834.607 464.275 830.054 465.427 819.989 465.25C813.633 465.138 807.322 463.825 801.143 462.143C800.751 461.902 800.359 461.664 799.965 461.439C801.876 461.786 803.789 462.101 805.701 462.462C815.19 464.261 827.739 466.836 835.204 458.61C847.962 444.55 833.732 421.27 818.287 414.09C824.452 414.75 827.313 418.74 831.526 422.748C835.908 426.915 840.609 429.983 842.638 436.412C845.2 444.528 843.911 448.506 839.803 455.469Z" fill="url(#paint0_linear_3480_14329)"/>
<path d="M647.11 447.02C646.866 447.005 646.873 447.375 647.11 447.395C653.902 447.962 660.567 447.003 667.272 446.197C660.532 446.924 653.809 447.393 647.11 447.02Z" fill="#713600"/>
<path d="M670.429 445.84C669.375 445.952 668.323 446.067 667.273 446.195C668.325 446.082 669.377 445.964 670.429 445.84Z" fill="#713600"/>
<path d="M785.096 439.571C784.791 439.486 784.487 439.4 784.182 439.315C783.946 439.248 783.859 439.595 784.082 439.677C784.381 439.786 784.68 439.896 784.976 440.006C785.246 440.105 785.378 439.65 785.096 439.571Z" fill="#713600"/>
</g>
<defs>
<linearGradient id="paint0_linear_3480_14329" x1="733.002" y1="324" x2="732.868" y2="545.397" gradientUnits="userSpaceOnUse">
<stop stop-color="#FE9135"/>
<stop offset="1" stop-color="#FE9135"/>
</linearGradient>
</defs>
</svg>
