<svg width="53.05397322204834" height="57.14080000000002" viewBox="42.898939314901746 31.637599999999992 53.05397322204834 57.14080000000002" fill="none" xmlns="http://www.w3.org/2000/svg">
<g filter="url(#filter0_d_3068_14256)">
<rect x="44" y="33" width="50" height="54" rx="10" fill="white"></rect>
<path d="M69.0031 52.8212C65.0303 52.8212 61.8259 56.0263 61.8259 60C61.8259 63.9737 65.0303 67.1788 69.0031 67.1788C72.9759 67.1788 76.1804 63.9737 76.1804 60C76.1804 56.0263 72.9759 52.8212 69.0031 52.8212ZM69.0031 64.6672C66.4358 64.6672 64.337 62.5741 64.337 60C64.337 57.4259 66.4296 55.3328 69.0031 55.3328C71.5767 55.3328 73.6693 57.4259 73.6693 60C73.6693 62.5741 71.5704 64.6672 69.0031 64.6672ZM78.148 52.5275C78.148 53.4584 77.3984 54.2019 76.474 54.2019C75.5432 54.2019 74.7999 53.4522 74.7999 52.5275C74.7999 51.6028 75.5495 50.8531 76.474 50.8531C77.3984 50.8531 78.148 51.6028 78.148 52.5275ZM82.9016 54.2269C82.7954 51.9839 82.2832 49.9971 80.6404 48.3601C79.0038 46.7232 77.0174 46.2109 74.7749 46.0984C72.4637 45.9672 65.5363 45.9672 63.2251 46.0984C60.9888 46.2046 59.0025 46.7169 57.3596 48.3539C55.7168 49.9909 55.2108 51.9777 55.0984 54.2207C54.9672 56.5324 54.9672 63.4613 55.0984 65.7731C55.2046 68.0161 55.7168 70.0029 57.3596 71.6399C59.0025 73.2768 60.9826 73.7891 63.2251 73.9016C65.5363 74.0328 72.4637 74.0328 74.7749 73.9016C77.0174 73.7954 79.0038 73.2831 80.6404 71.6399C82.277 70.0029 82.7892 68.0161 82.9016 65.7731C83.0328 63.4613 83.0328 56.5387 82.9016 54.2269ZM79.9158 68.2535C79.4286 69.4781 78.4853 70.4215 77.2548 70.9151C75.412 71.6461 71.0395 71.4774 69.0031 71.4774C66.9668 71.4774 62.588 71.6399 60.7515 70.9151C59.5272 70.4278 58.5839 69.4843 58.0905 68.2535C57.3596 66.4104 57.5283 62.0368 57.5283 60C57.5283 57.9632 57.3659 53.5834 58.0905 51.7465C58.5777 50.5219 59.5209 49.5785 60.7515 49.0849C62.5942 48.3539 66.9668 48.5226 69.0031 48.5226C71.0395 48.5226 75.4183 48.3601 77.2548 49.0849C78.4791 49.5722 79.4223 50.5157 79.9158 51.7465C80.6466 53.5896 80.478 57.9632 80.478 60C80.478 62.0368 80.6466 66.4166 79.9158 68.2535Z" fill="#6F1E5C"></path>
</g>
<defs>
<filter id="filter0_d_3068_14256" x="0" y="0" width="138" height="142" filterUnits="userSpaceOnUse" color-interpolation-filters="sRGB">
<feFlood flood-opacity="0" result="BackgroundImageFix"></feFlood>
<feColorMatrix in="SourceAlpha" type="matrix" values="0 0 0 0 0 0 0 0 0 0 0 0 0 0 0 0 0 0 127 0" result="hardAlpha"></feColorMatrix>
<feMorphology radius="4" operator="dilate" in="SourceAlpha" result="effect1_dropShadow_3068_14256"></feMorphology>
<feOffset dy="11"></feOffset>
<feGaussianBlur stdDeviation="20"></feGaussianBlur>
<feComposite in2="hardAlpha" operator="out"></feComposite>
<feColorMatrix type="matrix" values="0 0 0 0 0.317787 0 0 0 0 0.268921 0 0 0 0 0.2155 0 0 0 0.05 0"></feColorMatrix>
<feBlend mode="normal" in2="BackgroundImageFix" result="effect1_dropShadow_3068_14256"></feBlend>
<feBlend mode="normal" in="SourceGraphic" in2="effect1_dropShadow_3068_14256" result="shape"></feBlend>
</filter>
</defs>
</svg>