<svg width="18" height="16" viewBox="0 0 18 16" fill="none" xmlns="http://www.w3.org/2000/svg">
<path fill-rule="evenodd" clip-rule="evenodd" d="M0 1.67391C0 1.02558 0.525584 0.5 1.17391 0.5H16.8261C17.4744 0.5 18 1.02558 18 1.67391C18 2.32224 17.4744 2.84783 16.8261 2.84783H1.17391C0.525584 2.84783 0 2.32224 0 1.67391Z" fill="#FE9135"/>
<path d="M1.17391 6.84778C0.525584 6.84778 0 7.37338 0 8.02169C0 8.67 0.525584 9.1956 1.17391 9.1956H12.1304C12.7787 9.1956 13.3043 8.67 13.3043 8.02169C13.3043 7.37338 12.7787 6.84778 12.1304 6.84778H1.17391Z" fill="#FE9135"/>
<path d="M1.17391 13.1957C0.525584 13.1957 0 13.7213 0 14.3696C0 15.0179 0.525584 15.5435 1.17391 15.5435H9C9.64833 15.5435 10.1739 15.0179 10.1739 14.3696C10.1739 13.7213 9.64833 13.1957 9 13.1957H1.17391Z" fill="#FE9135"/>
</svg>
