<svg width="20" height="19" viewBox="0 0 20 19" fill="none" xmlns="http://www.w3.org/2000/svg">
<path fill-rule="evenodd" clip-rule="evenodd" d="M8.48361 4.88464C9.16197 3.85342 8.9915 2.47523 8.08286 1.64489C7.17421 0.814544 5.80143 0.782457 4.85584 1.56947C3.91025 2.35647 3.67699 3.72521 4.30754 4.78703C4.93806 5.84885 6.24223 6.28351 7.37324 5.80879C7.82521 5.61803 8.21155 5.29654 8.48361 4.88464Z" stroke="#FE9135" stroke-width="1.5" stroke-linecap="round" stroke-linejoin="round"/>
<path fill-rule="evenodd" clip-rule="evenodd" d="M8.48361 16.8847C9.16197 15.8534 8.9915 14.4752 8.08286 13.6449C7.17421 12.8145 5.80143 12.7825 4.85584 13.5695C3.91025 14.3565 3.67699 15.7253 4.30754 16.7871C4.93806 17.8489 6.24223 18.2834 7.37324 17.8088C7.82521 17.618 8.21155 17.2966 8.48361 16.8847Z" stroke="#FE9135" stroke-width="1.5" stroke-linecap="round" stroke-linejoin="round"/>
<path fill-rule="evenodd" clip-rule="evenodd" d="M11.2885 10.8846C10.6101 9.85346 10.7806 8.47527 11.6892 7.6449C12.5978 6.81452 13.9706 6.78246 14.9161 7.56952C15.8618 8.35655 16.0951 9.7252 15.4645 10.787C14.8339 11.8488 13.5298 12.2835 12.3988 11.8088C11.9469 11.6181 11.5605 11.2965 11.2885 10.8846Z" stroke="#FE9135" stroke-width="1.5" stroke-linecap="round" stroke-linejoin="round"/>
<path d="M18.1388 3.90031H10.2189V3.75H18.1388V3.90031ZM1.63311 3.75H2.87311V3.90031H1.63311V3.75ZM18.3669 15.25H10.447V15.0997H18.3669V15.25ZM1.63311 15.0997H2.87311V15.25H1.63311V15.0997ZM1.63311 9.42483H9.55295V9.57514H1.63311V9.42483ZM18.1388 9.57514H16.8988V9.42483H18.1388V9.57514Z" fill="black" stroke="#FE9135" stroke-width="1.5"/>
</svg>
