<svg width="662" height="220" viewBox="0 0 662 220" fill="none" xmlns="http://www.w3.org/2000/svg">
<path d="M473.321 176.643C444.416 176.291 434.773 215.628 406.507 219.628C393.012 221.537 378.714 214.629 366.669 209.595C355.702 205.012 339.969 200.801 334.699 189.178C333.859 187.322 335.049 184.274 337.514 184.67C366.643 189.348 393.552 178.196 421.456 171.838C429.227 170.068 442.073 167.312 454.108 167.178C441.035 160.595 428.257 153.924 415.858 147.559C412.993 146.088 410.124 144.62 407.248 143.16C401.029 144.74 395.325 148.324 388.957 149.077C380.321 150.099 373.015 144.868 364.044 146.192C362.657 146.397 361.938 144.633 363.183 143.883C370.978 139.187 381.569 135.156 391.485 135.28C378.014 128.66 364.391 122.339 350.55 116.619C330.177 129.086 323.156 155.007 303.118 168.179C292.441 175.199 279.455 176.271 267.028 177.154C251.407 178.263 236.762 177.678 223.637 168.435C221.618 167.014 222.359 164.396 224.465 163.612C249.923 154.13 272.06 138.254 296.279 126.25C308.933 119.977 324.396 113.136 339.419 112.176C323.275 105.974 306.803 100.709 289.878 96.9117C279.955 109.103 263.942 117.354 248.304 113.313C247.336 113.063 247.378 111.792 248.119 111.329C258.567 104.807 268.971 96.9462 280.942 95.0456C277.869 94.4587 274.785 93.9146 271.682 93.4293C261.144 91.7845 250.554 90.5905 239.938 89.6422C239.904 89.695 239.881 89.7478 239.843 89.8006C226.461 107.609 213.094 133.351 191.616 142.641C172.273 151.009 144.807 150.974 125.496 143.223C123.376 142.372 123.271 139.893 125.07 138.65C145.504 124.554 166.835 111.826 189.21 101.046C199.824 95.9309 211.061 91.0758 222.674 88.296C202.033 86.907 181.325 86.1395 160.689 84.7424C158.627 85.3191 156.522 85.7861 154.426 86.241C145.014 91.3804 135.816 96.1949 124.365 94.6516C123.9 94.5887 123.513 94.3024 123.273 93.9349C118.755 97.2346 114.314 100.662 109.552 103.592C95.131 112.468 78.8356 119.526 61.8152 121.053C39.6534 123.041 23.6849 110.348 2.66425 107.075C0.678345 106.766 -1.18176 103.98 0.938171 102.425C39.0502 74.4615 85.5263 72.368 130.445 79.075C131.103 79.1014 131.759 79.1075 132.417 79.138C132.725 79.1522 132.963 79.2862 133.131 79.475C134.809 79.4771 136.486 79.4974 138.163 79.5157C136.797 78.9553 135.432 78.3765 134.067 77.8019C125.322 76.5978 116.542 75.5154 108.021 72.4756C94.1035 67.5109 81.4753 59.9855 68.9182 52.3059C67.7952 51.6195 68.3414 49.6823 69.6959 49.792C85.1689 51.0347 100.082 54.2857 114.409 60.3998C127.519 65.994 139.447 74.4535 153.271 77.7836C159.371 77.6496 165.613 78.0517 171.962 78.3359C176.97 78.5613 182.001 78.811 187.037 79.1075C178.267 76.9855 169.684 74.3803 161.529 70.8248C141.185 61.9552 125.915 45.7796 111.993 28.9805C110.373 27.023 111.778 24.6046 114.099 24.3873C135.611 22.377 160.487 28.0993 179.386 38.5385C190.826 44.8577 200.768 54.1151 210.724 62.4933C218.566 69.0927 226.64 75.5561 233.966 82.7464C235.308 82.9799 236.649 83.2134 237.983 83.451C244.355 83.8185 250.719 84.2713 257.068 84.8703C254.77 83.717 252.639 82.326 250.889 80.4741C248.999 78.474 248.174 76.4495 246.996 74.0087C242.738 65.1696 239.526 58.4585 231.296 52.5901C230.236 51.8347 230.713 50.1473 232.051 50.1494C240.31 50.1636 244.844 55.703 250.17 61.4333C258.021 69.8806 265.456 80.0599 274.86 87.0045C287.289 88.8889 299.489 91.6505 311.498 95.0598C297.826 84.7059 286.116 70.1323 274.805 58.7407C267.053 50.9331 259.797 43.816 255.86 33.3361C252.296 23.8492 250.513 13.3714 248.446 3.47433C247.768 0.231483 251.998 -1.13107 253.683 1.51885C268.236 24.4198 296.998 29.3501 315.062 48.4173C320.636 54.2999 325.036 61.4882 326.841 69.444C329.233 79.9848 323.753 88.7041 324.514 99.0093C333.843 102.049 343.051 105.475 352.165 109.164C347.545 101.996 345.153 92.2617 343.498 84.5028C343.22 83.2032 344.934 82.1819 345.851 83.2621C353.143 91.8556 360.397 100.782 359.934 112.383C371.991 117.496 383.886 123.045 395.639 128.841C400.736 131.354 405.823 133.901 410.907 136.461C400.097 123.23 391.938 108.961 388.737 91.3682C386.362 78.3014 384.323 66.0936 377.608 54.3547C371.047 42.8819 362.013 33.0396 353.184 23.301C351.464 21.4044 353.389 18.0032 355.948 18.9352C372.454 24.9498 386.89 34.2742 400.994 44.6322C411.738 52.5211 423.162 60.615 430.498 71.9863C436.273 80.9351 439.431 92.6475 436.095 103.121C434.708 107.475 432.31 110.77 429.441 114.281C421.598 123.884 418.894 132.825 424.663 143.42C452.804 157.693 480.94 171.978 509.738 183.543C502.324 173.698 498.826 160.284 493.93 148.966C483.332 124.459 468.286 102.555 449.616 83.5098C447.675 81.53 449.903 78.0842 452.504 78.9492C478.221 87.502 508.024 93.6161 525.11 116.684C531.331 125.082 535.622 135.186 535.539 145.768C535.419 160.997 521.152 174.048 525.879 189.216C525.934 189.393 525.96 189.559 525.985 189.726C567.861 204.766 611.379 213.065 658.564 206.297C661.742 205.843 662.901 210.391 659.709 211.211C596.093 227.582 532.083 204.827 473.321 176.643ZM134.271 140.876C135.028 141.081 135.814 141.258 136.592 141.443C137.034 141.396 137.436 141.365 137.735 141.375C142.683 141.538 147.508 141.916 152.467 141.65C164.628 140.998 178.383 139.666 189.403 134.09C200.549 128.453 208.403 119.733 215.472 110.192C192.556 128.705 163.935 141.875 134.851 140.626C134.656 140.707 134.466 140.795 134.271 140.876ZM208.889 76.9145C178.241 65.5635 150.042 52.6714 122.753 32.7696C123.685 33.525 124.684 34.392 125.362 35.1291C128.985 39.0684 132.865 42.6301 136.965 46.0618C145.4 53.1262 154.03 58.7591 164.075 63.2731C178.302 69.6674 193.545 73.6493 208.889 76.9145ZM215.598 76.5145C188.044 60.1195 160.506 44.7176 129.945 34.8794C142.346 43.8018 154.976 52.4155 168.744 59.1347C183.612 66.39 199.735 71.3751 215.598 76.5145ZM127.31 32.9706C152.452 39.7609 176.245 51.0448 199.121 63.7319C190.975 58.0321 182.536 52.7323 174.021 47.6111C158.439 38.2339 142.263 36.0835 125.509 31.669C126.11 32.1035 126.711 32.5361 127.31 32.9706ZM193.007 136.244C197.598 133.74 201.855 130.185 205.855 126.045C201.117 130.144 196.037 133.702 190.617 136.392C183.027 140.159 174.166 142.543 165.02 143.656C175.244 142.923 185.143 140.535 193.007 136.244ZM133.649 138.74C134.8 138.628 135.97 138.541 137.107 138.407C141.077 137.56 145.13 136.155 149.189 134.37C146.59 135.54 143.981 136.673 141.369 137.806C173.39 133.121 198.888 119.082 222.585 97.5595C199.117 110.048 175.475 122.422 151.352 133.379C163.052 127.894 174.624 119.855 183.92 114.828C197.397 107.54 211.254 100.475 224.469 92.5805C191.858 102.073 161.726 119.65 133.649 138.74ZM25.5997 105.261C47.1238 107.639 69.2309 106.37 88.8321 96.3939C96.4529 92.5155 103.196 88.832 110.19 86.0562C95.3503 89.1062 80.46 91.886 65.5291 94.5096C54.2959 96.4833 43.0546 98.3656 31.7747 100.059C30.071 100.315 13.798 103.393 13.5726 102.841C14.468 105.038 23.9792 105.083 25.5997 105.261ZM136.703 89.2523C140.886 86.9192 145.77 85.847 150.371 84.6328C150.598 84.5718 150.83 84.5028 151.059 84.4398C150.982 84.4114 150.903 84.385 150.826 84.3566C150.816 84.3546 150.808 84.3546 150.797 84.3525C143.514 85.7252 136.76 88.8605 129.872 92.1805C134.642 92.083 139.156 90.9601 143.512 88.897C141.302 89.3843 139.079 89.762 136.837 89.829C136.516 89.8392 136.449 89.3945 136.703 89.2523ZM134.549 86.6837C134.321 86.7933 134.092 86.9009 133.864 87.0167C134.092 86.907 134.319 86.7933 134.549 86.6837ZM67.0215 105.556C51.4957 108.659 35.9252 108.056 20.4725 105.759C41.6312 111.932 62.7919 116.718 83.6176 105.607C96.0671 98.9626 107.562 91.0312 120.393 85.7131C101.864 90.0341 86.3568 101.692 67.0215 105.556ZM16.2266 101.499C34.3475 98.8306 52.4278 95.7624 70.3984 92.2535C80.7179 90.2372 91.015 88.0482 101.306 85.8958C105.233 85.0734 109.154 84.2246 113.075 83.3738C80.4701 84.3525 48.5372 92.1805 17.0651 101.146C16.7849 101.263 16.5048 101.381 16.2266 101.499ZM119.378 80.8356C116.673 80.6122 113.969 80.4112 111.262 80.2467C86.5782 80.1391 61.1349 85.4004 37.3264 93.4699C64.1199 85.8451 91.5206 81.0366 119.378 80.8356ZM69.2492 113.985C88.493 110.092 103.446 99.7119 119.189 89.2604C103.263 96.0832 88.7996 106.415 71.9113 111.361C57.3011 115.64 42.4352 112.882 27.7297 109.589C29.2629 110.186 30.8082 110.777 32.3879 111.343C44.476 115.678 56.6047 116.541 69.2492 113.985ZM10.4129 102.069C10.9916 101.864 11.5723 101.665 12.1531 101.462C39.365 89.2584 68.1567 82.0722 97.6225 79.7167C66.7738 79.2253 36.4328 84.0683 10.4129 102.069ZM80.0925 53.9141C68.2176 52.9313 81.3738 56.8564 85.8391 59.3053C93.9776 63.7705 102.415 67.7748 111.252 70.6583C115.473 72.035 119.788 72.8757 124.132 73.5173C113.607 68.8632 103.146 64.0162 92.6618 59.683C92.2759 59.5246 92.4425 58.9337 92.8568 59.0535C102.102 61.7521 111.725 64.6701 121.222 68.0145C108.027 61.7724 94.8345 55.1324 80.0925 53.9141ZM194.254 75.3225C175.014 69.3445 156.061 61.7278 139.914 50.4154C149.433 58.5723 160.047 65.2711 172.575 69.4318C179.632 71.7751 186.899 73.6635 194.254 75.3225ZM182.462 47.607C165.481 36.3779 143.782 30.9481 123.21 29.9998C123.525 30.2293 123.839 30.4567 124.152 30.6842C141.845 34.7332 158.455 37.0927 174.951 46.1593C183.591 50.9068 192.173 55.7741 200.464 61.0678C194.628 56.3467 188.711 51.7393 182.462 47.607ZM516.719 115.477C511.123 109.375 503.764 104.526 496.036 100.406C490.914 97.8397 485.521 95.6629 480.026 93.7054C493.227 101.531 504.954 111.26 512.67 125.208C516.78 132.636 519.55 140.533 519.856 149.079C520.24 159.697 516.439 170.782 518.997 180.889C519.215 178.208 519.816 175.585 520.709 172.921C522.364 162.741 526.507 152.901 526.862 142.104C527.217 131.361 523.341 122.905 517.215 116.013C517.056 115.833 516.884 115.658 516.719 115.477ZM472.574 91.1733C486.061 99.9251 497.433 114.769 503.358 128.148C509.206 141.353 510.335 155.734 513.675 169.481C514.378 161.511 516.303 153.289 515.775 144.903C514.173 119.474 493.668 103.391 472.997 91.3113C472.854 91.2667 472.714 91.218 472.574 91.1733ZM506.446 143.794C501.871 123.839 487.274 103.507 469.268 91.752C491.018 112.84 500.556 143.776 511.582 172.192C509.608 162.847 508.609 153.228 506.446 143.794ZM365.973 202.679C372.47 205.483 379.08 208.137 385.793 210.383C394.153 210.576 402.188 207.719 410.383 202.346C419.172 196.585 427.162 190.203 435.599 184.566C431.743 186.318 427.942 188.268 424.21 190.55C415.931 195.612 408.138 200.151 398.478 202.043C383.029 205.071 367.751 201.968 353.34 196.457C354.851 197.444 356.358 198.435 357.868 199.422C360.782 200.612 363.607 201.657 365.973 202.679ZM356.317 195.509C375.681 201.58 395.568 204.454 414.106 192.502C422.811 186.889 431.047 182.158 439.709 178.178C434.247 179.469 428.886 181.185 423.57 183.628C414.981 187.573 407.12 192.203 397.883 194.569C385.188 197.82 372.462 197.698 359.946 195.387C358.736 195.464 357.525 195.501 356.317 195.509ZM423.59 195.46C416.325 201.014 408.999 207.045 400.395 210.413C398.015 211.345 395.658 211.94 393.314 212.34C395.03 212.649 396.691 212.832 398.312 212.921C412.051 210.07 422.149 201.067 432.777 189.553C433.219 189.074 433.676 188.593 434.125 188.111C430.553 190.408 427.034 192.824 423.59 195.46ZM410.984 186.396C414.573 184.398 418.098 182.479 421.627 180.698C411.242 184.073 400.71 186.989 390.069 189.537C381.988 191.472 373.52 193.785 365.034 194.881C380.767 196.559 396.517 194.451 410.984 186.396ZM431.355 196.8C435.002 192.93 438.773 188.812 442.771 185.003C440.576 186.526 438.422 188.223 436.263 190.207C429.977 195.986 424.492 202.693 417.422 207.585C415.36 209.012 413.226 210.19 411.06 211.234C418.299 208.754 424.797 203.759 431.355 196.8ZM350.158 191.974C365.542 194.288 382.227 189.856 397.028 186.345C407.981 183.748 418.743 180.505 429.451 177.075C430.553 176.604 431.654 176.125 432.769 175.694C422.49 177.554 412.436 180.371 402.381 183.173C385.099 187.992 367.893 192.368 350.158 191.974ZM369.855 143.081C370.495 143.073 371.132 143.085 371.774 143.142C377.561 143.654 382.536 147.029 388.498 146.292C393.848 145.63 398.431 142.697 403.477 141.254C401.378 140.194 399.276 139.138 397.17 138.088C388.031 136.65 378.268 139.022 369.855 143.081ZM319.393 94.008C318.4 61.6729 297.371 44.35 273.747 28.6881C282.67 37.9516 291.466 47.3512 299.999 56.8949C309.878 67.9454 316.055 79.8589 318.437 94.1928C318.723 94.4364 319.019 94.6659 319.308 94.9075C319.33 94.607 319.363 94.3085 319.393 94.008ZM251.313 170.415C257.259 170.973 263.278 170.778 269.162 169.802C281.916 167.684 293.893 162.13 303.642 153.642C310.71 147.486 315.939 139.085 321.952 131.73C299.156 147.758 279.072 170.51 251.313 170.415ZM309.433 136.754C301.38 141.985 293.505 147.727 284.979 153.616C277.63 158.69 269.518 162.55 260.884 164.859C258.228 165.57 255.523 166.078 252.804 166.494C270.888 165.18 285.655 156.956 301.737 143.309C304.3 141.134 306.86 138.937 309.433 136.754ZM286.9 148.586C303.211 136.12 318.146 124.871 336.866 117.429C316.816 121.043 298.894 129.151 281.667 140.776C269.465 149.01 258.479 159.033 245.141 164.611C260.386 163.45 274.663 157.939 286.9 148.586ZM262.321 21.2643C271.558 35.3281 281.622 48.8539 293.156 61.1348C298.799 67.1433 307.888 74.2301 313.214 82.194C313.129 81.8468 313.057 81.5828 313.013 81.463C309.116 70.9791 302.511 62.7694 295.004 54.6024C285.523 44.287 275.831 34.1585 266.338 23.8533C265 22.9923 263.659 22.1293 262.321 21.2643ZM294.234 69.9212C293.533 69.4013 292.833 68.8815 292.147 68.3475C297.483 73.9986 302.864 79.67 308.444 85.0917C304.127 79.5746 299.231 74.7194 294.234 69.9212ZM279.461 54.2045C290.106 63.6081 301.116 71.6086 309.967 82.2204C303.26 72.1041 293.355 63.8172 285.119 54.9679C277.114 46.3684 269.684 37.3587 262.756 27.9408C267.073 37.5475 272.681 46.3177 279.461 54.2045ZM314.716 149.447C320.246 142.377 325.127 134.784 330.665 127.884C324.063 133.647 319.32 141.475 313.181 148.59C306.789 155.998 298.947 162.142 290.157 166.469C286.995 168.027 283.77 169.278 280.509 170.291C294.87 167.799 305.427 161.326 314.716 149.447ZM235.453 164.646C236.202 164.668 236.965 164.713 237.733 164.762C253.846 161.029 267.564 148.807 281.382 138.823C265.751 147.847 250.465 157.671 235.453 164.646ZM251.775 111.461C258.928 111.869 266.015 110.884 272.385 107.211C277.346 104.35 280.974 100.37 284.727 96.4305C272.661 97.6021 261.852 104.719 251.775 111.461ZM259.86 75.9114C253.923 69.5638 245.983 57.5366 236.88 53.8937C240.761 57.5468 243.875 61.6181 246.509 66.5504C250.68 74.3621 251.277 80.0111 260.693 83.9911C262.492 84.7525 264.374 85.311 266.269 85.843C266.409 85.8592 266.549 85.8714 266.691 85.8877C268.025 86.0481 269.349 86.2512 270.677 86.4319C266.809 83.3393 263.452 79.7513 259.86 75.9114ZM266.661 40.7437C265.501 38.9771 264.401 37.1658 263.332 35.3342C264.334 37.2288 265.453 39.0238 266.661 40.7437ZM295.497 39.0725C294.591 38.508 293.68 37.9557 292.768 37.4054C308.273 51.3657 319.888 68.9993 320.071 89.5387C321.403 82.6956 323.611 76.0637 321.688 68.7048C318.179 55.2624 306.696 46.0557 295.497 39.0725ZM353.722 98.5098C352.087 95.2527 349.783 92.3267 347.423 89.4778C348.309 93.0516 349.374 96.5787 350.707 100.021C352.041 103.466 353.864 106.756 355.204 110.2C355.29 110.285 355.349 110.393 355.422 110.488C355.868 110.673 356.319 110.85 356.766 111.034C356.555 106.701 355.765 102.579 353.722 98.5098ZM425.8 84.3363C423.162 73.0665 415.515 63.8558 406.397 55.9914C410.611 61.3278 414.071 67.2042 416.358 73.7691C422.5 91.4129 414.138 108.939 415.405 126.069C415.496 126.315 415.622 126.558 415.722 126.802C415.896 125.829 416.146 124.901 416.439 124.002C415.933 110.352 429.223 98.9667 425.8 84.3363ZM406.103 84.584C403.043 65.6529 390.61 51.3921 376.926 38.8146C386.319 49.396 394.307 61.6973 399.286 74.3946C402.48 82.5413 404.284 90.889 404.718 99.6002C404.856 102.341 404.952 104.799 405.106 107.101C405.5 99.6469 407.34 92.2312 406.103 84.584ZM410.56 121.09C409.183 109.995 413.035 97.6955 411.46 86.3405C409.726 73.8585 403.201 63.1248 394.604 53.8897C399.225 59.7358 403.108 66.1422 405.841 73.2696C408.802 80.996 410.067 88.8666 409.579 97.1189C409.029 106.397 407.202 111.816 410.56 121.09ZM370.939 31.6304C373.829 33.791 376.666 36.0388 379.417 38.3821C390.685 46.08 400.83 55.6035 407.539 67.3748C411.563 74.4331 413.99 82.1473 414.642 90.2717C415.332 98.8956 413.397 107.402 413.578 115.587C414.495 106.376 416.928 96.8731 416.284 88.3081C414.203 60.6251 392.125 45.5602 370.939 31.6304ZM410.345 128.518C410.063 128.156 409.793 127.785 409.514 127.421C409.435 127.326 409.342 127.239 409.265 127.145C409.78 127.896 410.304 128.642 410.832 129.385C410.67 129.096 410.503 128.808 410.345 128.518ZM400.523 87.2136C397.906 76.0901 393.006 66.6519 386.987 57.9265C395.189 73.4929 396.169 92.2191 402.381 108.628C401.755 101.509 402.149 94.1196 400.523 87.2136ZM390.25 71.0339C393.71 84.1068 393.964 97.5391 399.473 110.1C400.391 112.194 401.427 114.218 402.511 116.218C393.142 96.0771 394.703 70.9243 382.183 51.8347C385.621 57.8249 388.433 64.1685 390.25 71.0339ZM431.745 94.3958C432.139 82.8784 426.202 73.5783 418.439 65.7564C421.117 69.0277 423.485 72.5386 425.39 76.3723C428.32 82.2732 429.958 88.6553 428.98 95.2486C427.912 102.437 423.779 108.437 421.43 114.84C425.97 108.626 431.449 103.044 431.745 94.3958ZM514.136 181.961C513.943 181.362 513.767 180.759 513.586 180.154C498.424 148.21 489.617 114.127 462.647 89.4087C473.904 102.279 483.704 116.281 491.65 131.521C499.658 146.882 503.612 167.517 514.136 181.961Z" fill="#713600"/>
</svg>
