<svg width="53.621874456616254" height="57.14080000000002" viewBox="42.33103808033385 31.637599999999992 53.621874456616254 57.14080000000002" fill="none" xmlns="http://www.w3.org/2000/svg">
<g filter="url(#filter0_d_3068_14258)">
<rect x="44" y="33" width="50" height="54" rx="10" fill="white"></rect>
<rect width="38" height="36" transform="translate(50 42)" fill="#125DA3"></rect>
<path fill-rule="evenodd" clip-rule="evenodd" d="M60.8104 73.9999V54.4328H54.3801V73.9999H60.8104V73.9999ZM57.596 51.7622C59.8376 51.7622 61.234 50.2584 61.234 48.3807C61.1916 46.4613 59.8376 45 57.638 45C55.438 45.0001 54 46.4614 54 48.3808C54 50.2585 55.3956 51.7623 57.5536 51.7623L57.596 51.7622ZM64.3693 73.9999C64.3693 73.9999 64.4537 56.2687 64.3693 54.4328H70.8006V57.2705H70.7579C71.6036 55.9352 73.1271 53.9734 76.5959 53.9734C80.8279 53.9734 84 56.77 84 62.7803V74H77.5698V63.5321C77.5698 60.9018 76.6394 59.107 74.3116 59.107C72.5355 59.107 71.4769 60.317 71.0121 61.4867C70.842 61.903 70.8006 62.4878 70.8006 63.0726V73.9999H64.3693Z" fill="white"></path>
</g>
<defs>
<filter id="filter0_d_3068_14258" x="0" y="0" width="138" height="142" filterUnits="userSpaceOnUse" color-interpolation-filters="sRGB">
<feFlood flood-opacity="0" result="BackgroundImageFix"></feFlood>
<feColorMatrix in="SourceAlpha" type="matrix" values="0 0 0 0 0 0 0 0 0 0 0 0 0 0 0 0 0 0 127 0" result="hardAlpha"></feColorMatrix>
<feMorphology radius="4" operator="dilate" in="SourceAlpha" result="effect1_dropShadow_3068_14258"></feMorphology>
<feOffset dy="11"></feOffset>
<feGaussianBlur stdDeviation="20"></feGaussianBlur>
<feComposite in2="hardAlpha" operator="out"></feComposite>
<feColorMatrix type="matrix" values="0 0 0 0 0.317787 0 0 0 0 0.268921 0 0 0 0 0.2155 0 0 0 0.05 0"></feColorMatrix>
<feBlend mode="normal" in2="BackgroundImageFix" result="effect1_dropShadow_3068_14258"></feBlend>
<feBlend mode="normal" in="SourceGraphic" in2="effect1_dropShadow_3068_14258" result="shape"></feBlend>
</filter>
</defs>
</svg>