<svg width="20" height="21" viewBox="0 0 20 21" fill="none" xmlns="http://www.w3.org/2000/svg">
<path d="M5.32804 15.1693C-1.27396 8.56553 -0.958057 3.57133 2.06226 1.30638L2.73142 0.807919C2.90216 0.682287 3.09639 0.592232 3.30258 0.5431C3.50878 0.493968 3.72274 0.486759 3.93177 0.5219C4.14081 0.557042 4.34065 0.633818 4.51946 0.747673C4.69826 0.861529 4.85237 1.01014 4.97265 1.1847L6.65784 3.60975C6.88334 3.93431 6.98084 4.3308 6.93158 4.72294C6.88232 5.11507 6.68979 5.47513 6.39102 5.73381L4.7688 7.13633C4.36325 7.48749 4.16474 8.02011 4.34724 8.52497C4.68449 9.46425 5.50307 11.1219 7.43906 13.057C9.37505 14.9932 11.0314 15.8119 11.9706 16.1502C12.4765 16.3317 13.009 16.1342 13.3602 15.7276L14.7625 14.1073C15.0212 13.8085 15.3812 13.6159 15.7733 13.5667C16.1654 13.5174 16.5618 13.6149 16.8864 13.8404L19.3154 15.5269C19.4898 15.6468 19.6383 15.8005 19.7521 15.9789C19.8659 16.1573 19.9427 16.3568 19.9779 16.5655C20.0132 16.7742 20.0061 16.9878 19.9572 17.1937C19.9083 17.3996 19.8185 17.5936 19.6932 17.7641L19.1916 18.4397C16.928 21.4582 11.9322 21.7731 5.32804 15.1693Z" fill="#FE9135"/>
</svg>
