<svg width="48" height="48" viewBox="0 0 48 48" fill="none" xmlns="http://www.w3.org/2000/svg">
<path d="M3.13043 20.8696C1.40156 20.8696 0 22.2712 0 24C0 25.7288 1.40156 27.1304 3.13043 27.1304V20.8696ZM24 27.1304C25.7288 27.1304 27.1304 25.7288 27.1304 24C27.1304 22.2712 25.7288 20.8696 24 20.8696V27.1304ZM24 20.8696C22.2712 20.8696 20.8696 22.2712 20.8696 24C20.8696 25.7288 22.2712 27.1304 24 27.1304V20.8696ZM44.8696 27.1304C46.5984 27.1304 48 25.7288 48 24C48 22.2712 46.5984 20.8696 44.8696 20.8696V27.1304ZM27.1304 24C27.1304 22.2712 25.7288 20.8696 24 20.8696C22.2712 20.8696 20.8696 22.2712 20.8696 24H27.1304ZM20.8696 44.8696C20.8696 46.5984 22.2712 48 24 48C25.7288 48 27.1304 46.5984 27.1304 44.8696H20.8696ZM20.8696 24C20.8696 25.7288 22.2712 27.1304 24 27.1304C25.7288 27.1304 27.1304 25.7288 27.1304 24H20.8696ZM27.1304 3.13043C27.1304 1.40156 25.7288 0 24 0C22.2712 0 20.8696 1.40156 20.8696 3.13043H27.1304ZM3.13043 27.1304H24V20.8696H3.13043V27.1304ZM24 27.1304H44.8696V20.8696H24V27.1304ZM24 24H20.8696V24.0042C20.8696 24.0046 20.8696 24.0092 20.8696 24.0092C20.8696 24.0088 20.8696 24.0096 20.8696 24.0092C20.8696 24.0092 20.8696 24.0138 20.8696 24.0142C20.8696 24.0138 20.8696 24.0146 20.8696 24.0142C20.8696 24.0146 20.8696 24.0179 20.8696 24.0184C20.8696 24.0188 20.8696 24.0225 20.8696 24.023C20.8696 24.0234 20.8696 24.0267 20.8696 24.0271C20.8696 24.0275 20.8696 24.0313 20.8696 24.0321C20.8696 24.0326 20.8696 24.0363 20.8696 24.0371C20.8696 24.0376 20.8696 24.0422 20.8696 24.0426C20.8696 24.0417 20.8696 24.0434 20.8696 24.0426C20.8696 24.0434 20.8696 24.0459 20.8696 24.0467C20.8696 24.0459 20.8696 24.0476 20.8696 24.0467C20.8696 24.0476 20.8696 24.0505 20.8696 24.0509C20.8696 24.0501 20.8696 24.0518 20.8696 24.0509C20.8696 24.0518 20.8696 24.0547 20.8696 24.0555C20.8696 24.0547 20.8696 24.0563 20.8696 24.0555C20.8696 24.0563 20.8696 24.0597 20.8696 24.0605C20.8696 24.0597 20.8696 24.0614 20.8696 24.0605C20.8696 24.0614 20.8696 24.0647 20.8696 24.0655C20.8696 24.0643 20.8696 24.0664 20.8696 24.0655C20.8696 24.0664 20.8696 24.0701 20.8696 24.071C20.8696 24.0701 20.8696 24.0718 20.8696 24.071C20.8696 24.0718 20.8696 24.0755 20.8696 24.0768C20.8696 24.0755 20.8696 24.0776 20.8696 24.0768C20.8696 24.0776 20.8696 24.0818 20.8696 24.0826C20.8696 24.0818 20.8696 24.0835 20.8696 24.0826C20.8696 24.0839 20.8696 24.0877 20.8696 24.0889C20.8696 24.0877 20.8696 24.0902 20.8696 24.0889C20.8696 24.0897 20.8696 24.0943 20.8696 24.0956C20.8696 24.0943 20.8696 24.0964 20.8696 24.0956C20.8696 24.0968 20.8696 24.101 20.8696 24.1023C20.8696 24.101 20.8696 24.1035 20.8696 24.1023C20.8696 24.1035 20.8696 24.1085 20.8696 24.1098C20.8696 24.1085 20.8696 24.111 20.8696 24.1098C20.8696 24.111 20.8696 24.116 20.8696 24.1173C20.8696 24.116 20.8696 24.1185 20.8696 24.1173C20.8696 24.1185 20.8696 24.1235 20.8696 24.1252C20.8696 24.124 20.8696 24.1265 20.8696 24.1252C20.8696 24.1269 20.8696 24.1319 20.8696 24.1332C20.8696 24.1348 20.8696 24.1361 20.8696 24.1377C20.8696 24.139 20.8696 24.1402 20.8696 24.1419C20.8696 24.1436 20.8696 24.1448 20.8696 24.1465C20.8696 24.1478 20.8696 24.1494 20.8696 24.1507C20.8696 24.1523 20.8696 24.154 20.8696 24.1557C20.8696 24.1569 20.8696 24.1586 20.8696 24.1603C20.8696 24.1619 20.8696 24.1632 20.8696 24.1649C20.8696 24.1665 20.8696 24.1682 20.8696 24.1699C20.8696 24.1715 20.8696 24.1732 20.8696 24.1749C20.8696 24.1766 20.8696 24.1782 20.8696 24.1799C20.8696 24.1816 20.8696 24.1837 20.8696 24.1853C20.8696 24.187 20.8696 24.1887 20.8696 24.1903C20.8696 24.1924 20.8696 24.1941 20.8696 24.1958C20.8696 24.1978 20.8696 24.1995 20.8696 24.2012C20.8696 24.2033 20.8696 24.2049 20.8696 24.207C20.8696 24.2087 20.8696 24.2108 20.8696 24.2125C20.8696 24.2145 20.8696 24.2166 20.8696 24.2183C20.8696 24.2204 20.8696 24.2225 20.8696 24.2246C20.8696 24.2262 20.8696 24.2283 20.8696 24.2304C20.8696 24.2325 20.8696 24.2346 20.8696 24.2367C20.8696 24.2383 20.8696 24.2404 20.8696 24.2425C20.8696 24.2446 20.8696 24.2471 20.8696 24.2492C20.8696 24.2513 20.8696 24.2534 20.8696 24.2554C20.8696 24.2575 20.8696 24.2596 20.8696 24.2621C20.8696 24.2642 20.8696 24.2663 20.8696 24.2688C20.8696 24.2709 20.8696 24.2734 20.8696 24.2755C20.8696 24.2776 20.8696 24.2801 20.8696 24.2822C20.8696 24.2847 20.8696 24.2872 20.8696 24.2893C20.8696 24.2918 20.8696 24.2943 20.8696 24.2963C20.8696 24.2989 20.8696 24.3014 20.8696 24.3039C20.8696 24.3059 20.8696 24.3085 20.8696 24.311C20.8696 24.3135 20.8696 24.316 20.8696 24.3185C20.8696 24.321 20.8696 24.3235 20.8696 24.326C20.8696 24.3285 20.8696 24.3314 20.8696 24.3339C20.8696 24.3364 20.8696 24.3389 20.8696 24.3414C20.8696 24.3443 20.8696 24.3469 20.8696 24.3494C20.8696 24.3523 20.8696 24.3548 20.8696 24.3577C20.8696 24.3602 20.8696 24.3631 20.8696 24.3656C20.8696 24.3686 20.8696 24.3715 20.8696 24.374C20.8696 24.3769 20.8696 24.3798 20.8696 24.3827C20.8696 24.3853 20.8696 24.3882 20.8696 24.3911C20.8696 24.394 20.8696 24.3969 20.8696 24.3999C20.8696 24.4028 20.8696 24.4057 20.8696 24.4086C20.8696 24.4115 20.8696 24.4145 20.8696 24.4174C20.8696 24.4207 20.8696 24.4237 20.8696 24.4266C20.8696 24.4299 20.8696 24.4328 20.8696 24.4358C20.8696 24.4391 20.8696 24.442 20.8696 24.4454C20.8696 24.4483 20.8696 24.4516 20.8696 24.4545C20.8696 24.4579 20.8696 24.4612 20.8696 24.4641C20.8696 24.4675 20.8696 24.4708 20.8696 24.4742C20.8696 24.4775 20.8696 24.4804 20.8696 24.4838C20.8696 24.4871 20.8696 24.4904 20.8696 24.4938C20.8696 24.4971 20.8696 24.5009 20.8696 24.5042C20.8696 24.5075 20.8696 24.5109 20.8696 24.5142C20.8696 24.518 20.8696 24.5213 20.8696 24.5247C20.8696 24.5284 20.8696 24.5318 20.8696 24.5355C20.8696 24.5389 20.8696 24.5426 20.8696 24.5459C20.8696 24.5497 20.8696 24.5535 20.8696 24.5568C20.8696 24.5606 20.8696 24.5643 20.8696 24.5681C20.8696 24.5714 20.8696 24.5752 20.8696 24.5789C20.8696 24.5827 20.8696 24.5864 20.8696 24.5902C20.8696 24.5939 20.8696 24.5977 20.8696 24.6019C20.8696 24.6056 20.8696 24.6094 20.8696 24.6131C20.8696 24.6173 20.8696 24.6211 20.8696 24.6248C20.8696 24.629 20.8696 24.6328 20.8696 24.6369C20.8696 24.6407 20.8696 24.6449 20.8696 24.649C20.8696 24.6528 20.8696 24.657 20.8696 24.6611C20.8696 24.6653 20.8696 24.6691 20.8696 24.6733C20.8696 24.6774 20.8696 24.6816 20.8696 24.6858C20.8696 24.6899 20.8696 24.6941 20.8696 24.6983C20.8696 24.7029 20.8696 24.7071 20.8696 24.7112C20.8696 24.7154 20.8696 24.72 20.8696 24.7242C20.8696 24.7283 20.8696 24.7329 20.8696 24.7371C20.8696 24.7417 20.8696 24.7459 20.8696 24.7505C20.8696 24.7551 20.8696 24.7592 20.8696 24.7638C20.8696 24.7684 20.8696 24.773 20.8696 24.7776C20.8696 24.7822 20.8696 24.7868 20.8696 24.7914C20.8696 24.796 20.8696 24.8006 20.8696 24.8051C20.8696 24.8097 20.8696 24.8143 20.8696 24.8189C20.8696 24.8239 20.8696 24.8285 20.8696 24.8335C20.8696 24.8381 20.8696 24.8427 20.8696 24.8477C20.8696 24.8523 20.8696 24.8573 20.8696 24.8623C20.8696 24.8669 20.8696 24.8719 20.8696 24.8769C20.8696 24.8819 20.8696 24.887 20.8696 24.892C20.8696 24.897 20.8696 24.902 20.8696 24.907C20.8696 24.912 20.8696 24.917 20.8696 24.922C20.8696 24.927 20.8696 24.932 20.8696 24.9375C20.8696 24.9425 20.8696 24.9479 20.8696 24.9529C20.8696 24.9583 20.8696 24.9633 20.8696 24.9688C20.8696 24.9738 20.8696 24.9792 20.8696 24.9846C20.8696 24.9896 20.8696 24.9951 20.8696 25.0005C20.8696 25.0059 20.8696 25.0113 20.8696 25.0168C20.8696 25.0222 20.8696 25.0276 20.8696 25.033C20.8696 25.0385 20.8696 25.0443 20.8696 25.0497C20.8696 25.0552 20.8696 25.061 20.8696 25.0664C20.8696 25.0723 20.8696 25.0777 20.8696 25.0835C20.8696 25.089 20.8696 25.0948 20.8696 25.1007C20.8696 25.1061 20.8696 25.1119 20.8696 25.1178C20.8696 25.1236 20.8696 25.1295 20.8696 25.1353C20.8696 25.1411 20.8696 25.147 20.8696 25.1528C20.8696 25.1587 20.8696 25.1649 20.8696 25.1708C20.8696 25.1766 20.8696 25.1829 20.8696 25.1887C20.8696 25.195 20.8696 25.2008 20.8696 25.2071C20.8696 25.2129 20.8696 25.2192 20.8696 25.2255C20.8696 25.2317 20.8696 25.2376 20.8696 25.2438C20.8696 25.2501 20.8696 25.2563 20.8696 25.2626C20.8696 25.2689 20.8696 25.2751 20.8696 25.2818C20.8696 25.2881 20.8696 25.2943 20.8696 25.3006C20.8696 25.3073 20.8696 25.3135 20.8696 25.3202C20.8696 25.3265 20.8696 25.3331 20.8696 25.3394C20.8696 25.3461 20.8696 25.3528 20.8696 25.3594C20.8696 25.3657 20.8696 25.3724 20.8696 25.3791C20.8696 25.3857 20.8696 25.3924 20.8696 25.3991C20.8696 25.4058 20.8696 25.4129 20.8696 25.4195C20.8696 25.4262 20.8696 25.4333 20.8696 25.44C20.8696 25.4467 20.8696 25.4538 20.8696 25.4609C20.8696 25.4675 20.8696 25.4746 20.8696 25.4817C20.8696 25.4884 20.8696 25.4955 20.8696 25.5026C20.8696 25.5097 20.8696 25.5168 20.8696 25.5239C20.8696 25.531 20.8696 25.5381 20.8696 25.5452C20.8696 25.5527 20.8696 25.5598 20.8696 25.5669C20.8696 25.5744 20.8696 25.5815 20.8696 25.589C20.8696 25.5961 20.8696 25.6036 20.8696 25.6107C20.8696 25.6182 20.8696 25.6257 20.8696 25.6333C20.8696 25.6408 20.8696 25.6483 20.8696 25.6558C20.8696 25.6633 20.8696 25.6708 20.8696 25.6783C20.8696 25.6858 20.8696 25.6934 20.8696 25.7013C20.8696 25.7088 20.8696 25.7167 20.8696 25.7242C20.8696 25.7322 20.8696 25.7397 20.8696 25.7476C20.8696 25.7555 20.8696 25.7631 20.8696 25.771C20.8696 25.7789 20.8696 25.7869 20.8696 25.7948C20.8696 25.8027 20.8696 25.8106 20.8696 25.819C20.8696 25.8269 20.8696 25.8349 20.8696 25.8428C20.8696 25.8511 20.8696 25.8591 20.8696 25.8674C20.8696 25.8753 20.8696 25.8837 20.8696 25.892C20.8696 25.9 20.8696 25.9083 20.8696 25.9167C20.8696 25.925 20.8696 25.9334 20.8696 25.9417C20.8696 25.9501 20.8696 25.9584 20.8696 25.9667C20.8696 25.9751 20.8696 25.9839 20.8696 25.9922C20.8696 26.001 20.8696 26.0093 20.8696 26.0181C20.8696 26.0264 20.8696 26.0352 20.8696 26.044C20.8696 26.0523 20.8696 26.0611 20.8696 26.0698C20.8696 26.0786 20.8696 26.0874 20.8696 26.0961C20.8696 26.1049 20.8696 26.1137 20.8696 26.1229C20.8696 26.1316 20.8696 26.1404 20.8696 26.1496C20.8696 26.1583 20.8696 26.1675 20.8696 26.1763C20.8696 26.1855 20.8696 26.1946 20.8696 26.2038C20.8696 26.2126 20.8696 26.2218 20.8696 26.231C20.8696 26.2401 20.8696 26.2493 20.8696 26.2589C20.8696 26.2681 20.8696 26.2773 20.8696 26.2865C20.8696 26.2961 20.8696 26.3053 20.8696 26.3149C20.8696 26.324 20.8696 26.3336 20.8696 26.3432C20.8696 26.3524 20.8696 26.362 20.8696 26.3716C20.8696 26.3812 20.8696 26.3908 20.8696 26.4004C20.8696 26.41 20.8696 26.4196 20.8696 26.4296C20.8696 26.4392 20.8696 26.4488 20.8696 26.4589C20.8696 26.4685 20.8696 26.4785 20.8696 26.4885C20.8696 26.4981 20.8696 26.5081 20.8696 26.5181C20.8696 26.5281 20.8696 26.5382 20.8696 26.5482C20.8696 26.5582 20.8696 26.5682 20.8696 26.5782C20.8696 26.5882 20.8696 26.5987 20.8696 26.6087C20.8696 26.6187 20.8696 26.6291 20.8696 26.6396C20.8696 26.6496 20.8696 26.66 20.8696 26.6705C20.8696 26.6805 20.8696 26.6909 20.8696 26.7014C20.8696 26.7118 20.8696 26.7222 20.8696 26.7331C20.8696 26.7435 20.8696 26.7539 20.8696 26.7644C20.8696 26.7752 20.8696 26.7857 20.8696 26.7965C20.8696 26.807 20.8696 26.8178 20.8696 26.8287C20.8696 26.8395 20.8696 26.8499 20.8696 26.8608C20.8696 26.8717 20.8696 26.8825 20.8696 26.8938C20.8696 26.9046 20.8696 26.9155 20.8696 26.9263C20.8696 26.9376 20.8696 26.9485 20.8696 26.9597C20.8696 26.9706 20.8696 26.9818 20.8696 26.9931C20.8696 27.0044 20.8696 27.0152 20.8696 27.0265C20.8696 27.0378 20.8696 27.049 20.8696 27.0603C20.8696 27.072 20.8696 27.0833 20.8696 27.0945C20.8696 27.1062 20.8696 27.1175 20.8696 27.1292C20.8696 27.1404 20.8696 27.1521 20.8696 27.1638C20.8696 27.1751 20.8696 27.1868 20.8696 27.1985C20.8696 27.2102 20.8696 27.2218 20.8696 27.2335C20.8696 27.2456 20.8696 27.2573 20.8696 27.269C20.8696 27.2811 20.8696 27.2928 20.8696 27.3049C20.8696 27.3166 20.8696 27.3287 20.8696 27.3408C20.8696 27.3529 20.8696 27.3646 20.8696 27.3767C20.8696 27.3888 20.8696 27.4013 20.8696 27.4134C20.8696 27.4255 20.8696 27.4376 20.8696 27.4502C20.8696 27.4623 20.8696 27.4748 20.8696 27.4869C20.8696 27.4994 20.8696 27.5119 20.8696 27.524C20.8696 27.5366 20.8696 27.5491 20.8696 27.5616C20.8696 27.5741 20.8696 27.5866 20.8696 27.5996C20.8696 27.6121 20.8696 27.6246 20.8696 27.6376C20.8696 27.6501 20.8696 27.663 20.8696 27.676C20.8696 27.6885 20.8696 27.7014 20.8696 27.7144C20.8696 27.7273 20.8696 27.7402 20.8696 27.7532C20.8696 27.7661 20.8696 27.7791 20.8696 27.7924C20.8696 27.8054 20.8696 27.8183 20.8696 27.8317C20.8696 27.8446 20.8696 27.8579 20.8696 27.8713C20.8696 27.8847 20.8696 27.898 20.8696 27.9114C20.8696 27.9243 20.8696 27.9381 20.8696 27.9514C20.8696 27.9648 20.8696 27.9782 20.8696 27.9919C20.8696 28.0053 20.8696 28.0191 20.8696 28.0324C20.8696 28.0462 20.8696 28.06 20.8696 28.0737C20.8696 28.0871 20.8696 28.1009 20.8696 28.1146C20.8696 28.1288 20.8696 28.1426 20.8696 28.1564C20.8696 28.1702 20.8696 28.1843 20.8696 28.1981C20.8696 28.2123 20.8696 28.2261 20.8696 28.2403C20.8696 28.2545 20.8696 28.2687 20.8696 28.2829C20.8696 28.297 20.8696 28.3112 20.8696 28.3254C20.8696 28.3396 20.8696 28.3542 20.8696 28.3684C20.8696 28.3826 20.8696 28.3972 20.8696 28.4118C20.8696 28.426 20.8696 28.4406 20.8696 28.4552C20.8696 28.4698 20.8696 28.4845 20.8696 28.4991C20.8696 28.5137 20.8696 28.5283 20.8696 28.5433C20.8696 28.5579 20.8696 28.5725 20.8696 28.5875C20.8696 28.6026 20.8696 28.6172 20.8696 28.6322C20.8696 28.6472 20.8696 28.6623 20.8696 28.6773C20.8696 28.6923 20.8696 28.7073 20.8696 28.7224C20.8696 28.7374 20.8696 28.7528 20.8696 28.7679C20.8696 28.7833 20.8696 28.7983 20.8696 28.8138C20.8696 28.8292 20.8696 28.8447 20.8696 28.8601C20.8696 28.8755 20.8696 28.891 20.8696 28.9064C20.8696 28.9219 20.8696 28.9373 20.8696 28.9532C20.8696 28.9686 20.8696 28.9845 20.8696 29.0003C20.8696 29.0158 20.8696 29.0317 20.8696 29.0475C20.8696 29.0634 20.8696 29.0792 20.8696 29.0951C20.8696 29.111 20.8696 29.1268 20.8696 29.1431C20.8696 29.159 20.8696 29.1752 20.8696 29.1911C20.8696 29.2074 20.8696 29.2236 20.8696 29.2399C20.8696 29.2558 20.8696 29.2721 20.8696 29.2888C20.8696 29.305 20.8696 29.3213 20.8696 29.3376C20.8696 29.3543 20.8696 29.3706 20.8696 29.3873C20.8696 29.4035 20.8696 29.4202 20.8696 29.4369C20.8696 29.4536 20.8696 29.4703 20.8696 29.487C20.8696 29.5037 20.8696 29.5204 20.8696 29.5371C20.8696 29.5542 20.8696 29.5709 20.8696 29.588C20.8696 29.6047 20.8696 29.6218 20.8696 29.639C20.8696 29.6557 20.8696 29.6728 20.8696 29.6899C20.8696 29.7074 20.8696 29.7245 20.8696 29.7416C20.8696 29.7587 20.8696 29.7763 20.8696 29.7934C20.8696 29.8109 20.8696 29.8285 20.8696 29.8456C20.8696 29.8631 20.8696 29.8806 20.8696 29.8982C20.8696 29.9157 20.8696 29.9332 20.8696 29.9512C20.8696 29.9687 20.8696 29.9862 20.8696 30.0042C20.8696 30.0221 20.8696 30.0396 20.8696 30.0576C20.8696 30.0755 20.8696 30.0935 20.8696 30.1114C20.8696 30.1294 20.8696 30.1473 20.8696 30.1653C20.8696 30.1837 20.8696 30.2016 20.8696 30.22C20.8696 30.2379 20.8696 30.2563 20.8696 30.2746C20.8696 30.293 20.8696 30.3114 20.8696 30.3297C20.8696 30.3481 20.8696 30.3665 20.8696 30.3848C20.8696 30.4036 20.8696 30.422 20.8696 30.4408C20.8696 30.4591 20.8696 30.4779 20.8696 30.4967C20.8696 30.5155 20.8696 30.5343 20.8696 30.553C20.8696 30.5718 20.8696 30.5906 20.8696 30.6098C20.8696 30.6286 20.8696 30.6478 20.8696 30.6666C20.8696 30.6858 20.8696 30.705 20.8696 30.7238C20.8696 30.743 20.8696 30.7622 20.8696 30.7818C20.8696 30.801 20.8696 30.8202 20.8696 30.8394C20.8696 30.859 20.8696 30.8782 20.8696 30.8978C20.8696 30.9174 20.8696 30.937 20.8696 30.9567C20.8696 30.9759 20.8696 30.9959 20.8696 31.0155C20.8696 31.0351 20.8696 31.0547 20.8696 31.0748C20.8696 31.0944 20.8696 31.1144 20.8696 31.1345C20.8696 31.1541 20.8696 31.1741 20.8696 31.1942C20.8696 31.2142 20.8696 31.2342 20.8696 31.2547C20.8696 31.2747 20.8696 31.2947 20.8696 31.3152C20.8696 31.3357 20.8696 31.3557 20.8696 31.3761C20.8696 31.3966 20.8696 31.417 20.8696 31.4375C20.8696 31.4579 20.8696 31.4784 20.8696 31.4993C20.8696 31.5197 20.8696 31.5402 20.8696 31.561C20.8696 31.5819 20.8696 31.6024 20.8696 31.6232C20.8696 31.6441 20.8696 31.665 20.8696 31.6858C20.8696 31.7071 20.8696 31.728 20.8696 31.7489C20.8696 31.7702 20.8696 31.791 20.8696 31.8123C20.8696 31.8336 20.8696 31.8549 20.8696 31.8762C20.8696 31.8975 20.8696 31.9187 20.8696 31.94C20.8696 31.9613 20.8696 31.983 20.8696 32.0043C20.8696 32.026 20.8696 32.0477 20.8696 32.069C20.8696 32.0907 20.8696 32.1124 20.8696 32.1341C20.8696 32.1558 20.8696 32.1779 20.8696 32.1997C20.8696 32.2214 20.8696 32.2435 20.8696 32.2656C20.8696 32.2873 20.8696 32.3094 20.8696 32.3316C20.8696 32.3537 20.8696 32.3758 20.8696 32.3979C20.8696 32.4205 20.8696 32.4426 20.8696 32.4647C20.8696 32.4872 20.8696 32.5098 20.8696 32.5319C20.8696 32.5544 20.8696 32.577 20.8696 32.5995C20.8696 32.6221 20.8696 32.645 20.8696 32.6675C20.8696 32.6901 20.8696 32.713 20.8696 32.7356C20.8696 32.7585 20.8696 32.7815 20.8696 32.8045C20.8696 32.8274 20.8696 32.8504 20.8696 32.8733C20.8696 32.8963 20.8696 32.9197 20.8696 32.9426C20.8696 32.966 20.8696 32.9889 20.8696 33.0123C20.8696 33.0357 20.8696 33.0591 20.8696 33.0824C20.8696 33.1058 20.8696 33.1292 20.8696 33.153C20.8696 33.1763 20.8696 33.1997 20.8696 33.2235C20.8696 33.2473 20.8696 33.2711 20.8696 33.2945C20.8696 33.3183 20.8696 33.3425 20.8696 33.3663C20.8696 33.3901 20.8696 33.4138 20.8696 33.4381C20.8696 33.4618 20.8696 33.486 20.8696 33.5103C20.8696 33.5345 20.8696 33.5587 20.8696 33.5829C20.8696 33.6071 20.8696 33.6313 20.8696 33.6559C20.8696 33.6801 20.8696 33.7048 20.8696 33.729C20.8696 33.7536 20.8696 33.7782 20.8696 33.8029C20.8696 33.8275 20.8696 33.8521 20.8696 33.8767C20.8696 33.9018 20.8696 33.9264 20.8696 33.9514C20.8696 33.9761 20.8696 34.0011 20.8696 34.0262C20.8696 34.0512 20.8696 34.0762 20.8696 34.1013C20.8696 34.1263 20.8696 34.1518 20.8696 34.1768C20.8696 34.2023 20.8696 34.2273 20.8696 34.2528C20.8696 34.2783 20.8696 34.3037 20.8696 34.3292C20.8696 34.3546 20.8696 34.3805 20.8696 34.406C20.8696 34.4314 20.8696 34.4573 20.8696 34.4832C20.8696 34.5087 20.8696 34.5345 20.8696 34.5604C20.8696 34.5863 20.8696 34.6122 20.8696 34.6385C20.8696 34.6643 20.8696 34.6902 20.8696 34.7165C20.8696 34.7428 20.8696 34.7687 20.8696 34.795C20.8696 34.8213 20.8696 34.8476 20.8696 34.8743C20.8696 34.9006 20.8696 34.9269 20.8696 34.9536C20.8696 34.9799 20.8696 35.0066 20.8696 35.0333C20.8696 35.06 20.8696 35.0867 20.8696 35.1135C20.8696 35.1402 20.8696 35.1669 20.8696 35.194C20.8696 35.2207 20.8696 35.2479 20.8696 35.275C20.8696 35.3017 20.8696 35.3288 20.8696 35.3564C20.8696 35.3835 20.8696 35.4106 20.8696 35.4378C20.8696 35.4653 20.8696 35.4925 20.8696 35.52C20.8696 35.5476 20.8696 35.5751 20.8696 35.6026C20.8696 35.6302 20.8696 35.6577 20.8696 35.6853C20.8696 35.7128 20.8696 35.7408 20.8696 35.7688C20.8696 35.7963 20.8696 35.8243 20.8696 35.8522C20.8696 35.8802 20.8696 35.9082 20.8696 35.9361C20.8696 35.9645 20.8696 35.9925 20.8696 36.0209C20.8696 36.0488 20.8696 36.0772 20.8696 36.1056C20.8696 36.134 20.8696 36.1624 20.8696 36.1907C20.8696 36.2195 20.8696 36.2479 20.8696 36.2767C20.8696 36.3051 20.8696 36.3339 20.8696 36.3627C20.8696 36.3915 20.8696 36.4203 20.8696 36.4491C20.8696 36.4779 20.8696 36.5067 20.8696 36.5359C20.8696 36.5647 20.8696 36.5939 20.8696 36.6232C20.8696 36.6524 20.8696 36.6816 20.8696 36.7108C20.8696 36.74 20.8696 36.7692 20.8696 36.7989C20.8696 36.8281 20.8696 36.8577 20.8696 36.8874C20.8696 36.917 20.8696 36.9466 20.8696 36.9763C20.8696 37.0059 20.8696 37.0355 20.8696 37.0656C20.8696 37.0952 20.8696 37.1253 20.8696 37.1553C20.8696 37.185 20.8696 37.215 20.8696 37.2455C20.8696 37.2755 20.8696 37.3056 20.8696 37.3357C20.8696 37.3661 20.8696 37.3962 20.8696 37.4266C20.8696 37.4571 20.8696 37.4876 20.8696 37.5181C20.8696 37.5485 20.8696 37.579 20.8696 37.6099C20.8696 37.6403 20.8696 37.6712 20.8696 37.7021C20.8696 37.7326 20.8696 37.7635 20.8696 37.7944C20.8696 37.8257 20.8696 37.8566 20.8696 37.8874C20.8696 37.9187 20.8696 37.9496 20.8696 37.9809C20.8696 38.0122 20.8696 38.0435 20.8696 38.0749C20.8696 38.1062 20.8696 38.1375 20.8696 38.1692C20.8696 38.2005 20.8696 38.2322 20.8696 38.2639C20.8696 38.2952 20.8696 38.327 20.8696 38.3587C20.8696 38.3904 20.8696 38.4225 20.8696 38.4543C20.8696 38.4864 20.8696 38.5181 20.8696 38.5503C20.8696 38.5824 20.8696 38.6145 20.8696 38.6467C20.8696 38.6788 20.8696 38.711 20.8696 38.7435C20.8696 38.7757 20.8696 38.8082 20.8696 38.8408C20.8696 38.8729 20.8696 38.9055 20.8696 38.9384C20.8696 38.971 20.8696 39.0035 20.8696 39.0365C20.8696 39.0691 20.8696 39.1021 20.8696 39.1346C20.8696 39.1676 20.8696 39.2006 20.8696 39.2335C20.8696 39.2669 20.8696 39.2999 20.8696 39.3333C20.8696 39.3663 20.8696 39.3997 20.8696 39.433C20.8696 39.466 20.8696 39.4994 20.8696 39.5332C20.8696 39.5666 20.8696 39.6 20.8696 39.6338C20.8696 39.6672 20.8696 39.701 20.8696 39.7348C20.8696 39.7686 20.8696 39.8024 20.8696 39.8362C20.8696 39.8701 20.8696 39.9043 20.8696 39.9381C20.8696 39.9723 20.8696 40.0065 20.8696 40.0408C20.8696 40.075 20.8696 40.1092 20.8696 40.1434C20.8696 40.1777 20.8696 40.2123 20.8696 40.2465C20.8696 40.2812 20.8696 40.3158 20.8696 40.3505C20.8696 40.3851 20.8696 40.4198 20.8696 40.4544C20.8696 40.4895 20.8696 40.5241 20.8696 40.5592C20.8696 40.5942 20.8696 40.6293 20.8696 40.6643C20.8696 40.6994 20.8696 40.7345 20.8696 40.7695C20.8696 40.805 20.8696 40.8401 20.8696 40.8755C20.8696 40.911 20.8696 40.9465 20.8696 40.982C20.8696 41.0175 20.8696 41.0529 20.8696 41.0888C20.8696 41.1243 20.8696 41.1602 20.8696 41.1961C20.8696 41.232 20.8696 41.2679 20.8696 41.3038C20.8696 41.3397 20.8696 41.3756 20.8696 41.4119C20.8696 41.4478 20.8696 41.4841 20.8696 41.5204C20.8696 41.5567 20.8696 41.593 20.8696 41.6294C20.8696 41.6661 20.8696 41.7024 20.8696 41.7391C20.8696 41.7754 20.8696 41.8122 20.8696 41.8489C20.8696 41.8856 20.8696 41.9224 20.8696 41.9595C20.8696 41.9962 20.8696 42.033 20.8696 42.0701C20.8696 42.1073 20.8696 42.1444 20.8696 42.1816C20.8696 42.2187 20.8696 42.2559 20.8696 42.2934C20.8696 42.3306 20.8696 42.3681 20.8696 42.4057C20.8696 42.4429 20.8696 42.4804 20.8696 42.5184C20.8696 42.556 20.8696 42.5935 20.8696 42.6315C20.8696 42.6691 20.8696 42.7071 20.8696 42.745C20.8696 42.783 20.8696 42.821 20.8696 42.859C20.8696 42.897 20.8696 42.9354 20.8696 42.9734C20.8696 43.0118 20.8696 43.0502 20.8696 43.0886C20.8696 43.127 20.8696 43.1654 20.8696 43.2042C20.8696 43.2426 20.8696 43.2814 20.8696 43.3198C20.8696 43.3586 20.8696 43.3974 20.8696 43.4362C20.8696 43.4751 20.8696 43.5143 20.8696 43.5531C20.8696 43.5924 20.8696 43.6312 20.8696 43.6704C20.8696 43.7096 20.8696 43.7489 20.8696 43.7881C20.8696 43.8278 20.8696 43.867 20.8696 43.9066C20.8696 43.9459 20.8696 43.9855 20.8696 44.0252C20.8696 44.0648 20.8696 44.1045 20.8696 44.1446C20.8696 44.1842 20.8696 44.2243 20.8696 44.2639C20.8696 44.304 20.8696 44.3441 20.8696 44.3841C20.8696 44.4242 20.8696 44.4647 20.8696 44.5048C20.8696 44.5452 20.8696 44.5853 20.8696 44.6258C20.8696 44.6663 20.8696 44.7068 20.8696 44.7477C20.8696 44.7882 20.8696 44.8287 20.8696 44.8696H27.1304C27.1304 44.8287 27.1304 44.7882 27.1304 44.7477C27.1304 44.7068 27.1304 44.6663 27.1304 44.6258C27.1304 44.5853 27.1304 44.5452 27.1304 44.5048C27.1304 44.4647 27.1304 44.4242 27.1304 44.3841C27.1304 44.3441 27.1304 44.304 27.1304 44.2639C27.1304 44.2243 27.1304 44.1842 27.1304 44.1446C27.1304 44.1045 27.1304 44.0648 27.1304 44.0252C27.1304 43.9855 27.1304 43.9459 27.1304 43.9066C27.1304 43.867 27.1304 43.8278 27.1304 43.7881C27.1304 43.7489 27.1304 43.7096 27.1304 43.6704C27.1304 43.6312 27.1304 43.5924 27.1304 43.5531C27.1304 43.5143 27.1304 43.4751 27.1304 43.4362C27.1304 43.3974 27.1304 43.3586 27.1304 43.3198C27.1304 43.2814 27.1304 43.2426 27.1304 43.2042C27.1304 43.1654 27.1304 43.127 27.1304 43.0886C27.1304 43.0502 27.1304 43.0118 27.1304 42.9734C27.1304 42.9354 27.1304 42.897 27.1304 42.859C27.1304 42.821 27.1304 42.783 27.1304 42.745C27.1304 42.7071 27.1304 42.6691 27.1304 42.6315C27.1304 42.5935 27.1304 42.556 27.1304 42.5184C27.1304 42.4804 27.1304 42.4429 27.1304 42.4057C27.1304 42.3681 27.1304 42.3306 27.1304 42.2934C27.1304 42.2559 27.1304 42.2187 27.1304 42.1816C27.1304 42.1444 27.1304 42.1073 27.1304 42.0701C27.1304 42.033 27.1304 41.9962 27.1304 41.9595C27.1304 41.9224 27.1304 41.8856 27.1304 41.8489C27.1304 41.8122 27.1304 41.7754 27.1304 41.7391C27.1304 41.7024 27.1304 41.6661 27.1304 41.6294C27.1304 41.593 27.1304 41.5567 27.1304 41.5204C27.1304 41.4841 27.1304 41.4478 27.1304 41.4119C27.1304 41.3756 27.1304 41.3397 27.1304 41.3038C27.1304 41.2679 27.1304 41.232 27.1304 41.1961C27.1304 41.1602 27.1304 41.1243 27.1304 41.0888C27.1304 41.0529 27.1304 41.0175 27.1304 40.982C27.1304 40.9465 27.1304 40.911 27.1304 40.8755C27.1304 40.8401 27.1304 40.805 27.1304 40.7695C27.1304 40.7345 27.1304 40.6994 27.1304 40.6643C27.1304 40.6293 27.1304 40.5942 27.1304 40.5592C27.1304 40.5241 27.1304 40.4895 27.1304 40.4544C27.1304 40.4198 27.1304 40.3851 27.1304 40.3505C27.1304 40.3158 27.1304 40.2812 27.1304 40.2465C27.1304 40.2123 27.1304 40.1777 27.1304 40.1434C27.1304 40.1092 27.1304 40.075 27.1304 40.0408C27.1304 40.0065 27.1304 39.9723 27.1304 39.9381C27.1304 39.9043 27.1304 39.8701 27.1304 39.8362C27.1304 39.8024 27.1304 39.7686 27.1304 39.7348C27.1304 39.701 27.1304 39.6672 27.1304 39.6338C27.1304 39.6 27.1304 39.5666 27.1304 39.5332C27.1304 39.4994 27.1304 39.466 27.1304 39.433C27.1304 39.3997 27.1304 39.3663 27.1304 39.3333C27.1304 39.2999 27.1304 39.2669 27.1304 39.2335C27.1304 39.2006 27.1304 39.1676 27.1304 39.1346C27.1304 39.1021 27.1304 39.0691 27.1304 39.0365C27.1304 39.0035 27.1304 38.971 27.1304 38.9384C27.1304 38.9055 27.1304 38.8729 27.1304 38.8408C27.1304 38.8082 27.1304 38.7757 27.1304 38.7435C27.1304 38.711 27.1304 38.6788 27.1304 38.6467C27.1304 38.6145 27.1304 38.5824 27.1304 38.5503C27.1304 38.5181 27.1304 38.4864 27.1304 38.4543C27.1304 38.4225 27.1304 38.3904 27.1304 38.3587C27.1304 38.327 27.1304 38.2952 27.1304 38.2639C27.1304 38.2322 27.1304 38.2005 27.1304 38.1692C27.1304 38.1375 27.1304 38.1062 27.1304 38.0749C27.1304 38.0435 27.1304 38.0122 27.1304 37.9809C27.1304 37.9496 27.1304 37.9187 27.1304 37.8874C27.1304 37.8566 27.1304 37.8257 27.1304 37.7944C27.1304 37.7635 27.1304 37.7326 27.1304 37.7021C27.1304 37.6712 27.1304 37.6403 27.1304 37.6099C27.1304 37.579 27.1304 37.5485 27.1304 37.5181C27.1304 37.4876 27.1304 37.4571 27.1304 37.4266C27.1304 37.3962 27.1304 37.3661 27.1304 37.3357C27.1304 37.3056 27.1304 37.2755 27.1304 37.2455C27.1304 37.215 27.1304 37.185 27.1304 37.1553C27.1304 37.1253 27.1304 37.0952 27.1304 37.0656C27.1304 37.0355 27.1304 37.0059 27.1304 36.9763C27.1304 36.9466 27.1304 36.917 27.1304 36.8874C27.1304 36.8577 27.1304 36.8281 27.1304 36.7989C27.1304 36.7692 27.1304 36.74 27.1304 36.7108C27.1304 36.6816 27.1304 36.6524 27.1304 36.6232C27.1304 36.5939 27.1304 36.5647 27.1304 36.5359C27.1304 36.5067 27.1304 36.4779 27.1304 36.4491C27.1304 36.4203 27.1304 36.3915 27.1304 36.3627C27.1304 36.3339 27.1304 36.3051 27.1304 36.2767C27.1304 36.2479 27.1304 36.2195 27.1304 36.1907C27.1304 36.1624 27.1304 36.134 27.1304 36.1056C27.1304 36.0772 27.1304 36.0488 27.1304 36.0209C27.1304 35.9925 27.1304 35.9645 27.1304 35.9361C27.1304 35.9082 27.1304 35.8802 27.1304 35.8522C27.1304 35.8243 27.1304 35.7963 27.1304 35.7688C27.1304 35.7408 27.1304 35.7128 27.1304 35.6853C27.1304 35.6577 27.1304 35.6302 27.1304 35.6026C27.1304 35.5751 27.1304 35.5476 27.1304 35.52C27.1304 35.4925 27.1304 35.4653 27.1304 35.4378C27.1304 35.4106 27.1304 35.3835 27.1304 35.3564C27.1304 35.3288 27.1304 35.3017 27.1304 35.275C27.1304 35.2479 27.1304 35.2207 27.1304 35.194C27.1304 35.1669 27.1304 35.1402 27.1304 35.1135C27.1304 35.0867 27.1304 35.06 27.1304 35.0333C27.1304 35.0066 27.1304 34.9799 27.1304 34.9536C27.1304 34.9269 27.1304 34.9006 27.1304 34.8743C27.1304 34.8476 27.1304 34.8213 27.1304 34.795C27.1304 34.7687 27.1304 34.7428 27.1304 34.7165C27.1304 34.6902 27.1304 34.6643 27.1304 34.6385C27.1304 34.6122 27.1304 34.5863 27.1304 34.5604C27.1304 34.5345 27.1304 34.5087 27.1304 34.4832C27.1304 34.4573 27.1304 34.4314 27.1304 34.406C27.1304 34.3805 27.1304 34.3546 27.1304 34.3292C27.1304 34.3037 27.1304 34.2783 27.1304 34.2528C27.1304 34.2273 27.1304 34.2023 27.1304 34.1768C27.1304 34.1518 27.1304 34.1263 27.1304 34.1013C27.1304 34.0762 27.1304 34.0512 27.1304 34.0262C27.1304 34.0011 27.1304 33.9761 27.1304 33.9514C27.1304 33.9264 27.1304 33.9018 27.1304 33.8767C27.1304 33.8521 27.1304 33.8275 27.1304 33.8029C27.1304 33.7782 27.1304 33.7536 27.1304 33.729C27.1304 33.7048 27.1304 33.6801 27.1304 33.6559C27.1304 33.6313 27.1304 33.6071 27.1304 33.5829C27.1304 33.5587 27.1304 33.5345 27.1304 33.5103C27.1304 33.486 27.1304 33.4618 27.1304 33.4381C27.1304 33.4138 27.1304 33.3901 27.1304 33.3663C27.1304 33.3425 27.1304 33.3183 27.1304 33.2945C27.1304 33.2711 27.1304 33.2473 27.1304 33.2235C27.1304 33.1997 27.1304 33.1763 27.1304 33.153C27.1304 33.1292 27.1304 33.1058 27.1304 33.0824C27.1304 33.0591 27.1304 33.0357 27.1304 33.0123C27.1304 32.9889 27.1304 32.966 27.1304 32.9426C27.1304 32.9197 27.1304 32.8963 27.1304 32.8733C27.1304 32.8504 27.1304 32.8274 27.1304 32.8045C27.1304 32.7815 27.1304 32.7585 27.1304 32.7356C27.1304 32.713 27.1304 32.6901 27.1304 32.6675C27.1304 32.645 27.1304 32.6221 27.1304 32.5995C27.1304 32.577 27.1304 32.5544 27.1304 32.5319C27.1304 32.5098 27.1304 32.4872 27.1304 32.4647C27.1304 32.4426 27.1304 32.4205 27.1304 32.3979C27.1304 32.3758 27.1304 32.3537 27.1304 32.3316C27.1304 32.3094 27.1304 32.2873 27.1304 32.2656C27.1304 32.2435 27.1304 32.2214 27.1304 32.1997C27.1304 32.1779 27.1304 32.1558 27.1304 32.1341C27.1304 32.1124 27.1304 32.0907 27.1304 32.069C27.1304 32.0477 27.1304 32.026 27.1304 32.0043C27.1304 31.983 27.1304 31.9613 27.1304 31.94C27.1304 31.9187 27.1304 31.8975 27.1304 31.8762C27.1304 31.8549 27.1304 31.8336 27.1304 31.8123C27.1304 31.791 27.1304 31.7702 27.1304 31.7489C27.1304 31.728 27.1304 31.7071 27.1304 31.6858C27.1304 31.665 27.1304 31.6441 27.1304 31.6232C27.1304 31.6024 27.1304 31.5819 27.1304 31.561C27.1304 31.5402 27.1304 31.5197 27.1304 31.4993C27.1304 31.4784 27.1304 31.4579 27.1304 31.4375C27.1304 31.417 27.1304 31.3966 27.1304 31.3761C27.1304 31.3557 27.1304 31.3357 27.1304 31.3152C27.1304 31.2947 27.1304 31.2747 27.1304 31.2547C27.1304 31.2342 27.1304 31.2142 27.1304 31.1942C27.1304 31.1741 27.1304 31.1541 27.1304 31.1345C27.1304 31.1144 27.1304 31.0944 27.1304 31.0748C27.1304 31.0547 27.1304 31.0351 27.1304 31.0155C27.1304 30.9959 27.1304 30.9759 27.1304 30.9567C27.1304 30.937 27.1304 30.9174 27.1304 30.8978C27.1304 30.8782 27.1304 30.859 27.1304 30.8394C27.1304 30.8202 27.1304 30.801 27.1304 30.7818C27.1304 30.7622 27.1304 30.743 27.1304 30.7238C27.1304 30.705 27.1304 30.6858 27.1304 30.6666C27.1304 30.6478 27.1304 30.6286 27.1304 30.6098C27.1304 30.5906 27.1304 30.5718 27.1304 30.553C27.1304 30.5343 27.1304 30.5155 27.1304 30.4967C27.1304 30.4779 27.1304 30.4591 27.1304 30.4408C27.1304 30.422 27.1304 30.4036 27.1304 30.3848C27.1304 30.3665 27.1304 30.3481 27.1304 30.3297C27.1304 30.3114 27.1304 30.293 27.1304 30.2746C27.1304 30.2563 27.1304 30.2379 27.1304 30.22C27.1304 30.2016 27.1304 30.1837 27.1304 30.1653C27.1304 30.1473 27.1304 30.1294 27.1304 30.1114C27.1304 30.0935 27.1304 30.0755 27.1304 30.0576C27.1304 30.0396 27.1304 30.0221 27.1304 30.0042C27.1304 29.9862 27.1304 29.9687 27.1304 29.9512C27.1304 29.9332 27.1304 29.9157 27.1304 29.8982C27.1304 29.8806 27.1304 29.8631 27.1304 29.8456C27.1304 29.8285 27.1304 29.8109 27.1304 29.7934C27.1304 29.7763 27.1304 29.7587 27.1304 29.7416C27.1304 29.7245 27.1304 29.7074 27.1304 29.6899C27.1304 29.6728 27.1304 29.6557 27.1304 29.639C27.1304 29.6218 27.1304 29.6047 27.1304 29.588C27.1304 29.5709 27.1304 29.5542 27.1304 29.5371C27.1304 29.5204 27.1304 29.5037 27.1304 29.487C27.1304 29.4703 27.1304 29.4536 27.1304 29.4369C27.1304 29.4202 27.1304 29.4035 27.1304 29.3873C27.1304 29.3706 27.1304 29.3543 27.1304 29.3376C27.1304 29.3213 27.1304 29.305 27.1304 29.2888C27.1304 29.2721 27.1304 29.2558 27.1304 29.2399C27.1304 29.2236 27.1304 29.2074 27.1304 29.1911C27.1304 29.1752 27.1304 29.159 27.1304 29.1431C27.1304 29.1268 27.1304 29.111 27.1304 29.0951C27.1304 29.0792 27.1304 29.0634 27.1304 29.0475C27.1304 29.0317 27.1304 29.0158 27.1304 29.0003C27.1304 28.9845 27.1304 28.9686 27.1304 28.9532C27.1304 28.9373 27.1304 28.9219 27.1304 28.9064C27.1304 28.891 27.1304 28.8755 27.1304 28.8601C27.1304 28.8447 27.1304 28.8292 27.1304 28.8138C27.1304 28.7983 27.1304 28.7833 27.1304 28.7679C27.1304 28.7528 27.1304 28.7374 27.1304 28.7224C27.1304 28.7073 27.1304 28.6923 27.1304 28.6773C27.1304 28.6623 27.1304 28.6472 27.1304 28.6322C27.1304 28.6172 27.1304 28.6026 27.1304 28.5875C27.1304 28.5725 27.1304 28.5579 27.1304 28.5433C27.1304 28.5283 27.1304 28.5137 27.1304 28.4991C27.1304 28.4845 27.1304 28.4698 27.1304 28.4552C27.1304 28.4406 27.1304 28.426 27.1304 28.4118C27.1304 28.3972 27.1304 28.3826 27.1304 28.3684C27.1304 28.3542 27.1304 28.3396 27.1304 28.3254C27.1304 28.3112 27.1304 28.297 27.1304 28.2829C27.1304 28.2687 27.1304 28.2545 27.1304 28.2403C27.1304 28.2261 27.1304 28.2123 27.1304 28.1981C27.1304 28.1843 27.1304 28.1702 27.1304 28.1564C27.1304 28.1426 27.1304 28.1288 27.1304 28.1146C27.1304 28.1009 27.1304 28.0871 27.1304 28.0737C27.1304 28.06 27.1304 28.0462 27.1304 28.0324C27.1304 28.0191 27.1304 28.0053 27.1304 27.9919C27.1304 27.9782 27.1304 27.9648 27.1304 27.9514C27.1304 27.9381 27.1304 27.9243 27.1304 27.9114C27.1304 27.898 27.1304 27.8847 27.1304 27.8713C27.1304 27.8579 27.1304 27.8446 27.1304 27.8317C27.1304 27.8183 27.1304 27.8054 27.1304 27.7924C27.1304 27.7791 27.1304 27.7661 27.1304 27.7532C27.1304 27.7402 27.1304 27.7273 27.1304 27.7144C27.1304 27.7014 27.1304 27.6885 27.1304 27.676C27.1304 27.663 27.1304 27.6501 27.1304 27.6376C27.1304 27.6246 27.1304 27.6121 27.1304 27.5996C27.1304 27.5866 27.1304 27.5741 27.1304 27.5616C27.1304 27.5491 27.1304 27.5366 27.1304 27.524C27.1304 27.5119 27.1304 27.4994 27.1304 27.4869C27.1304 27.4748 27.1304 27.4623 27.1304 27.4502C27.1304 27.4376 27.1304 27.4255 27.1304 27.4134C27.1304 27.4013 27.1304 27.3888 27.1304 27.3767C27.1304 27.3646 27.1304 27.3529 27.1304 27.3408C27.1304 27.3287 27.1304 27.3166 27.1304 27.3049C27.1304 27.2928 27.1304 27.2811 27.1304 27.269C27.1304 27.2573 27.1304 27.2456 27.1304 27.2335C27.1304 27.2218 27.1304 27.2102 27.1304 27.1985C27.1304 27.1868 27.1304 27.1751 27.1304 27.1638C27.1304 27.1521 27.1304 27.1404 27.1304 27.1292C27.1304 27.1175 27.1304 27.1062 27.1304 27.0945C27.1304 27.0833 27.1304 27.072 27.1304 27.0603C27.1304 27.049 27.1304 27.0378 27.1304 27.0265C27.1304 27.0152 27.1304 27.0044 27.1304 26.9931C27.1304 26.9818 27.1304 26.9706 27.1304 26.9597C27.1304 26.9485 27.1304 26.9376 27.1304 26.9263C27.1304 26.9155 27.1304 26.9046 27.1304 26.8938C27.1304 26.8825 27.1304 26.8717 27.1304 26.8608C27.1304 26.8499 27.1304 26.8395 27.1304 26.8287C27.1304 26.8178 27.1304 26.807 27.1304 26.7965C27.1304 26.7857 27.1304 26.7752 27.1304 26.7644C27.1304 26.7539 27.1304 26.7435 27.1304 26.7331C27.1304 26.7222 27.1304 26.7118 27.1304 26.7014C27.1304 26.6909 27.1304 26.6805 27.1304 26.6705C27.1304 26.66 27.1304 26.6496 27.1304 26.6396C27.1304 26.6291 27.1304 26.6187 27.1304 26.6087C27.1304 26.5987 27.1304 26.5882 27.1304 26.5782C27.1304 26.5682 27.1304 26.5582 27.1304 26.5482C27.1304 26.5382 27.1304 26.5281 27.1304 26.5181C27.1304 26.5081 27.1304 26.4981 27.1304 26.4885C27.1304 26.4785 27.1304 26.4685 27.1304 26.4589C27.1304 26.4488 27.1304 26.4392 27.1304 26.4296C27.1304 26.4196 27.1304 26.41 27.1304 26.4004C27.1304 26.3908 27.1304 26.3812 27.1304 26.3716C27.1304 26.362 27.1304 26.3524 27.1304 26.3432C27.1304 26.3336 27.1304 26.324 27.1304 26.3149C27.1304 26.3053 27.1304 26.2961 27.1304 26.2865C27.1304 26.2773 27.1304 26.2681 27.1304 26.2589C27.1304 26.2493 27.1304 26.2401 27.1304 26.231C27.1304 26.2218 27.1304 26.2126 27.1304 26.2038C27.1304 26.1946 27.1304 26.1855 27.1304 26.1763C27.1304 26.1675 27.1304 26.1583 27.1304 26.1496C27.1304 26.1404 27.1304 26.1316 27.1304 26.1229C27.1304 26.1137 27.1304 26.1049 27.1304 26.0961C27.1304 26.0874 27.1304 26.0786 27.1304 26.0698C27.1304 26.0611 27.1304 26.0523 27.1304 26.044C27.1304 26.0352 27.1304 26.0264 27.1304 26.0181C27.1304 26.0093 27.1304 26.001 27.1304 25.9922C27.1304 25.9839 27.1304 25.9751 27.1304 25.9667C27.1304 25.9584 27.1304 25.9501 27.1304 25.9417C27.1304 25.9334 27.1304 25.925 27.1304 25.9167C27.1304 25.9083 27.1304 25.9 27.1304 25.892C27.1304 25.8837 27.1304 25.8753 27.1304 25.8674C27.1304 25.8591 27.1304 25.8511 27.1304 25.8428C27.1304 25.8349 27.1304 25.8269 27.1304 25.819C27.1304 25.8106 27.1304 25.8027 27.1304 25.7948C27.1304 25.7869 27.1304 25.7789 27.1304 25.771C27.1304 25.7631 27.1304 25.7555 27.1304 25.7476C27.1304 25.7397 27.1304 25.7322 27.1304 25.7242C27.1304 25.7167 27.1304 25.7088 27.1304 25.7013C27.1304 25.6934 27.1304 25.6858 27.1304 25.6783C27.1304 25.6708 27.1304 25.6633 27.1304 25.6558C27.1304 25.6483 27.1304 25.6408 27.1304 25.6333C27.1304 25.6257 27.1304 25.6182 27.1304 25.6107C27.1304 25.6036 27.1304 25.5961 27.1304 25.589C27.1304 25.5815 27.1304 25.5744 27.1304 25.5669C27.1304 25.5598 27.1304 25.5527 27.1304 25.5452C27.1304 25.5381 27.1304 25.531 27.1304 25.5239C27.1304 25.5168 27.1304 25.5097 27.1304 25.5026C27.1304 25.4955 27.1304 25.4884 27.1304 25.4817C27.1304 25.4746 27.1304 25.4675 27.1304 25.4609C27.1304 25.4538 27.1304 25.4467 27.1304 25.44C27.1304 25.4333 27.1304 25.4262 27.1304 25.4195C27.1304 25.4129 27.1304 25.4058 27.1304 25.3991C27.1304 25.3924 27.1304 25.3857 27.1304 25.3791C27.1304 25.3724 27.1304 25.3657 27.1304 25.3594C27.1304 25.3528 27.1304 25.3461 27.1304 25.3394C27.1304 25.3331 27.1304 25.3265 27.1304 25.3202C27.1304 25.3135 27.1304 25.3073 27.1304 25.3006C27.1304 25.2943 27.1304 25.2881 27.1304 25.2818C27.1304 25.2751 27.1304 25.2689 27.1304 25.2626C27.1304 25.2563 27.1304 25.2501 27.1304 25.2438C27.1304 25.2376 27.1304 25.2317 27.1304 25.2255C27.1304 25.2192 27.1304 25.2129 27.1304 25.2071C27.1304 25.2008 27.1304 25.195 27.1304 25.1887C27.1304 25.1829 27.1304 25.1766 27.1304 25.1708C27.1304 25.1649 27.1304 25.1587 27.1304 25.1528C27.1304 25.147 27.1304 25.1411 27.1304 25.1353C27.1304 25.1295 27.1304 25.1236 27.1304 25.1178C27.1304 25.1119 27.1304 25.1061 27.1304 25.1007C27.1304 25.0948 27.1304 25.089 27.1304 25.0835C27.1304 25.0777 27.1304 25.0723 27.1304 25.0664C27.1304 25.061 27.1304 25.0552 27.1304 25.0497C27.1304 25.0443 27.1304 25.0385 27.1304 25.033C27.1304 25.0276 27.1304 25.0222 27.1304 25.0168C27.1304 25.0113 27.1304 25.0059 27.1304 25.0005C27.1304 24.9951 27.1304 24.9896 27.1304 24.9846C27.1304 24.9792 27.1304 24.9738 27.1304 24.9688C27.1304 24.9633 27.1304 24.9583 27.1304 24.9529C27.1304 24.9479 27.1304 24.9425 27.1304 24.9375C27.1304 24.932 27.1304 24.927 27.1304 24.922C27.1304 24.917 27.1304 24.912 27.1304 24.907C27.1304 24.902 27.1304 24.897 27.1304 24.892C27.1304 24.887 27.1304 24.8819 27.1304 24.8769C27.1304 24.8719 27.1304 24.8669 27.1304 24.8623C27.1304 24.8573 27.1304 24.8523 27.1304 24.8477C27.1304 24.8427 27.1304 24.8381 27.1304 24.8335C27.1304 24.8285 27.1304 24.8239 27.1304 24.8189C27.1304 24.8143 27.1304 24.8097 27.1304 24.8051C27.1304 24.8006 27.1304 24.796 27.1304 24.7914C27.1304 24.7868 27.1304 24.7822 27.1304 24.7776C27.1304 24.773 27.1304 24.7684 27.1304 24.7638C27.1304 24.7592 27.1304 24.7551 27.1304 24.7505C27.1304 24.7459 27.1304 24.7417 27.1304 24.7371C27.1304 24.7329 27.1304 24.7283 27.1304 24.7242C27.1304 24.72 27.1304 24.7154 27.1304 24.7112C27.1304 24.7071 27.1304 24.7029 27.1304 24.6983C27.1304 24.6941 27.1304 24.6899 27.1304 24.6858C27.1304 24.6816 27.1304 24.6774 27.1304 24.6733C27.1304 24.6691 27.1304 24.6653 27.1304 24.6611C27.1304 24.657 27.1304 24.6528 27.1304 24.649C27.1304 24.6449 27.1304 24.6407 27.1304 24.6369C27.1304 24.6328 27.1304 24.629 27.1304 24.6248C27.1304 24.6211 27.1304 24.6173 27.1304 24.6131C27.1304 24.6094 27.1304 24.6056 27.1304 24.6019C27.1304 24.5977 27.1304 24.5939 27.1304 24.5902C27.1304 24.5864 27.1304 24.5827 27.1304 24.5789C27.1304 24.5752 27.1304 24.5714 27.1304 24.5681C27.1304 24.5643 27.1304 24.5606 27.1304 24.5568C27.1304 24.5535 27.1304 24.5497 27.1304 24.5459C27.1304 24.5426 27.1304 24.5389 27.1304 24.5355C27.1304 24.5318 27.1304 24.5284 27.1304 24.5247C27.1304 24.5213 27.1304 24.518 27.1304 24.5142C27.1304 24.5109 27.1304 24.5075 27.1304 24.5042C27.1304 24.5009 27.1304 24.4971 27.1304 24.4938C27.1304 24.4904 27.1304 24.4871 27.1304 24.4838C27.1304 24.4804 27.1304 24.4775 27.1304 24.4742C27.1304 24.4708 27.1304 24.4675 27.1304 24.4641C27.1304 24.4612 27.1304 24.4579 27.1304 24.4545C27.1304 24.4516 27.1304 24.4483 27.1304 24.4454C27.1304 24.442 27.1304 24.4391 27.1304 24.4358C27.1304 24.4328 27.1304 24.4299 27.1304 24.4266C27.1304 24.4237 27.1304 24.4207 27.1304 24.4174C27.1304 24.4145 27.1304 24.4115 27.1304 24.4086C27.1304 24.4057 27.1304 24.4028 27.1304 24.3999C27.1304 24.3969 27.1304 24.394 27.1304 24.3911C27.1304 24.3882 27.1304 24.3853 27.1304 24.3827C27.1304 24.3798 27.1304 24.3769 27.1304 24.374C27.1304 24.3715 27.1304 24.3686 27.1304 24.3656C27.1304 24.3631 27.1304 24.3602 27.1304 24.3577C27.1304 24.3548 27.1304 24.3523 27.1304 24.3494C27.1304 24.3469 27.1304 24.3443 27.1304 24.3414C27.1304 24.3389 27.1304 24.3364 27.1304 24.3339C27.1304 24.3314 27.1304 24.3285 27.1304 24.326C27.1304 24.3235 27.1304 24.321 27.1304 24.3185C27.1304 24.316 27.1304 24.3135 27.1304 24.311C27.1304 24.3085 27.1304 24.3059 27.1304 24.3039C27.1304 24.3014 27.1304 24.2989 27.1304 24.2963C27.1304 24.2943 27.1304 24.2918 27.1304 24.2893C27.1304 24.2872 27.1304 24.2847 27.1304 24.2822C27.1304 24.2801 27.1304 24.2776 27.1304 24.2755C27.1304 24.2734 27.1304 24.2709 27.1304 24.2688C27.1304 24.2663 27.1304 24.2642 27.1304 24.2621C27.1304 24.2596 27.1304 24.2575 27.1304 24.2554C27.1304 24.2534 27.1304 24.2513 27.1304 24.2492C27.1304 24.2471 27.1304 24.2446 27.1304 24.2425C27.1304 24.2404 27.1304 24.2383 27.1304 24.2367C27.1304 24.2346 27.1304 24.2325 27.1304 24.2304C27.1304 24.2283 27.1304 24.2262 27.1304 24.2246C27.1304 24.2225 27.1304 24.2204 27.1304 24.2183C27.1304 24.2166 27.1304 24.2145 27.1304 24.2125C27.1304 24.2108 27.1304 24.2087 27.1304 24.207C27.1304 24.2049 27.1304 24.2033 27.1304 24.2012C27.1304 24.1995 27.1304 24.1978 27.1304 24.1958C27.1304 24.1941 27.1304 24.1924 27.1304 24.1903C27.1304 24.1887 27.1304 24.187 27.1304 24.1853C27.1304 24.1837 27.1304 24.1816 27.1304 24.1799C27.1304 24.1782 27.1304 24.1766 27.1304 24.1749C27.1304 24.1732 27.1304 24.1715 27.1304 24.1699C27.1304 24.1682 27.1304 24.1665 27.1304 24.1649C27.1304 24.1632 27.1304 24.1619 27.1304 24.1603C27.1304 24.1586 27.1304 24.1569 27.1304 24.1557C27.1304 24.154 27.1304 24.1523 27.1304 24.1507C27.1304 24.1494 27.1304 24.1478 27.1304 24.1465C27.1304 24.1448 27.1304 24.1436 27.1304 24.1419C27.1304 24.1402 27.1304 24.139 27.1304 24.1377C27.1304 24.1361 27.1304 24.1348 27.1304 24.1332C27.1304 24.1319 27.1304 24.1306 27.1304 24.129C27.1304 24.1277 27.1304 24.1302 27.1304 24.129C27.1304 24.1273 27.1304 24.1223 27.1304 24.121C27.1304 24.1198 27.1304 24.1223 27.1304 24.121C27.1304 24.1198 27.1304 24.1148 27.1304 24.1135C27.1304 24.1123 27.1304 24.1148 27.1304 24.1135C27.1304 24.1123 27.1304 24.1073 27.1304 24.106C27.1304 24.1048 27.1304 24.1073 27.1304 24.106C27.1304 24.1048 27.1304 24.1002 27.1304 24.0989C27.1304 24.0977 27.1304 24.0998 27.1304 24.0989C27.1304 24.0977 27.1304 24.0931 27.1304 24.0922C27.1304 24.091 27.1304 24.0935 27.1304 24.0922C27.1304 24.091 27.1304 24.0868 27.1304 24.0856C27.1304 24.0847 27.1304 24.0864 27.1304 24.0856C27.1304 24.0847 27.1304 24.0806 27.1304 24.0797C27.1304 24.0785 27.1304 24.0806 27.1304 24.0797C27.1304 24.0785 27.1304 24.0747 27.1304 24.0739C27.1304 24.073 27.1304 24.0747 27.1304 24.0739C27.1304 24.073 27.1304 24.0693 27.1304 24.0685C27.1304 24.0672 27.1304 24.0693 27.1304 24.0685C27.1304 24.0676 27.1304 24.0639 27.1304 24.063C27.1304 24.0622 27.1304 24.0639 27.1304 24.063C27.1304 24.0622 27.1304 24.0589 27.1304 24.058C27.1304 24.0572 27.1304 24.0589 27.1304 24.058C27.1304 24.0572 27.1304 24.0543 27.1304 24.0534C27.1304 24.0526 27.1304 24.0543 27.1304 24.0534C27.1304 24.053 27.1304 24.0497 27.1304 24.0488C27.1304 24.048 27.1304 24.0434 27.1304 24.0426C27.1304 24.0422 27.1304 24.0376 27.1304 24.0371C27.1304 24.0367 27.1304 24.0326 27.1304 24.0321C27.1304 24.0317 27.1304 24.028 27.1304 24.0271C27.1304 24.0267 27.1304 24.0238 27.1304 24.023C27.1304 24.0225 27.1304 24.0188 27.1304 24.0184C27.1304 24.0179 27.1304 24.0188 27.1304 24.0184C27.1304 24.0179 27.1304 24.0146 27.1304 24.0142C27.1304 24.0138 27.1304 24.0096 27.1304 24.0092C27.1304 24.0092 27.1304 24.0054 27.1304 24.005C27.1304 24.0046 27.1304 24 27.1304 24H24ZM27.1304 24V3.13043H20.8696V24H27.1304Z" fill="black" fill-opacity="0.4"/>
</svg>
