<svg width="40" height="40" viewBox="0 0 40 40" fill="none" xmlns="http://www.w3.org/2000/svg">
<g clip-path="url(#clip0_3085_14419)">
<path d="M1.25 9.375V38.125C1.25 38.815 1.81 39.375 2.5 39.375H10V8.125H2.5C1.81 8.125 1.25 8.685 1.25 9.375Z" fill="#FE9135"/>
<path d="M27.5 1.875H12.5C11.81 1.875 11.25 2.435 11.25 3.125V39.375L11.2506 39.3762H16.875V33.75C16.875 33.4044 17.1544 33.125 17.5 33.125H22.5C22.8456 33.125 23.125 33.4044 23.125 33.75V39.3762H28.7494L28.75 39.375V3.125C28.75 2.435 28.19 1.875 27.5 1.875Z" fill="#FE9135"/>
<path d="M37.5 14.375H30V39.375H37.5C38.19 39.375 38.75 38.815 38.75 38.125V15.625C38.75 14.935 38.19 14.375 37.5 14.375Z" fill="#FE9135"/>
<path d="M37.5 13.125H30V3.125C30 1.74312 28.8819 0.625 27.5 0.625H12.5C11.1181 0.625 10 1.74312 10 3.125V6.875H2.5C1.11812 6.875 0 7.99312 0 9.375V38.125C0 39.5069 1.11812 40.625 2.5 40.625H37.5C38.8819 40.625 40 39.5069 40 38.125V15.625C40 14.2431 38.8819 13.125 37.5 13.125ZM10 39.375H2.5C1.81 39.375 1.25 38.815 1.25 38.125V9.375C1.25 8.685 1.81 8.125 2.5 8.125H10V39.375ZM21.875 39.3763H18.125V34.375H21.875V39.3763ZM28.75 39.375L28.7494 39.3763H23.125V33.75C23.125 33.4044 22.8456 33.125 22.5 33.125H17.5C17.1544 33.125 16.875 33.4044 16.875 33.75V39.3763H11.2506L11.25 39.375V3.125C11.25 2.435 11.81 1.875 12.5 1.875H27.5C28.19 1.875 28.75 2.435 28.75 3.125V39.375ZM38.75 38.125C38.75 38.815 38.19 39.375 37.5 39.375H30V14.375H37.5C38.19 14.375 38.75 14.935 38.75 15.625V38.125Z" fill="#FE9135"/>
<path d="M4.375 15.625H6.875C7.22062 15.625 7.5 15.3456 7.5 15V12.5C7.5 12.1544 7.22062 11.875 6.875 11.875H4.375C4.02938 11.875 3.75 12.1544 3.75 12.5V15C3.75 15.3456 4.02938 15.625 4.375 15.625ZM5 13.125H6.25V14.375H5V13.125Z" fill="#FE9135"/>
<path d="M4.375 21.875H6.875C7.22062 21.875 7.5 21.5956 7.5 21.25V18.75C7.5 18.4044 7.22062 18.125 6.875 18.125H4.375C4.02938 18.125 3.75 18.4044 3.75 18.75V21.25C3.75 21.5956 4.02938 21.875 4.375 21.875ZM5 19.375H6.25V20.625H5V19.375Z" fill="#FE9135"/>
<path d="M4.375 28.125H6.875C7.22062 28.125 7.5 27.8456 7.5 27.5V25C7.5 24.6544 7.22062 24.375 6.875 24.375H4.375C4.02938 24.375 3.75 24.6544 3.75 25V27.5C3.75 27.8456 4.02938 28.125 4.375 28.125ZM5 25.625H6.25V26.875H5V25.625Z" fill="#FE9135"/>
<path d="M18.125 11.875H15.625C15.2794 11.875 15 12.1544 15 12.5V15C15 15.3456 15.2794 15.625 15.625 15.625H18.125C18.4706 15.625 18.75 15.3456 18.75 15V12.5C18.75 12.1544 18.4706 11.875 18.125 11.875ZM17.5 14.375H16.25V13.125H17.5V14.375Z" fill="#FE9135"/>
<path d="M18.125 18.125H15.625C15.2794 18.125 15 18.4044 15 18.75V21.25C15 21.5956 15.2794 21.875 15.625 21.875H18.125C18.4706 21.875 18.75 21.5956 18.75 21.25V18.75C18.75 18.4044 18.4706 18.125 18.125 18.125ZM17.5 20.625H16.25V19.375H17.5V20.625Z" fill="#FE9135"/>
<path d="M18.125 24.375H15.625C15.2794 24.375 15 24.6544 15 25V27.5C15 27.8456 15.2794 28.125 15.625 28.125H18.125C18.4706 28.125 18.75 27.8456 18.75 27.5V25C18.75 24.6544 18.4706 24.375 18.125 24.375ZM17.5 26.875H16.25V25.625H17.5V26.875Z" fill="#FE9135"/>
<path d="M24.375 11.875H21.875C21.5294 11.875 21.25 12.1544 21.25 12.5V15C21.25 15.3456 21.5294 15.625 21.875 15.625H24.375C24.7206 15.625 25 15.3456 25 15V12.5C25 12.1544 24.7206 11.875 24.375 11.875ZM23.75 14.375H22.5V13.125H23.75V14.375Z" fill="#FE9135"/>
<path d="M18.125 5.625H15.625C15.2794 5.625 15 5.90438 15 6.25V8.75C15 9.09562 15.2794 9.375 15.625 9.375H18.125C18.4706 9.375 18.75 9.09562 18.75 8.75V6.25C18.75 5.90438 18.4706 5.625 18.125 5.625ZM17.5 8.125H16.25V6.875H17.5V8.125Z" fill="#FE9135"/>
<path d="M24.375 5.625H21.875C21.5294 5.625 21.25 5.90438 21.25 6.25V8.75C21.25 9.09562 21.5294 9.375 21.875 9.375H24.375C24.7206 9.375 25 9.09562 25 8.75V6.25C25 5.90438 24.7206 5.625 24.375 5.625ZM23.75 8.125H22.5V6.875H23.75V8.125Z" fill="#FE9135"/>
<path d="M24.375 18.125H21.875C21.5294 18.125 21.25 18.4044 21.25 18.75V21.25C21.25 21.5956 21.5294 21.875 21.875 21.875H24.375C24.7206 21.875 25 21.5956 25 21.25V18.75C25 18.4044 24.7206 18.125 24.375 18.125ZM23.75 20.625H22.5V19.375H23.75V20.625Z" fill="#FE9135"/>
<path d="M24.375 24.375H21.875C21.5294 24.375 21.25 24.6544 21.25 25V27.5C21.25 27.8456 21.5294 28.125 21.875 28.125H24.375C24.7206 28.125 25 27.8456 25 27.5V25C25 24.6544 24.7206 24.375 24.375 24.375ZM23.75 26.875H22.5V25.625H23.75V26.875Z" fill="#FE9135"/>
<path d="M35.625 18.125H33.125C32.7794 18.125 32.5 18.4044 32.5 18.75V21.25C32.5 21.5956 32.7794 21.875 33.125 21.875H35.625C35.9706 21.875 36.25 21.5956 36.25 21.25V18.75C36.25 18.4044 35.9706 18.125 35.625 18.125ZM35 20.625H33.75V19.375H35V20.625Z" fill="#FE9135"/>
<path d="M35.625 24.375H33.125C32.7794 24.375 32.5 24.6544 32.5 25V27.5C32.5 27.8456 32.7794 28.125 33.125 28.125H35.625C35.9706 28.125 36.25 27.8456 36.25 27.5V25C36.25 24.6544 35.9706 24.375 35.625 24.375ZM35 26.875H33.75V25.625H35V26.875Z" fill="#FE9135"/>
<path d="M35.625 30.625H33.125C32.7794 30.625 32.5 30.9044 32.5 31.25V33.75C32.5 34.0956 32.7794 34.375 33.125 34.375H35.625C35.9706 34.375 36.25 34.0956 36.25 33.75V31.25C36.25 30.9044 35.9706 30.625 35.625 30.625ZM35 33.125H33.75V31.875H35V33.125Z" fill="#FE9135"/>
<path d="M4.375 34.375H6.875C7.22062 34.375 7.5 34.0956 7.5 33.75V31.25C7.5 30.9044 7.22062 30.625 6.875 30.625H4.375C4.02938 30.625 3.75 30.9044 3.75 31.25V33.75C3.75 34.0956 4.02938 34.375 4.375 34.375ZM5 31.875H6.25V33.125H5V31.875Z" fill="#FE9135"/>
<g opacity="0.15">
<path d="M1.25 9.375V38.125C1.25 38.815 1.81 39.375 2.5 39.375H10V8.125H2.5C1.81 8.125 1.25 8.685 1.25 9.375Z" fill="black"/>
<path d="M37.5 14.375H30V39.375H37.5C38.19 39.375 38.75 38.815 38.75 38.125V15.625C38.75 14.935 38.19 14.375 37.5 14.375Z" fill="black"/>
</g>
<path d="M21.875 34.375H18.125V39.3762H21.875V34.375Z" fill="white"/>
<path d="M6.25063 13.125H5V14.3763H6.25063V13.125Z" fill="white"/>
<path d="M6.25063 19.375H5V20.6262H6.25063V19.375Z" fill="white"/>
<path d="M6.25063 25.625H5V26.8762H6.25063V25.625Z" fill="white"/>
<path d="M6.25063 31.875H5V33.1262H6.25063V31.875Z" fill="white"/>
<path d="M17.5006 6.875H16.25V8.12625H17.5006V6.875Z" fill="white"/>
<path d="M17.5006 13.125H16.25V14.3763H17.5006V13.125Z" fill="white"/>
<path d="M17.5006 19.375H16.25V20.6262H17.5006V19.375Z" fill="white"/>
<path d="M17.5006 25.625H16.25V26.8762H17.5006V25.625Z" fill="white"/>
<path d="M23.7506 6.875H22.5V8.12625H23.7506V6.875Z" fill="white"/>
<path d="M23.7506 13.125H22.5V14.3763H23.7506V13.125Z" fill="white"/>
<path d="M23.7506 19.375H22.5V20.6262H23.7506V19.375Z" fill="white"/>
<path d="M23.7506 25.625H22.5V26.8762H23.7506V25.625Z" fill="white"/>
<path d="M35.0006 19.375H33.75V20.6262H35.0006V19.375Z" fill="white"/>
<path d="M35.0006 25.625H33.75V26.8762H35.0006V25.625Z" fill="white"/>
<path d="M35.0006 31.875H33.75V33.1262H35.0006V31.875Z" fill="white"/>
</g>
<defs>
<clipPath id="clip0_3085_14419">
<rect width="40" height="40" fill="white"/>
</clipPath>
</defs>
</svg>
