<svg width="15" height="16" viewBox="0 0 15 16" fill="none" xmlns="http://www.w3.org/2000/svg">
<path d="M10.3627 3.74014L11.8218 3.97815L13.2891 4.2175L12.2646 3.14013C9.46078 0.191524 4.31956 0.635547 2.00989 3.93822L1.86004 3.84596C4.61418 -0.0822336 10.87 0.0564842 13.3721 4.25951L13.372 4.25955L13.3768 4.26729L13.4776 4.42983L10.3341 3.91542L10.3627 3.74014ZM4.60166 12.2599L3.14256 12.0219L1.67524 11.7825L2.69972 12.8599C5.50358 15.8085 10.6448 15.3645 12.9545 12.0618L13.1043 12.1541C10.3502 16.0823 4.09438 15.9435 1.59228 11.7405L1.59236 11.7405L1.58756 11.7327L1.48674 11.5702L4.63022 12.0846L4.60166 12.2599Z" fill="#702727" stroke="#B73636"/>
</svg>
