<svg width="662" height="220" viewBox="0 0 662 220" fill="none" xmlns="http://www.w3.org/2000/svg">
<path d="M2.28809 211.213C-0.903992 210.392 0.257507 205.842 3.43335 206.299C50.6201 213.067 94.1356 204.768 136.012 189.727C136.037 189.561 136.061 189.394 136.118 189.217C140.845 174.049 126.578 160.996 126.458 145.769C126.375 135.19 130.666 125.085 136.888 116.685C153.975 93.6175 183.778 87.5034 209.495 78.9506C212.096 78.0855 214.322 81.5314 212.383 83.5113C193.716 102.556 178.667 124.46 168.069 148.967C163.176 160.286 159.675 173.698 152.261 183.544C181.059 171.98 209.195 157.695 237.337 143.422C243.105 132.826 240.401 123.885 232.559 114.283C229.689 110.77 227.291 107.474 225.904 103.123C222.566 92.6489 225.726 80.9364 231.499 71.9877C238.835 60.6164 250.259 52.5225 261.003 44.6337C275.108 34.2757 289.545 24.9492 306.05 18.9366C308.608 18.0046 310.533 21.4058 308.813 23.3024C299.984 33.0411 290.95 42.8833 284.389 54.3561C277.676 66.0949 275.635 78.3048 273.262 91.3696C270.064 108.963 261.903 123.232 251.092 136.463C256.176 133.9 261.265 131.354 266.36 128.842C278.111 123.045 290.006 117.497 302.066 112.384C301.603 100.783 308.856 91.857 316.148 83.2635C317.065 82.1832 318.777 83.2066 318.501 84.5042C316.846 92.2631 314.452 101.996 309.835 109.166C318.948 105.476 328.159 102.053 337.485 99.0107C338.249 88.7055 332.766 79.9862 335.158 69.4454C336.963 61.4896 341.363 54.3013 346.937 48.4187C365.002 29.3515 393.763 24.4212 408.316 1.52027C410.001 -1.13167 414.231 0.230845 413.553 3.47572C411.486 13.3728 409.703 23.8506 406.139 33.3375C402.204 43.8153 394.949 50.9346 387.194 58.7422C375.881 70.1338 364.171 84.7073 350.501 95.0612C362.512 91.6519 374.71 88.8923 387.139 87.0059C396.543 80.0613 403.979 69.882 411.829 61.4347C417.157 55.7044 421.689 50.165 429.948 50.1507C431.286 50.1487 431.763 51.8361 430.703 52.5915C422.473 58.4599 419.261 65.171 415.003 74.0101C413.827 76.4509 413.001 78.4754 411.11 80.4755C409.362 82.3254 407.23 83.7184 404.931 84.8717C411.283 84.2727 417.646 83.8199 424.016 83.4524C425.351 83.2148 426.691 82.9813 428.033 82.7477C435.359 75.5574 443.433 69.0941 451.275 62.4947C461.231 54.1165 471.173 44.8591 482.613 38.5399C501.512 28.1006 526.388 22.3784 547.9 24.3887C550.219 24.606 551.627 27.0244 550.006 28.9819C536.086 45.7809 520.816 61.9566 500.47 70.8262C492.315 74.3817 483.732 76.989 474.962 79.109C479.998 78.8125 485.029 78.5627 490.037 78.3373C496.387 78.051 502.629 77.651 508.728 77.785C522.553 74.4548 534.48 65.9954 547.59 60.4011C561.916 54.2871 576.83 51.0361 592.303 49.7934C593.658 49.6857 594.204 51.6209 593.081 52.3073C580.524 59.9869 567.898 67.5102 553.978 72.477C545.458 75.5168 536.677 76.5991 527.932 77.8033C526.567 78.3779 525.205 78.9566 523.836 79.5171C525.513 79.4988 527.193 79.4785 528.868 79.4765C529.036 79.2877 529.274 79.1536 529.583 79.1394C530.24 79.1089 530.896 79.1028 531.554 79.0764C576.473 72.3694 622.947 74.463 661.061 102.426C663.181 103.982 661.321 106.765 659.335 107.076C638.314 110.349 622.346 123.043 600.184 121.055C583.164 119.528 566.868 112.469 552.447 103.594C547.685 100.664 543.244 97.234 538.726 93.9363C538.489 94.3038 538.099 94.5901 537.634 94.6531C526.183 96.1943 516.985 91.3798 507.573 86.2424C505.479 85.7855 503.372 85.3185 501.311 84.7438C480.674 86.1388 459.966 86.9084 439.325 88.2973C450.938 91.0772 462.175 95.9323 472.789 101.047C495.166 111.828 516.495 124.555 536.929 138.652C538.728 139.892 538.623 142.374 536.503 143.225C517.192 150.975 489.726 151.008 470.383 142.642C448.905 133.352 435.538 107.61 422.156 89.802C422.116 89.7492 422.096 89.6964 422.061 89.6436C411.445 90.5919 400.856 91.7859 390.317 93.4306C387.214 93.9159 384.128 94.4582 381.057 95.047C393.026 96.9476 403.432 104.808 413.88 111.33C414.621 111.793 414.664 113.064 413.695 113.314C398.057 117.355 382.044 109.105 372.121 96.9131C355.196 100.71 338.724 105.976 322.581 112.177C337.603 113.138 353.066 119.979 365.72 126.251C389.939 138.256 412.077 154.129 437.534 163.614C439.638 164.398 440.381 167.013 438.363 168.436C425.239 177.68 410.592 178.264 394.971 177.156C382.544 176.272 369.558 175.2 358.881 168.181C338.844 155.008 331.822 129.088 311.449 116.62C297.606 122.34 283.985 128.661 270.514 135.281C280.428 135.157 291.021 139.188 298.817 143.885C300.061 144.634 299.341 146.398 297.956 146.193C288.985 144.871 281.678 150.1 273.042 149.079C266.674 148.326 260.971 144.742 254.751 143.162C251.876 144.622 249.006 146.09 246.141 147.56C233.74 153.926 220.964 160.596 207.891 167.179C219.928 167.313 232.772 170.069 240.543 171.84C268.447 178.197 295.356 189.351 324.485 184.671C326.95 184.275 328.14 187.323 327.3 189.179C322.03 200.8 306.295 205.013 295.33 209.596C283.285 214.63 268.987 221.538 255.492 219.63C227.226 215.631 217.583 176.295 188.678 176.644C129.923 204.822 65.9104 227.577 2.28809 211.213ZM527.154 140.621C498.07 141.87 469.449 128.7 446.534 110.187C453.6 119.729 461.456 128.448 472.602 134.085C483.624 139.659 497.377 140.991 509.539 141.645C514.497 141.911 519.322 141.533 524.271 141.371C524.569 141.361 524.971 141.391 525.414 141.438C526.191 141.253 526.975 141.076 527.735 140.871C527.54 140.79 527.347 140.703 527.154 140.621ZM497.93 63.2684C507.975 58.7544 516.603 53.1215 525.04 46.0571C529.14 42.6234 533.02 39.0638 536.643 35.1244C537.321 34.3873 538.32 33.5203 539.252 32.7649C511.965 52.6667 483.764 65.5588 453.117 76.9098C468.458 73.6446 483.703 69.6627 497.93 63.2684ZM493.261 59.128C507.027 52.4088 519.657 43.795 532.06 34.8726C501.5 44.7129 473.961 60.1148 446.408 76.5078C462.271 71.3704 478.391 66.3853 493.261 59.128ZM536.493 31.6643C519.738 36.0788 503.563 38.2292 487.98 47.6064C479.468 52.7296 471.027 58.0274 462.88 63.7272C485.758 51.0422 509.551 39.7562 534.691 32.9659C535.293 32.5314 535.894 32.0988 536.493 31.6643ZM496.984 143.651C487.838 142.538 478.978 140.154 471.386 136.388C465.966 133.699 460.886 130.142 456.148 126.04C460.149 130.18 464.405 133.734 468.996 136.239C476.862 140.53 486.762 142.918 496.984 143.651ZM437.534 92.5778C450.749 100.473 464.604 107.537 478.083 114.825C487.381 119.853 498.953 127.894 510.651 133.376C486.528 122.417 462.886 110.043 439.418 97.5568C463.117 119.079 488.615 133.118 520.634 137.803C518.022 136.67 515.413 135.537 512.814 134.367C516.873 136.152 520.926 137.557 524.896 138.404C526.031 138.538 527.201 138.625 528.354 138.737C500.279 119.646 470.147 102.069 437.534 92.5778ZM648.435 102.834C648.209 103.387 631.936 100.308 630.233 100.052C618.953 98.3589 607.711 96.4765 596.478 94.5028C581.547 91.8793 566.657 89.0994 551.817 86.0495C558.811 88.8253 565.554 92.5088 573.175 96.3872C592.776 106.363 614.881 107.635 636.408 105.255C638.026 105.078 647.537 105.033 648.435 102.834ZM525.168 89.8264C522.928 89.7593 520.703 89.3817 518.493 88.8943C522.849 90.9574 527.361 92.0803 532.133 92.1778C525.245 88.8578 518.491 85.7226 511.208 84.3499C511.198 84.3519 511.189 84.3519 511.179 84.354C511.102 84.3824 511.023 84.4088 510.946 84.4372C511.175 84.5001 511.407 84.5692 511.634 84.6301C516.233 85.8444 521.119 86.9165 525.3 89.2497C525.556 89.3898 525.487 89.8345 525.168 89.8264ZM528.141 87.012C527.913 86.8962 527.684 86.7886 527.457 86.679C527.686 86.7886 527.913 86.9023 528.141 87.012ZM541.608 85.7084C554.441 91.0265 565.934 98.9579 578.384 105.602C599.209 116.715 620.37 111.927 641.529 105.754C626.076 108.053 610.505 108.654 594.98 105.551C575.646 101.687 560.139 90.0294 541.608 85.7084ZM644.938 101.141C613.466 92.1758 581.533 84.3479 548.928 83.3691C552.849 84.2199 556.77 85.0707 560.697 85.8911C570.99 88.0435 581.285 90.2325 591.605 92.2488C609.575 95.7577 627.656 98.8259 645.777 101.494C645.499 101.376 645.218 101.259 644.938 101.141ZM624.677 93.4652C600.87 85.3936 575.427 80.1323 550.741 80.242C548.034 80.4065 545.328 80.6075 542.625 80.8309C570.485 81.0319 597.883 85.8404 624.677 93.4652ZM629.615 111.34C631.195 110.774 632.74 110.183 634.273 109.586C619.568 112.878 604.702 115.635 590.092 111.359C573.204 106.412 558.74 96.0826 542.814 89.2578C558.557 99.7092 573.51 110.088 592.754 113.982C605.399 116.537 617.529 115.674 629.615 111.34ZM564.381 79.712C593.849 82.0675 622.638 89.2558 649.85 101.458C650.431 101.661 651.012 101.86 651.59 102.065C625.57 84.0636 595.231 79.2206 564.381 79.712ZM540.779 68.0077C550.276 64.6634 559.899 61.7474 569.144 59.0468C569.559 58.9249 569.723 59.5158 569.339 59.6762C558.855 64.0095 548.394 68.8585 537.869 73.5106C542.215 72.871 546.53 72.0303 550.749 70.6516C559.589 67.7681 568.024 63.7638 576.162 59.2985C580.629 56.8476 593.784 52.9245 581.909 53.9073C567.169 55.1277 553.976 61.7677 540.779 68.0077ZM489.428 69.4292C501.958 65.2705 512.57 58.5695 522.09 50.4127C505.942 61.723 486.991 69.3419 467.749 75.3199C475.104 73.6589 482.373 71.7704 489.428 69.4292ZM461.54 61.0632C469.831 55.7694 478.412 50.9021 487.052 46.1546C503.55 37.088 520.161 34.7305 537.851 30.6795C538.166 30.4521 538.481 30.2226 538.793 29.9952C518.221 30.9414 496.525 36.3732 479.541 47.6023C473.293 51.7346 467.378 56.342 461.54 61.0632ZM144.785 116.011C138.658 122.903 134.784 131.358 135.137 142.102C135.495 152.896 139.635 162.739 141.292 172.918C142.185 175.582 142.786 178.204 143.004 180.886C145.562 170.78 141.761 159.695 142.145 149.077C142.453 140.53 145.221 132.633 149.331 125.205C157.047 111.259 168.774 101.529 181.975 93.7027C176.482 95.6582 171.087 97.835 165.966 100.404C158.237 104.524 150.878 109.373 145.284 115.475C145.12 115.653 144.949 115.828 144.785 116.011ZM189.009 91.3067C168.335 103.387 147.83 119.467 146.23 144.898C145.702 153.286 147.627 161.506 148.33 169.476C151.67 155.727 152.799 141.348 158.647 128.143C164.573 114.764 175.944 99.9204 189.431 91.1686C189.289 91.2133 189.149 91.262 189.009 91.3067ZM150.421 172.187C161.448 143.771 170.983 112.835 192.735 91.7473C174.73 103.5 160.132 123.835 155.557 143.789C153.394 153.223 152.395 162.842 150.421 172.187ZM304.137 199.419C305.647 198.432 307.154 197.441 308.665 196.454C294.254 201.965 278.976 205.068 263.527 202.041C253.868 200.146 246.074 195.608 237.796 190.548C234.063 188.265 230.262 186.316 226.406 184.563C234.843 190.2 242.833 196.582 251.622 202.343C259.817 207.716 267.852 210.573 276.212 210.38C282.925 208.132 289.535 205.478 296.033 202.676C298.398 201.653 301.223 200.607 304.137 199.419ZM302.057 195.382C289.541 197.695 276.815 197.817 264.12 194.564C254.883 192.198 247.022 187.569 238.433 183.623C233.117 181.18 227.756 179.465 222.294 178.173C230.956 182.153 239.193 186.882 247.898 192.497C266.435 204.449 286.322 201.574 305.686 195.504C304.478 195.496 303.27 195.459 302.057 195.382ZM227.88 188.107C228.329 188.588 228.786 189.067 229.228 189.548C239.857 201.062 249.955 210.065 263.694 212.916C265.314 212.827 266.973 212.644 268.691 212.336C266.348 211.936 263.99 211.341 261.61 210.409C253.005 207.04 245.678 201.009 238.415 195.455C234.969 192.82 231.45 190.403 227.88 188.107ZM296.971 194.879C288.485 193.782 280.019 191.469 271.936 189.534C261.295 186.986 250.763 184.068 240.378 180.695C243.908 182.476 247.433 184.395 251.021 186.393C265.487 194.446 281.238 196.554 296.971 194.879ZM250.946 211.229C248.779 210.187 246.645 209.008 244.584 207.58C237.513 202.688 232.029 195.981 225.742 190.202C223.585 188.218 221.429 186.521 219.234 184.998C223.232 188.807 227.001 192.925 230.65 196.796C237.209 203.754 243.704 208.75 250.946 211.229ZM259.622 183.168C249.565 180.364 239.513 177.55 229.235 175.69C230.349 176.118 231.45 176.599 232.553 177.07C243.26 180.5 254.024 183.741 264.975 186.34C279.778 189.851 296.461 194.284 311.845 191.969C294.11 192.363 276.907 187.987 259.622 183.168ZM264.835 138.085C262.729 139.135 260.627 140.191 258.528 141.251C263.574 142.693 268.157 145.627 273.507 146.289C279.469 147.026 284.444 143.651 290.231 143.139C290.871 143.083 291.511 143.07 292.15 143.078C283.735 139.017 273.972 136.646 264.835 138.085ZM342.696 94.9028C342.984 94.6632 343.28 94.4317 343.567 94.1881C345.949 79.8542 352.126 67.9407 362.004 56.8903C370.537 47.3465 379.335 37.9469 388.256 28.6834C364.63 44.3453 343.603 61.6662 342.61 94.0033C342.643 94.3038 342.673 94.6023 342.696 94.9028ZM340.054 131.725C346.066 139.08 351.295 147.481 358.364 153.638C368.112 162.127 380.089 167.679 392.843 169.797C398.728 170.774 404.746 170.969 410.692 170.41C382.934 170.506 362.847 147.753 340.054 131.725ZM360.266 143.304C376.348 156.953 391.115 165.177 409.199 166.489C406.48 166.075 403.776 165.565 401.12 164.854C392.486 162.546 384.373 158.688 377.025 153.611C368.498 147.722 360.626 141.98 352.57 136.749C355.145 138.932 357.704 141.129 360.266 143.304ZM416.861 164.607C403.522 159.031 392.536 149.006 380.335 140.772C363.109 129.149 345.185 121.038 325.135 117.424C343.855 124.866 358.792 136.116 375.102 148.581C387.34 157.934 401.619 163.445 416.861 164.607ZM395.665 23.8506C386.17 34.1558 376.48 44.2844 367 54.5998C359.493 62.7668 352.887 70.9764 348.99 81.4604C348.946 81.5802 348.875 81.8442 348.789 82.1914C354.116 74.2254 363.204 67.1387 368.847 61.1322C380.381 48.8512 390.445 35.3255 399.682 21.2616C398.344 22.1246 397.004 22.9876 395.665 23.8506ZM353.561 85.0891C359.141 79.6674 364.522 73.996 369.859 68.3448C369.172 68.8789 368.472 69.3967 367.771 69.9185C362.774 74.7148 357.878 79.5699 353.561 85.0891ZM399.249 27.9361C392.321 37.354 384.893 46.3637 376.887 54.9632C368.648 63.8125 358.745 72.0973 352.036 82.2158C360.886 71.6039 371.897 63.6034 382.542 54.1998C389.322 46.313 394.932 37.5428 399.249 27.9361ZM381.496 170.288C378.235 169.275 375.01 168.024 371.849 166.467C363.06 162.138 355.218 155.995 348.824 148.587C342.683 141.472 337.942 133.644 331.341 127.882C336.878 134.784 341.759 142.374 347.289 149.444C356.577 161.321 367.134 167.795 381.496 170.288ZM380.621 138.818C394.439 148.803 408.158 161.025 424.27 164.757C425.038 164.708 425.801 164.664 426.551 164.641C411.538 157.666 396.254 147.842 380.621 138.818ZM377.278 96.4258C381.031 100.365 384.66 104.345 389.62 107.206C395.988 110.88 403.075 111.864 410.231 111.456C400.151 104.715 389.342 97.5974 377.278 96.4258ZM391.326 86.4292C392.656 86.2485 393.978 86.0454 395.312 85.885C395.452 85.8688 395.594 85.8566 395.734 85.8404C397.629 85.3083 399.511 84.7499 401.31 83.9884C410.726 80.0085 411.323 74.3594 415.494 66.5477C418.128 61.6155 421.243 57.5441 425.123 53.8911C416.022 57.5319 408.082 69.5611 402.143 75.9087C398.551 79.7465 395.194 83.3346 391.326 86.4292ZM398.671 35.3275C397.603 37.1611 396.504 38.9724 395.343 40.737C396.553 39.0191 397.67 37.2241 398.671 35.3275ZM340.316 68.6981C338.393 76.057 340.6 82.6889 341.932 89.5319C342.117 68.9926 353.73 51.361 369.237 37.3987C368.326 37.9469 367.414 38.5013 366.508 39.0658C355.308 46.051 343.825 55.2577 340.316 68.6981ZM305.239 111.028C305.686 110.843 306.135 110.666 306.584 110.481C306.657 110.386 306.718 110.28 306.801 110.193C308.143 106.749 309.967 103.46 311.299 100.014C312.631 96.572 313.697 93.0449 314.582 89.471C312.223 92.3199 309.918 95.246 308.283 98.5031C306.24 102.574 305.448 106.696 305.239 111.028ZM245.569 123.997C245.861 124.899 246.109 125.825 246.285 126.797C246.385 126.552 246.511 126.31 246.602 126.064C247.869 108.934 239.507 91.4082 245.65 73.7644C247.934 67.1995 251.396 61.3231 255.61 55.9867C246.492 63.8512 238.845 73.0619 236.21 84.3316C232.782 98.962 246.07 110.347 245.569 123.997ZM256.899 107.096C257.056 104.794 257.151 102.339 257.287 99.5955C257.722 90.8843 259.525 82.5345 262.719 74.3899C267.698 61.6946 275.686 49.3913 285.08 38.8099C271.396 51.3874 258.962 65.6482 255.902 84.5794C254.666 92.2265 256.503 99.6422 256.899 107.096ZM252.428 97.1142C251.941 88.8619 253.206 80.9892 256.166 73.2649C258.899 66.1375 262.782 59.7311 267.403 53.885C258.806 63.1201 252.282 73.8518 250.548 86.3358C248.97 97.6929 252.822 109.99 251.445 121.085C254.804 111.812 252.976 106.392 252.428 97.1142ZM245.721 88.3034C245.077 96.8664 247.508 106.372 248.428 115.582C248.608 107.397 246.673 98.8929 247.364 90.267C248.013 82.1426 250.442 74.4264 254.467 67.3701C261.178 55.6009 271.322 46.0754 282.588 38.3774C285.34 36.0341 288.176 33.7843 291.066 31.6257C269.879 45.5556 247.802 60.6204 245.721 88.3034ZM251.173 129.38C251.701 128.637 252.223 127.892 252.741 127.14C252.663 127.236 252.57 127.323 252.491 127.417C252.213 127.782 251.943 128.152 251.66 128.513C251.502 128.803 251.335 129.092 251.173 129.38ZM259.624 108.624C265.836 92.2144 266.817 73.4883 275.018 57.9218C268.997 66.6472 264.1 76.0854 261.482 87.2089C259.856 94.115 260.25 101.504 259.624 108.624ZM279.823 51.83C267.302 70.9196 268.863 96.0745 259.494 116.214C260.577 114.214 261.612 112.189 262.532 110.096C268.041 97.5344 268.295 84.1001 271.755 71.0293C273.572 64.1638 276.385 57.8203 279.823 51.83ZM240.575 114.837C238.226 108.435 234.094 102.434 233.026 95.246C232.045 88.6527 233.686 82.2706 236.616 76.3697C238.52 72.5339 240.888 69.023 243.566 65.7538C235.803 73.5756 229.866 82.8756 230.26 94.3931C230.554 103.039 236.035 108.621 240.575 114.837ZM170.354 131.516C178.299 116.277 188.101 102.274 199.358 89.404C172.388 114.122 163.58 148.206 148.419 180.149C148.241 180.752 148.064 181.355 147.871 181.956C158.391 167.512 162.345 146.878 170.354 131.516Z" fill="#713600"/>
</svg>
