<svg width="31" height="24" viewBox="0 0 31 24" fill="none" xmlns="http://www.w3.org/2000/svg">
<path d="M9.83892 14.9942C8.96203 15.0368 8.12222 15.3688 7.44519 15.9404C6.76815 16.5121 6.2903 17.2926 6.08315 18.1653C5.99254 18.5336 5.59192 18.6921 5.24377 18.636C4.86461 18.5751 4.67146 18.0628 4.81454 17.6237C5.32246 16.0358 6.35738 14.8186 7.70946 14.16C7.11441 13.6713 6.68249 13.0056 6.47343 12.2549C6.26438 11.5041 6.28852 10.7055 6.54252 9.96947C6.79652 9.2334 7.26783 8.59624 7.89126 8.14612C8.51469 7.69599 9.25945 7.45513 10.0225 7.45685C12.059 7.45685 13.7115 9.14971 13.7115 11.228C13.7115 12.3793 13.2036 13.4111 12.4071 14.1063C13.7998 14.743 14.8585 15.9748 15.4285 17.5628C15.5858 18.0018 15.4833 18.4385 15.1256 18.636C15.0261 18.6728 14.9201 18.6878 14.8146 18.6803C14.709 18.6728 14.6062 18.6428 14.5126 18.5923C14.419 18.5418 14.3368 18.4718 14.2711 18.387C14.2054 18.3021 14.1578 18.2042 14.1312 18.0994C13.6543 16.226 12.1758 15.0576 10.3039 14.9893C10.1492 15.0009 9.99386 15.0025 9.83892 14.9942ZM28.954 19.4654V15.8992C28.954 15.3528 29.4452 14.9186 30.0151 14.9186C30.1434 14.9143 30.2712 14.9366 30.3908 14.984C30.5105 15.0314 30.6195 15.1031 30.7115 15.1946C30.8034 15.2862 30.8764 15.3957 30.9259 15.5168C30.9755 15.6379 31.0007 15.7679 31 15.8992V20.3411C31 21.3115 30.6231 22.2422 29.9523 22.9283C29.2815 23.6145 28.3717 24 27.4231 24H4.43777C1.99115 24 0 22.1462 0 19.8532V3.66379C0 2.69338 0.376853 1.76273 1.04766 1.07655C1.71846 0.390369 2.62826 0.00487856 3.57692 0.00487855L26.5598 0C29.0088 0 31 1.85385 31 4.1492L30.9952 11.2719C30.9785 11.8012 30.566 12.1817 30.0151 12.1817C29.4595 12.1817 28.9731 11.8012 28.954 11.267L28.9468 4.1492C28.9468 2.9442 27.8738 2.10265 26.5622 2.10265H4.43538C3.80294 2.10265 3.19641 2.35965 2.74921 2.8171C2.302 3.27455 2.05077 3.89499 2.05077 4.54192V19.8557C2.05077 21.0582 3.12384 21.9071 4.43538 21.9071H26.567C27.1994 21.9071 27.806 21.6501 28.2532 21.1927C28.7004 20.7352 28.9516 20.1148 28.9516 19.4678L28.954 19.4654ZM10.0249 9.1058C9.4919 9.13195 8.98917 9.36695 8.62099 9.76207C8.25281 10.1572 8.04742 10.6821 8.04742 11.228C8.04742 11.7738 8.25281 12.2987 8.62099 12.6939C8.98917 13.089 9.4919 13.324 10.0249 13.3501C10.5579 13.324 11.0607 13.089 11.4288 12.6939C11.797 12.2987 12.0024 11.7738 12.0024 11.228C12.0024 10.6821 11.797 10.1572 11.4288 9.76207C11.0607 9.36695 10.5579 9.13195 10.0249 9.1058ZM24.3803 18.5507H18.9577C18.321 18.5507 17.7892 18.136 17.7892 17.5993C17.7892 17.0627 18.321 16.6505 18.9577 16.6505H24.3755C25.0146 16.6505 25.544 17.0627 25.544 17.6018C25.544 18.1384 25.0122 18.5507 24.3755 18.5507H24.3803ZM24.3803 9.35461H18.9577C18.321 9.35461 17.7892 8.94237 17.7892 8.40573C17.7892 7.86909 18.321 7.45685 18.9577 7.45685H24.3755C25.0146 7.45685 25.544 7.86909 25.544 8.40817C25.544 8.94481 25.0122 9.35461 24.3755 9.35461H24.3803ZM24.3803 13.5745H18.9577C18.321 13.5745 17.7892 13.1648 17.7892 12.6257C17.7892 12.089 18.321 11.6768 18.9577 11.6768H24.3755C25.0122 11.6768 25.544 12.089 25.544 12.6281C25.544 13.1648 25.0146 13.5745 24.3755 13.5745H24.3803Z" fill="#686767"/>
</svg>
