<svg width="21" height="26" viewBox="0 0 21 26" fill="none" xmlns="http://www.w3.org/2000/svg">
<path d="M10.424 7.08937C10.894 7.08937 11.3447 7.27607 11.677 7.6084C12.0094 7.94074 12.1961 8.39148 12.1961 8.86147C12.1961 9.33146 12.0094 9.7822 11.677 10.1145C11.3447 10.4469 10.894 10.6336 10.424 10.6336C9.95398 10.6336 9.50324 10.4469 9.17091 10.1145C8.83857 9.7822 8.65187 9.33146 8.65187 8.86147C8.65187 8.39148 8.83857 7.94074 9.17091 7.6084C9.50324 7.27607 9.95398 7.08937 10.424 7.08937ZM10.424 4.72656C9.60616 4.72656 8.80672 4.96907 8.12674 5.42342C7.44676 5.87777 6.91678 6.52355 6.60382 7.27911C6.29085 8.03467 6.20897 8.86606 6.36852 9.66815C6.52806 10.4702 6.92187 11.207 7.50015 11.7853C8.07843 12.3636 8.8152 12.7574 9.61729 12.9169C10.4194 13.0765 11.2508 12.9946 12.0063 12.6816C12.7619 12.3687 13.4077 11.8387 13.862 11.1587C14.3164 10.4787 14.5589 9.67928 14.5589 8.86147C14.5589 7.76483 14.1232 6.7131 13.3478 5.93765C12.5723 5.1622 11.5206 4.72656 10.424 4.72656Z" fill="#A5A5A5"/>
<path d="M10.5419 0C4.69398 0 0.5 4.78468 0.5 10.6326C0.5 16.4806 7.29307 23.2146 9.71494 25.6364C9.82008 25.751 9.94788 25.8425 10.0902 25.9051C10.2326 25.9677 10.3864 26 10.5419 26C10.6974 26 10.8512 25.9677 10.9936 25.9051C11.136 25.8425 11.2638 25.751 11.3689 25.6364C13.7908 23.2146 20.5838 16.5987 20.5838 10.6326C20.5838 4.66654 16.3899 0 10.5419 0ZM2.86281 10.6326C2.86281 5.90701 6.17073 2.36281 10.5419 2.36281C14.9131 2.36281 18.221 5.90701 18.221 10.6326C18.221 12.5819 17.2168 14.7085 15.9173 16.7168C14.2711 15.8119 12.4204 15.3441 10.5419 15.3582C8.66345 15.3441 6.81273 15.8119 5.16654 16.7168C3.867 14.7085 2.86281 12.5819 2.86281 10.6326ZM10.5419 23.1555C9.14499 21.7294 7.82394 20.2309 6.58422 18.6662C7.81059 18.0435 9.16655 17.719 10.5419 17.719C11.9173 17.719 13.2733 18.0435 14.4996 18.6662C13.2599 20.2309 11.9389 21.7294 10.5419 23.1555Z" fill="#A5A5A5"/>
</svg>
