<svg width="1440" height="392" viewBox="0 0 1440 392" fill="none" xmlns="http://www.w3.org/2000/svg">
<g opacity="0.04">
<path d="M845.01 111.096C845.88 112.442 846.864 113.44 847.888 114.279C825.283 158.281 811.794 202.839 812.543 254.794C795.095 269.641 776.257 282.533 754.408 292.779C749.646 295.011 752.296 302.463 757.149 301.033C767.72 297.921 777.792 293.256 787.415 287.501C794.607 289.526 803.499 288.628 810.292 287.924C815.813 287.352 821.149 286.112 826.374 284.402C826.739 285.295 827.19 286.189 827.763 287.076C837.317 301.877 857.982 285.359 848.412 270.532C840.22 257.842 823.917 268.182 825.45 280.733C820.302 281.784 815.1 282.481 809.849 282.735C805.422 282.949 800.967 282.239 796.542 281.597C813.425 269.965 828.855 255.165 842.982 239.586C863.503 236.104 883.882 227.745 900.249 213.55C909.813 224.357 927.265 209.476 918.566 195.998C909.689 182.244 890.843 196.817 898.269 210.655C883.947 220.28 868.212 224.502 852.071 229.268C854.662 226.252 857.227 223.232 859.728 220.219C873.827 203.242 887.212 186.334 900.941 169.999C909.417 169.39 918.408 166.056 926.878 164.97C931.849 164.332 936.702 163.549 941.471 162.346C941.776 163.328 942.178 164.314 942.81 165.296C950.049 176.509 965.702 163.995 958.451 152.763C952.461 143.484 940.749 150.458 940.978 159.502C934.247 160.328 927.452 160.217 920.575 160.317C916.94 160.369 912.757 160.323 908.714 160.873C924.644 142.423 941.303 124.871 960.281 109.006C968.775 116.5 982.619 104.052 975.309 92.725C967.347 80.3916 950.128 94.1547 958.102 106.511C958.236 106.719 958.394 106.864 958.535 107.058C930.732 125.554 907.709 152.535 885.261 178.715C885.401 174.709 885.285 170.616 885.663 167.033C887.832 146.524 895.456 128.248 907.955 113.41C916.682 122.355 931.901 109.062 924.149 97.0525C915.896 84.2689 898.051 98.5343 906.316 111.34C906.434 111.524 906.572 111.646 906.694 111.818C897.432 120.756 889.958 131.449 884.743 144C878.452 159.14 880.822 176.496 874.645 191.014C873.851 191.926 873.057 192.845 872.261 193.752C854.784 213.657 837.883 232.184 819.646 248.587C822.29 226.461 821.651 203.805 826.252 181.929C831.148 158.647 840.314 136.921 849.961 115.634C859.799 120.457 872.878 107.212 865.036 95.0618C855.769 80.7015 835.731 96.72 845.01 111.096Z" fill="#713600"/>
<path d="M594.987 111.096C594.118 112.442 593.133 113.44 592.11 114.279C614.717 158.281 628.204 202.839 627.454 254.794C644.903 269.641 663.741 282.533 685.59 292.779C690.352 295.011 687.702 302.463 682.849 301.033C672.278 297.921 662.206 293.256 652.585 287.501C645.393 289.526 636.501 288.628 629.708 287.924C624.189 287.352 618.851 286.112 613.626 284.402C613.261 285.295 612.81 286.189 612.237 287.076C602.683 301.877 582.018 285.359 591.588 270.532C599.78 257.842 616.083 268.182 614.55 280.733C619.698 281.784 624.9 282.481 630.151 282.735C634.578 282.949 639.033 282.239 643.457 281.597C626.575 269.965 611.145 255.165 597.018 239.586C576.497 236.104 556.118 227.745 539.751 213.55C530.187 224.357 512.734 209.476 521.435 195.998C530.313 182.244 549.159 196.817 541.735 210.655C556.057 220.28 571.792 224.502 587.933 229.268C585.34 226.252 582.777 223.232 580.276 220.219C566.177 203.242 552.792 186.334 539.063 169.999C530.587 169.39 521.596 166.056 513.126 164.97C508.155 164.332 503.302 163.549 498.532 162.346C498.228 163.328 497.826 164.314 497.194 165.296C489.955 176.509 474.302 163.995 481.551 152.763C487.541 143.484 499.253 150.458 499.024 159.502C505.755 160.328 512.55 160.217 519.427 160.317C523.062 160.369 527.245 160.323 531.288 160.873C515.358 142.423 498.699 124.871 479.721 109.006C471.227 116.5 457.383 104.052 464.693 92.725C472.655 80.3916 489.876 94.1547 481.9 106.511C481.766 106.719 481.608 106.864 481.467 107.058C509.27 125.554 532.293 152.535 554.741 178.715C554.601 174.709 554.719 170.616 554.339 167.033C552.17 146.524 544.546 128.248 532.047 113.41C523.32 122.355 508.101 109.062 515.853 97.0525C524.106 84.2689 541.953 98.5343 533.686 111.34C533.568 111.524 533.43 111.646 533.308 111.818C542.57 120.756 550.044 131.449 555.259 144C561.55 159.14 559.18 176.496 565.357 191.014C566.151 191.926 566.945 192.845 567.741 193.752C585.218 213.657 602.119 232.184 620.356 248.587C617.712 226.461 618.351 203.805 613.75 181.929C608.854 158.647 599.688 136.921 590.041 115.634C580.205 120.457 567.124 107.212 574.966 95.0618C584.231 80.7015 604.269 96.72 594.987 111.096Z" fill="#713600"/>
<path d="M966.677 343.124C995.582 342.732 1005.23 386.555 1033.49 391.012C1046.99 393.138 1061.28 385.442 1073.33 379.834C1084.3 374.729 1100.03 370.037 1105.3 357.088C1106.14 355.02 1104.95 351.625 1102.48 352.066C1073.36 357.278 1046.45 344.854 1018.54 337.771C1010.77 335.799 997.925 332.729 985.89 332.58C998.963 325.246 1011.74 317.814 1024.14 310.722C1027.01 309.085 1029.87 307.449 1032.75 305.822C1038.97 307.582 1044.67 311.575 1051.04 312.414C1059.68 313.552 1066.98 307.725 1075.95 309.2C1077.34 309.428 1078.06 307.463 1076.82 306.628C1069.02 301.395 1058.43 296.905 1048.51 297.043C1061.98 289.668 1075.61 282.626 1089.45 276.254C1109.82 290.143 1116.84 319.02 1136.88 333.695C1147.56 341.515 1160.54 342.71 1172.97 343.694C1188.59 344.929 1203.24 344.277 1216.36 333.98C1218.38 332.396 1217.64 329.48 1215.53 328.607C1190.08 318.043 1167.94 300.357 1143.72 286.983C1131.06 279.995 1115.6 272.374 1100.58 271.304C1116.72 264.395 1133.2 258.529 1150.12 254.299C1160.04 267.881 1176.06 277.072 1191.69 272.571C1192.66 272.292 1192.62 270.876 1191.88 270.361C1181.43 263.094 1171.03 254.337 1159.06 252.22C1162.13 251.566 1165.21 250.96 1168.32 250.419C1178.85 248.587 1189.44 247.257 1200.06 246.2C1200.09 246.259 1200.12 246.318 1200.16 246.377C1213.54 266.216 1226.9 294.894 1248.38 305.243C1267.73 314.566 1295.19 314.527 1314.5 305.893C1316.62 304.945 1316.73 302.183 1314.93 300.798C1294.49 285.094 1273.16 270.915 1250.79 258.905C1240.17 253.206 1228.94 247.798 1217.32 244.701C1237.97 243.153 1258.67 242.298 1279.31 240.742C1281.37 241.384 1283.48 241.905 1285.57 242.411C1294.98 248.137 1304.18 253.5 1315.63 251.781C1316.1 251.711 1316.49 251.392 1316.73 250.983C1321.24 254.659 1325.68 258.477 1330.45 261.742C1344.87 271.63 1361.16 279.493 1378.18 281.194C1400.35 283.409 1416.31 269.268 1437.33 265.621C1439.32 265.277 1441.18 262.174 1439.06 260.441C1400.95 229.288 1354.47 226.956 1309.55 234.428C1308.9 234.457 1308.24 234.464 1307.58 234.498C1307.27 234.514 1307.04 234.663 1306.87 234.874C1305.19 234.876 1303.51 234.899 1301.84 234.919C1303.2 234.295 1304.57 233.65 1305.93 233.01C1314.68 231.668 1323.46 230.462 1331.98 227.076C1345.89 221.545 1358.52 213.161 1371.08 204.606C1372.2 203.841 1371.66 201.683 1370.3 201.805C1354.83 203.19 1339.92 206.811 1325.59 213.623C1312.48 219.855 1300.55 229.279 1286.73 232.989C1280.63 232.84 1274.39 233.288 1268.04 233.605C1263.03 233.856 1258 234.134 1252.96 234.464C1261.73 232.1 1270.31 229.198 1278.47 225.237C1298.81 215.356 1314.08 197.335 1328.01 178.62C1329.63 176.439 1328.22 173.745 1325.9 173.503C1304.39 171.264 1279.51 177.638 1260.61 189.268C1249.17 196.308 1239.23 206.621 1229.27 215.955C1221.43 223.307 1213.36 230.508 1206.03 238.518C1204.69 238.778 1203.35 239.038 1202.02 239.303C1195.64 239.713 1189.28 240.217 1182.93 240.884C1185.23 239.599 1187.36 238.05 1189.11 235.987C1191 233.758 1191.82 231.503 1193 228.784C1197.26 218.937 1200.47 211.46 1208.7 204.922C1209.76 204.081 1209.29 202.201 1207.95 202.203C1199.69 202.219 1195.15 208.39 1189.83 214.774C1181.98 224.185 1174.54 235.525 1165.14 243.262C1152.71 245.361 1140.51 248.438 1128.5 252.236C1142.17 240.701 1153.88 224.465 1165.19 211.775C1172.95 203.077 1180.2 195.148 1184.14 183.472C1187.7 172.904 1189.48 161.231 1191.55 150.205C1192.23 146.592 1188 145.074 1186.32 148.026C1171.76 173.539 1143 179.032 1124.94 200.274C1119.36 206.827 1114.96 214.835 1113.16 223.699C1110.77 235.442 1116.25 245.155 1115.48 256.636C1106.16 260.022 1096.95 263.839 1087.83 267.949C1092.45 259.964 1094.85 249.119 1096.5 240.475C1096.78 239.027 1095.06 237.889 1094.15 239.093C1086.86 248.666 1079.6 258.611 1080.06 271.535C1068.01 277.231 1056.11 283.413 1044.36 289.87C1039.26 292.67 1034.18 295.507 1029.09 298.36C1039.9 283.619 1048.06 267.723 1051.26 248.123C1053.64 233.566 1055.68 219.966 1062.39 206.888C1068.95 194.107 1077.99 183.142 1086.81 172.293C1088.53 170.18 1086.61 166.391 1084.05 167.429C1067.54 174.13 1053.11 184.518 1039 196.057C1028.26 204.846 1016.84 213.863 1009.5 226.531C1003.72 236.5 1000.57 249.549 1003.9 261.217C1005.29 266.067 1007.69 269.738 1010.56 273.65C1018.4 284.348 1021.1 294.308 1015.34 306.112C987.194 322.013 959.058 337.927 930.26 350.81C937.674 339.843 941.173 324.899 946.068 312.29C956.666 284.988 971.713 260.586 990.382 239.369C992.323 237.163 990.095 233.324 987.494 234.288C961.777 243.816 931.974 250.628 914.889 276.326C908.667 285.682 904.376 296.939 904.46 308.727C904.579 325.693 918.846 340.233 914.119 357.131C914.064 357.328 914.038 357.513 914.013 357.699C872.137 374.455 828.619 383.7 781.434 376.16C778.257 375.654 777.097 380.721 780.289 381.635C843.905 399.873 907.916 374.523 966.677 343.124Z" fill="#FFF9E3"/>
<path d="M966.677 343.124C995.582 342.732 1005.23 386.555 1033.49 391.012C1046.99 393.138 1061.28 385.442 1073.33 379.834C1084.3 374.729 1100.03 370.037 1105.3 357.088C1106.14 355.02 1104.95 351.625 1102.48 352.066C1073.36 357.278 1046.45 344.854 1018.54 337.771C1010.77 335.799 997.925 332.729 985.89 332.58C998.963 325.246 1011.74 317.814 1024.14 310.722C1027.01 309.085 1029.87 307.449 1032.75 305.822C1038.97 307.582 1044.67 311.575 1051.04 312.414C1059.68 313.552 1066.98 307.725 1075.95 309.2C1077.34 309.428 1078.06 307.463 1076.82 306.628C1069.02 301.395 1058.43 296.905 1048.51 297.043C1061.98 289.668 1075.61 282.626 1089.45 276.254C1109.82 290.143 1116.84 319.02 1136.88 333.695C1147.56 341.515 1160.54 342.71 1172.97 343.694C1188.59 344.929 1203.24 344.277 1216.36 333.98C1218.38 332.396 1217.64 329.48 1215.53 328.607C1190.08 318.043 1167.94 300.357 1143.72 286.983C1131.06 279.995 1115.6 272.374 1100.58 271.304C1116.72 264.395 1133.2 258.529 1150.12 254.299C1160.04 267.881 1176.06 277.072 1191.69 272.571C1192.66 272.292 1192.62 270.876 1191.88 270.361C1181.43 263.094 1171.03 254.337 1159.06 252.22C1162.13 251.566 1165.21 250.96 1168.32 250.419C1178.85 248.587 1189.44 247.257 1200.06 246.2C1200.09 246.259 1200.12 246.318 1200.16 246.377C1213.54 266.216 1226.9 294.894 1248.38 305.243C1267.73 314.566 1295.19 314.527 1314.5 305.893C1316.62 304.945 1316.73 302.183 1314.93 300.798C1294.49 285.094 1273.16 270.915 1250.79 258.905C1240.17 253.206 1228.94 247.798 1217.32 244.701C1237.97 243.153 1258.67 242.298 1279.31 240.742C1281.37 241.384 1283.48 241.905 1285.57 242.411C1294.98 248.137 1304.18 253.5 1315.63 251.781C1316.1 251.711 1316.49 251.392 1316.73 250.983C1321.24 254.659 1325.68 258.477 1330.45 261.742C1344.87 271.63 1361.16 279.493 1378.18 281.194C1400.35 283.409 1416.31 269.268 1437.33 265.621C1439.32 265.277 1441.18 262.174 1439.06 260.441C1400.95 229.288 1354.47 226.956 1309.55 234.428C1308.9 234.457 1308.24 234.464 1307.58 234.498C1307.27 234.514 1307.04 234.663 1306.87 234.874C1305.19 234.876 1303.51 234.899 1301.84 234.919C1303.2 234.295 1304.57 233.65 1305.93 233.01C1314.68 231.668 1323.46 230.462 1331.98 227.076C1345.89 221.545 1358.52 213.161 1371.08 204.606C1372.2 203.841 1371.66 201.683 1370.3 201.805C1354.83 203.19 1339.92 206.811 1325.59 213.623C1312.48 219.855 1300.55 229.279 1286.73 232.989C1280.63 232.84 1274.39 233.288 1268.04 233.605C1263.03 233.856 1258 234.134 1252.96 234.464C1261.73 232.1 1270.31 229.198 1278.47 225.237C1298.81 215.356 1314.08 197.335 1328.01 178.62C1329.63 176.439 1328.22 173.745 1325.9 173.503C1304.39 171.264 1279.51 177.638 1260.61 189.268C1249.17 196.308 1239.23 206.621 1229.27 215.955C1221.43 223.307 1213.36 230.508 1206.03 238.518C1204.69 238.778 1203.35 239.038 1202.02 239.303C1195.64 239.713 1189.28 240.217 1182.93 240.884C1185.23 239.599 1187.36 238.05 1189.11 235.987C1191 233.758 1191.82 231.503 1193 228.784C1197.26 218.937 1200.47 211.46 1208.7 204.922C1209.76 204.081 1209.29 202.201 1207.95 202.203C1199.69 202.219 1195.15 208.39 1189.83 214.774C1181.98 224.185 1174.54 235.525 1165.14 243.262C1152.71 245.361 1140.51 248.438 1128.5 252.236C1142.17 240.701 1153.88 224.465 1165.19 211.775C1172.95 203.077 1180.2 195.148 1184.14 183.472C1187.7 172.904 1189.48 161.231 1191.55 150.205C1192.23 146.592 1188 145.074 1186.32 148.026C1171.76 173.539 1143 179.032 1124.94 200.274C1119.36 206.827 1114.96 214.835 1113.16 223.699C1110.77 235.442 1116.25 245.155 1115.48 256.636C1106.16 260.022 1096.95 263.839 1087.83 267.949C1092.45 259.964 1094.85 249.119 1096.5 240.475C1096.78 239.027 1095.06 237.889 1094.15 239.093C1086.86 248.666 1079.6 258.611 1080.06 271.535C1068.01 277.231 1056.11 283.413 1044.36 289.87C1039.26 292.67 1034.18 295.507 1029.09 298.36C1039.9 283.619 1048.06 267.723 1051.26 248.123C1053.64 233.566 1055.68 219.966 1062.39 206.888C1068.95 194.107 1077.99 183.142 1086.81 172.293C1088.53 170.18 1086.61 166.391 1084.05 167.429C1067.54 174.13 1053.11 184.518 1039 196.057C1028.26 204.846 1016.84 213.863 1009.5 226.531C1003.72 236.5 1000.57 249.549 1003.9 261.217C1005.29 266.067 1007.69 269.738 1010.56 273.65C1018.4 284.348 1021.1 294.308 1015.34 306.112C987.194 322.013 959.058 337.927 930.26 350.81C937.674 339.843 941.173 324.899 946.068 312.29C956.666 284.988 971.713 260.586 990.382 239.369C992.323 237.163 990.095 233.324 987.494 234.288C961.777 243.816 931.974 250.628 914.889 276.326C908.667 285.682 904.376 296.939 904.46 308.727C904.579 325.693 918.846 340.233 914.119 357.131C914.064 357.328 914.038 357.513 914.013 357.699C872.137 374.455 828.619 383.7 781.434 376.16C778.257 375.654 777.097 380.721 780.289 381.635C843.905 399.873 907.916 374.523 966.677 343.124ZM1305.73 303.278C1304.97 303.506 1304.18 303.703 1303.41 303.909C1302.96 303.857 1302.56 303.823 1302.26 303.834C1297.32 304.015 1292.49 304.436 1287.53 304.139C1275.37 303.413 1261.62 301.929 1250.6 295.717C1239.45 289.438 1231.6 279.724 1224.53 269.094C1247.44 289.718 1276.06 304.391 1305.15 302.999C1305.34 303.09 1305.53 303.187 1305.73 303.278ZM1231.11 232.021C1261.76 219.376 1289.96 205.013 1317.25 182.841C1316.31 183.683 1315.31 184.649 1314.64 185.47C1311.01 189.859 1307.13 193.826 1303.03 197.65C1294.6 205.52 1285.97 211.795 1275.92 216.824C1261.7 223.947 1246.45 228.384 1231.11 232.021ZM1224.4 231.575C1251.95 213.311 1279.49 196.152 1310.05 185.192C1297.65 195.132 1285.02 204.728 1271.25 212.213C1256.39 220.296 1240.26 225.85 1224.4 231.575ZM1312.69 183.065C1287.55 190.63 1263.75 203.201 1240.88 217.335C1249.02 210.985 1257.46 205.081 1265.98 199.376C1281.56 188.929 1297.74 186.533 1314.49 181.615C1313.89 182.099 1313.29 182.581 1312.69 183.065ZM1246.99 298.117C1242.4 295.328 1238.14 291.367 1234.14 286.755C1238.88 291.322 1243.96 295.285 1249.38 298.283C1256.97 302.479 1265.83 305.135 1274.98 306.374C1264.75 305.558 1254.86 302.897 1246.99 298.117ZM1306.35 300.898C1305.2 300.773 1304.03 300.676 1302.89 300.527C1298.92 299.583 1294.87 298.018 1290.81 296.03C1293.41 297.333 1296.02 298.595 1298.63 299.857C1266.61 294.638 1241.11 278.998 1217.41 255.021C1240.88 268.933 1264.52 282.719 1288.65 294.926C1276.95 288.815 1265.37 279.859 1256.08 274.258C1242.6 266.139 1228.74 258.269 1215.53 249.474C1248.14 260.05 1278.27 279.631 1306.35 300.898ZM1414.4 263.601C1392.87 266.25 1370.77 264.836 1351.17 253.722C1343.55 249.401 1336.8 245.298 1329.81 242.205C1344.65 245.603 1359.54 248.7 1374.47 251.623C1385.7 253.822 1396.94 255.919 1408.22 257.805C1409.93 258.091 1426.2 261.52 1426.43 260.905C1425.53 263.352 1416.02 263.402 1414.4 263.601ZM1303.3 245.766C1299.11 243.167 1294.23 241.972 1289.63 240.62C1289.4 240.552 1289.17 240.475 1288.94 240.405C1289.02 240.373 1289.1 240.344 1289.17 240.312C1289.18 240.31 1289.19 240.31 1289.2 240.307C1296.48 241.837 1303.24 245.33 1310.13 249.028C1305.36 248.92 1300.84 247.669 1296.49 245.37C1298.7 245.913 1300.92 246.334 1303.16 246.409C1303.48 246.42 1303.55 245.924 1303.3 245.766ZM1305.45 242.904C1305.68 243.027 1305.91 243.147 1306.13 243.275C1305.91 243.153 1305.68 243.027 1305.45 242.904ZM1372.98 263.929C1388.5 267.386 1404.07 266.714 1419.53 264.155C1398.37 271.032 1377.21 276.364 1356.38 263.986C1343.93 256.584 1332.44 247.748 1319.6 241.823C1338.13 246.637 1353.64 259.624 1372.98 263.929ZM1423.77 259.409C1405.65 256.437 1387.57 253.019 1369.6 249.11C1359.28 246.863 1348.98 244.425 1338.69 242.027C1334.77 241.111 1330.84 240.165 1326.92 239.217C1359.53 240.307 1391.46 249.028 1422.93 259.016C1423.21 259.147 1423.49 259.278 1423.77 259.409ZM1320.62 236.389C1323.33 236.141 1326.03 235.917 1328.74 235.733C1353.42 235.613 1378.86 241.475 1402.67 250.465C1375.88 241.97 1348.48 236.613 1320.62 236.389ZM1370.75 273.32C1351.51 268.983 1336.55 257.419 1320.81 245.775C1336.73 253.376 1351.2 264.886 1368.09 270.397C1382.7 275.163 1397.56 272.091 1412.27 268.422C1410.74 269.087 1409.19 269.745 1407.61 270.376C1395.52 275.206 1383.39 276.168 1370.75 273.32ZM1429.59 260.045C1429.01 259.817 1428.43 259.595 1427.85 259.369C1400.63 245.773 1371.84 237.767 1342.38 235.143C1373.22 234.595 1403.57 239.991 1429.59 260.045ZM1359.91 206.397C1371.78 205.303 1358.62 209.675 1354.16 212.404C1346.02 217.378 1337.58 221.839 1328.75 225.051C1324.52 226.585 1320.21 227.522 1315.87 228.236C1326.39 223.052 1336.85 217.652 1347.34 212.824C1347.72 212.648 1347.56 211.99 1347.14 212.123C1337.9 215.129 1328.27 218.38 1318.78 222.106C1331.97 215.152 1345.16 207.755 1359.91 206.397ZM1245.74 230.248C1264.98 223.588 1283.94 215.102 1300.08 202.5C1290.57 211.587 1279.95 219.05 1267.42 223.685C1260.37 226.296 1253.1 228.399 1245.74 230.248ZM1257.54 199.371C1274.52 186.861 1296.22 180.812 1316.79 179.756C1316.47 180.011 1316.16 180.265 1315.85 180.518C1298.15 185.029 1281.54 187.658 1265.05 197.758C1256.41 203.047 1247.83 208.47 1239.53 214.367C1245.37 209.108 1251.29 203.975 1257.54 199.371ZM923.279 274.982C928.875 268.184 936.234 262.782 943.963 258.192C949.084 255.333 954.477 252.908 959.972 250.727C946.771 259.446 935.044 270.284 927.328 285.823C923.218 294.098 920.448 302.895 920.142 312.417C919.758 324.246 923.559 336.595 921.001 347.854C920.783 344.868 920.182 341.945 919.289 338.977C917.634 327.637 913.492 316.674 913.136 304.646C912.781 292.677 916.657 283.257 922.784 275.579C922.942 275.378 923.114 275.184 923.279 274.982ZM967.424 247.906C953.937 257.656 942.566 274.193 936.64 289.098C930.792 303.809 929.663 319.83 926.323 335.145C925.62 326.266 923.695 317.106 924.223 307.763C925.825 279.434 946.33 261.518 967.002 248.06C967.144 248.01 967.284 247.956 967.424 247.906ZM933.552 306.528C938.127 284.298 952.725 261.647 970.73 248.551C948.98 272.044 939.443 306.508 928.416 338.165C930.39 327.754 931.389 317.038 933.552 306.528ZM1074.03 372.129C1067.53 375.253 1060.92 378.21 1054.21 380.712C1045.85 380.927 1037.81 377.744 1029.61 371.758C1020.83 365.34 1012.84 358.23 1004.4 351.951C1008.26 353.903 1012.06 356.075 1015.79 358.617C1024.07 364.257 1031.86 369.313 1041.52 371.421C1056.97 374.794 1072.25 371.337 1086.66 365.198C1085.15 366.297 1083.64 367.401 1082.13 368.501C1079.22 369.826 1076.39 370.991 1074.03 372.129ZM1083.68 364.141C1064.32 370.905 1044.43 374.106 1025.89 360.791C1017.19 354.539 1008.95 349.268 1000.29 344.834C1005.75 346.273 1011.11 348.184 1016.43 350.906C1025.02 355.301 1032.88 360.459 1042.12 363.094C1054.81 366.716 1067.54 366.58 1080.05 364.006C1081.26 364.092 1082.47 364.132 1083.68 364.141ZM1016.41 364.087C1023.67 370.274 1031 376.993 1039.6 380.746C1041.98 381.784 1044.34 382.447 1046.68 382.893C1044.97 383.237 1043.31 383.44 1041.69 383.54C1027.95 380.364 1017.85 370.333 1007.22 357.507C1006.78 356.973 1006.32 356.436 1005.87 355.9C1009.44 358.459 1012.96 361.151 1016.41 364.087ZM1029.01 353.989C1025.43 351.763 1021.9 349.625 1018.37 347.641C1028.76 351.401 1039.29 354.649 1049.93 357.488C1058.01 359.644 1066.48 362.221 1074.96 363.442C1059.23 365.311 1043.48 362.963 1029.01 353.989ZM1008.64 365.58C1005 361.269 1001.23 356.681 997.227 352.437C999.422 354.134 1001.58 356.025 1003.73 358.235C1010.02 364.673 1015.51 372.145 1022.58 377.595C1024.64 379.185 1026.77 380.497 1028.94 381.66C1021.7 378.898 1015.2 373.333 1008.64 365.58ZM1089.84 360.203C1074.46 362.782 1057.77 357.844 1042.97 353.932C1032.02 351.039 1021.25 347.426 1010.55 343.605C1009.44 343.081 1008.34 342.547 1007.23 342.067C1017.51 344.139 1027.56 347.277 1037.62 350.399C1054.9 355.767 1072.1 360.642 1089.84 360.203ZM1070.14 305.734C1069.5 305.725 1068.87 305.739 1068.22 305.802C1062.44 306.372 1057.46 310.132 1051.5 309.311C1046.15 308.573 1041.57 305.307 1036.52 303.698C1038.62 302.517 1040.72 301.341 1042.83 300.172C1051.97 298.57 1061.73 301.212 1070.14 305.734ZM1120.61 251.064C1121.6 215.041 1142.63 195.743 1166.25 178.294C1157.33 188.614 1148.53 199.086 1140 209.718C1130.12 222.029 1123.94 235.301 1121.56 251.27C1121.28 251.541 1120.98 251.797 1120.69 252.066C1120.67 251.731 1120.64 251.399 1120.61 251.064ZM1188.68 336.185C1182.74 336.808 1176.72 336.59 1170.84 335.502C1158.08 333.143 1146.11 326.956 1136.36 317.5C1129.29 310.641 1124.06 301.282 1118.05 293.089C1140.84 310.944 1160.93 336.292 1188.68 336.185ZM1130.57 298.685C1138.62 304.513 1146.49 310.91 1155.02 317.47C1162.37 323.124 1170.48 327.424 1179.11 329.996C1181.77 330.788 1184.48 331.353 1187.19 331.817C1169.11 330.354 1154.34 321.192 1138.26 305.988C1135.7 303.565 1133.14 301.117 1130.57 298.685ZM1153.1 311.867C1136.79 297.979 1121.85 285.447 1103.13 277.156C1123.18 281.183 1141.1 290.216 1158.33 303.167C1170.53 312.34 1181.52 323.506 1194.86 329.72C1179.61 328.426 1165.34 322.287 1153.1 311.867ZM1177.68 170.024C1168.44 185.692 1158.38 200.76 1146.84 214.442C1141.2 221.136 1132.11 229.031 1126.78 237.903C1126.87 237.516 1126.94 237.222 1126.99 237.088C1130.88 225.409 1137.49 216.263 1144.99 207.164C1154.48 195.672 1164.17 184.389 1173.66 172.908C1175 171.949 1176.34 170.987 1177.68 170.024ZM1145.76 224.23C1146.46 223.651 1147.17 223.072 1147.85 222.477C1142.52 228.773 1137.13 235.091 1131.55 241.131C1135.87 234.985 1140.77 229.576 1145.76 224.23ZM1160.54 206.721C1149.89 217.197 1138.88 226.11 1130.03 237.932C1136.74 226.662 1146.64 217.43 1154.88 207.571C1162.88 197.991 1170.31 187.954 1177.24 177.462C1172.93 188.164 1167.32 197.935 1160.54 206.721ZM1125.28 312.826C1119.75 304.949 1114.87 296.491 1109.33 288.804C1115.94 295.224 1120.68 303.945 1126.82 311.872C1133.21 320.124 1141.05 326.969 1149.84 331.79C1153 333.525 1156.23 334.919 1159.49 336.047C1145.13 333.272 1134.57 326.06 1125.28 312.826ZM1204.55 329.759C1203.8 329.783 1203.03 329.833 1202.27 329.888C1186.15 325.73 1172.43 312.114 1158.62 300.99C1174.25 311.044 1189.53 321.988 1204.55 329.759ZM1188.22 270.508C1181.07 270.962 1173.98 269.865 1167.61 265.773C1162.65 262.585 1159.02 258.152 1155.27 253.763C1167.34 255.068 1178.15 262.997 1188.22 270.508ZM1180.14 230.904C1186.08 223.832 1194.02 210.433 1203.12 206.375C1199.24 210.444 1196.12 214.98 1193.49 220.475C1189.32 229.178 1188.72 235.471 1179.31 239.905C1177.51 240.753 1175.62 241.375 1173.73 241.968C1173.59 241.986 1173.45 242 1173.31 242.018C1171.97 242.196 1170.65 242.423 1169.32 242.624C1173.19 239.179 1176.55 235.181 1180.14 230.904ZM1173.34 191.725C1174.5 189.757 1175.6 187.739 1176.67 185.698C1175.66 187.809 1174.55 189.809 1173.34 191.725ZM1144.5 189.863C1145.41 189.234 1146.32 188.619 1147.23 188.006C1131.72 203.558 1120.11 223.203 1119.93 246.085C1118.6 238.462 1116.39 231.073 1118.31 222.875C1121.82 207.899 1133.3 197.643 1144.5 189.863ZM1086.28 256.079C1087.91 252.451 1090.22 249.191 1092.58 246.017C1091.69 249.999 1090.62 253.928 1089.29 257.762C1087.96 261.601 1086.13 265.266 1084.79 269.103C1084.71 269.198 1084.65 269.318 1084.58 269.424C1084.13 269.63 1083.68 269.827 1083.23 270.033C1083.44 265.205 1084.23 260.613 1086.28 256.079ZM1014.2 240.289C1016.84 227.734 1024.48 217.473 1033.6 208.712C1029.39 214.657 1025.93 221.203 1023.64 228.517C1017.5 248.173 1025.86 267.698 1024.59 286.782C1024.5 287.055 1024.38 287.327 1024.28 287.598C1024.1 286.515 1023.85 285.481 1023.56 284.479C1024.07 269.272 1010.77 256.588 1014.2 240.289ZM1033.9 240.565C1036.96 219.475 1049.39 203.588 1063.07 189.576C1053.68 201.364 1045.69 215.068 1040.71 229.214C1037.52 238.29 1035.71 247.589 1035.28 257.294C1035.14 260.348 1035.05 263.085 1034.89 265.651C1034.5 257.346 1032.66 249.085 1033.9 240.565ZM1029.44 281.235C1030.81 268.874 1026.96 255.172 1028.54 242.522C1030.27 228.617 1036.8 216.659 1045.39 206.37C1040.77 212.883 1036.89 220.02 1034.16 227.96C1031.2 236.568 1029.93 245.336 1030.42 254.53C1030.97 264.866 1032.8 270.903 1029.44 281.235ZM1069.06 181.572C1066.17 183.979 1063.33 186.483 1060.58 189.094C1049.31 197.67 1039.17 208.28 1032.46 221.393C1028.43 229.257 1026.01 237.851 1025.36 246.902C1024.67 256.509 1026.6 265.986 1026.42 275.104C1025.5 264.843 1023.07 254.256 1023.71 244.714C1025.8 213.874 1047.87 197.091 1069.06 181.572ZM1029.65 289.51C1029.94 289.107 1030.21 288.693 1030.48 288.288C1030.56 288.182 1030.66 288.085 1030.73 287.981C1030.22 288.818 1029.69 289.648 1029.17 290.476C1029.33 290.155 1029.49 289.833 1029.65 289.51ZM1039.48 243.495C1042.09 231.103 1046.99 220.588 1053.01 210.867C1044.81 228.209 1043.83 249.071 1037.62 267.352C1038.24 259.421 1037.85 251.189 1039.48 243.495ZM1049.75 225.47C1046.29 240.034 1046.03 254.998 1040.53 268.992C1039.61 271.324 1038.57 273.58 1037.49 275.808C1046.86 253.369 1045.29 225.348 1057.82 204.081C1054.38 210.754 1051.57 217.821 1049.75 225.47ZM1008.25 251.496C1007.86 238.665 1013.8 228.304 1021.56 219.59C1018.88 223.235 1016.51 227.146 1014.61 231.417C1011.68 237.991 1010.04 245.101 1011.02 252.446C1012.09 260.454 1016.22 267.139 1018.57 274.272C1014.03 267.35 1008.55 261.131 1008.25 251.496ZM925.862 349.048C926.055 348.381 926.232 347.709 926.412 347.035C941.575 311.449 950.381 273.478 977.352 245.94C966.094 260.278 956.294 275.878 948.349 292.856C940.34 309.969 936.386 332.957 925.862 349.048Z" fill="#713600"/>
<path d="M659.712 381.64C662.904 380.727 661.743 375.657 658.567 376.166C611.38 383.706 567.865 374.46 525.988 357.704C525.964 357.519 525.939 357.333 525.882 357.136C521.155 340.238 535.422 325.697 535.542 308.733C535.625 296.947 531.335 285.69 525.113 276.331C508.025 250.633 478.223 243.822 452.505 234.293C449.904 233.33 447.678 237.169 449.618 239.374C468.285 260.591 483.333 284.993 493.931 312.296C498.825 324.905 502.326 339.847 509.739 350.816C480.941 337.933 452.806 322.018 424.664 306.118C418.895 294.313 421.6 284.353 429.442 273.655C432.311 269.742 434.709 266.07 436.096 261.222C439.434 249.554 436.275 236.506 430.502 226.536C423.165 213.868 411.741 204.851 400.997 196.062C386.893 184.523 372.455 174.133 355.951 167.435C353.392 166.396 351.467 170.185 353.187 172.298C362.016 183.148 371.05 194.112 377.611 206.894C384.324 219.971 386.365 233.574 388.739 248.129C391.937 267.728 400.098 283.625 410.909 298.365C405.824 295.51 400.735 292.673 395.641 289.875C383.89 283.417 371.994 277.236 359.935 271.54C360.398 258.616 353.144 248.672 345.853 239.098C344.935 237.895 343.223 239.035 343.499 240.48C345.154 249.124 347.548 259.967 352.166 267.955C343.052 263.844 333.842 260.03 324.515 256.641C323.752 245.161 329.234 235.447 326.842 223.704C325.037 214.841 320.637 206.833 315.063 200.279C296.999 179.037 268.237 173.545 253.684 148.032C251.999 145.077 247.769 146.595 248.447 150.21C250.514 161.236 252.297 172.909 255.861 183.478C259.796 195.151 267.052 203.082 274.806 211.78C286.119 224.471 297.829 240.707 311.499 252.241C299.488 248.443 287.29 245.369 274.861 243.267C265.458 235.531 258.022 224.19 250.171 214.78C244.843 208.396 240.311 202.225 232.052 202.209C230.714 202.207 230.237 204.086 231.297 204.928C239.527 211.466 242.739 218.942 246.997 228.789C248.173 231.509 249 233.764 250.89 235.992C252.638 238.053 254.771 239.605 257.069 240.89C250.718 240.222 244.354 239.718 237.984 239.309C236.65 239.044 235.309 238.784 233.967 238.524C226.641 230.513 218.567 223.313 210.725 215.961C200.769 206.627 190.827 196.314 179.387 189.274C160.488 177.644 135.612 171.269 114.1 173.509C111.781 173.751 110.374 176.445 111.994 178.626C125.914 197.341 141.184 215.361 161.53 225.242C169.685 229.203 178.268 232.108 187.038 234.47C182.002 234.139 176.971 233.861 171.963 233.61C165.614 233.291 159.372 232.846 153.272 232.995C139.447 229.285 127.52 219.861 114.41 213.628C100.085 206.817 85.1699 203.195 69.6968 201.811C68.3424 201.691 67.7961 203.847 68.9191 204.611C81.4762 213.167 94.1024 221.548 108.022 227.081C116.542 230.468 125.323 231.674 134.068 233.015C135.433 233.655 136.795 234.3 138.164 234.924C136.487 234.904 134.808 234.881 133.132 234.879C132.964 234.669 132.726 234.52 132.418 234.504C131.76 234.47 131.104 234.463 130.446 234.434C85.5272 226.962 39.0532 229.294 0.939074 260.446C-1.18086 262.179 0.679156 265.281 2.66507 265.627C23.6857 269.273 39.6542 283.414 61.8161 281.2C78.8365 279.498 95.1319 271.635 109.553 261.747C114.315 258.483 118.756 254.662 123.274 250.988C123.511 251.398 123.901 251.717 124.366 251.787C135.817 253.504 145.015 248.14 154.427 242.417C156.521 241.908 158.628 241.388 160.689 240.747C181.326 242.301 202.034 243.159 222.675 244.706C211.062 247.803 199.825 253.212 189.211 258.91C166.834 270.92 145.505 285.1 125.071 300.804C123.272 302.186 123.377 304.95 125.497 305.898C144.808 314.533 172.274 314.569 191.617 305.249C213.095 294.899 226.462 266.222 239.844 246.382C239.884 246.324 239.905 246.265 239.939 246.206C250.555 247.262 261.145 248.593 271.683 250.425C274.786 250.966 277.873 251.57 280.943 252.226C268.975 254.343 258.568 263.1 248.12 270.366C247.379 270.882 247.337 272.298 248.305 272.576C263.943 277.078 279.956 267.887 289.879 254.305C306.804 258.535 323.277 264.401 339.42 271.309C324.397 272.379 308.934 280.001 296.28 286.989C272.061 300.363 249.924 318.046 224.466 328.613C222.362 329.486 221.619 332.4 223.638 333.985C236.761 344.283 251.408 344.934 267.029 343.699C279.456 342.715 292.442 341.521 303.119 333.7C323.157 319.026 330.178 290.149 350.551 276.259C364.394 282.632 378.015 289.674 391.486 297.048C381.573 296.91 370.979 301.401 363.184 306.633C361.939 307.468 362.66 309.434 364.045 309.205C373.016 307.733 380.322 313.558 388.958 312.42C395.326 311.581 401.03 307.588 407.249 305.828C410.125 307.454 412.994 309.09 415.859 310.728C428.26 317.82 441.036 325.251 454.109 332.585C442.072 332.734 429.228 335.804 421.457 337.777C393.553 344.86 366.644 357.286 337.515 352.071C335.05 351.63 333.86 355.026 334.701 357.093C339.97 370.04 355.705 374.734 366.67 379.84C378.716 385.448 393.013 393.144 406.508 391.017C434.774 386.563 444.417 342.74 473.323 343.129C532.078 374.521 596.09 399.871 659.712 381.64Z" fill="#FFF9E3"/>
<path d="M659.712 381.64C662.904 380.727 661.743 375.657 658.567 376.166C611.38 383.706 567.865 374.46 525.988 357.704C525.964 357.519 525.939 357.333 525.882 357.136C521.155 340.238 535.422 325.697 535.542 308.733C535.625 296.947 531.335 285.69 525.113 276.331C508.025 250.633 478.223 243.822 452.505 234.293C449.904 233.33 447.678 237.169 449.618 239.374C468.285 260.591 483.333 284.993 493.931 312.296C498.825 324.905 502.326 339.847 509.739 350.816C480.941 337.933 452.806 322.018 424.664 306.118C418.895 294.313 421.6 284.353 429.442 273.655C432.311 269.742 434.709 266.07 436.096 261.222C439.434 249.554 436.275 236.506 430.502 226.536C423.165 213.868 411.741 204.851 400.997 196.062C386.893 184.523 372.455 174.133 355.951 167.435C353.392 166.396 351.467 170.185 353.187 172.298C362.016 183.148 371.05 194.112 377.611 206.894C384.324 219.971 386.365 233.574 388.739 248.129C391.937 267.728 400.098 283.625 410.909 298.365C405.824 295.51 400.735 292.673 395.641 289.875C383.89 283.417 371.994 277.236 359.935 271.54C360.398 258.616 353.144 248.672 345.853 239.098C344.935 237.895 343.223 239.035 343.499 240.48C345.154 249.124 347.548 259.967 352.166 267.955C343.052 263.844 333.842 260.03 324.515 256.641C323.752 245.161 329.234 235.447 326.842 223.704C325.037 214.841 320.637 206.833 315.063 200.279C296.999 179.037 268.237 173.545 253.684 148.032C251.999 145.077 247.769 146.595 248.447 150.21C250.514 161.236 252.297 172.909 255.861 183.478C259.796 195.151 267.052 203.082 274.806 211.78C286.119 224.471 297.829 240.707 311.499 252.241C299.488 248.443 287.29 245.369 274.861 243.267C265.458 235.531 258.022 224.19 250.171 214.78C244.843 208.396 240.311 202.225 232.052 202.209C230.714 202.207 230.237 204.086 231.297 204.928C239.527 211.466 242.739 218.942 246.997 228.789C248.173 231.509 249 233.764 250.89 235.992C252.638 238.053 254.771 239.605 257.069 240.89C250.718 240.222 244.354 239.718 237.984 239.309C236.65 239.044 235.309 238.784 233.967 238.524C226.641 230.513 218.567 223.313 210.725 215.961C200.769 206.627 190.827 196.314 179.387 189.274C160.488 177.644 135.612 171.269 114.1 173.509C111.781 173.751 110.374 176.445 111.994 178.626C125.914 197.341 141.184 215.361 161.53 225.242C169.685 229.203 178.268 232.108 187.038 234.47C182.002 234.139 176.971 233.861 171.963 233.61C165.614 233.291 159.372 232.846 153.272 232.995C139.447 229.285 127.52 219.861 114.41 213.628C100.085 206.817 85.1699 203.195 69.6968 201.811C68.3424 201.691 67.7961 203.847 68.9191 204.611C81.4762 213.167 94.1024 221.548 108.022 227.081C116.542 230.468 125.323 231.674 134.068 233.015C135.433 233.655 136.795 234.3 138.164 234.924C136.487 234.904 134.808 234.881 133.132 234.879C132.964 234.669 132.726 234.52 132.418 234.504C131.76 234.47 131.104 234.463 130.446 234.434C85.5272 226.962 39.0532 229.294 0.939074 260.446C-1.18086 262.179 0.679156 265.281 2.66507 265.627C23.6857 269.273 39.6542 283.414 61.8161 281.2C78.8365 279.498 95.1319 271.635 109.553 261.747C114.315 258.483 118.756 254.662 123.274 250.988C123.511 251.398 123.901 251.717 124.366 251.787C135.817 253.504 145.015 248.14 154.427 242.417C156.521 241.908 158.628 241.388 160.689 240.747C181.326 242.301 202.034 243.159 222.675 244.706C211.062 247.803 199.825 253.212 189.211 258.91C166.834 270.92 145.505 285.1 125.071 300.804C123.272 302.186 123.377 304.95 125.497 305.898C144.808 314.533 172.274 314.569 191.617 305.249C213.095 294.899 226.462 266.222 239.844 246.382C239.884 246.324 239.905 246.265 239.939 246.206C250.555 247.262 261.145 248.593 271.683 250.425C274.786 250.966 277.873 251.57 280.943 252.226C268.975 254.343 258.568 263.1 248.12 270.366C247.379 270.882 247.337 272.298 248.305 272.576C263.943 277.078 279.956 267.887 289.879 254.305C306.804 258.535 323.277 264.401 339.42 271.309C324.397 272.379 308.934 280.001 296.28 286.989C272.061 300.363 249.924 318.046 224.466 328.613C222.362 329.486 221.619 332.4 223.638 333.985C236.761 344.283 251.408 344.934 267.029 343.699C279.456 342.715 292.442 341.521 303.119 333.7C323.157 319.026 330.178 290.149 350.551 276.259C364.394 282.632 378.015 289.674 391.486 297.048C381.573 296.91 370.979 301.401 363.184 306.633C361.939 307.468 362.66 309.434 364.045 309.205C373.016 307.733 380.322 313.558 388.958 312.42C395.326 311.581 401.03 307.588 407.249 305.828C410.125 307.454 412.994 309.09 415.859 310.728C428.26 317.82 441.036 325.251 454.109 332.585C442.072 332.734 429.228 335.804 421.457 337.777C393.553 344.86 366.644 357.286 337.515 352.071C335.05 351.63 333.86 355.026 334.701 357.093C339.97 370.04 355.705 374.734 366.67 379.84C378.716 385.448 393.013 393.144 406.508 391.017C434.774 386.563 444.417 342.74 473.323 343.129C532.078 374.521 596.09 399.871 659.712 381.64ZM134.846 302.998C163.93 304.389 192.551 289.717 215.467 269.092C208.4 279.722 200.544 289.436 189.398 295.716C178.376 301.926 164.623 303.41 152.461 304.138C147.503 304.434 142.678 304.014 137.73 303.833C137.431 303.821 137.029 303.855 136.586 303.907C135.809 303.702 135.025 303.505 134.265 303.276C134.46 303.186 134.653 303.088 134.846 302.998ZM164.07 216.823C154.025 211.794 145.397 205.518 136.96 197.648C132.86 193.823 128.98 189.857 125.357 185.469C124.679 184.647 123.68 183.682 122.748 182.84C150.035 205.012 178.236 219.374 208.883 232.02C193.542 228.382 178.297 223.946 164.07 216.823ZM168.739 212.21C154.973 204.724 142.343 195.128 129.94 185.188C160.501 196.151 188.039 213.309 215.592 231.572C199.729 225.849 183.609 220.295 168.739 212.21ZM125.507 181.614C142.262 186.532 158.438 188.928 174.02 199.374C182.532 205.082 190.974 210.984 199.12 217.334C176.242 203.202 152.449 190.629 127.309 183.064C126.708 182.58 126.106 182.098 125.507 181.614ZM165.017 306.373C174.162 305.133 183.022 302.478 190.614 298.281C196.034 295.286 201.114 291.323 205.852 286.753C201.851 291.366 197.595 295.325 193.004 298.116C185.138 302.896 175.239 305.557 165.017 306.373ZM224.466 249.475C211.251 258.27 197.396 266.14 183.917 274.259C174.619 279.86 163.047 288.819 151.349 294.927C175.472 282.718 199.114 268.932 222.582 255.022C198.883 278.999 173.385 294.639 141.366 299.858C143.978 298.596 146.587 297.333 149.186 296.03C145.127 298.019 141.074 299.584 137.104 300.528C135.969 300.677 134.799 300.774 133.646 300.899C161.721 279.63 191.853 260.048 224.466 249.475ZM13.5653 260.901C13.7907 261.516 30.0638 258.087 31.7674 257.802C43.0474 255.915 54.2887 253.818 65.5219 251.619C80.4528 248.697 95.3431 245.6 110.183 242.202C103.189 245.294 96.4457 249.398 88.8249 253.719C69.2237 264.833 47.1187 266.249 25.5924 263.598C23.9741 263.401 14.4628 263.351 13.5653 260.901ZM136.832 246.41C139.072 246.335 141.297 245.914 143.507 245.371C139.151 247.67 134.639 248.921 129.867 249.029C136.755 245.331 143.509 241.838 150.792 240.308C150.802 240.311 150.811 240.311 150.821 240.313C150.898 240.345 150.977 240.374 151.054 240.406C150.825 240.476 150.593 240.553 150.366 240.621C145.767 241.973 140.881 243.168 136.7 245.767C136.444 245.923 136.513 246.419 136.832 246.41ZM133.859 243.274C134.087 243.145 134.316 243.025 134.544 242.903C134.314 243.025 134.087 243.152 133.859 243.274ZM120.392 241.822C107.559 247.747 96.066 256.583 83.6165 263.984C62.7908 276.365 41.63 271.031 20.4713 264.154C35.9241 266.715 51.4946 267.385 67.0205 263.928C86.3537 259.623 101.861 246.636 120.392 241.822ZM17.0619 259.014C48.534 249.027 80.467 240.306 113.072 239.216C109.151 240.164 105.23 241.112 101.303 242.025C91.0098 244.423 80.7148 246.862 70.3953 249.108C52.4246 253.017 34.3443 256.436 16.2233 259.408C16.5015 259.277 16.7817 259.146 17.0619 259.014ZM37.3231 250.463C61.1297 241.471 86.573 235.61 111.259 235.732C113.966 235.915 116.672 236.139 119.375 236.388C91.5154 236.612 64.1167 241.969 37.3231 250.463ZM32.3847 270.377C30.805 269.746 29.2597 269.088 27.7266 268.423C42.4321 272.09 57.298 275.162 71.9081 270.398C88.7965 264.887 103.26 253.379 119.186 245.776C103.443 257.42 88.4899 268.982 69.246 273.32C56.6015 276.166 44.4708 275.205 32.3847 270.377ZM97.6194 235.142C68.1515 237.766 39.3618 245.774 12.1499 259.367C11.5692 259.594 10.9884 259.815 10.4097 260.044C36.4297 239.989 66.7687 234.594 97.6194 235.142ZM121.221 222.102C111.724 218.377 102.101 215.128 92.8556 212.119C92.4414 211.984 92.2769 212.642 92.6607 212.821C103.145 217.648 113.606 223.05 124.131 228.233C119.785 227.52 115.47 226.584 111.251 225.048C102.412 221.835 93.9765 217.374 85.8379 212.4C81.3706 209.669 68.2165 205.299 80.0914 206.394C94.8314 207.753 108.024 215.151 121.221 222.102ZM172.572 223.686C160.042 219.053 149.43 211.588 139.91 202.501C156.058 215.101 175.009 223.589 194.251 230.249C186.896 228.398 179.627 226.294 172.572 223.686ZM200.461 214.366C192.17 208.468 183.588 203.046 174.948 197.757C158.45 187.656 141.839 185.03 124.149 180.517C123.834 180.263 123.52 180.008 123.207 179.754C143.779 180.809 165.476 186.86 182.459 199.37C188.707 203.973 194.623 209.106 200.461 214.366ZM517.216 275.58C523.342 283.258 527.217 292.678 526.863 304.647C526.506 316.673 522.365 327.638 520.708 338.978C519.815 341.946 519.214 344.866 518.997 347.855C516.438 336.596 520.239 324.247 519.856 312.418C519.547 302.896 516.779 294.099 512.669 285.824C504.953 270.287 493.227 259.446 480.026 250.728C485.518 252.907 490.914 255.332 496.035 258.193C503.763 262.783 511.122 268.185 516.716 274.983C516.881 275.182 517.051 275.377 517.216 275.58ZM472.992 248.059C493.665 261.516 514.17 279.431 515.77 307.762C516.298 317.107 514.373 326.264 513.67 335.144C510.33 319.826 509.201 303.808 503.353 289.097C497.428 274.191 486.056 257.655 472.569 247.905C472.711 247.955 472.852 248.009 472.992 248.059ZM511.579 338.164C500.553 306.507 491.017 272.042 469.266 248.55C487.271 261.643 501.869 284.297 506.444 306.527C508.606 317.037 509.605 327.753 511.579 338.164ZM357.864 368.502C356.353 367.402 354.846 366.298 353.335 365.199C367.746 371.338 383.025 374.795 398.473 371.422C408.133 369.311 415.926 364.256 424.205 358.618C427.937 356.076 431.738 353.904 435.594 351.952C427.157 358.231 419.167 365.341 410.379 371.759C402.183 377.745 394.148 380.928 385.788 380.713C379.075 378.209 372.465 375.252 365.968 372.13C363.602 370.99 360.777 369.825 357.864 368.502ZM359.943 364.004C372.459 366.581 385.185 366.717 397.88 363.093C407.117 360.457 414.978 355.3 423.567 350.904C428.883 348.183 434.244 346.271 439.706 344.832C431.044 349.266 422.808 354.535 414.103 360.79C395.565 374.105 375.678 370.902 356.314 364.14C357.522 364.131 358.731 364.09 359.943 364.004ZM434.12 355.899C433.671 356.435 433.215 356.969 432.772 357.505C422.144 370.332 412.046 380.362 398.307 383.538C396.686 383.439 395.027 383.235 393.309 382.891C395.653 382.446 398.01 381.783 400.39 380.745C408.996 376.992 416.322 370.273 423.585 364.086C427.031 361.15 430.55 358.458 434.12 355.899ZM365.029 363.443C373.515 362.222 381.981 359.645 390.065 357.489C400.705 354.65 411.237 351.4 421.622 347.642C418.093 349.626 414.568 351.764 410.98 353.99C396.514 362.962 380.762 365.31 365.029 363.443ZM411.055 381.659C413.221 380.498 415.356 379.184 417.417 377.593C424.487 372.144 429.972 364.672 436.258 358.234C438.415 356.023 440.571 354.132 442.766 352.436C438.768 356.68 434.999 361.267 431.35 365.579C424.792 373.331 418.296 378.896 411.055 381.659ZM402.378 350.397C412.436 347.273 422.487 344.138 432.766 342.066C431.651 342.543 430.55 343.079 429.448 343.604C418.74 347.425 407.976 351.035 397.025 353.931C382.222 357.842 365.539 362.781 350.155 360.202C367.891 360.641 385.094 355.766 402.378 350.397ZM397.166 300.173C399.271 301.342 401.373 302.518 403.473 303.699C398.427 305.305 393.843 308.574 388.493 309.312C382.531 310.133 377.556 306.373 371.769 305.803C371.129 305.74 370.49 305.726 369.85 305.735C378.265 301.211 388.028 298.569 397.166 300.173ZM319.305 252.065C319.016 251.798 318.72 251.54 318.434 251.269C316.052 235.3 309.875 222.028 299.996 209.717C291.463 199.085 282.665 188.613 273.744 178.293C297.37 195.741 318.397 215.038 319.39 251.063C319.357 251.398 319.327 251.73 319.305 252.065ZM321.946 293.087C315.934 301.281 310.705 310.64 303.637 317.499C293.888 326.957 281.911 333.141 269.157 335.501C263.273 336.589 257.254 336.806 251.308 336.184C279.067 336.29 299.153 310.943 321.946 293.087ZM301.734 305.986C285.652 321.193 270.885 330.354 252.801 331.816C255.52 331.354 258.225 330.787 260.881 329.995C269.515 327.423 277.627 323.125 284.976 317.469C293.502 310.909 301.375 304.511 309.43 298.684C306.855 301.116 304.297 303.563 301.734 305.986ZM245.14 329.719C258.478 323.507 269.464 312.339 281.666 303.165C298.891 290.217 316.815 281.182 336.865 277.155C318.145 285.446 303.208 297.978 286.899 311.866C274.66 322.285 260.381 328.425 245.14 329.719ZM266.335 172.909C275.83 184.39 285.52 195.673 295.001 207.165C302.508 216.264 309.113 225.41 313.01 237.089C313.055 237.223 313.126 237.517 313.211 237.904C307.885 229.029 298.796 221.134 293.153 214.443C281.619 200.761 271.555 185.693 262.318 170.025C263.656 170.986 264.997 171.948 266.335 172.909ZM308.439 241.132C302.859 235.092 297.478 228.774 292.142 222.478C292.828 223.073 293.528 223.65 294.229 224.231C299.226 229.574 304.122 234.983 308.439 241.132ZM262.751 177.461C269.679 187.953 277.107 197.99 285.114 207.57C293.352 217.429 303.255 226.658 309.964 237.931C301.115 226.109 290.103 217.196 279.458 206.72C272.678 197.933 267.068 188.163 262.751 177.461ZM280.504 336.048C283.765 334.92 286.99 333.526 290.152 331.791C298.94 326.968 306.782 320.125 313.176 311.873C319.317 303.946 324.058 295.225 330.66 288.805C325.122 296.494 320.241 304.95 314.711 312.827C305.424 326.059 294.867 333.27 280.504 336.048ZM281.379 300.989C267.561 312.112 253.843 325.728 237.73 329.886C236.962 329.832 236.199 329.782 235.45 329.757C250.462 321.987 265.746 311.042 281.379 300.989ZM284.722 253.762C280.969 258.15 277.341 262.584 272.38 265.772C266.012 269.864 258.925 270.961 251.769 270.506C261.849 262.996 272.658 255.067 284.722 253.762ZM270.674 242.625C269.344 242.424 268.022 242.197 266.688 242.019C266.548 242.001 266.406 241.987 266.266 241.969C264.371 241.376 262.489 240.754 260.69 239.906C251.274 235.472 250.677 229.179 246.506 220.476C243.872 214.981 240.758 210.445 236.877 206.376C245.978 210.432 253.918 223.833 259.857 230.905C263.449 235.18 266.806 239.177 270.674 242.625ZM263.33 185.695C264.398 187.738 265.496 189.756 266.658 191.721C265.447 189.808 264.331 187.808 263.33 185.695ZM321.685 222.872C323.608 231.07 321.4 238.458 320.068 246.082C319.883 223.2 308.27 203.557 292.763 188.002C293.675 188.613 294.586 189.231 295.492 189.86C306.693 197.641 318.176 207.898 321.685 222.872ZM356.761 270.029C356.314 269.823 355.865 269.626 355.417 269.42C355.344 269.314 355.283 269.196 355.199 269.099C353.857 265.263 352.034 261.598 350.702 257.759C349.37 253.924 348.304 249.995 347.418 246.014C349.778 249.188 352.082 252.447 353.717 256.076C355.76 260.612 356.552 265.204 356.761 270.029ZM416.432 284.478C416.139 285.482 415.892 286.513 415.715 287.597C415.615 287.323 415.49 287.054 415.398 286.78C414.131 267.697 422.493 248.172 416.351 228.516C414.066 221.202 410.604 214.655 406.39 208.71C415.508 217.472 423.155 227.733 425.791 240.288C429.218 256.587 415.93 269.271 416.432 284.478ZM405.101 265.649C404.945 263.084 404.849 260.349 404.713 257.293C404.279 247.588 402.476 238.286 399.281 229.212C394.302 215.069 386.314 201.363 376.921 189.575C390.605 203.586 403.038 219.474 406.098 240.564C407.335 249.083 405.497 257.345 405.101 265.649ZM409.572 254.529C410.06 245.335 408.795 236.565 405.834 227.959C403.101 220.019 399.218 212.882 394.597 206.369C403.194 216.657 409.719 228.613 411.453 242.521C413.03 255.173 409.178 268.873 410.555 281.234C407.197 270.902 409.024 264.864 409.572 254.529ZM416.279 244.713C416.923 254.253 414.493 264.842 413.573 275.103C413.392 265.984 415.327 256.51 414.637 246.9C413.987 237.849 411.558 229.253 407.534 221.392C400.823 208.281 390.678 197.669 379.412 189.093C376.661 186.482 373.824 183.976 370.934 181.571C392.122 197.09 414.198 213.873 416.279 244.713ZM410.827 290.475C410.299 289.647 409.777 288.816 409.26 287.979C409.337 288.086 409.43 288.183 409.509 288.287C409.788 288.694 410.058 289.106 410.34 289.509C410.498 289.832 410.665 290.153 410.827 290.475ZM402.376 267.351C396.164 249.07 395.184 228.208 386.982 210.866C393.003 220.587 397.901 231.101 400.518 243.494C402.145 251.187 401.751 259.419 402.376 267.351ZM382.178 204.08C394.698 225.346 393.137 253.37 402.506 275.807C401.424 273.578 400.388 271.323 399.468 268.991C393.959 254.997 393.705 240.03 390.245 225.469C388.428 217.82 385.616 210.753 382.178 204.08ZM421.425 274.273C423.774 267.14 427.907 260.455 428.975 252.447C429.955 245.102 428.315 237.992 425.385 231.418C423.48 227.145 421.112 223.234 418.434 219.591C426.197 228.305 432.134 238.666 431.74 251.497C431.446 261.13 425.965 267.348 421.425 274.273ZM491.647 292.854C483.701 275.877 473.899 260.277 462.642 245.939C489.612 273.477 498.421 311.447 513.581 347.034C513.76 347.705 513.936 348.377 514.129 349.047C503.609 332.956 499.655 309.968 491.647 292.854Z" fill="#713600"/>
<path d="M686.93 24.2203C694.992 31.9376 692.173 43.2365 685.667 48.8465C698.193 66.1578 714.309 78.8542 733.425 86.5149C733.37 86.2255 733.35 85.927 733.391 85.6285C723.6 70.9085 718.57 52.1319 717.966 33.6493C715.642 33.1586 713.295 31.9421 711.059 29.8031C696.414 15.784 715.987 -9.54087 730.655 4.49859C742.403 15.7433 732.132 34.2462 720.037 33.8867C721.717 51.1506 727.269 66.644 735.815 81.9678C738.376 75.0193 741.862 68.7061 743.698 61.1607C745.026 55.6977 745.958 50.1579 746.714 44.5774C745.787 44.3083 744.858 43.7973 743.969 42.9449C737.322 36.582 746.204 25.0886 752.863 31.4605C758.216 36.5843 753.493 45.0206 747.977 44.79C747.526 57.8639 746.32 73.8796 739.118 83.6953C759.949 81.2464 773.716 51.9578 782.056 29.5589C780.415 29.1496 778.825 28.3514 777.427 27.0151C775.296 24.9733 773.854 21.7986 773.644 18.6782C773.443 15.6935 774.395 12.0237 776.272 9.81003C780.354 4.99378 787.086 4.06217 791.748 8.52567C793.879 10.5675 795.321 13.7422 795.53 16.8626C795.732 19.8473 794.78 23.5171 792.903 25.7308C790.381 28.7064 786.848 30.1875 783.415 29.8415C778.428 45.3349 772.19 60.7989 762.814 73.3799C758.305 79.4285 752.049 85.9609 745.077 88.2198C754.351 90.239 763.394 91.0621 773.044 87.7269C781.249 84.8937 788.752 80.0616 795.958 74.8293C795.459 73.5676 795.134 72.2064 795.091 70.7276C794.992 67.216 795.836 63.8266 797.941 61.1109C799.932 58.54 803.027 56.8034 806.07 56.5502C810.534 56.1794 814.169 58.5739 816.839 62.3704C816.9 62.4586 816.961 62.5445 817.022 62.6304C817.478 63.6502 817.931 64.6677 818.387 65.6875C818.946 67.3155 819.123 68.9752 818.913 70.6665C818.779 73.4681 817.939 76.4528 816.16 78.5534C814.718 80.256 812.995 81.5607 811.036 82.4155C808.529 83.5099 804.498 83.3584 802.126 81.866C802.041 81.8117 801.953 81.7575 801.868 81.7032C799.881 80.4528 798.107 78.7479 796.865 76.6721C779.724 90.9897 762.412 96.7285 740.808 91.2724C740.733 91.3809 740.652 91.4894 740.574 91.598C748.11 101.203 756.985 109.022 767.315 114.962C775.564 119.706 786.901 125.067 797.33 125.809C797.276 122.879 798.227 119.455 800.023 117.337C802.012 114.99 804.695 113.147 807.679 113.043C810.652 112.936 813.524 113.823 815.824 116.025C818 118.11 819.473 121.352 819.686 124.536C819.892 127.584 818.92 131.331 817.004 133.592C815.015 135.939 812.332 137.78 809.346 137.886C806.373 137.99 803.501 137.106 801.201 134.903C799.513 133.287 798.268 130.974 797.686 128.532C788.644 128.95 778.355 124.798 771.021 121.341C758.58 115.476 748.142 106.386 739.535 95.0937C745.59 118.684 745.63 143.98 744.813 168.35C743.857 196.757 735.785 223.217 724.487 248.506C713.559 272.971 701.11 299.718 682.486 318.102C668.52 331.89 646.613 344.048 628.286 333.742C627.725 333.428 627.994 332.446 628.626 332.571C677.139 342.061 706.292 274.613 722.683 234.432C732.415 210.577 737.979 186.08 738.622 159.885C739.13 139.132 739.86 117.716 736.812 97.0903C731.302 116.24 713.661 131.575 696.282 138.974C697.463 141.214 698.228 143.749 698.397 146.266C698.673 150.381 697.361 155.441 694.774 158.496C692.088 161.666 688.466 164.154 684.434 164.296C680.418 164.439 676.541 163.242 673.433 160.269C670.493 157.454 668.506 153.076 668.217 148.773C667.94 144.658 669.252 139.598 671.839 136.543C674.526 133.373 678.148 130.885 682.179 130.743C686.196 130.601 690.072 131.797 693.18 134.77C693.953 135.509 694.656 136.364 695.285 137.291C709.949 129.861 725.683 116.694 732.126 100.866C711.615 118.702 674.709 126.535 655.442 107.736C651.812 111.403 646.306 112.665 641.506 108.07C630.916 97.9337 645.07 79.6207 655.676 89.7732C660.775 94.6528 660.11 101.407 656.894 105.988C675.323 121.233 706.605 115.659 726.256 100.539C716.978 102.669 707.242 101.635 697.685 99.1185C684.247 95.5821 670.517 91.1774 660.437 80.6834C660.395 80.7083 660.36 80.7445 660.315 80.7694C656.756 82.732 651.818 80.1226 651.732 75.372C651.73 75.2092 651.726 75.0486 651.724 74.8858C651.678 72.2471 652.776 69.8774 654.95 68.6767C656.837 67.6366 659.734 67.6795 661.293 69.5179C661.387 69.6287 661.481 69.7395 661.576 69.8503C663.063 71.6026 663.962 73.5947 663.551 76.0774C663.313 77.5178 662.652 78.7298 661.727 79.6636C671.688 87.9688 684.009 91.91 696.082 95.1842C709.436 98.8065 722.239 99.7698 734.452 92.8959C734.467 92.88 734.481 92.8665 734.493 92.8506C734.552 92.5273 734.603 92.204 734.654 91.8784C714.242 83.485 697.026 69.025 684.359 49.864C679.714 53.0929 673.631 53.5225 668.237 48.3581C654.271 34.9834 672.939 10.8253 686.93 24.2203Z" fill="#713600"/>
</g>
</svg>
