<svg width="30" height="26" viewBox="0 0 30 26" fill="none" xmlns="http://www.w3.org/2000/svg">
<path d="M15.5807 1.07346L26.3807 5.48113C26.8007 5.65254 27.1367 6.16678 27.1367 6.61979V10.6847C27.1367 11.3581 26.5967 11.9091 25.9367 11.9091H4.33672C3.67672 11.9091 3.13672 11.3581 3.13672 10.6847V6.61979C3.13672 6.16678 3.47272 5.65254 3.89272 5.48113L14.6927 1.07346C14.9327 0.975513 15.3407 0.975513 15.5807 1.07346Z" stroke="#A5A5A5" stroke-width="2" stroke-miterlimit="10" stroke-linecap="round" stroke-linejoin="round"/>
<path d="M27.1367 24.9989H3.13672V21.3171C3.13672 20.6421 3.67672 20.0898 4.33672 20.0898H25.9367C26.5967 20.0898 27.1367 20.6421 27.1367 21.3171V24.9989Z" stroke="#A5A5A5" stroke-width="2" stroke-miterlimit="10" stroke-linecap="round" stroke-linejoin="round"/>
<path d="M5.31836 20.092V11.9102" stroke="#A5A5A5" stroke-width="2" stroke-miterlimit="10" stroke-linecap="round" stroke-linejoin="round"/>
<path d="M10.2266 20.092V11.9102" stroke="#A5A5A5" stroke-width="2" stroke-miterlimit="10" stroke-linecap="round" stroke-linejoin="round"/>
<path d="M15.1367 20.092V11.9102" stroke="#A5A5A5" stroke-width="2" stroke-miterlimit="10" stroke-linecap="round" stroke-linejoin="round"/>
<path d="M20.0449 20.092V11.9102" stroke="#A5A5A5" stroke-width="2" stroke-miterlimit="10" stroke-linecap="round" stroke-linejoin="round"/>
<path d="M24.9551 20.092V11.9102" stroke="#A5A5A5" stroke-width="2" stroke-miterlimit="10" stroke-linecap="round" stroke-linejoin="round"/>
<path d="M1.5 25H28.2273" stroke="#A5A5A5" stroke-width="2" stroke-miterlimit="10" stroke-linecap="round" stroke-linejoin="round"/>
<path d="M14.8642 8.63849C15.9185 8.63849 16.7733 7.78377 16.7733 6.7294C16.7733 5.67504 15.9185 4.82031 14.8642 4.82031C13.8098 4.82031 12.9551 5.67504 12.9551 6.7294C12.9551 7.78377 13.8098 8.63849 14.8642 8.63849Z" stroke="#A5A5A5" stroke-width="2" stroke-miterlimit="10" stroke-linecap="round" stroke-linejoin="round"/>
</svg>
