<svg width="390" height="301" viewBox="0 0 390 301" fill="none" xmlns="http://www.w3.org/2000/svg">
<g opacity="0.05">
<path d="M318.384 110.706C319.352 112.052 320.449 113.05 321.59 113.889C296.407 157.89 281.379 202.449 282.214 254.404C262.775 269.251 241.789 282.143 217.448 292.388C212.143 294.621 215.095 302.073 220.502 300.643C232.279 297.53 243.499 292.866 254.22 287.111C262.232 289.135 272.138 288.237 279.705 287.534C285.856 286.961 291.801 285.722 297.622 284.011C298.029 284.905 298.531 285.799 299.169 286.685C309.813 301.487 332.835 284.968 322.173 270.142C313.048 257.451 294.885 267.792 296.592 280.342C290.858 281.394 285.062 282.091 279.212 282.344C274.281 282.559 269.317 281.849 264.388 281.206C283.196 269.574 300.386 254.775 316.124 239.195C338.986 235.714 361.689 227.355 379.922 213.16C390.577 223.966 410.02 209.086 400.329 195.608C390.439 181.854 369.444 196.427 377.717 210.264C361.761 219.89 344.232 224.111 326.25 228.878C329.136 225.862 331.993 222.842 334.78 219.829C350.487 202.851 365.399 185.944 380.694 169.609C390.136 169 400.153 165.666 409.588 164.58C415.126 163.942 420.533 163.159 425.847 161.956C426.186 162.937 426.634 163.924 427.337 164.905C435.402 176.119 452.841 163.605 444.763 152.373C438.09 143.094 425.041 150.068 425.297 159.112C417.798 159.938 410.229 159.827 402.567 159.926C398.517 159.978 393.857 159.933 389.353 160.483C407.1 142.033 425.659 124.48 446.801 108.616C456.264 116.11 471.687 103.661 463.544 92.3347C454.674 80.0013 435.49 93.7644 444.374 106.12C444.523 106.329 444.7 106.473 444.856 106.668C413.882 125.163 388.233 152.144 363.225 178.325C363.381 174.318 363.252 170.226 363.673 166.643C366.089 146.134 374.583 127.858 388.507 113.02C398.23 121.965 415.185 108.672 406.548 96.6623C397.354 83.8787 377.474 98.144 386.682 110.95C386.813 111.133 386.967 111.256 387.102 111.428C376.785 120.365 368.457 131.059 362.648 143.609C355.64 158.75 358.28 176.106 351.398 190.624C350.514 191.536 349.629 192.454 348.743 193.361C329.272 213.266 310.444 231.794 290.127 248.197C293.073 226.07 292.36 203.415 297.486 181.539C302.94 158.257 313.152 136.531 323.899 115.244C334.86 120.067 349.43 106.822 340.694 94.6715C330.369 80.3112 308.046 96.3297 318.384 110.706Z" fill="#713600"/>
<path d="M39.8444 110.706C38.8762 112.052 37.7791 113.049 36.6389 113.889C61.8238 157.89 76.8492 202.449 76.0145 254.404C95.4534 269.251 116.44 282.143 140.781 292.388C146.085 294.621 143.133 302.073 137.727 300.643C125.95 297.53 114.729 292.866 104.011 287.111C95.9985 289.135 86.0924 288.237 78.5255 287.534C72.3768 286.961 66.4296 285.722 60.609 284.011C60.2018 284.905 59.6996 285.798 59.0616 286.685C48.4181 301.487 25.3959 284.968 36.0575 270.142C45.1832 257.451 63.3462 267.792 61.6383 280.342C67.3729 281.394 73.1686 282.091 79.0186 282.344C83.9502 282.559 88.9134 281.849 93.8427 281.206C75.0349 269.574 57.8446 254.775 42.1066 239.195C19.245 235.714 -3.45821 227.355 -21.6914 213.16C-32.3463 223.966 -51.7897 209.086 -42.0962 195.608C-32.206 181.854 -11.2107 196.427 -19.4813 210.264C-3.5261 219.89 14.0035 224.111 31.9856 228.878C29.0968 225.862 26.242 222.842 23.4549 219.829C7.74863 202.851 -7.16364 185.944 -22.4582 169.608C-31.9006 169 -41.9175 165.665 -51.3531 164.58C-56.8909 163.942 -62.2975 163.159 -67.6114 161.955C-67.9507 162.937 -68.3986 163.924 -69.1022 164.905C-77.1668 176.119 -94.6059 163.605 -86.53 152.373C-79.8565 143.093 -66.8083 150.068 -67.0639 159.112C-59.5648 159.938 -51.9955 159.827 -44.3335 159.926C-40.2842 159.978 -35.6241 159.933 -31.1201 160.483C-48.867 142.032 -67.4258 124.48 -88.5682 108.615C-98.0309 116.11 -113.454 103.661 -105.311 92.3346C-96.4406 80.0012 -77.255 93.7643 -86.1409 106.12C-86.2902 106.328 -86.4667 106.473 -86.6227 106.668C-55.649 125.163 -30.0004 152.144 -4.992 178.325C-5.14809 174.318 -5.01688 170.226 -5.4399 166.643C-7.85591 146.134 -16.3504 127.858 -30.2741 113.02C-39.997 121.965 -56.952 108.672 -48.315 96.6621C-39.1215 83.8786 -19.2392 98.1439 -28.4485 110.95C-28.5797 111.133 -28.7336 111.255 -28.8693 111.427C-18.5515 120.365 -10.2244 131.059 -4.41513 143.609C2.59311 158.75 -0.046875 176.105 6.83468 190.624C7.71918 191.536 8.60373 192.454 9.4905 193.361C28.9611 213.266 47.7892 231.793 68.1059 248.197C65.1605 226.07 65.873 203.414 60.7469 181.539C55.2928 158.257 45.0814 136.531 34.3338 115.244C23.3757 120.067 8.80283 106.822 17.5394 94.6714C27.8617 80.3111 50.1849 96.3296 39.8444 110.706Z" fill="#713600"/>
<path d="M453.93 342.733C486.132 342.342 496.875 386.165 528.365 390.621C543.399 392.748 559.327 385.052 572.747 379.444C584.965 374.338 602.492 369.646 608.363 356.697C609.299 354.63 607.973 351.234 605.227 351.675C572.776 356.887 542.798 344.464 511.711 337.381C503.053 335.408 488.743 332.338 475.335 332.189C489.899 324.855 504.135 317.424 517.948 310.332C521.14 308.694 524.336 307.058 527.539 305.432C534.468 307.192 540.823 311.185 547.917 312.024C557.538 313.162 565.677 307.334 575.672 308.809C577.217 309.038 578.018 307.072 576.631 306.237C567.946 301.005 556.147 296.514 545.101 296.652C560.108 289.278 575.285 282.235 590.704 275.863C613.4 289.753 621.223 318.629 643.546 333.304C655.441 341.125 669.907 342.319 683.752 343.303C701.155 344.538 717.47 343.887 732.092 333.589C734.341 332.006 733.515 329.09 731.169 328.217C702.809 317.652 678.146 299.966 651.165 286.592C637.067 279.605 619.841 271.983 603.105 270.913C621.089 264.005 639.44 258.139 658.296 253.908C669.351 267.491 687.19 276.682 704.612 272.18C705.691 271.902 705.643 270.486 704.817 269.97C693.178 262.704 681.587 253.947 668.251 251.829C671.674 251.176 675.11 250.569 678.567 250.029C690.308 248.196 702.105 246.866 713.932 245.81C713.97 245.869 713.995 245.927 714.038 245.986C728.946 265.826 743.838 294.503 767.765 304.853C789.314 314.175 819.913 314.137 841.426 305.502C843.788 304.554 843.905 301.792 841.901 300.408C819.137 284.704 795.372 270.524 770.445 258.514C758.621 252.816 746.102 247.407 733.165 244.31C756.16 242.763 779.229 241.908 802.22 240.351C804.516 240.994 806.862 241.514 809.197 242.021C819.682 247.746 829.929 253.11 842.686 251.391C843.204 251.32 843.636 251.002 843.903 250.592C848.936 254.268 853.884 258.087 859.189 261.351C875.255 271.239 893.408 279.102 912.37 280.804C937.06 283.018 954.849 268.877 978.267 265.231C980.48 264.887 982.552 261.783 980.19 260.05C937.731 228.898 885.955 226.565 835.913 234.037C835.18 234.067 834.449 234.074 833.716 234.108C833.372 234.123 833.108 234.273 832.92 234.483C831.052 234.485 829.183 234.508 827.314 234.528C828.837 233.904 830.357 233.259 831.877 232.619C841.62 231.278 851.402 230.072 860.894 226.685C876.399 221.154 890.468 212.771 904.457 204.215C905.708 203.451 905.099 201.292 903.591 201.415C886.353 202.799 869.739 206.421 853.777 213.232C839.173 219.465 825.885 228.889 810.484 232.599C803.688 232.449 796.734 232.897 789.66 233.214C784.082 233.465 778.476 233.743 772.866 234.074C782.636 231.71 792.199 228.807 801.284 224.846C823.948 214.965 840.96 196.945 856.469 178.23C858.275 176.049 856.709 173.354 854.123 173.112C830.158 170.873 802.444 177.248 781.39 188.878C768.645 195.917 757.569 206.231 746.478 215.565C737.741 222.917 728.747 230.117 720.585 238.128C719.089 238.388 717.596 238.648 716.11 238.912C709.011 239.322 701.922 239.826 694.848 240.494C697.409 239.209 699.782 237.659 701.732 235.596C703.838 233.368 704.756 231.112 706.068 228.393C710.812 218.546 714.391 211.07 723.559 204.532C724.74 203.69 724.209 201.81 722.718 201.813C713.518 201.829 708.466 208 702.533 214.384C693.787 223.794 685.503 235.135 675.027 242.871C661.18 244.971 647.589 248.047 634.21 251.845C649.441 240.31 662.487 224.075 675.088 211.384C683.725 202.686 691.808 194.757 696.194 183.082C700.164 172.513 702.15 160.84 704.453 149.814C705.209 146.202 700.496 144.684 698.619 147.636C682.406 173.149 650.364 178.641 630.24 199.883C624.03 206.437 619.128 214.445 617.117 223.308C614.452 235.051 620.558 244.765 619.71 256.245C609.317 259.632 599.058 263.448 588.906 267.558C594.052 259.573 596.717 248.728 598.561 240.084C598.87 238.636 596.961 237.499 595.939 238.702C587.815 248.276 579.735 258.22 580.25 271.144C566.818 276.84 553.566 283.023 540.472 289.479C534.794 292.28 529.127 295.116 523.463 297.969C535.507 283.229 544.596 267.332 548.161 247.733C550.808 233.176 553.079 219.575 560.56 206.498C567.869 193.716 577.934 182.752 587.77 171.902C589.686 169.789 587.541 166 584.691 167.038C566.302 173.739 550.22 184.127 534.507 195.666C522.538 204.455 509.811 213.472 501.637 226.14C495.204 236.11 491.686 249.158 495.403 260.826C496.948 265.676 499.619 269.348 502.816 273.259C511.552 283.957 514.566 293.917 508.139 305.721C476.787 321.622 445.443 337.537 413.36 350.42C421.62 339.453 425.517 324.509 430.971 311.899C442.778 284.597 459.54 260.195 480.339 238.978C482.502 236.772 480.02 232.934 477.122 233.897C448.472 243.426 415.27 250.237 396.236 275.935C389.304 285.292 384.524 296.548 384.617 308.336C384.751 325.303 400.645 339.842 395.378 356.74C395.317 356.937 395.288 357.123 395.261 357.308C348.608 374.064 300.127 383.31 247.561 375.77C244.02 375.263 242.729 380.33 246.285 381.244C317.157 399.482 388.467 374.132 453.93 342.733Z" fill="#FFF9E3"/>
<path d="M453.93 342.733C486.132 342.342 496.875 386.165 528.365 390.621C543.399 392.748 559.327 385.052 572.747 379.444C584.965 374.338 602.492 369.646 608.363 356.697C609.299 354.63 607.973 351.234 605.227 351.675C572.776 356.887 542.798 344.464 511.711 337.381C503.053 335.408 488.743 332.338 475.335 332.189C489.899 324.855 504.135 317.424 517.948 310.332C521.14 308.694 524.336 307.058 527.539 305.432C534.468 307.192 540.823 311.185 547.917 312.024C557.538 313.162 565.677 307.334 575.672 308.809C577.217 309.038 578.018 307.072 576.631 306.237C567.946 301.005 556.147 296.514 545.101 296.652C560.108 289.278 575.285 282.235 590.704 275.863C613.4 289.753 621.223 318.629 643.546 333.304C655.441 341.125 669.907 342.319 683.752 343.303C701.155 344.538 717.47 343.887 732.092 333.589C734.341 332.006 733.515 329.09 731.169 328.217C702.809 317.652 678.146 299.966 651.165 286.592C637.067 279.605 619.841 271.983 603.105 270.913C621.089 264.005 639.44 258.139 658.296 253.908C669.351 267.491 687.19 276.682 704.612 272.18C705.691 271.902 705.643 270.486 704.817 269.97C693.178 262.704 681.587 253.947 668.251 251.829C671.674 251.176 675.11 250.569 678.567 250.029C690.308 248.196 702.105 246.866 713.932 245.81C713.97 245.869 713.995 245.927 714.038 245.986C728.946 265.826 743.838 294.503 767.765 304.853C789.314 314.175 819.913 314.137 841.426 305.502C843.788 304.554 843.905 301.792 841.901 300.408C819.137 284.704 795.372 270.524 770.445 258.514C758.621 252.816 746.102 247.407 733.165 244.31C756.16 242.763 779.229 241.908 802.22 240.351C804.516 240.994 806.862 241.514 809.197 242.021C819.682 247.746 829.929 253.11 842.686 251.391C843.204 251.32 843.636 251.002 843.903 250.592C848.936 254.268 853.884 258.087 859.189 261.351C875.255 271.239 893.408 279.102 912.37 280.804C937.06 283.018 954.849 268.877 978.267 265.231C980.48 264.887 982.552 261.783 980.19 260.05C937.731 228.898 885.955 226.565 835.913 234.037C835.18 234.067 834.449 234.074 833.716 234.108C833.372 234.123 833.108 234.273 832.92 234.483C831.052 234.485 829.183 234.508 827.314 234.528C828.837 233.904 830.357 233.259 831.877 232.619C841.62 231.278 851.402 230.072 860.894 226.685C876.399 221.154 890.468 212.771 904.457 204.215C905.708 203.451 905.099 201.292 903.591 201.415C886.353 202.799 869.739 206.421 853.777 213.232C839.173 219.465 825.885 228.889 810.484 232.599C803.688 232.449 796.734 232.897 789.66 233.214C784.082 233.465 778.476 233.743 772.866 234.074C782.636 231.71 792.199 228.807 801.284 224.846C823.948 214.965 840.96 196.945 856.469 178.23C858.275 176.049 856.709 173.354 854.123 173.112C830.158 170.873 802.444 177.248 781.39 188.878C768.645 195.917 757.569 206.231 746.478 215.565C737.741 222.917 728.747 230.117 720.585 238.128C719.089 238.388 717.596 238.648 716.11 238.912C709.011 239.322 701.922 239.826 694.848 240.494C697.409 239.209 699.782 237.659 701.732 235.596C703.838 233.368 704.756 231.112 706.068 228.393C710.812 218.546 714.391 211.07 723.559 204.532C724.74 203.69 724.209 201.81 722.718 201.813C713.518 201.829 708.466 208 702.533 214.384C693.787 223.794 685.503 235.135 675.027 242.871C661.18 244.971 647.589 248.047 634.21 251.845C649.441 240.31 662.487 224.075 675.088 211.384C683.725 202.686 691.808 194.757 696.194 183.082C700.164 172.513 702.15 160.84 704.453 149.814C705.209 146.202 700.496 144.684 698.619 147.636C682.406 173.149 650.364 178.641 630.24 199.883C624.03 206.437 619.128 214.445 617.117 223.308C614.452 235.051 620.558 244.765 619.71 256.245C609.317 259.632 599.058 263.448 588.906 267.558C594.052 259.573 596.717 248.728 598.561 240.084C598.87 238.636 596.961 237.499 595.939 238.702C587.815 248.276 579.735 258.22 580.25 271.144C566.818 276.84 553.566 283.023 540.472 289.479C534.794 292.28 529.127 295.116 523.463 297.969C535.507 283.229 544.596 267.332 548.161 247.733C550.808 233.176 553.079 219.575 560.56 206.498C567.869 193.716 577.934 182.752 587.77 171.902C589.686 169.789 587.541 166 584.691 167.038C566.302 173.739 550.22 184.127 534.507 195.666C522.538 204.455 509.811 213.472 501.637 226.14C495.204 236.11 491.686 249.158 495.403 260.826C496.948 265.676 499.619 269.348 502.816 273.259C511.552 283.957 514.566 293.917 508.139 305.721C476.787 321.622 445.443 337.537 413.36 350.42C421.62 339.453 425.517 324.509 430.971 311.899C442.778 284.597 459.54 260.195 480.339 238.978C482.502 236.772 480.02 232.934 477.122 233.897C448.472 243.426 415.27 250.237 396.236 275.935C389.304 285.292 384.524 296.548 384.617 308.336C384.751 325.303 400.645 339.842 395.378 356.74C395.317 356.937 395.288 357.123 395.261 357.308C348.608 374.064 300.127 383.31 247.561 375.77C244.02 375.263 242.729 380.33 246.285 381.244C317.157 399.482 388.467 374.132 453.93 342.733ZM831.651 302.887C830.807 303.115 829.932 303.312 829.065 303.518C828.572 303.466 828.124 303.432 827.792 303.443C822.279 303.624 816.904 304.045 811.38 303.749C797.831 303.023 782.507 301.539 770.23 295.327C757.813 289.047 749.063 279.333 741.189 268.703C766.717 289.327 798.603 304 831.004 302.609C831.221 302.699 831.434 302.796 831.651 302.887ZM748.523 231.631C782.666 218.985 814.081 204.622 844.482 182.451C843.444 183.292 842.331 184.258 841.575 185.079C837.539 189.468 833.216 193.436 828.649 197.259C819.252 205.129 809.638 211.404 798.447 216.433C782.598 223.557 765.616 227.993 748.523 231.631ZM741.048 231.185C771.744 212.92 802.424 195.761 836.469 184.801C822.654 194.741 808.583 204.337 793.246 211.823C776.682 219.906 758.721 225.459 741.048 231.185ZM839.406 182.675C811.395 190.239 784.89 202.81 759.404 216.944C768.48 210.594 777.881 204.69 787.367 198.985C804.726 188.538 822.747 186.143 841.412 181.225C840.743 181.709 840.073 182.191 839.406 182.675ZM766.215 297.727C761.1 294.938 756.359 290.977 751.902 286.364C757.18 290.931 762.84 294.895 768.878 297.892C777.334 302.088 787.206 304.744 797.395 305.984C786.005 305.167 774.977 302.507 766.215 297.727ZM832.343 300.507C831.061 300.383 829.758 300.285 828.491 300.136C824.068 299.193 819.553 297.627 815.031 295.639C817.926 296.942 820.833 298.204 823.742 299.467C788.07 294.248 759.664 278.607 733.264 254.63C759.408 268.542 785.747 282.328 812.621 294.535C799.587 288.425 786.695 279.469 776.338 273.868C761.324 265.749 745.887 257.879 731.165 249.083C767.496 259.659 801.064 279.24 832.343 300.507ZM952.716 263.211C928.737 265.86 904.109 264.446 882.272 253.332C873.782 249.011 866.269 244.907 858.478 241.815C875.01 245.213 891.599 248.31 908.233 251.232C920.747 253.431 933.27 255.528 945.837 257.415C947.735 257.7 965.864 261.129 966.115 260.514C965.117 262.962 954.521 263.011 952.716 263.211ZM828.941 245.375C824.281 242.776 818.84 241.582 813.714 240.229C813.461 240.161 813.203 240.084 812.947 240.014C813.033 239.982 813.122 239.953 813.207 239.921C813.219 239.919 813.228 239.919 813.239 239.917C821.354 241.446 828.878 244.939 836.551 248.638C831.237 248.529 826.208 247.278 821.356 244.98C823.817 245.523 826.294 245.943 828.792 246.018C829.149 246.029 829.224 245.534 828.941 245.375ZM831.341 242.514C831.594 242.636 831.85 242.756 832.103 242.885C831.85 242.763 831.597 242.636 831.341 242.514ZM906.57 263.539C923.867 266.995 941.213 266.323 958.428 263.765C934.856 270.642 911.282 275.974 888.081 263.595C874.212 256.193 861.406 247.357 847.111 241.433C867.753 246.246 885.029 259.234 906.57 263.539ZM963.158 259.019C942.971 256.046 922.828 252.628 902.808 248.719C891.311 246.473 879.84 244.034 868.375 241.636C864 240.72 859.632 239.774 855.264 238.826C891.588 239.917 927.163 248.638 962.224 258.625C962.536 258.756 962.848 258.887 963.158 259.019ZM848.242 235.999C851.255 235.75 854.268 235.526 857.284 235.343C884.783 235.223 913.128 241.084 939.652 250.074C909.802 241.58 879.277 236.223 848.242 235.999ZM904.088 272.929C882.65 268.592 865.991 257.028 848.452 245.385C866.194 252.985 882.308 264.495 901.123 270.006C917.399 274.773 933.96 271.701 950.343 268.031C948.635 268.696 946.914 269.355 945.154 269.986C931.687 274.815 918.175 275.777 904.088 272.929ZM969.635 259.654C968.99 259.426 968.343 259.204 967.696 258.978C937.381 245.382 905.305 237.376 872.479 234.752C906.846 234.205 940.647 239.6 969.635 259.654ZM892.008 206.007C905.237 204.912 890.581 209.285 885.606 212.013C876.539 216.987 867.14 221.448 857.295 224.661C852.592 226.194 847.785 227.131 842.946 227.846C854.671 222.661 866.326 217.261 878.005 212.434C878.435 212.257 878.25 211.599 877.788 211.732C867.488 214.739 856.768 217.99 846.188 221.715C860.887 214.761 875.585 207.364 892.008 206.007ZM764.826 229.857C786.26 223.197 807.375 214.712 825.364 202.109C814.759 211.196 802.935 218.659 788.977 223.294C781.116 225.905 773.02 228.009 764.826 229.857ZM777.963 198.98C796.881 186.471 821.055 180.422 843.973 179.365C843.622 179.621 843.272 179.874 842.923 180.127C823.213 184.638 804.708 187.267 786.33 197.368C776.705 202.657 767.145 208.079 757.908 213.976C764.41 208.717 771.002 203.584 777.963 198.98ZM405.583 274.592C411.817 267.794 420.016 262.392 428.625 257.802C434.331 254.942 440.339 252.517 446.461 250.336C431.754 259.055 418.69 269.893 410.094 285.432C405.515 293.707 402.429 302.505 402.088 312.026C401.66 323.855 405.895 336.204 403.045 347.463C402.803 344.477 402.133 341.554 401.138 338.586C399.294 327.246 394.679 316.284 394.283 304.256C393.887 292.286 398.206 282.867 405.031 275.189C405.207 274.987 405.4 274.793 405.583 274.592ZM454.763 247.516C439.737 257.266 427.069 273.802 420.468 288.708C413.953 303.418 412.695 319.439 408.974 334.754C408.191 325.875 406.047 316.716 406.635 307.373C408.42 279.044 431.263 261.127 454.292 247.669C454.451 247.62 454.607 247.565 454.763 247.516ZM417.027 306.138C422.124 283.907 438.387 261.256 458.446 248.16C434.215 271.653 423.59 306.117 411.306 337.774C413.505 327.364 414.618 316.648 417.027 306.138ZM573.523 371.739C566.284 374.863 558.92 377.819 551.441 380.321C542.128 380.536 533.177 377.353 524.047 371.368C514.256 364.95 505.354 357.84 495.955 351.56C500.251 353.512 504.486 355.684 508.643 358.227C517.866 363.866 526.549 368.922 537.31 371.031C554.52 374.404 571.541 370.947 587.596 364.807C585.913 365.907 584.234 367.011 582.551 368.11C579.305 369.436 576.158 370.601 573.523 371.739ZM584.279 363.751C562.707 370.515 540.551 373.716 519.9 360.401C510.202 354.148 501.027 348.877 491.376 344.443C497.461 345.882 503.433 347.793 509.356 350.515C518.925 354.91 527.682 360.068 537.973 362.704C552.116 366.325 566.293 366.189 580.237 363.615C581.585 363.701 582.933 363.742 584.279 363.751ZM509.333 363.697C517.427 369.884 525.589 376.602 535.174 380.355C537.825 381.394 540.452 382.056 543.062 382.502C541.151 382.846 539.3 383.05 537.495 383.149C522.189 379.973 510.939 369.942 499.099 357.116C498.606 356.582 498.097 356.046 497.597 355.51C501.576 358.068 505.497 360.76 509.333 363.697ZM523.377 353.598C519.38 351.372 515.453 349.234 511.521 347.251C523.09 351.01 534.824 354.259 546.677 357.098C555.681 359.254 565.114 361.83 574.568 363.052C557.04 364.92 539.495 362.572 523.377 353.598ZM500.683 365.19C496.62 360.878 492.419 356.29 487.965 352.046C490.41 353.743 492.81 355.634 495.215 357.844C502.219 364.282 508.329 371.755 516.206 377.204C518.502 378.794 520.879 380.106 523.293 381.269C515.229 378.507 507.99 372.942 500.683 365.19ZM591.14 359.812C574.002 362.391 555.414 357.453 538.925 353.542C526.723 350.648 514.733 347.036 502.805 343.215C501.576 342.69 500.35 342.156 499.108 341.677C510.559 343.749 521.76 346.886 532.962 350.008C552.215 355.376 571.383 360.251 591.14 359.812ZM569.197 305.344C568.485 305.335 567.775 305.348 567.06 305.411C560.612 305.982 555.07 309.741 548.428 308.92C542.467 308.183 537.362 304.916 531.74 303.308C534.079 302.127 536.421 300.951 538.767 299.781C548.949 298.179 559.825 300.822 569.197 305.344ZM625.415 250.674C626.521 214.651 649.948 195.352 676.266 177.904C666.326 188.224 656.527 198.695 647.021 209.328C636.015 221.638 629.134 234.911 626.48 250.879C626.161 251.151 625.831 251.406 625.51 251.676C625.485 251.341 625.449 251.008 625.415 250.674ZM701.259 335.795C694.635 336.417 687.93 336.2 681.374 335.112C667.166 332.752 653.823 326.565 642.963 317.109C635.088 310.25 629.263 300.892 622.564 292.698C647.96 310.553 670.335 335.901 701.259 335.795ZM636.511 298.295C645.483 304.122 654.255 310.52 663.754 317.08C671.941 322.733 680.978 327.033 690.597 329.606C693.556 330.397 696.569 330.963 699.599 331.427C679.452 329.963 663.001 320.801 645.084 305.597C642.23 303.174 639.377 300.727 636.511 298.295ZM661.614 311.476C643.442 297.589 626.804 285.056 605.949 276.766C628.286 280.792 648.252 289.825 667.444 302.776C681.037 311.949 693.276 323.115 708.136 329.33C691.151 328.036 675.246 321.896 661.614 311.476ZM688.996 169.633C678.705 185.301 667.494 200.369 654.644 214.051C648.358 220.745 638.232 228.64 632.299 237.512C632.394 237.125 632.473 236.831 632.523 236.698C636.864 225.018 644.223 215.872 652.586 206.774C663.148 195.282 673.945 183.998 684.521 172.517C686.012 171.558 687.505 170.597 688.996 169.633ZM653.443 223.84C654.224 223.26 655.004 222.681 655.769 222.086C649.824 228.382 643.829 234.7 637.613 240.74C642.422 234.594 647.876 229.185 653.443 223.84ZM669.901 206.33C658.042 216.806 645.777 225.719 635.916 237.542C643.388 226.271 654.423 217.039 663.598 207.181C672.516 197.6 680.793 187.563 688.512 177.071C683.702 187.774 677.454 197.544 669.901 206.33ZM630.625 312.436C624.465 304.559 619.026 296.1 612.857 288.414C620.212 294.834 625.496 303.554 632.335 311.481C639.456 319.733 648.193 326.579 657.986 331.399C661.508 333.135 665.1 334.528 668.733 335.657C652.735 332.881 640.974 325.669 630.625 312.436ZM718.929 329.368C718.094 329.393 717.243 329.443 716.388 329.497C698.438 325.339 683.155 311.723 667.76 300.6C685.175 310.653 702.204 321.597 718.929 329.368ZM700.745 270.117C692.776 270.572 684.881 269.475 677.784 265.382C672.258 262.195 668.215 257.761 664.035 253.372C677.477 254.678 689.518 262.607 700.745 270.117ZM691.737 230.513C698.352 223.441 707.197 210.043 717.338 205.984C713.015 210.054 709.545 214.589 706.611 220.084C701.965 228.787 701.3 235.08 690.81 239.514C688.806 240.362 686.708 240.985 684.598 241.577C684.442 241.595 684.286 241.609 684.127 241.627C682.641 241.806 681.166 242.032 679.687 242.233C683.996 238.788 687.736 234.791 691.737 230.513ZM684.161 191.334C685.453 189.366 686.679 187.348 687.869 185.308C686.754 187.418 685.507 189.418 684.161 191.334ZM652.036 189.473C653.045 188.844 654.061 188.228 655.076 187.615C637.802 203.168 624.863 222.813 624.659 245.694C623.175 238.071 620.716 230.683 622.858 222.485C626.768 207.509 639.56 197.252 652.036 189.473ZM587.17 255.689C588.991 252.06 591.559 248.8 594.188 245.627C593.201 249.608 592.014 253.537 590.53 257.372C589.044 261.211 587.012 264.875 585.519 268.712C585.424 268.807 585.358 268.927 585.277 269.033C584.779 269.239 584.277 269.436 583.779 269.642C584.015 264.814 584.895 260.222 587.17 255.689ZM506.872 239.899C509.811 227.344 518.33 217.082 528.487 208.321C523.793 214.266 519.938 220.813 517.391 228.126C510.548 247.782 519.864 267.307 518.452 286.391C518.35 286.665 518.21 286.936 518.099 287.208C517.905 286.124 517.626 285.09 517.301 284.088C517.864 268.882 503.058 256.198 506.872 239.899ZM528.815 240.175C532.224 219.084 546.076 203.197 561.32 189.185C550.856 200.973 541.956 214.678 536.409 228.823C532.851 237.899 530.842 247.199 530.358 256.904C530.204 259.958 530.098 262.695 529.926 265.26C529.487 256.956 527.438 248.694 528.815 240.175ZM523.85 280.844C525.384 268.484 521.092 254.782 522.848 242.132C524.78 228.226 532.048 216.268 541.626 205.98C536.477 212.492 532.152 219.63 529.107 227.57C525.809 236.177 524.399 244.946 524.942 254.139C525.555 264.475 527.591 270.513 523.85 280.844ZM567.989 181.182C564.77 183.589 561.61 186.093 558.545 188.703C545.992 197.279 534.69 207.889 527.216 221.003C522.732 228.866 520.029 237.46 519.303 246.511C518.534 256.119 520.689 265.595 520.488 274.714C519.466 264.452 516.755 253.865 517.473 244.324C519.791 213.483 544.388 196.7 567.989 181.182ZM524.089 289.119C524.404 288.717 524.705 288.303 525.015 287.898C525.103 287.791 525.207 287.694 525.293 287.59C524.718 288.427 524.135 289.257 523.547 290.085C523.728 289.764 523.913 289.443 524.089 289.119ZM535.032 243.104C537.948 230.712 543.406 220.197 550.111 210.477C540.974 227.819 539.882 248.681 532.962 266.961C533.659 259.03 533.22 250.798 535.032 243.104ZM546.476 225.079C542.621 239.643 542.338 254.607 536.201 268.601C535.179 270.934 534.025 273.189 532.817 275.417C543.255 252.979 541.515 224.957 555.464 203.69C551.634 210.364 548.501 217.431 546.476 225.079ZM500.248 251.106C499.809 238.275 506.424 227.914 515.072 219.2C512.089 222.844 509.451 226.756 507.329 231.027C504.065 237.6 502.239 244.71 503.329 252.056C504.519 260.064 509.123 266.749 511.74 273.881C506.682 266.959 500.579 260.74 500.248 251.106ZM408.46 348.658C408.675 347.99 408.872 347.318 409.074 346.644C425.965 311.058 435.776 273.087 465.823 245.55C453.281 259.887 442.364 275.487 433.512 292.465C424.59 309.578 420.185 332.567 408.46 348.658Z" fill="#713600"/>
<path d="M111.954 381.248C115.51 380.334 114.216 375.264 110.678 375.773C58.1096 383.313 9.63104 374.068 -37.0219 357.312C-37.0491 357.126 -37.0762 356.941 -37.1395 356.744C-42.4059 339.845 -26.5118 325.304 -26.3783 308.34C-26.2856 296.554 -31.0656 285.297 -37.9969 275.939C-57.0331 250.24 -90.2352 243.429 -118.886 233.901C-121.784 232.937 -124.263 236.776 -122.103 238.982C-101.306 260.199 -84.5413 284.601 -72.7349 311.903C-67.2831 324.512 -63.3831 339.454 -55.1238 350.423C-87.2061 337.54 -118.551 321.626 -149.902 305.725C-156.329 293.921 -153.316 283.961 -144.58 273.263C-141.383 269.349 -138.711 265.678 -137.166 260.83C-133.447 249.161 -136.967 236.113 -143.399 226.144C-151.572 213.475 -164.299 204.458 -176.268 195.67C-191.981 184.131 -208.065 173.74 -226.452 167.042C-229.303 166.004 -231.447 169.793 -229.531 171.906C-219.695 182.755 -209.631 193.72 -202.322 206.501C-194.843 219.579 -192.569 233.181 -189.925 247.736C-186.362 267.336 -177.27 283.232 -165.226 297.972C-170.891 295.118 -176.56 292.281 -182.236 289.483C-195.327 283.024 -208.579 276.844 -222.014 271.148C-221.498 258.224 -229.579 248.279 -237.702 238.706C-238.725 237.502 -240.632 238.642 -240.324 240.088C-238.48 248.732 -235.813 259.574 -230.669 267.562C-240.822 263.452 -251.083 259.638 -261.473 256.249C-262.324 244.768 -256.216 235.054 -258.881 223.311C-260.892 214.448 -265.794 206.44 -272.004 199.887C-292.128 178.645 -324.169 173.152 -340.383 147.639C-342.26 144.685 -346.972 146.203 -346.217 149.818C-343.914 160.844 -341.928 172.516 -337.957 183.085C-333.573 194.758 -325.491 202.689 -316.851 211.388C-304.249 224.078 -291.203 240.314 -275.974 251.849C-289.355 248.051 -302.943 244.976 -316.79 242.875C-327.266 235.138 -335.551 223.798 -344.296 214.387C-350.232 208.003 -355.281 201.832 -364.482 201.816C-365.972 201.814 -366.504 203.694 -365.323 204.535C-356.154 211.073 -352.576 218.55 -347.832 228.397C-346.522 231.116 -345.601 233.371 -343.495 235.6C-341.548 237.66 -339.172 239.212 -336.611 240.497C-343.688 239.83 -350.777 239.325 -357.874 238.916C-359.36 238.651 -360.853 238.391 -362.348 238.131C-370.51 230.121 -379.505 222.92 -388.241 215.568C-399.333 206.234 -410.408 195.921 -423.153 188.881C-444.208 177.251 -471.922 170.876 -495.887 173.116C-498.47 173.358 -500.038 176.052 -498.233 178.233C-482.726 196.948 -465.714 214.969 -443.047 224.85C-433.962 228.811 -424.4 231.715 -414.63 234.077C-420.24 233.747 -425.845 233.469 -431.424 233.218C-438.498 232.899 -445.452 232.453 -452.247 232.602C-467.648 228.892 -480.936 219.468 -495.541 213.236C-511.501 206.424 -528.116 202.803 -545.354 201.418C-546.863 201.298 -547.472 203.454 -546.221 204.219C-532.231 212.774 -518.165 221.156 -502.658 226.689C-493.166 230.075 -483.384 231.281 -473.641 232.623C-472.121 233.263 -470.603 233.908 -469.078 234.532C-470.947 234.512 -472.817 234.489 -474.684 234.487C-474.871 234.276 -475.136 234.127 -475.48 234.111C-476.213 234.077 -476.944 234.07 -477.676 234.041C-527.718 226.569 -579.493 228.901 -621.954 260.054C-624.316 261.787 -622.243 264.888 -620.031 265.234C-596.613 268.881 -578.823 283.022 -554.134 280.807C-535.172 279.106 -517.018 271.243 -500.952 261.355C-495.647 258.09 -490.7 254.269 -485.667 250.596C-485.402 251.005 -484.968 251.324 -484.449 251.394C-471.693 253.111 -461.445 247.748 -450.96 242.024C-448.628 241.515 -446.28 240.995 -443.984 240.355C-420.993 241.909 -397.923 242.766 -374.928 244.314C-387.866 247.41 -400.385 252.819 -412.209 258.518C-437.138 270.528 -460.9 284.707 -483.665 300.411C-485.669 301.793 -485.551 304.558 -483.189 305.505C-461.676 314.14 -431.078 314.176 -409.528 304.856C-385.601 294.507 -370.709 265.829 -355.802 245.99C-355.756 245.931 -355.734 245.872 -355.695 245.813C-343.869 246.87 -332.071 248.2 -320.331 250.032C-316.874 250.573 -313.435 251.177 -310.015 251.833C-323.348 253.95 -334.942 262.707 -346.581 269.973C-347.407 270.489 -347.454 271.905 -346.375 272.184C-328.954 276.685 -311.114 267.494 -300.059 253.912C-281.204 258.142 -262.853 264.008 -244.869 270.917C-261.604 271.987 -278.831 279.608 -292.929 286.596C-319.91 299.97 -344.572 317.653 -372.933 328.22C-375.277 329.093 -376.105 332.007 -373.856 333.593C-359.236 343.89 -342.918 344.542 -325.515 343.307C-311.671 342.323 -297.204 341.128 -285.31 333.308C-262.987 318.633 -255.164 289.756 -232.467 275.866C-217.046 282.239 -201.871 289.281 -186.864 296.656C-197.908 296.518 -209.71 301.008 -218.394 306.241C-219.781 307.075 -218.978 309.041 -217.435 308.813C-207.441 307.34 -199.302 313.165 -189.681 312.027C-182.586 311.188 -176.232 307.195 -169.303 305.435C-166.1 307.062 -162.903 308.697 -159.711 310.335C-145.896 317.427 -131.662 324.858 -117.099 332.192C-130.509 332.342 -144.817 335.412 -153.474 337.384C-184.561 344.467 -214.54 356.893 -246.991 351.679C-249.737 351.238 -251.063 354.633 -250.126 356.701C-244.256 369.647 -226.726 374.341 -214.51 379.447C-201.091 385.055 -185.163 392.751 -170.129 390.625C-138.639 386.17 -127.896 342.347 -95.6938 342.736C-30.2377 374.129 41.0754 399.479 111.954 381.248Z" fill="#FFF9E3"/>
<path d="M111.954 381.248C115.51 380.334 114.216 375.264 110.678 375.773C58.1096 383.313 9.63104 374.068 -37.0219 357.312C-37.0491 357.126 -37.0762 356.941 -37.1395 356.744C-42.4059 339.845 -26.5118 325.304 -26.3783 308.34C-26.2856 296.554 -31.0656 285.297 -37.9969 275.939C-57.0331 250.24 -90.2352 243.429 -118.886 233.901C-121.784 232.937 -124.263 236.776 -122.103 238.982C-101.306 260.199 -84.5413 284.601 -72.7349 311.903C-67.2831 324.512 -63.3831 339.454 -55.1238 350.423C-87.2061 337.54 -118.551 321.626 -149.902 305.725C-156.329 293.921 -153.316 283.961 -144.58 273.263C-141.383 269.349 -138.711 265.678 -137.166 260.83C-133.447 249.161 -136.967 236.113 -143.399 226.144C-151.572 213.475 -164.299 204.458 -176.268 195.67C-191.981 184.131 -208.065 173.74 -226.452 167.042C-229.303 166.004 -231.447 169.793 -229.531 171.906C-219.695 182.755 -209.631 193.72 -202.322 206.501C-194.843 219.579 -192.569 233.181 -189.925 247.736C-186.362 267.336 -177.27 283.232 -165.226 297.972C-170.891 295.118 -176.56 292.281 -182.236 289.483C-195.327 283.024 -208.579 276.844 -222.014 271.148C-221.498 258.224 -229.579 248.279 -237.702 238.706C-238.725 237.502 -240.632 238.642 -240.324 240.088C-238.48 248.732 -235.813 259.574 -230.669 267.562C-240.822 263.452 -251.083 259.638 -261.473 256.249C-262.324 244.768 -256.216 235.054 -258.881 223.311C-260.892 214.448 -265.794 206.44 -272.004 199.887C-292.128 178.645 -324.169 173.152 -340.383 147.639C-342.26 144.685 -346.972 146.203 -346.217 149.818C-343.914 160.844 -341.928 172.516 -337.957 183.085C-333.573 194.758 -325.491 202.689 -316.851 211.388C-304.249 224.078 -291.203 240.314 -275.974 251.849C-289.355 248.051 -302.943 244.976 -316.79 242.875C-327.266 235.138 -335.551 223.798 -344.296 214.387C-350.232 208.003 -355.281 201.832 -364.482 201.816C-365.972 201.814 -366.504 203.694 -365.323 204.535C-356.154 211.073 -352.576 218.55 -347.832 228.397C-346.522 231.116 -345.601 233.371 -343.495 235.6C-341.548 237.66 -339.172 239.212 -336.611 240.497C-343.688 239.83 -350.777 239.325 -357.874 238.916C-359.36 238.651 -360.853 238.391 -362.348 238.131C-370.51 230.121 -379.505 222.92 -388.241 215.568C-399.333 206.234 -410.408 195.921 -423.153 188.881C-444.208 177.251 -471.922 170.876 -495.887 173.116C-498.47 173.358 -500.038 176.052 -498.233 178.233C-482.726 196.948 -465.714 214.969 -443.047 224.85C-433.962 228.811 -424.4 231.715 -414.63 234.077C-420.24 233.747 -425.845 233.469 -431.424 233.218C-438.498 232.899 -445.452 232.453 -452.247 232.602C-467.648 228.892 -480.936 219.468 -495.541 213.236C-511.501 206.424 -528.116 202.803 -545.354 201.418C-546.863 201.298 -547.472 203.454 -546.221 204.219C-532.231 212.774 -518.165 221.156 -502.658 226.689C-493.166 230.075 -483.384 231.281 -473.641 232.623C-472.121 233.263 -470.603 233.908 -469.078 234.532C-470.947 234.512 -472.817 234.489 -474.684 234.487C-474.871 234.276 -475.136 234.127 -475.48 234.111C-476.213 234.077 -476.944 234.07 -477.676 234.041C-527.718 226.569 -579.493 228.901 -621.954 260.054C-624.316 261.787 -622.243 264.888 -620.031 265.234C-596.613 268.881 -578.823 283.022 -554.134 280.807C-535.172 279.106 -517.018 271.243 -500.952 261.355C-495.647 258.09 -490.7 254.269 -485.667 250.596C-485.402 251.005 -484.968 251.324 -484.449 251.394C-471.693 253.111 -461.445 247.748 -450.96 242.024C-448.628 241.515 -446.28 240.995 -443.984 240.355C-420.993 241.909 -397.923 242.766 -374.928 244.314C-387.866 247.41 -400.385 252.819 -412.209 258.518C-437.138 270.528 -460.9 284.707 -483.665 300.411C-485.669 301.793 -485.551 304.558 -483.189 305.505C-461.676 314.14 -431.078 314.176 -409.528 304.856C-385.601 294.507 -370.709 265.829 -355.802 245.99C-355.756 245.931 -355.734 245.872 -355.695 245.813C-343.869 246.87 -332.071 248.2 -320.331 250.032C-316.874 250.573 -313.435 251.177 -310.015 251.833C-323.348 253.95 -334.942 262.707 -346.581 269.973C-347.407 270.489 -347.454 271.905 -346.375 272.184C-328.954 276.685 -311.114 267.494 -300.059 253.912C-281.204 258.142 -262.853 264.008 -244.869 270.917C-261.604 271.987 -278.831 279.608 -292.929 286.596C-319.91 299.97 -344.572 317.653 -372.933 328.22C-375.277 329.093 -376.105 332.007 -373.856 333.593C-359.236 343.89 -342.918 344.542 -325.515 343.307C-311.671 342.323 -297.204 341.128 -285.31 333.308C-262.987 318.633 -255.164 289.756 -232.467 275.866C-217.046 282.239 -201.871 289.281 -186.864 296.656C-197.908 296.518 -209.71 301.008 -218.394 306.241C-219.781 307.075 -218.978 309.041 -217.435 308.813C-207.441 307.34 -199.302 313.165 -189.681 312.027C-182.586 311.188 -176.232 307.195 -169.303 305.435C-166.1 307.062 -162.903 308.697 -159.711 310.335C-145.896 317.427 -131.662 324.858 -117.099 332.192C-130.509 332.342 -144.817 335.412 -153.474 337.384C-184.561 344.467 -214.54 356.893 -246.991 351.679C-249.737 351.238 -251.063 354.633 -250.126 356.701C-244.256 369.647 -226.726 374.341 -214.51 379.447C-201.091 385.055 -185.163 392.751 -170.129 390.625C-138.639 386.17 -127.896 342.347 -95.6938 342.736C-30.2377 374.129 41.0754 399.479 111.954 381.248ZM-472.774 302.605C-440.373 303.997 -408.488 289.324 -382.959 268.7C-390.831 279.33 -399.584 289.044 -412.001 295.323C-424.28 301.533 -439.602 303.017 -453.15 303.746C-458.674 304.042 -464.049 303.621 -469.562 303.44C-469.895 303.429 -470.343 303.463 -470.836 303.515C-471.702 303.309 -472.575 303.112 -473.421 302.884C-473.204 302.793 -472.989 302.696 -472.774 302.605ZM-440.217 216.43C-451.408 211.401 -461.02 205.126 -470.419 197.256C-474.987 193.43 -479.31 189.465 -483.346 185.076C-484.101 184.255 -485.214 183.289 -486.252 182.447C-455.853 204.619 -424.436 218.982 -390.293 231.627C-407.384 227.99 -424.368 223.554 -440.217 216.43ZM-435.016 211.817C-450.352 204.332 -464.422 194.736 -478.24 184.796C-444.194 195.758 -413.514 212.917 -382.819 231.179C-400.491 225.456 -418.45 219.902 -435.016 211.817ZM-483.178 181.221C-464.513 186.139 -446.492 188.535 -429.132 198.982C-419.649 204.689 -410.245 210.591 -401.17 216.941C-426.658 202.809 -453.164 190.236 -481.172 182.671C-481.841 182.187 -482.511 181.705 -483.178 181.221ZM-439.163 305.981C-428.974 304.741 -419.104 302.085 -410.646 297.889C-404.608 294.894 -398.948 290.93 -393.67 286.361C-398.127 290.973 -402.868 294.932 -407.983 297.724C-416.747 302.504 -427.775 305.164 -439.163 305.981ZM-372.933 249.082C-387.655 257.878 -403.09 265.748 -418.107 273.867C-428.465 279.468 -441.357 288.426 -454.39 294.534C-427.515 282.325 -401.176 268.539 -375.032 254.629C-401.434 278.606 -429.84 294.247 -465.51 299.465C-462.601 298.203 -459.694 296.941 -456.799 295.638C-461.321 297.626 -465.836 299.192 -470.259 300.135C-471.523 300.284 -472.826 300.382 -474.111 300.506C-442.834 279.237 -409.266 259.656 -372.933 249.082ZM-607.888 260.508C-607.636 261.124 -589.507 257.694 -587.609 257.409C-575.043 255.523 -562.52 253.426 -550.005 251.227C-533.371 248.304 -516.783 245.207 -500.251 241.809C-508.042 244.902 -515.554 249.005 -524.044 253.326C-545.881 264.44 -570.507 265.856 -594.489 263.205C-596.292 263.008 -606.888 262.958 -607.888 260.508ZM-470.562 246.017C-468.067 245.942 -465.587 245.522 -463.126 244.979C-467.979 247.277 -473.005 248.528 -478.321 248.637C-470.648 244.938 -463.124 241.445 -455.009 239.916C-454.998 239.918 -454.989 239.918 -454.978 239.92C-454.892 239.952 -454.804 239.981 -454.718 240.013C-454.973 240.083 -455.231 240.16 -455.485 240.228C-460.608 241.581 -466.051 242.775 -470.709 245.374C-470.994 245.531 -470.917 246.026 -470.562 246.017ZM-473.874 242.882C-473.62 242.753 -473.365 242.633 -473.111 242.511C-473.367 242.633 -473.62 242.759 -473.874 242.882ZM-488.877 241.429C-503.174 247.354 -515.977 256.19 -529.847 263.592C-553.048 275.973 -576.622 270.639 -600.194 263.761C-582.979 266.322 -565.632 266.992 -548.336 263.535C-526.797 259.23 -509.521 246.243 -488.877 241.429ZM-603.992 258.622C-568.931 248.634 -533.356 239.914 -497.032 238.823C-501.4 239.771 -505.768 240.719 -510.143 241.633C-521.61 244.031 -533.08 246.469 -544.576 248.716C-564.596 252.625 -584.739 256.043 -604.926 259.015C-604.616 258.884 -604.304 258.753 -603.992 258.622ZM-581.42 250.071C-554.898 241.079 -526.553 235.217 -499.052 235.339C-496.036 235.523 -493.021 235.747 -490.01 235.996C-521.047 236.219 -551.571 241.576 -581.42 250.071ZM-586.922 269.985C-588.682 269.354 -590.403 268.695 -592.111 268.03C-575.728 271.697 -559.167 274.769 -542.891 270.005C-524.076 264.494 -507.963 252.987 -490.22 245.384C-507.759 257.027 -524.418 268.589 -545.856 272.928C-559.943 275.774 -573.457 274.812 -586.922 269.985ZM-514.247 234.749C-547.076 237.373 -579.149 245.381 -609.464 258.975C-610.111 259.201 -610.758 259.423 -611.403 259.651C-582.415 239.597 -548.616 234.202 -514.247 234.749ZM-487.954 221.71C-498.534 217.984 -509.254 214.736 -519.554 211.727C-520.015 211.591 -520.199 212.249 -519.771 212.428C-508.092 217.256 -496.437 222.658 -484.712 227.84C-489.553 227.128 -494.36 226.191 -499.061 224.655C-508.908 221.443 -518.305 216.982 -527.372 212.007C-532.349 209.277 -547.003 204.906 -533.774 206.001C-517.353 207.361 -502.655 214.758 -487.954 221.71ZM-430.745 223.293C-444.705 218.66 -456.527 211.195 -467.132 202.108C-449.144 214.708 -428.031 223.196 -406.594 229.856C-414.788 228.006 -422.886 225.902 -430.745 223.293ZM-399.677 213.973C-408.913 208.076 -418.473 202.653 -428.099 197.364C-446.479 187.264 -464.983 184.637 -484.692 180.124C-485.042 179.871 -485.393 179.615 -485.741 179.362C-462.823 180.416 -438.652 186.467 -419.731 198.977C-412.77 203.581 -406.18 208.714 -399.677 213.973ZM-46.7946 275.188C-39.9695 282.866 -35.6533 292.285 -36.0469 304.255C-36.4451 316.28 -41.0576 327.245 -42.9036 338.585C-43.8989 341.553 -44.5685 344.474 -44.8106 347.462C-47.6609 336.203 -43.4261 323.854 -43.8536 312.025C-44.1975 302.504 -47.2809 293.706 -51.8596 285.431C-60.4558 269.894 -73.5199 259.054 -88.2263 250.335C-82.1071 252.514 -76.0966 254.939 -70.3914 257.801C-61.7815 262.391 -53.5833 267.793 -47.351 274.591C-47.1678 274.79 -46.9778 274.984 -46.7946 275.188ZM-96.0626 247.666C-73.0313 261.124 -50.1878 279.038 -48.4052 307.37C-47.817 316.715 -49.9615 325.872 -50.7443 334.751C-54.4656 319.434 -55.7234 303.415 -62.2385 288.704C-68.8395 273.799 -81.5078 257.262 -96.5331 247.512C-96.3748 247.562 -96.2187 247.616 -96.0626 247.666ZM-53.0744 337.771C-65.358 306.114 -75.9812 271.65 -100.214 248.157C-80.1549 261.251 -63.8921 283.904 -58.7954 306.134C-56.3862 316.645 -55.2733 327.36 -53.0744 337.771ZM-224.321 368.109C-226.004 367.01 -227.683 365.906 -229.366 364.806C-213.311 370.946 -196.291 374.402 -179.08 371.03C-168.319 368.919 -159.637 363.863 -150.414 358.226C-146.256 355.683 -142.021 353.511 -137.725 351.559C-147.124 357.839 -156.026 364.949 -165.817 371.367C-174.947 377.352 -183.898 380.535 -193.212 380.32C-200.691 377.816 -208.054 374.859 -215.293 371.738C-217.928 370.597 -221.075 369.432 -224.321 368.109ZM-222.005 363.612C-208.061 366.188 -193.884 366.324 -179.741 362.7C-169.45 360.065 -160.693 354.907 -151.124 350.512C-145.202 347.79 -139.229 345.879 -133.144 344.44C-142.795 348.874 -151.97 354.142 -161.668 360.397C-182.319 373.713 -204.475 370.509 -226.047 363.748C-224.701 363.739 -223.355 363.698 -222.005 363.612ZM-139.367 355.506C-139.867 356.043 -140.376 356.577 -140.87 357.113C-152.71 369.939 -163.96 379.97 -179.266 383.146C-181.071 383.046 -182.919 382.843 -184.833 382.499C-182.222 382.053 -179.596 381.39 -176.945 380.352C-167.357 376.599 -159.195 369.88 -151.104 363.693C-147.265 360.757 -143.344 358.065 -139.367 355.506ZM-216.338 363.051C-206.885 361.829 -197.453 359.253 -188.448 357.097C-176.594 354.258 -164.86 351.007 -153.291 347.249C-157.223 349.233 -161.15 351.371 -165.147 353.597C-181.263 362.569 -198.811 364.917 -216.338 363.051ZM-165.064 381.266C-162.65 380.105 -160.272 378.791 -157.976 377.201C-150.099 371.751 -143.989 364.279 -136.985 357.841C-134.583 355.631 -132.181 353.74 -129.735 352.043C-134.189 356.287 -138.388 360.875 -142.453 365.186C-149.76 372.939 -156.997 378.504 -165.064 381.266ZM-174.73 350.005C-163.525 346.881 -152.328 343.745 -140.876 341.673C-142.118 342.151 -143.344 342.687 -144.573 343.212C-156.501 347.032 -168.493 350.643 -180.693 353.538C-197.184 357.45 -215.77 362.388 -232.909 359.809C-213.151 360.248 -193.986 355.373 -174.73 350.005ZM-180.537 299.78C-178.191 300.95 -175.85 302.126 -173.511 303.307C-179.132 304.913 -184.238 308.182 -190.199 308.919C-196.84 309.74 -202.383 305.981 -208.83 305.41C-209.543 305.347 -210.255 305.334 -210.968 305.343C-201.593 300.818 -190.717 298.176 -180.537 299.78ZM-267.278 251.672C-267.599 251.405 -267.929 251.148 -268.248 250.876C-270.902 234.907 -277.783 221.635 -288.789 209.324C-298.295 198.692 -308.097 188.221 -318.034 177.9C-291.714 195.349 -268.289 214.645 -267.183 250.67C-267.219 251.005 -267.253 251.338 -267.278 251.672ZM-264.335 292.695C-271.033 300.888 -276.858 310.247 -284.733 317.106C-295.594 326.564 -308.936 332.749 -323.145 335.108C-329.701 336.196 -336.406 336.414 -343.029 335.792C-312.105 335.898 -289.728 310.55 -264.335 292.695ZM-286.853 305.594C-304.769 320.8 -321.22 329.962 -341.367 331.423C-338.338 330.962 -335.324 330.394 -332.365 329.602C-322.747 327.03 -313.709 322.732 -305.522 317.077C-296.023 310.516 -287.253 304.119 -278.279 298.291C-281.147 300.723 -283.998 303.171 -286.853 305.594ZM-349.902 329.326C-335.042 323.114 -322.803 311.946 -309.21 302.773C-290.02 289.824 -270.051 280.789 -247.715 276.762C-268.57 285.053 -285.21 297.586 -303.38 311.473C-317.014 321.893 -332.922 328.032 -349.902 329.326ZM-326.289 172.516C-315.711 183.997 -304.916 195.281 -294.354 206.773C-285.991 215.871 -278.632 225.017 -274.291 236.697C-274.241 236.83 -274.162 237.124 -274.067 237.511C-280 228.637 -290.126 220.742 -296.413 214.05C-309.262 200.368 -320.473 185.3 -330.764 169.632C-329.273 170.594 -327.78 171.555 -326.289 172.516ZM-279.383 240.739C-285.599 234.699 -291.594 228.381 -297.539 222.085C-296.774 222.68 -295.994 223.257 -295.214 223.839C-289.646 229.182 -284.192 234.591 -279.383 240.739ZM-330.282 177.068C-322.563 187.56 -314.288 197.597 -305.369 207.178C-296.191 217.036 -285.158 226.266 -277.684 237.538C-287.543 225.716 -299.81 216.803 -311.669 206.327C-319.222 197.541 -325.473 187.77 -330.282 177.068ZM-310.504 335.656C-306.871 334.527 -303.278 333.134 -299.756 331.398C-289.965 326.575 -281.229 319.732 -274.105 311.48C-267.264 303.553 -261.982 294.833 -254.628 288.412C-260.797 296.102 -266.235 304.558 -272.395 312.435C-282.742 325.666 -294.503 332.878 -310.504 335.656ZM-309.529 300.597C-324.923 311.72 -340.206 325.336 -358.156 329.494C-359.012 329.439 -359.862 329.39 -360.697 329.365C-343.973 321.594 -326.945 310.65 -309.529 300.597ZM-305.805 253.369C-309.986 257.758 -314.028 262.192 -319.555 265.379C-326.649 269.471 -334.544 270.568 -342.516 270.114C-331.286 262.603 -319.245 254.674 -305.805 253.369ZM-321.455 242.232C-322.937 242.031 -324.409 241.805 -325.896 241.626C-326.052 241.608 -326.21 241.594 -326.366 241.576C-328.477 240.984 -330.574 240.362 -332.578 239.513C-343.068 235.079 -343.733 228.786 -348.379 220.083C-351.313 214.589 -354.784 210.053 -359.107 205.983C-348.967 210.039 -340.122 223.44 -333.505 230.512C-329.504 234.787 -325.764 238.785 -321.455 242.232ZM-329.637 185.302C-328.447 187.345 -327.223 189.363 -325.929 191.329C-327.278 189.415 -328.522 187.415 -329.637 185.302ZM-264.627 222.479C-262.484 230.677 -264.943 238.065 -266.427 245.689C-266.633 222.807 -279.571 203.164 -296.847 187.61C-295.831 188.221 -294.815 188.838 -293.807 189.467C-281.328 197.249 -268.536 207.506 -264.627 222.479ZM-225.55 269.636C-226.047 269.431 -226.547 269.234 -227.047 269.028C-227.129 268.922 -227.197 268.804 -227.289 268.707C-228.785 264.87 -230.816 261.205 -232.3 257.366C-233.784 253.532 -234.972 249.603 -235.958 245.621C-233.329 248.795 -230.762 252.055 -228.941 255.683C-226.665 260.219 -225.783 264.811 -225.55 269.636ZM-159.073 284.085C-159.399 285.089 -159.675 286.121 -159.872 287.204C-159.983 286.931 -160.123 286.662 -160.225 286.388C-161.636 267.304 -152.321 247.779 -159.164 228.123C-161.709 220.809 -165.566 214.263 -170.26 208.318C-160.103 217.079 -151.583 227.34 -148.647 239.896C-144.828 256.195 -159.632 268.879 -159.073 284.085ZM-171.696 265.257C-171.87 262.691 -171.977 259.957 -172.128 256.9C-172.612 247.196 -174.621 237.893 -178.18 228.82C-183.727 214.677 -192.626 200.97 -203.091 189.182C-187.846 203.194 -173.995 219.081 -170.586 240.172C-169.208 248.691 -171.255 256.952 -171.696 265.257ZM-166.715 254.136C-166.172 244.942 -167.581 236.172 -170.88 227.567C-173.925 219.626 -178.25 212.489 -183.399 205.976C-173.82 216.265 -166.552 228.22 -164.62 242.128C-162.862 254.781 -167.154 268.48 -165.62 280.841C-169.362 270.51 -167.326 264.472 -166.715 254.136ZM-159.243 244.32C-158.526 253.86 -161.234 264.449 -162.258 274.71C-162.46 265.592 -160.304 256.118 -161.073 246.508C-161.797 237.457 -164.503 228.861 -168.986 221C-176.463 207.888 -187.765 197.276 -200.315 188.7C-203.38 186.09 -206.541 183.583 -209.76 181.178C-186.156 196.697 -161.562 213.48 -159.243 244.32ZM-165.317 290.082C-165.905 289.254 -166.487 288.424 -167.063 287.587C-166.977 287.693 -166.873 287.79 -166.785 287.894C-166.475 288.302 -166.174 288.713 -165.86 289.116C-165.683 289.439 -165.498 289.761 -165.317 290.082ZM-174.732 266.958C-181.652 248.677 -182.745 227.815 -191.882 210.474C-185.174 220.194 -179.718 230.709 -176.802 243.101C-174.99 250.795 -175.429 259.027 -174.732 266.958ZM-197.234 203.687C-183.285 224.954 -185.025 252.978 -174.587 275.414C-175.793 273.186 -176.947 270.93 -177.972 268.598C-184.109 254.604 -184.392 239.638 -188.246 225.076C-190.271 217.428 -193.404 210.36 -197.234 203.687ZM-153.511 273.88C-150.893 266.748 -146.29 260.063 -145.1 252.055C-144.007 244.709 -145.835 237.599 -149.099 231.026C-151.221 226.752 -153.859 222.841 -156.843 219.199C-148.195 227.913 -141.58 238.273 -142.019 251.105C-142.347 260.737 -148.452 266.956 -153.511 273.88ZM-75.2799 292.462C-84.1318 275.484 -95.0513 259.884 -107.593 245.546C-77.5466 273.084 -67.7333 311.055 -50.8438 346.641C-50.6448 347.313 -50.4479 347.985 -50.233 348.654C-61.9534 332.563 -66.3578 309.575 -75.2799 292.462Z" fill="#713600"/>
<path d="M142.274 23.8297C151.256 31.547 148.116 42.8459 140.867 48.4558C154.822 65.7672 172.776 78.4635 194.073 86.1243C194.012 85.8349 193.989 85.5364 194.034 85.2379C183.127 70.5178 177.523 51.7413 176.85 33.2587C174.261 32.768 171.646 31.5515 169.156 29.4125C152.84 15.3933 174.646 -9.9315 190.987 4.10797C204.074 15.3527 192.632 33.8556 179.157 33.4961C181.029 50.7599 187.214 66.2533 196.735 81.5771C199.588 74.6286 203.471 68.3155 205.517 60.77C206.997 55.3071 208.035 49.7673 208.877 44.1868C207.844 43.9177 206.809 43.4067 205.819 42.5542C198.414 36.1914 208.309 24.698 215.727 31.0699C221.69 36.1936 216.429 44.63 210.284 44.3994C209.781 57.4733 208.438 73.489 200.415 83.3046C223.621 80.8558 238.958 51.5672 248.25 29.1682C246.422 28.759 244.65 27.9608 243.093 26.6245C240.719 24.5826 239.112 21.408 238.879 18.2876C238.655 15.3029 239.715 11.6331 241.806 9.4194C246.354 4.60316 253.853 3.67154 259.047 8.13505C261.421 10.1769 263.028 13.3515 263.261 16.4719C263.485 19.4566 262.425 23.1265 260.334 25.3401C257.524 28.3158 253.588 29.7968 249.764 29.4509C244.208 44.9443 237.259 60.4083 226.813 72.9893C221.79 79.0379 214.821 85.5703 207.053 87.8292C217.385 89.8484 227.459 90.6715 238.21 87.3363C247.351 84.5031 255.709 79.671 263.737 74.4387C263.182 73.177 262.819 71.8158 262.772 70.337C262.661 66.8254 263.601 63.436 265.946 60.7203C268.164 58.1494 271.613 56.4128 275.002 56.1596C279.976 55.7887 284.025 58.1833 287 61.9798C287.068 62.0679 287.136 62.1539 287.204 62.2398C287.711 63.2596 288.217 64.2771 288.724 65.2969C289.347 66.9249 289.544 68.5846 289.311 70.2759C289.161 73.0775 288.226 76.0622 286.243 78.1628C284.637 79.8654 282.717 81.1701 280.535 82.0248C277.742 83.1192 273.251 82.9677 270.609 81.4754C270.514 81.4211 270.416 81.3668 270.321 81.3126C268.108 80.0622 266.132 78.3572 264.747 76.2815C245.651 90.5991 226.365 96.3379 202.298 90.8817C202.214 90.9903 202.123 91.0988 202.037 91.2073C210.432 100.813 220.32 108.632 231.828 114.572C241.018 119.316 253.647 124.677 265.266 125.419C265.205 122.488 266.265 119.065 268.266 116.946C270.482 114.599 273.471 112.756 276.795 112.652C280.107 112.546 283.307 113.432 285.869 115.635C288.294 117.719 289.934 120.962 290.172 124.145C290.401 127.193 289.318 130.94 287.183 133.201C284.967 135.548 281.979 137.389 278.653 137.495C275.34 137.599 272.141 136.715 269.578 134.513C267.697 132.896 266.311 130.583 265.663 128.141C255.589 128.559 244.126 124.408 235.956 120.95C222.096 115.085 210.468 105.995 200.879 94.7031C207.624 118.294 207.67 143.589 206.759 167.96C205.694 196.367 196.701 222.826 184.115 248.115C171.94 272.581 158.072 299.328 137.324 317.711C121.764 331.499 97.3596 343.658 76.9425 333.351C76.3171 333.037 76.6162 332.056 77.3209 332.18C131.367 341.67 163.845 274.222 182.105 234.042C192.947 210.187 199.146 185.689 199.862 159.494C200.428 138.741 201.242 117.326 197.845 96.6997C191.707 115.849 172.054 131.184 152.692 138.583C154.009 140.824 154.861 143.358 155.049 145.875C155.357 149.99 153.896 155.051 151.014 158.106C148.02 161.276 143.985 163.763 139.494 163.905C135.019 164.048 130.701 162.852 127.239 159.878C123.962 157.063 121.749 152.686 121.427 148.383C121.119 144.267 122.58 139.207 125.462 136.152C128.455 132.982 132.491 130.495 136.981 130.352C141.456 130.21 145.775 131.406 149.237 134.379C150.098 135.119 150.882 135.974 151.582 136.901C167.919 129.47 185.447 116.304 192.625 100.476C169.774 118.312 128.659 126.144 107.195 107.345C103.151 111.013 97.0174 112.274 91.6702 107.68C79.8722 97.5431 95.6398 79.2301 107.456 89.3826C113.136 94.2622 112.395 101.016 108.813 105.597C129.343 120.842 164.194 115.268 186.086 100.148C175.749 102.278 164.903 101.245 154.256 98.7279C139.286 95.1915 123.989 90.7868 112.76 80.2928C112.713 80.3177 112.674 80.3539 112.624 80.3787C108.659 82.3414 103.158 79.732 103.063 74.9814C103.06 74.8186 103.056 74.658 103.053 74.4952C103.001 71.8565 104.225 69.4868 106.647 68.2861C108.75 67.246 111.976 67.2889 113.714 69.1272C113.818 69.238 113.922 69.3488 114.029 69.4596C115.685 71.212 116.687 73.2041 116.229 75.6868C115.964 77.1272 115.228 78.3391 114.197 79.273C125.295 87.5782 139.021 91.5194 152.47 94.7935C167.348 98.4159 181.611 99.3791 195.217 92.5052C195.233 92.4894 195.249 92.4758 195.262 92.46C195.328 92.1367 195.385 91.8133 195.441 91.4877C172.702 83.0944 153.522 68.6343 139.41 49.4734C134.235 52.7023 127.458 53.1319 121.449 47.9674C105.89 34.5928 126.688 10.4347 142.274 23.8297Z" fill="#713600"/>
</g>
</svg>
