<svg width="86" height="87" viewBox="0 0 86 87" fill="none" xmlns="http://www.w3.org/2000/svg">
<circle cx="43" cy="43.5" r="42" stroke="#6E6E6E" stroke-width="2"/>
<path d="M55.2695 56.2188C54.9214 56.2188 54.5876 56.357 54.3415 56.6032C54.0953 56.8493 53.957 57.1832 53.957 57.5312V61.4688H27.707V29.9688H32.957V31.2812C32.957 31.6293 33.0953 31.9632 33.3415 32.2093C33.5876 32.4555 33.9214 32.5938 34.2695 32.5938H47.3945C47.7426 32.5938 48.0765 32.4555 48.3226 32.2093C48.5688 31.9632 48.707 31.6293 48.707 31.2812V29.9688H53.957V31.2812C53.957 31.6293 54.0953 31.9632 54.3415 32.2093C54.5876 32.4555 54.9214 32.5938 55.2695 32.5938C55.6176 32.5938 55.9515 32.4555 56.1976 32.2093C56.4438 31.9632 56.582 31.6293 56.582 31.2812V28.6562C56.582 28.3082 56.4438 27.9743 56.1976 27.7282C55.9515 27.482 55.6176 27.3438 55.2695 27.3438H48.707V26.0312C48.707 24.987 48.2922 23.9854 47.5538 23.247C46.8153 22.5086 45.8138 22.0938 44.7695 22.0938H36.8945C35.8502 22.0937 34.8487 22.5086 34.1103 23.247C33.3719 23.9854 32.957 24.987 32.957 26.0312V27.3438H26.3945C26.0464 27.3438 25.7126 27.482 25.4665 27.7282C25.2203 27.9743 25.082 28.3082 25.082 28.6562V62.7812C25.082 63.1293 25.2203 63.4632 25.4665 63.7093C25.7126 63.9555 26.0464 64.0938 26.3945 64.0938H55.2695C55.6176 64.0938 55.9515 63.9555 56.1976 63.7093C56.4438 63.4632 56.582 63.1293 56.582 62.7812V57.5312C56.582 57.1832 56.4438 56.8493 56.1976 56.6032C55.9515 56.357 55.6176 56.2188 55.2695 56.2188ZM35.582 26.0312C35.582 25.6832 35.7203 25.3493 35.9665 25.1032C36.2126 24.857 36.5464 24.7188 36.8945 24.7188H44.7695C45.1176 24.7188 45.4515 24.857 45.6976 25.1032C45.9438 25.3493 46.082 25.6832 46.082 26.0312V29.9688H35.582V26.0312ZM66.6988 38.227L61.4488 32.977C61.3269 32.8548 61.182 32.7578 61.0226 32.6916C60.8631 32.6255 60.6922 32.5914 60.5195 32.5914C60.3469 32.5914 60.1759 32.6255 60.0165 32.6916C59.857 32.7578 59.7122 32.8548 59.5903 32.977L43.8403 48.727C43.7185 48.8491 43.6219 48.994 43.5562 49.1535C43.4904 49.3129 43.4567 49.4838 43.457 49.6562V54.9062C43.457 55.2543 43.5953 55.5882 43.8415 55.8343C44.0876 56.0805 44.4214 56.2188 44.7695 56.2188H50.0195C50.192 56.2191 50.3629 56.1854 50.5223 56.1196C50.6818 56.0538 50.8267 55.9573 50.9488 55.8355L66.6988 40.0855C66.821 39.9636 66.918 39.8187 66.9841 39.6593C67.0503 39.4998 67.0844 39.3289 67.0844 39.1562C67.0844 38.9836 67.0503 38.8127 66.9841 38.6532C66.918 38.4938 66.821 38.3489 66.6988 38.227ZM46.082 53.5938V50.1996L60.5195 35.7621L63.9137 39.1562L49.4762 53.5938H46.082ZM40.832 54.9062C40.832 55.2543 40.6938 55.5882 40.4476 55.8343C40.2015 56.0805 39.8676 56.2188 39.5195 56.2188H34.2695C33.9214 56.2188 33.5876 56.0805 33.3415 55.8343C33.0953 55.5882 32.957 55.2543 32.957 54.9062C32.957 54.5582 33.0953 54.2243 33.3415 53.9782C33.5876 53.732 33.9214 53.5938 34.2695 53.5938H39.5195C39.8676 53.5938 40.2015 53.732 40.4476 53.9782C40.6938 54.2243 40.832 54.5582 40.832 54.9062ZM40.832 47.0312C40.832 47.3793 40.6938 47.7132 40.4476 47.9593C40.2015 48.2055 39.8676 48.3438 39.5195 48.3438H34.2695C33.9214 48.3438 33.5876 48.2055 33.3415 47.9593C33.0953 47.7132 32.957 47.3793 32.957 47.0312C32.957 46.6832 33.0953 46.3493 33.3415 46.1032C33.5876 45.857 33.9214 45.7188 34.2695 45.7188H39.5195C39.8676 45.7188 40.2015 45.857 40.4476 46.1032C40.6938 46.3493 40.832 46.6832 40.832 47.0312ZM47.3945 40.4688H34.2695C33.9214 40.4688 33.5876 40.3305 33.3415 40.0843C33.0953 39.8382 32.957 39.5043 32.957 39.1562C32.957 38.8082 33.0953 38.4743 33.3415 38.2282C33.5876 37.982 33.9214 37.8438 34.2695 37.8438H47.3945C47.7426 37.8438 48.0765 37.982 48.3226 38.2282C48.5688 38.4743 48.707 38.8082 48.707 39.1562C48.707 39.5043 48.5688 39.8382 48.3226 40.0843C48.0765 40.3305 47.7426 40.4688 47.3945 40.4688Z" fill="#606060"/>
</svg>
