<svg width="86" height="87" viewBox="0 0 86 87" fill="none" xmlns="http://www.w3.org/2000/svg">
<circle cx="43" cy="43.5" r="42" stroke="#6E6E6E" stroke-width="2"/>
<path d="M61.375 41.926V36.4397C61.375 35.3954 60.9602 34.3939 60.2217 33.6555C59.4833 32.9171 58.4818 32.5022 57.4375 32.5022H55.4688L47.9875 22.5272C47.7808 22.2505 47.4734 22.0663 47.1319 22.0147C46.7904 21.9631 46.4423 22.0482 46.1631 22.2516L39.5219 27.0947C38.4382 25.954 37.0378 25.1641 35.501 24.8268C33.9643 24.4894 32.3617 24.6201 30.9 25.202C29.4382 25.7839 28.1842 26.7903 27.2997 28.0914C26.4152 29.3926 25.9408 30.9289 25.9375 32.5022C24.8932 32.5022 23.8917 32.9171 23.1533 33.6555C22.4148 34.3939 22 35.3954 22 36.4397V60.0647C22 61.109 22.4148 62.1105 23.1533 62.8489C23.8917 63.5874 24.8932 64.0022 25.9375 64.0022H57.4375C58.4818 64.0022 59.4833 63.5874 60.2217 62.8489C60.9602 62.1105 61.375 61.109 61.375 60.0647V54.5785C62.1409 54.3077 62.8043 53.8066 63.2743 53.144C63.7442 52.4813 63.9977 51.6896 64 50.8772V45.6272C63.9977 44.8148 63.7442 44.0231 63.2743 43.3604C62.8043 42.6978 62.1409 42.1967 61.375 41.926ZM46.6619 25.1391L52.1875 32.5022H36.5425L46.6619 25.1391ZM33.8125 27.2522C35.1307 27.253 36.4005 27.7496 37.3694 28.6435L32.0669 32.5022H28.5625C28.5625 31.1098 29.1156 29.7745 30.1002 28.7899C31.0848 27.8053 32.4201 27.2522 33.8125 27.2522ZM57.4375 61.3772H25.9375C25.5894 61.3772 25.2556 61.2389 25.0094 60.9928C24.7633 60.7466 24.625 60.4128 24.625 60.0647V36.4397C24.625 36.0916 24.7633 35.7578 25.0094 35.5116C25.2556 35.2655 25.5894 35.1272 25.9375 35.1272H57.4375C57.7856 35.1272 58.1194 35.2655 58.3656 35.5116C58.6117 35.7578 58.75 36.0916 58.75 36.4397V41.6897H54.8125C53.072 41.6897 51.4028 42.3811 50.1721 43.6118C48.9414 44.8425 48.25 46.5117 48.25 48.2522C48.25 49.9927 48.9414 51.6619 50.1721 52.8926C51.4028 54.1233 53.072 54.8147 54.8125 54.8147H58.75V60.0647C58.75 60.4128 58.6117 60.7466 58.3656 60.9928C58.1194 61.2389 57.7856 61.3772 57.4375 61.3772ZM61.375 50.8772C61.375 51.2253 61.2367 51.5591 60.9906 51.8053C60.7444 52.0514 60.4106 52.1897 60.0625 52.1897H54.8125C53.7682 52.1897 52.7667 51.7749 52.0283 51.0364C51.2898 50.298 50.875 49.2965 50.875 48.2522C50.875 47.2079 51.2898 46.2064 52.0283 45.468C52.7667 44.7296 53.7682 44.3147 54.8125 44.3147H60.0625C60.4106 44.3147 60.7444 44.453 60.9906 44.6991C61.2367 44.9453 61.375 45.2791 61.375 45.6272V50.8772Z" fill="#606060"/>
<path d="M54.8125 46.9414C54.5529 46.9414 54.2992 47.0184 54.0833 47.1626C53.8675 47.3068 53.6992 47.5118 53.5999 47.7516C53.5006 47.9915 53.4746 48.2554 53.5252 48.51C53.5759 48.7646 53.7009 48.9984 53.8844 49.182C54.068 49.3655 54.3018 49.4905 54.5564 49.5412C54.811 49.5918 55.0749 49.5658 55.3148 49.4665C55.5546 49.3672 55.7596 49.1989 55.9038 48.9831C56.048 48.7673 56.125 48.5135 56.125 48.2539C56.125 47.9058 55.9867 47.572 55.7406 47.3258C55.4944 47.0797 55.1606 46.9414 54.8125 46.9414Z" fill="#606060"/>
<path d="M28.5625 37.75C28.2144 37.75 27.8806 37.8883 27.6344 38.1344C27.3883 38.3806 27.25 38.7144 27.25 39.0625V41.6875C27.25 42.0356 27.3883 42.3694 27.6344 42.6156C27.8806 42.8617 28.2144 43 28.5625 43C28.9106 43 29.2444 42.8617 29.4906 42.6156C29.7367 42.3694 29.875 42.0356 29.875 41.6875V39.0625C29.875 38.7144 29.7367 38.3806 29.4906 38.1344C29.2444 37.8883 28.9106 37.75 28.5625 37.75Z" fill="#606060"/>
<path d="M28.5625 45.6289C28.2144 45.6289 27.8806 45.7672 27.6344 46.0133C27.3883 46.2595 27.25 46.5933 27.25 46.9414V49.5664C27.25 49.9145 27.3883 50.2483 27.6344 50.4945C27.8806 50.7406 28.2144 50.8789 28.5625 50.8789C28.9106 50.8789 29.2444 50.7406 29.4906 50.4945C29.7367 50.2483 29.875 49.9145 29.875 49.5664V46.9414C29.875 46.5933 29.7367 46.2595 29.4906 46.0133C29.2444 45.7672 28.9106 45.6289 28.5625 45.6289Z" fill="#606060"/>
<path d="M28.5625 53.5C28.2144 53.5 27.8806 53.6383 27.6344 53.8844C27.3883 54.1306 27.25 54.4644 27.25 54.8125V57.4375C27.25 57.7856 27.3883 58.1194 27.6344 58.3656C27.8806 58.6117 28.2144 58.75 28.5625 58.75C28.9106 58.75 29.2444 58.6117 29.4906 58.3656C29.7367 58.1194 29.875 57.7856 29.875 57.4375V54.8125C29.875 54.4644 29.7367 54.1306 29.4906 53.8844C29.2444 53.6383 28.9106 53.5 28.5625 53.5Z" fill="#606060"/>
</svg>
