<svg width="29" height="21" viewBox="0 0 29 21" fill="none" xmlns="http://www.w3.org/2000/svg">
<path d="M10.4131 18.7135C10.0674 19.0388 9.7999 19.2566 9.52653 19.4158C8.18833 20.1947 6.53961 20.1947 5.20143 19.4158C4.70829 19.1287 4.23428 18.6507 3.28623 17.695C2.33818 16.7391 1.86415 16.2612 1.57946 15.7639C0.806848 14.4147 0.806848 12.7523 1.57946 11.4031C1.86415 10.906 2.33818 10.428 3.28623 9.47216L7.36398 5.36079C8.31203 4.40492 8.78604 3.92698 9.27916 3.63994C10.6174 2.86096 12.2661 2.86096 13.6043 3.63992C14.0974 3.92698 14.5714 4.40492 15.5194 5.36079C16.4675 6.31666 16.9415 6.79459 17.2263 7.29177C17.9989 8.641 17.9989 10.3033 17.2263 11.6526C17.0684 11.9282 16.8524 12.1979 16.5296 12.5464M12.4704 8.45363C12.1476 8.80206 11.9316 9.07184 11.7738 9.34745C11.0012 10.6967 11.0012 12.359 11.7738 13.7082C12.0585 14.2055 12.5325 14.6834 13.4806 15.6392C14.4287 16.5951 14.9027 17.073 15.3958 17.3601C16.7339 18.1391 18.3827 18.1391 19.7209 17.3601C20.2141 17.073 20.6881 16.5951 21.6362 15.6392L25.7139 11.5278C26.6619 10.572 27.136 10.094 27.4205 9.59688C28.1932 8.24766 28.1932 6.58531 27.4205 5.23609C27.136 4.7389 26.6619 4.26096 25.7139 3.30509C24.7658 2.34922 24.2918 1.87129 23.7987 1.58424C22.4604 0.805255 20.8118 0.805255 19.4736 1.58424C19.2001 1.74338 18.9327 1.96117 18.587 2.28654" stroke="#6C9EC2" stroke-width="2" stroke-linecap="round"/>
</svg>
