<svg width="77" height="21" viewBox="0 0 77 21" fill="none" xmlns="http://www.w3.org/2000/svg">
<path d="M58.9312 20.4096H54.8062L60.5379 0.5H64.6628L58.9312 20.4096ZM56.7888 1.12359C56.5069 0.744012 56.0653 0.554225 55.464 0.554225H32.8004L31.6822 4.45843H52.2974L51.0947 8.62472H34.6044V8.61568H30.4795L27.0593 20.5H31.1842L33.4769 12.5289H52.0156C52.5981 12.5289 53.1431 12.3391 53.6505 11.9596C54.1579 11.58 54.4962 11.11 54.6559 10.5497L56.9486 2.57863C57.1271 1.98215 57.0707 1.50316 56.7888 1.12359ZM24.6539 19.1624C24.4284 19.9487 23.6767 20.5 22.831 20.5H1.56743C0.984865 20.5 0.552641 20.3102 0.270755 19.9306C-0.0111307 19.5511 -0.0769042 19.0811 0.0922272 18.5208L5.27892 0.554225H9.40385L4.77153 16.6048H21.2712L25.9036 0.554225H30.0285L24.6539 19.1624Z" fill="#70706E"/>
<path d="M71.7817 0.535156L76.9966 10.5126L66.0312 20.49L71.7817 0.535156Z" fill="#098041"/>
<path d="M68.1192 0.535156L73.3341 10.5126L62.3594 20.49L68.1192 0.535156Z" fill="#E97626"/>
</svg>
