<svg width="52.7700226047644" height="57.14080000000002" viewBox="42.898939314901746 31.637599999999992 52.7700226047644 57.14080000000002" fill="none" xmlns="http://www.w3.org/2000/svg">
<g filter="url(#filter0_d_3068_14263)">
<rect x="44" y="33" width="50" height="54" rx="10" fill="white"></rect>
<path d="M76.6785 62.386C76.6161 62.356 74.2833 61.2073 73.8687 61.0581C73.6995 60.9973 73.5182 60.938 73.3253 60.938C73.0103 60.938 72.7457 61.0949 72.5396 61.4033C72.3065 61.7497 71.6011 62.5743 71.3831 62.8207C71.3546 62.8532 71.3158 62.892 71.2925 62.892C71.2716 62.892 70.9106 62.7434 70.8013 62.6959C68.2987 61.6088 66.3992 58.9947 66.1387 58.5539C66.1015 58.4905 66.1 58.4617 66.0997 58.4617C66.1088 58.4281 66.193 58.3438 66.2364 58.3002C66.3635 58.1745 66.5011 58.0088 66.6343 57.8485C66.6974 57.7726 66.7606 57.6965 66.8226 57.6248C67.0158 57.4 67.1019 57.2254 67.2016 57.0233L67.2539 56.9182C67.4974 56.4344 67.2894 56.0261 67.2222 55.8942C67.167 55.7839 66.182 53.4065 66.0772 53.1568C65.8254 52.5541 65.4926 52.2734 65.0302 52.2734C64.9873 52.2734 65.0302 52.2734 64.8502 52.281C64.6311 52.2903 63.4379 52.4474 62.9103 52.7799C62.3508 53.1327 61.4043 54.257 61.4043 56.2344C61.4043 58.014 62.5336 59.6943 63.0185 60.3334C63.0306 60.3495 63.0527 60.3822 63.0848 60.4292C64.9418 63.1411 67.2567 65.1508 69.6034 66.0883C71.8626 66.9907 72.9324 67.095 73.5406 67.095H73.5407C73.7963 67.095 74.0009 67.075 74.1813 67.0572L74.2958 67.0463C75.0763 66.9771 76.7914 66.0884 77.1815 65.0042C77.4889 64.1503 77.5699 63.2173 77.3654 62.8787C77.2254 62.6485 76.984 62.5327 76.6785 62.386Z" fill="#48A75F"></path>
<path d="M69.284 44C60.6174 44 53.5666 50.9978 53.5666 59.5993C53.5666 62.3813 54.3111 65.1045 55.7215 67.4879L53.022 75.451C52.9717 75.5995 53.0091 75.7636 53.1189 75.8754C53.1982 75.9564 53.3057 76 53.4156 76C53.4576 76 53.5 75.9937 53.5414 75.9805L61.8448 73.3419C64.117 74.5559 66.6851 75.1968 69.2841 75.1968C77.9499 75.1969 85 68.1998 85 59.5993C85 50.9978 77.9499 44 69.284 44ZM69.284 71.9474C66.8384 71.9474 64.4697 71.2412 62.4335 69.9051C62.3651 69.8602 62.2856 69.8371 62.2056 69.8371C62.1633 69.8371 62.1209 69.8435 62.0797 69.8566L57.9202 71.1788L59.2629 67.2174C59.3064 67.0891 59.2847 66.9477 59.2047 66.8384C57.6541 64.7198 56.8345 62.2166 56.8345 59.5993C56.8345 52.7896 62.4193 47.2495 69.2839 47.2495C76.1477 47.2495 81.7319 52.7896 81.7319 59.5993C81.732 66.4081 76.1479 71.9474 69.284 71.9474Z" fill="#48A75F"></path>
</g>
<defs>
<filter id="filter0_d_3068_14263" x="0" y="0" width="138" height="142" filterUnits="userSpaceOnUse" color-interpolation-filters="sRGB">
<feFlood flood-opacity="0" result="BackgroundImageFix"></feFlood>
<feColorMatrix in="SourceAlpha" type="matrix" values="0 0 0 0 0 0 0 0 0 0 0 0 0 0 0 0 0 0 127 0" result="hardAlpha"></feColorMatrix>
<feMorphology radius="4" operator="dilate" in="SourceAlpha" result="effect1_dropShadow_3068_14263"></feMorphology>
<feOffset dy="11"></feOffset>
<feGaussianBlur stdDeviation="20"></feGaussianBlur>
<feComposite in2="hardAlpha" operator="out"></feComposite>
<feColorMatrix type="matrix" values="0 0 0 0 0.317787 0 0 0 0 0.268921 0 0 0 0 0.2155 0 0 0 0.05 0"></feColorMatrix>
<feBlend mode="normal" in2="BackgroundImageFix" result="effect1_dropShadow_3068_14263"></feBlend>
<feBlend mode="normal" in="SourceGraphic" in2="effect1_dropShadow_3068_14263" result="shape"></feBlend>
</filter>
</defs>
</svg>